<?xml version="1.0" encoding="utf-8"?>
<!-- Generator: Adobe Illustrator 23.0.1, SVG Export Plug-In . SVG Version: 6.00 Build 0)  -->
<svg version="1.1" id="圖層_1" xmlns="http://www.w3.org/2000/svg" xmlns:xlink="http://www.w3.org/1999/xlink" x="0px" y="0px"
	 viewBox="0 0 24 30" style="enable-background:new 0 0 24 30;" xml:space="preserve">
<style type="text/css">
	.st0{fill:#FFFFFF;}
</style>
<g>
	<path class="st0" d="M23.5,7.7c-1.4-1.5-2.8-2.9-4.2-4.4l-2.6-2.7c-0.1-0.1-0.2-0.2-0.4-0.4L16.1,0H3.5L3.2,0.1
		C1.2,0.7,0,2.3,0,4.3l0,21.3C0,28.1,1.9,30,4.4,30c2.1,0,4.3,0,6.4,0c3,0,5.9,0,8.9,0c0.4,0,0.7,0,1-0.1c2-0.5,3.4-2.2,3.4-4.3
		l0-6.4c0-3.4,0-6.8,0-10.2C24,8.4,23.8,8,23.5,7.7z M18.2,7.5c-0.9,0-1.4-0.5-1.4-1.4c0-0.7,0-1.3,0-2V3.9l3.4,3.6L18.2,7.5z
		 M8.6,2.2c1.2,0,2.5,0,3.7,0l2.2,0v3.9c0,2.2,1.5,3.7,3.7,3.7h3.5v15.8c0,1.3-0.8,2.2-2.2,2.2c-5,0-10.1,0-15.1,0
		c-1.3,0-2.2-0.8-2.2-2.2c0-7.1,0-14.1,0-21.2c0-1.3,0.8-2.1,2.1-2.1C5.8,2.2,7.2,2.2,8.6,2.2z"/>
	<path class="st0" d="M11.1,20.9c0.3,0.3,0.6,0.5,0.9,0.5h0c0.3,0,0.6-0.1,0.9-0.4c1.3-1.4,2.7-2.9,4-4.3c0.1-0.1,0.2-0.3,0.3-0.5
		c0.2-0.5-0.1-1.1-0.5-1.3c-0.5-0.3-1-0.2-1.4,0.2c-0.4,0.4-0.8,0.8-1.1,1.2l-1.1,1.1l0-5c0-0.6,0-1.1,0-1.7c0-0.5-0.4-1-0.9-1.1
		c-0.5-0.1-1.1,0.2-1.3,0.7c-0.1,0.2-0.1,0.5-0.1,0.7l0,6.4l-0.3-0.3c-0.6-0.6-1.2-1.3-1.8-1.9c-0.5-0.5-1.2-0.6-1.6-0.1
		c-0.2,0.2-0.4,0.5-0.4,0.8c0,0.3,0.1,0.6,0.4,0.9C8.4,18.1,9.7,19.5,11.1,20.9z"/>
	<path class="st0" d="M5.7,25c0.2,0.1,0.4,0.1,0.7,0.1c2.2,0,4.4,0,6.6,0c1.5,0,3.1,0,4.6,0c0.2,0,0.3,0,0.5-0.1
		c0.4-0.1,0.7-0.4,0.8-0.8c0.1-0.4-0.1-0.9-0.4-1.1c-0.2-0.2-0.5-0.2-0.8-0.3c-1.4,0-2.9,0-4.3,0H6.2c-0.6,0-1,0.4-1.2,0.9
		C5,24.3,5.2,24.8,5.7,25z"/>
</g>
</svg>
