<?xml version="1.0" encoding="utf-8"?>
<!-- Generator: Adobe Illustrator 23.0.1, SVG Export Plug-In . SVG Version: 6.00 Build 0)  -->
<svg version="1.1" id="圖層_1" xmlns="http://www.w3.org/2000/svg" xmlns:xlink="http://www.w3.org/1999/xlink" x="0px" y="0px"
	 viewBox="0 0 960.6 281.4" style="enable-background:new 0 0 960.6 281.4;" xml:space="preserve">
<style type="text/css">
	.st0{fill:url(#SVGID_1_);}
	.st1{fill:url(#SVGID_2_);}
	.st2{fill:#25C7E9;}
	.st3{fill:url(#SVGID_3_);}
	.st4{fill:url(#SVGID_4_);}
	.st5{fill:#C9C9C9;}
	.st6{fill:#FFFFFF;}
	.st7{fill:#00D2EE;}
</style>
<g id="BGMountain">
	<g>
		
			<linearGradient id="SVGID_1_" gradientUnits="userSpaceOnUse" x1="303.15" y1="103.1481" x2="303.15" y2="293.8836" gradientTransform="matrix(1 0 0 -1 0 284)">
			<stop  offset="0" style="stop-color:#00D2EE"/>
			<stop  offset="0.2603" style="stop-color:#00CEEC"/>
			<stop  offset="0.4914" style="stop-color:#00C4E5"/>
			<stop  offset="0.7113" style="stop-color:#00B2DB"/>
			<stop  offset="0.9232" style="stop-color:#0098CC"/>
			<stop  offset="1" style="stop-color:#008DC5"/>
		</linearGradient>
		<path class="st0" d="M924.4,280.6l-0.1-66.6V71.8c-14.2-16.5-32-29.5-51-40c-45.5-25.3-99.1-37-150.7-29.5S621.9,37.1,591,79
			c-8.3,11.2-15.2,23.3-22.2,35.4c-0.1-0.1-7.4-9.9-8-10.8c-31.1-39.5-87.3-62.1-136.9-60.2c-18.9,0.7-38.4,4.5-55.4,13.1
			C351,65.2,335.9,77.7,320,88.8c-24.4,17.1-51,32.8-80,40.3c-29.2,7.5-60.1,7.9-89.7,2.8c-53-9.1-112.1-42.7-148.8-60.4
			s-171.9-54.9-252.4,26.7c-56,56.8-66.2,138.1-67.2,182.3H924.4V280.6z"/>
		
			<linearGradient id="SVGID_2_" gradientUnits="userSpaceOnUse" x1="309.7385" y1="139.3062" x2="427.8538" y2="213.2212" gradientTransform="matrix(1 0 0 -1 0 284)">
			<stop  offset="0.275" style="stop-color:#0099CF"/>
			<stop  offset="0.6114" style="stop-color:#0A9ACE"/>
			<stop  offset="1" style="stop-color:#0E9BCD"/>
		</linearGradient>
		<path class="st1" d="M421.6,43.6c0,0-85,0.2-132.5,70.8c-0.4-0.1,0,101.9,0,101.9S307.7,65.6,421.6,43.6z"/>
		<path class="st2" d="M436.4,43.6c0,0,85,0.2,132.5,70.8c0.4-0.1,0,101.9,0,101.9S550.3,65.6,436.4,43.6z"/>
		<g>
			
				<linearGradient id="SVGID_3_" gradientUnits="userSpaceOnUse" x1="568.8" y1="180.75" x2="719.2" y2="180.75" gradientTransform="matrix(1 0 0 -1 0 284)">
				<stop  offset="0.275" style="stop-color:#0099CF"/>
				<stop  offset="0.6114" style="stop-color:#0A9ACE"/>
				<stop  offset="1" style="stop-color:#0E9BCD"/>
			</linearGradient>
			<path class="st3" d="M568.8,114.4l39.9,88.7c-1.7-70.8,11-146.2,110.5-199.7C719.2,3.4,622.6,8.5,568.8,114.4z"/>
		</g>
		<g>
			
				<linearGradient id="SVGID_4_" gradientUnits="userSpaceOnUse" x1="877.1769" y1="178.963" x2="789.363" y2="259.6808" gradientTransform="matrix(1 0 0 -1 0 284)">
				<stop  offset="0" style="stop-color:#00D5F1"/>
				<stop  offset="0.2479" style="stop-color:#00D0EE;stop-opacity:0.7521"/>
				<stop  offset="0.5358" style="stop-color:#00C2E7;stop-opacity:0.4642"/>
				<stop  offset="0.8425" style="stop-color:#00ABDA;stop-opacity:0.1575"/>
				<stop  offset="1" style="stop-color:#009CD2;stop-opacity:0"/>
			</linearGradient>
			<path class="st4" d="M960.6,120.8l-64.9,80.1C897.4,130,891.5,56.6,792,3.1C792,3.1,910.6,18.8,960.6,120.8z"/>
		</g>
	</g>
	<g>
		<rect x="404.7" y="41.8" class="st5" width="3.2" height="14.1"/>
		<rect x="389.1" y="48.9" class="st5" width="2.5" height="0.7"/>
		<g>
			<polygon class="st5" points="389.1,49.6 399.9,32.2 429.5,32.2 419.2,49.6 			"/>
			<g>
				<polygon class="st6" points="389.1,48.9 399.8,31.5 429.1,31.5 418.8,48.9 				"/>
			</g>
			<polygon class="st7" points="396.8,39.8 400.7,33.2 408.2,33.2 404.5,39.8 			"/>
			<polygon class="st7" points="405.4,39.8 409.3,33.3 416.7,33.3 413,39.8 			"/>
			<polygon class="st7" points="414.1,39.8 417.9,33.3 425.3,33.4 421.8,39.9 			"/>
			<polygon class="st7" points="392.3,47.2 396.5,40.6 403.8,40.6 400,47.2 			"/>
			<polygon class="st7" points="401,47.2 404.8,40.6 412.4,40.7 408.6,47.2 			"/>
			<polygon class="st7" points="409.7,47.2 413.4,40.7 421.3,40.7 417.6,47.2 			"/>
			<polygon class="st5" points="418.8,48.9 419.2,49.6 429.5,32.2 429.1,31.5 			"/>
		</g>
	</g>
	<g>
		<rect x="436.3" y="41.8" class="st5" width="3.2" height="14.1"/>
		<rect x="420.6" y="48.9" class="st5" width="2.5" height="0.7"/>
		<g>
			<polygon class="st5" points="420.6,49.6 431.5,32.2 461,32.2 450.7,49.6 			"/>
			<g>
				<polygon class="st6" points="420.6,48.9 431.4,31.5 460.6,31.5 450.4,48.9 				"/>
			</g>
			<polygon class="st7" points="428.4,39.8 432.3,33.2 439.8,33.2 436,39.8 			"/>
			<polygon class="st7" points="437,39.8 440.8,33.3 448.3,33.3 444.6,39.8 			"/>
			<polygon class="st7" points="445.6,39.8 449.4,33.3 456.9,33.4 453.3,39.9 			"/>
			<polygon class="st7" points="423.9,47.2 428,40.6 435.4,40.6 431.6,47.2 			"/>
			<polygon class="st7" points="432.6,47.2 436.3,40.6 444,40.7 440.2,47.2 			"/>
			<polygon class="st7" points="441.3,47.2 445,40.7 452.8,40.7 449.2,47.2 			"/>
			<polygon class="st5" points="450.4,48.9 450.7,49.6 461,32.2 460.6,31.5 			"/>
		</g>
	</g>
	<g>
		<rect x="403" y="66.2" class="st5" width="3.2" height="14.1"/>
		<rect x="387.4" y="73.3" class="st5" width="2.5" height="0.7"/>
		<g>
			<polygon class="st5" points="387.4,74 398.2,56.6 427.8,56.6 417.5,74 			"/>
			<g>
				<polygon class="st6" points="387.4,73.3 398.1,55.9 427.4,55.9 417.1,73.3 				"/>
			</g>
			<polygon class="st7" points="395.1,64.2 399,57.7 406.5,57.7 402.8,64.2 			"/>
			<polygon class="st7" points="403.7,64.2 407.6,57.8 415,57.8 411.3,64.3 			"/>
			<polygon class="st7" points="412.4,64.3 416.2,57.8 423.6,57.8 420.1,64.3 			"/>
			<polygon class="st7" points="390.6,71.6 394.8,65.1 402.1,65.1 398.3,71.6 			"/>
			<polygon class="st7" points="399.3,71.6 403.1,65.1 410.7,65.1 406.9,71.6 			"/>
			<polygon class="st7" points="408,71.6 411.7,65.2 419.6,65.2 415.9,71.6 			"/>
			<polygon class="st5" points="417.1,73.3 417.5,74 427.8,56.6 427.4,55.9 			"/>
		</g>
	</g>
	<g>
		<rect x="436.4" y="66.2" class="st5" width="3.2" height="14.1"/>
		<rect x="420.8" y="73.3" class="st5" width="2.5" height="0.7"/>
		<g>
			<polygon class="st5" points="420.8,74 431.6,56.6 461.2,56.6 450.9,74 			"/>
			<g>
				<polygon class="st6" points="420.8,73.3 431.5,55.9 460.8,55.9 450.6,73.3 				"/>
			</g>
			<polygon class="st7" points="428.5,64.2 432.4,57.7 440,57.7 436.2,64.2 			"/>
			<polygon class="st7" points="437.2,64.2 441,57.8 448.4,57.8 444.7,64.3 			"/>
			<polygon class="st7" points="445.8,64.3 449.6,57.8 457,57.8 453.5,64.3 			"/>
			<polygon class="st7" points="424.1,71.6 428.2,65.1 435.5,65.1 431.7,71.6 			"/>
			<polygon class="st7" points="432.7,71.6 436.5,65.1 444.1,65.1 440.4,71.6 			"/>
			<polygon class="st7" points="441.4,71.6 445.1,65.2 453,65.2 449.3,71.6 			"/>
			<polygon class="st5" points="450.6,73.3 450.9,74 461.2,56.6 460.8,55.9 			"/>
		</g>
	</g>
</g>
</svg>
