<?xml version="1.0" encoding="utf-8"?>
<!-- Generator: Adobe Illustrator 23.0.1, SVG Export Plug-In . SVG Version: 6.00 Build 0)  -->
<svg version="1.1" id="圖層_1" xmlns="http://www.w3.org/2000/svg" xmlns:xlink="http://www.w3.org/1999/xlink" x="0px" y="0px"
	 viewBox="0 0 1280 253.9" style="enable-background:new 0 0 1280 253.9;" xml:space="preserve">
<style type="text/css">
	.st0{fill:url(#SVGID_1_);}
	.st1{fill:url(#SVGID_2_);}
	.st2{fill:url(#SVGID_3_);}
	.st3{fill:url(#SVGID_4_);}
	.st4{fill:url(#SVGID_5_);}
	.st5{fill:url(#SVGID_6_);}
	.st6{fill:url(#SVGID_7_);}
	.st7{fill:url(#SVGID_8_);}
	.st8{fill:url(#SVGID_9_);}
	.st9{fill:url(#SVGID_10_);}
</style>
<g id="BGMountainS">
	<g>
		<g>
			
				<linearGradient id="SVGID_1_" gradientUnits="userSpaceOnUse" x1="1289.05" y1="160.7784" x2="1289.05" y2="8.6595" gradientTransform="matrix(1 0 0 -1 0 256)">
				<stop  offset="2.869760e-02" style="stop-color:#30D8A0"/>
				<stop  offset="0.2627" style="stop-color:#2CD3A0"/>
				<stop  offset="0.5342" style="stop-color:#21C59E"/>
				<stop  offset="0.8232" style="stop-color:#0EAE9C"/>
				<stop  offset="1" style="stop-color:#009C9A"/>
			</linearGradient>
			<path class="st0" d="M1572.8,238.2c-8-44-33.8-83.6-69.7-110c-53-39-122.2-45.8-179.3-12.2c-10.4,6.1-20.2,13-29.5,20.4
				c-28-20.9-63.6-30.4-98.6-32.8c-29.3-2-59.2,0.6-86.9,10.2c-27.8,9.6-53.3,26.5-71.1,49.9c-18.5,24.3-27.7,54.4-33.3,84.5
				l-1.7,6.1h7c0,0,0,0,0,0.1h30.2h535.5C1574.5,249,1573.7,243.6,1572.8,238.2z"/>
		</g>
		<g>
			
				<linearGradient id="SVGID_2_" gradientUnits="userSpaceOnUse" x1="1458.9" y1="76.6" x2="1575.1" y2="76.6" gradientTransform="matrix(1 0 0 -1 0 256)">
				<stop  offset="7.488659e-03" style="stop-color:#24EDD8"/>
				<stop  offset="1" style="stop-color:#05DFBA"/>
			</linearGradient>
			<path class="st1" d="M1575.1,254.3c0-61.6-47.3-107.9-72.1-126.1c-13.8-10.1-28.6-18.1-44.1-23.7c17.2,10.6,33.7,22.5,47.5,37.2
				c28.9,30.6,44.8,71.3,53.3,112.6h0.7L1575.1,254.3z"/>
		</g>
		
			<linearGradient id="SVGID_3_" gradientUnits="userSpaceOnUse" x1="910.35" y1="223.277" x2="910.35" y2="-4.5365" gradientTransform="matrix(1 0 0 -1 0 256)">
			<stop  offset="2.869760e-02" style="stop-color:#30D8A0"/>
			<stop  offset="0.2701" style="stop-color:#2CD4A0"/>
			<stop  offset="0.5305" style="stop-color:#22C79E"/>
			<stop  offset="0.7987" style="stop-color:#11B19C"/>
			<stop  offset="1" style="stop-color:#009C9A"/>
		</linearGradient>
		<path class="st2" d="M1075.4,7.1c-29-6.2-59-8.9-88.5-6C943.9,5.4,903,21.4,867.5,44c-32.7,20.8-60.9,46.9-86,75.4L781,119
			c-66-49.1-160.2-58.5-235.7-27.2c-58.9,24.4-102.5,79.5-114.4,141.9c-0.5,2.6-2.5,10.2-5.4,20.7h42.4h780.4l146.9-2.3L1248.3,97.7
			C1201.8,52.9,1140.9,21,1075.4,7.1z"/>
		<g>
			
				<linearGradient id="SVGID_4_" gradientUnits="userSpaceOnUse" x1="169.35" y1="160.7784" x2="169.35" y2="8.6595" gradientTransform="matrix(1 0 0 -1 0 256)">
				<stop  offset="2.869760e-02" style="stop-color:#30D8A0"/>
				<stop  offset="0.2627" style="stop-color:#2CD3A0"/>
				<stop  offset="0.5342" style="stop-color:#21C59E"/>
				<stop  offset="0.8232" style="stop-color:#0EAE9C"/>
				<stop  offset="1" style="stop-color:#009C9A"/>
			</linearGradient>
			<path class="st3" d="M453.1,238.2c-8-44-33.8-83.6-69.7-110c-53-39-122.2-45.8-179.3-12.2c-10.4,6.1-20.2,13-29.5,20.4
				c-28-20.9-63.6-30.4-98.6-32.8c-29.3-2-59.2,0.6-86.9,10.2c-27.8,9.6-53.3,26.5-71.1,49.9c-18.5,24.3-27.7,54.4-33.3,84.5
				l-1.7,6.1h7c0,0,0,0,0,0.1h30.2h535.5C454.9,249,454.1,243.6,453.1,238.2z"/>
		</g>
		<g>
			
				<linearGradient id="SVGID_5_" gradientUnits="userSpaceOnUse" x1="567.646" y1="154.2114" x2="487.5086" y2="84.4623" gradientTransform="matrix(1 0 0 -1 0 256)">
				<stop  offset="0" style="stop-color:#30B4BA;stop-opacity:0"/>
				<stop  offset="0.1464" style="stop-color:#25B0AD;stop-opacity:0.1464"/>
				<stop  offset="0.4228" style="stop-color:#16AB99;stop-opacity:0.4228"/>
				<stop  offset="0.7052" style="stop-color:#0DA88E;stop-opacity:0.7052"/>
				<stop  offset="1" style="stop-color:#0AA78A"/>
			</linearGradient>
			<path class="st4" d="M530.3,110.5c15.5-12.2,32.6-22.9,50.9-30.3c-12.4,2.9-24.6,6.6-36.2,11.5c-46.9,19.9-84.1,58.1-104.1,107.7
				v-3v57.8l0,0c4-24.1,12.4-47.4,24.3-68.8C481.5,156.5,504.1,131.2,530.3,110.5z"/>
		</g>
		<g>
			
				<linearGradient id="SVGID_6_" gradientUnits="userSpaceOnUse" x1="12.3876" y1="146.8828" x2="-66.6411" y2="78.0987" gradientTransform="matrix(1 0 0 -1 0 256)">
				<stop  offset="0" style="stop-color:#30B4BA;stop-opacity:0"/>
				<stop  offset="0.1464" style="stop-color:#25B0AD;stop-opacity:0.1464"/>
				<stop  offset="0.4228" style="stop-color:#16AB99;stop-opacity:0.4228"/>
				<stop  offset="0.7052" style="stop-color:#0DA88E;stop-opacity:0.7052"/>
				<stop  offset="1" style="stop-color:#0AA78A"/>
			</linearGradient>
			<path class="st5" d="M-29.3,133.8c16.6-10.7,50.4-22.8,68.8-30.2c-15.4,0-38.7,5.6-50.5,10.2c-36.7,14.3-61.5,28.2-83.2,69.1
				s-22.9,71.4-22.9,71.4C-109.9,234.1-84.1,169.1-29.3,133.8z"/>
		</g>
		<g>
			
				<linearGradient id="SVGID_7_" gradientUnits="userSpaceOnUse" x1="339.3" y1="76.5" x2="440.8" y2="76.5" gradientTransform="matrix(1 0 0 -1 0 256)">
				<stop  offset="7.488659e-03" style="stop-color:#24EDD8"/>
				<stop  offset="1" style="stop-color:#05DFBA"/>
			</linearGradient>
			<path class="st6" d="M440.8,198.9c-12.6-27.9-32.6-52.4-57.4-70.6c-13.8-10.1-28.6-18.1-44.1-23.7c17.2,10.6,33.7,22.5,47.5,37.2
				c28.9,30.6,44.8,71.3,53.3,112.6h0.7V198.9z"/>
		</g>
		
			<linearGradient id="SVGID_8_" gradientUnits="userSpaceOnUse" x1="640.5" y1="92.8683" x2="782.1425" y2="92.8683" gradientTransform="matrix(1 0 0 -1 0 256)">
			<stop  offset="7.488659e-03" style="stop-color:#24EDD8"/>
			<stop  offset="1" style="stop-color:#05DFBA"/>
		</linearGradient>
		<path class="st7" d="M782,119.7c0,0-47.2-44.2-141.5-45.4C641.6,73.2,763.6,96,780.3,252C779.2,252.1,782.9,120.6,782,119.7z"/>
		
			<linearGradient id="SVGID_9_" gradientUnits="userSpaceOnUse" x1="989.0103" y1="210.7213" x2="846.6691" y2="132.4753" gradientTransform="matrix(1 0 0 -1 0 256)">
			<stop  offset="0" style="stop-color:#30B4BA;stop-opacity:0"/>
			<stop  offset="0.1464" style="stop-color:#25B0AD;stop-opacity:0.1464"/>
			<stop  offset="0.4228" style="stop-color:#16AB99;stop-opacity:0.4228"/>
			<stop  offset="0.7052" style="stop-color:#0DA88E;stop-opacity:0.7052"/>
			<stop  offset="1" style="stop-color:#0AA78A"/>
		</linearGradient>
		<path class="st8" d="M997.2,0.4c0,0-108.2-4.9-215.7,118.7c0.2,1.5,0,109.2,0,109.2S862.3,33.5,997.2,0.4z"/>
		
			<linearGradient id="SVGID_10_" gradientUnits="userSpaceOnUse" x1="1030.8" y1="127.5545" x2="1401.2001" y2="127.5545" gradientTransform="matrix(1 0 0 -1 0 256)">
			<stop  offset="7.488659e-03" style="stop-color:#24EDD8"/>
			<stop  offset="1" style="stop-color:#05DFBA"/>
		</linearGradient>
		<path class="st9" d="M1030.8,0.4c0,0,211.7,4.9,370.4,255.7c-0.2,1.5-138.5-1.8-138.5-1.8S1165.7,33.5,1030.8,0.4z"/>
	</g>
</g>
</svg>
