<?xml version="1.0" encoding="utf-8"?>
<!-- Generator: Adobe Illustrator 23.0.1, SVG Export Plug-In . SVG Version: 6.00 Build 0)  -->
<svg version="1.1" id="FrontLeft" xmlns="http://www.w3.org/2000/svg" xmlns:xlink="http://www.w3.org/1999/xlink" x="0px" y="0px"
	 viewBox="0 0 351.4 116.1" style="enable-background:new 0 0 351.4 116.1;" xml:space="preserve">
<style type="text/css">
	.st0{fill:url(#SVGID_1_);}
	.st1{fill:url(#SVGID_2_);}
	.st2{fill:#008EC6;}
	.st3{fill:url(#SVGID_3_);}
	.st4{fill:url(#SVGID_4_);}
</style>
<g>
	
		<linearGradient id="SVGID_1_" gradientUnits="userSpaceOnUse" x1="81.2466" y1="111.4119" x2="101.3038" y2="19.4826" gradientTransform="matrix(1 0 0 -1 0 118)">
		<stop  offset="2.946690e-02" style="stop-color:#68E3BA"/>
		<stop  offset="0.2953" style="stop-color:#30D9A1"/>
		<stop  offset="0.4646" style="stop-color:#2CD4A1"/>
		<stop  offset="0.6625" style="stop-color:#21C69F"/>
		<stop  offset="0.874" style="stop-color:#0EAF9D"/>
		<stop  offset="1" style="stop-color:#009D9B"/>
	</linearGradient>
	<path class="st0" d="M198.5,116l-2.8-84.5C185,32.9,174,31.1,163.9,26c-11.8-6-21.3-16-33.3-21.6C119.5-0.8,106-1.8,95,3.6
		C84.5,8.8,77.5,18.9,70.7,28.5C63.9,38,56.1,47.9,45.1,51.8c-5.5,2-11.5,2.3-17.3,2c-6.5-0.3-13.1-1.5-18.9-4.4
		c-5.8-3-10.8-7.9-12.8-14.1V116H198.5z"/>
	<g>
		
			<linearGradient id="SVGID_2_" gradientUnits="userSpaceOnUse" x1="95.3" y1="92.757" x2="196.2" y2="92.757" gradientTransform="matrix(1 0 0 -1 0 118)">
			<stop  offset="7.488659e-03" style="stop-color:#24EDD8"/>
			<stop  offset="1" style="stop-color:#05DFCA"/>
		</linearGradient>
		<path class="st1" d="M195.7,31.4C185,32.9,174,31.1,163.9,26c-11.8-6-21.3-16-33.3-21.6c-11-5.2-24.3-6.2-35.3-1
			c5.6-0.7,11.3-0.7,16.6,1c5.6,1.8,10.6,5.2,15.1,9c12,9.8,22.4,21.7,36,29.1c10.1,5.5,21.7,8.3,33.2,8L195.7,31.4z"/>
	</g>
</g>
<g>
	<path class="st2" d="M351.3,116c0.5-5.5-0.8-11.5-3.4-16.5c-5.6-10.9-16-19.1-27.9-22c-7.7-1.9-15.9-1.6-23.7-2.9
		c-7.9-1.2-16.1-4.5-20.3-11.3c-4.5-7.3-3.2-16.7-5.1-25.1c-3.4-15.1-17.9-26.5-33.4-28c-15.4-1.5-31,6-41,17.8
		c-6.5,7.7-11,17.1-18.2,24.1c-8.7,8.5-21.2,13-33.3,11.9c-9.4-0.8-18.1-4.7-27.2-7.3S98.6,53,90.3,57.3C82,61.7,77.1,70.6,74,79.5
		c-3.2,8.9-5.2,18.3-10.4,26.2c-2.8,4.3-6.8,8.1-11.4,10.3H351.3z"/>
	<g>
		
			<linearGradient id="SVGID_3_" gradientUnits="userSpaceOnUse" x1="341.0934" y1="-0.8461" x2="234.6782" y2="104.4548" gradientTransform="matrix(1 0 0 -1 0 118)">
			<stop  offset="4.248977e-02" style="stop-color:#00A7EB"/>
			<stop  offset="1" style="stop-color:#00A7EB;stop-opacity:0"/>
		</linearGradient>
		<path class="st3" d="M348,99.5c-5.6-10.9-16-19.1-27.9-22c-7.7-1.9-15.9-1.6-23.7-2.9c-7.9-1.2-16.1-4.5-20.3-11.3
			c-4.5-7.3-3.2-16.7-5.1-25.1c-3.4-15.1-17.9-26.5-33.4-28c-2.8-0.3-5.6-0.2-8.4,0.1c1,0.3,2.1,0.7,3,1.2c4,1.8,7.7,4.2,11.1,6.9
			c3.1,2.5,5.9,5.4,8.2,8.7c3,4.3,5.2,9.1,6.9,14s2.8,9.9,3.7,14.9c1.7,8.5,3,18.4,10.5,23.9c8.6,6.3,18.8,5.6,28.5,8.4
			c9.5,2.7,18.1,9.3,23.3,17.6c1.9,3.1,3.4,6.5,4.5,10h22.4C351.8,110.4,350.5,104.4,348,99.5z"/>
	</g>
	<g>
		
			<linearGradient id="SVGID_4_" gradientUnits="userSpaceOnUse" x1="51.9" y1="32.5149" x2="158.6" y2="32.5149" gradientTransform="matrix(1 0 0 -1 0 118)">
			<stop  offset="0.275" style="stop-color:#006DB8"/>
			<stop  offset="0.4654" style="stop-color:#007ABD"/>
			<stop  offset="0.7376" style="stop-color:#0087C2"/>
			<stop  offset="1" style="stop-color:#008BC4"/>
		</linearGradient>
		<path class="st4" d="M55.7,116h33.9c5.2-12.5,2.1-28.5,10-39.7c4.5-6.4,12.5-10.2,20.3-9.8c4.8,0.3,9.4,2.1,14.2,3
			c5.4,1.1,11.2,1,16.4-1c3.1-1.2,5.9-3,8.1-5.4c-4.5,1.1-9.1,1.5-13.7,1.1c-9.4-0.8-18.1-4.7-27.2-7.3c-9-2.6-19.2-3.8-27.5,0.6
			C82,61.7,77.1,70.6,74,79.5c-3.2,8.9-5.2,18.3-10.4,26.2c-2.3,3.6-8,8.4-11.7,10.7L55.7,116z"/>
	</g>
</g>
</svg>
