<svg width="179" height="46" viewBox="0 0 179 46" fill="none" xmlns="http://www.w3.org/2000/svg">
<g clip-path="url(#clip0_242_1218)">
<path d="M35.2999 23.7C35.0999 23.6 34.9999 23.5 34.7999 23.5C34.5999 23.5 34.5 23.6 34.4 23.7C34.2 23.9 34.2999 24.4 34.5999 24.6L40.7999 30.3L40.5999 34.9C41.1999 34.6 41.7 34.3 42.2 33.9C42.4 34.1 42.6999 34.3 42.9999 34.5C43.1999 34.7 43.5 34.8 43.7 34.9L43.2999 26.2L48.4999 21.5C48.7999 21.3 48.7999 20.9 48.5999 20.7C48.4999 20.6 48.4 20.5 48.2 20.5C48.0999 20.5 47.8999 20.6 47.7999 20.7L43.2 24.2L42.9999 18C42.9999 17.6 42.5999 17.2 42.2 17.2C41.8 17.2 41.4 17.5 41.4 18L41.2999 21.3L38.4999 19.2L38.2 19.1C38.1 19.1 37.9 19.2 37.9 19.3C37.8 19.5 37.8 19.7 37.9 19.9L41.2 23L40.9999 28L35.2999 23.7Z" fill="white"/>
<path d="M48.7 20.6C48.5 20.4 48.2 20.4 47.9 20.6L43.3 24.1L43 18C43 17.6 42.6 17.2 42.2 17.2C41.8 17.2 41.4 17.5 41.4 18L41.3 21.3L38.5 19.2C38.3 19.1 38 19.1 37.9 19.3C37.8 19.5 37.8 19.7 37.9 19.9L41.2 23L41 28L35.4 23.8C35.1 23.6 34.7 23.6 34.5 23.8C34.3 24 34.4 24.5 34.7 24.7L40.9 30.4L40.2 45.5H44.3L43.4 26.2L48.6 21.5C48.8 21.2 48.8 20.8 48.7 20.6Z" fill="white"/>
<path d="M13.1 0L13.3 15.4C13.3 15.4 9.10005 6.8 13.1 0Z" fill="white"/>
<path d="M13.1001 0L13.3001 15.4C13.3001 15.4 17.4001 6.7 13.1001 0Z" fill="white"/>
<path d="M26.6 23L13.3 15.3C13.3 15.3 18.7 23.3 26.6 23Z" fill="white"/>
<path d="M26.6 23L13.3 15.3C13.3 15.3 22.8 16.1 26.6 23Z" fill="white"/>
<path d="M0 23L13.3 15.3C13.3 15.3 3.7 16.1 0 23Z" fill="white"/>
<path d="M0 23L13.3 15.3C13.3 15.3 7.9 23.3 0 23Z" fill="white"/>
<path d="M14.7 45.4H11.8L12.7 16.1H13.7L14.7 45.4Z" fill="white"/>
<path d="M14.8 14.9C15.1 15.8 14.6 16.7 13.7 16.9C12.8 17.2 11.9 16.7 11.7 15.8C11.4 14.9 11.9 14 12.8 13.8C13.7 13.6 14.6 14.1 14.8 14.9Z" fill="white"/>
<path d="M70.6 0L70.8 15.4C70.8 15.4 66.5 6.8 70.6 0Z" fill="white"/>
<path d="M70.6 0L70.8 15.4C70.8 15.4 74.8 6.7 70.6 0Z" fill="white"/>
<path d="M84 23L70.7 15.3C70.7 15.3 76.1 23.3 84 23Z" fill="white"/>
<path d="M84 23L70.7 15.3C70.7 15.3 80.3 16.1 84 23Z" fill="white"/>
<path d="M57.5 23L70.8 15.3C70.7 15.3 61.2 16.1 57.5 23Z" fill="white"/>
<path d="M57.5 23L70.8 15.3C70.7 15.3 65.4 23.3 57.5 23Z" fill="white"/>
<path d="M72.1 45.4H69.2L70.2 16.1H71.2L72.1 45.4Z" fill="white"/>
<path d="M72.3 14.9C72.6 15.8 72.1 16.7 71.2 16.9C70.3 17.2 69.4 16.7 69.2 15.8C68.9 14.9 69.4 14 70.3 13.8C71.1 13.6 72 14.1 72.3 14.9Z" fill="white"/>
<path d="M27.3 25.9C27.3 26.9 27.4 27.8 27.6 28.7C28.3001 31.5 30.2 33.8 32.8 35C33 34.4 33 33.8 33 33.1C33 29.6 30.6 26.7 27.3 25.9Z" fill="white"/>
<path d="M26.8 45.4H24.3L25 34.5C25 34.3 25.2 34.2 25.5 34.2C25.8 34.2 26 34.3 26 34.5L26.8 45.4Z" fill="white"/>
<path d="M25.5 25.7C21.4 25.7 18 29 18 33.2C18 36.7 20.4 39.6 23.7 40.4L24.1 34.4C24.1 33.7 24.7 33.2 25.5 33.2C26.3 33.2 26.9 33.7 26.9 34.4L27.3 40.4C30.6 39.6 33 36.7 33 33.2C33 29 29.7 25.7 25.5 25.7Z" fill="white"/>
<path d="M56.3 28.9C56.6 27.9 56.7 26.9 56.6 25.8C53.3 26.6 50.9 29.5 50.9 33.1C50.9 33.8 51 34.4 51.1 35C53.6 33.9 55.5 31.6 56.3 28.9Z" fill="white"/>
<path d="M49.9001 33.2C49.9001 29.2 52.7001 25.8 56.5001 25C56.3001 23.4 55.7001 21.8 54.9001 20.5C56.9001 18.5 57.4001 15.2 56.2001 12.6C55.0001 10 52.0001 8.4 49.2001 8.7C48.7001 7.2 47.9001 5.8 46.8001 4.6C45.7001 3.5 44.2001 2.6 42.7001 2.5C40.9001 2.3 39.0001 3 37.6001 4.2C36.2001 5.4 35.2001 7 34.5001 8.7C31.7001 8.5 28.9001 10.2 27.7001 12.8C26.5001 15.4 27.1001 18.6 29.1001 20.6C29.1001 20.6 28.1001 22.3 28.1001 22.4C27.8001 23.1 27.6001 23.8 27.5001 24.5C27.5001 24.7 27.5001 24.9 27.4001 25.1C31.1001 25.9 33.9001 29.3 33.9001 33.3C33.9001 34.1 33.8001 34.8 33.6001 35.5C34.1001 35.7 34.7001 35.8 35.2001 35.9C36.7001 36.1 38.2001 35.9 39.6001 35.4L39.8001 30.8L34.0001 25.3C33.3001 24.7 33.2001 23.7 33.7001 23.1C34.0001 22.8 34.4001 22.6 34.8001 22.6C35.2001 22.6 35.6001 22.7 35.9001 23L40.1001 26.2L40.2001 23.4L37.2001 20.6C36.7001 20.1 36.6001 19.3 37.1001 18.7C37.4001 18.4 37.7001 18.2 38.1001 18.2C38.4001 18.2 38.7001 18.3 38.9001 18.5L40.4001 19.6L40.5001 18C40.5001 17.1 41.3001 16.4 42.2001 16.4C43.1001 16.4 43.9001 17.1 43.9001 18L44.1001 22.4L47.3001 19.9C47.6001 19.7 47.9001 19.6 48.3001 19.6C48.7001 19.6 49.1001 19.8 49.4001 20.1C49.9001 20.7 49.8001 21.6 49.2001 22.1L44.3001 26.5L44.7001 35.3C46.5001 36 48.5001 36 50.3001 35.4C50.1001 34.7 49.9001 33.9 49.9001 33.2Z" fill="white"/>
<path d="M59.6001 45.4H57.1001L57.9001 34.5C57.9001 34.3 58.1001 34.2 58.4001 34.2C58.7001 34.2 58.9001 34.3 58.9001 34.5L59.6001 45.4Z" fill="white"/>
<path d="M58.3 25.7C54.2 25.7 50.8 29 50.8 33.2C50.8 36.7 53.2 39.6 56.5 40.4L56.9001 34.4C56.9001 33.7 57.5 33.2 58.3 33.2C59.1 33.2 59.7001 33.7 59.7001 34.4L60.1 40.4C63.4 39.6 65.8001 36.7 65.8001 33.2C65.8001 29 62.5 25.7 58.3 25.7Z" fill="white"/>
<path d="M102.2 10.1C101.5 13.4 100 15.9 98.2 17.3C97.9 16.9 97.2 16.2 96.8 15.9C98.2 15 99.3 13.4 100 11.5H97.2V9.70002H100.7L101 9.60002L102.2 10.1ZM110.1 9.00002C109 10.1 107.7 11.3 106.6 12.1C107.6 13.6 108.9 14.8 110.6 15.6C110.2 16 109.7 16.8 109.4 17.3C107.3 16.3 105.8 14.5 104.7 12.3V16C104.7 17 104.5 17.6 103.9 17.9C103.3 18.2 102.4 18.2 101.2 18.2C101.1 17.7 100.9 16.8 100.6 16.3C101.3 16.3 102.2 16.3 102.5 16.3C102.8 16.3 102.8 16.2 102.8 15.9V8.30002H99.2V6.50002H104.6C103.4 5.90002 101.7 5.30002 100.3 4.90002L101.2 3.30002C102.9 3.70002 105.3 4.60002 106.5 5.30002L105.6 7.00002C105.4 6.80002 105 6.70002 104.7 6.50002V7.80002C105 8.80002 105.3 9.80002 105.7 10.6C106.7 9.70002 107.8 8.60002 108.5 7.60002L110.1 9.00002Z" fill="white"/>
<path d="M123.6 13.4C123.6 13.2 123.5 12.9 123.5 12.6C120.9 13 120.5 13.2 120.1 13.3C120 13 119.8 12.2 119.6 11.7C119.9 11.6 120.2 11.2 120.7 10.6C120.9 10.4 121.2 9.90001 121.6 9.20001C120.5 9.30001 120.2 9.40001 120 9.50001C119.9 9.20001 119.7 8.40001 119.5 8.00001C119.8 7.90001 120 7.60001 120.3 7.10001C120.6 6.60001 121.4 4.80001 121.9 3.10001L123.3 3.70001C122.8 5.00001 122.2 6.40001 121.5 7.60001L122.4 7.50001C122.7 6.80001 123.1 6.10001 123.3 5.30001L124.6 6.20001C123.8 7.90001 122.8 9.70001 121.8 11.2L123.1 11C123 10.6 122.9 10.1 122.8 9.80001L123.9 9.50001C124.2 10.6 124.6 12 124.7 12.9L123.6 13.4ZM121.4 14C121.3 15.5 121.1 17.1 120.7 18.2C120.4 18 119.8 17.8 119.4 17.7C119.7 16.7 119.9 15.2 120 13.8L121.4 14ZM122.8 13.8C123 15 123.1 16.5 123.1 17.5L121.9 17.7C121.9 16.7 121.8 15.2 121.7 14L122.8 13.8ZM124.1 13.4C124.4 14.3 124.7 15.5 124.8 16.3L123.7 16.7C123.6 15.9 123.3 14.7 123 13.7L124.1 13.4ZM130.5 15.9C131.5 16.3 132.5 16.7 133.1 17L132.4 18.3C131.6 17.9 130.4 17.3 129.3 16.9L129.8 15.9H127.7L128.6 16.9C127.5 17.4 126 18 124.9 18.4C124.8 18 124.5 17.5 124.3 17.1C125.1 16.8 126.2 16.4 127 15.9H125V11.1H132.4V15.9H130.5ZM127.9 5.10001H124.4V3.90001H127.9V3.20001H129.6V3.90001H132.9V5.10001H129.6V5.60001H132.4V6.70001H125V5.70001H127.9V5.10001ZM124.5 7.30001H132.9V10.6H124.5V7.30001ZM125.9 9.40001H126.9V8.40001H125.9V9.40001ZM126.6 12.5H130.8V12H126.6V12.5ZM126.6 13.7H130.8V13.2H126.6V13.7ZM126.6 14.9H130.8V14.4H126.6V14.9ZM129.2 9.40001V8.40001H128.3V9.40001H129.2ZM131.4 8.40001H130.5V9.40001H131.4V8.40001Z" fill="white"/>
<path d="M147.5 15.7C147.3 15.5 146.9 15.2 146.5 14.8V18.1H144.9V15.2C144.3 16 143.6 16.8 142.9 17.3C142.8 16.8 142.5 16 142.2 15.5C143.1 15 144.1 14 144.8 13H142.7V11.3H144.9V9.80001H146.5V11.4H148.6V13.1H146.5C147.1 13.5 148.4 14.4 148.8 14.7L147.5 15.7ZM148.1 7.00001C146.8 8.50001 145.1 9.80001 143.2 10.5C143 10 142.5 9.30001 142.1 9.00001C143.8 8.50001 145.4 7.50001 146.5 6.40001H142.8V4.70001H148V3.20001H149.7V4.70001H155V6.40001H151.3C152.9 7.20001 154.9 8.20001 155.5 8.60001L155 10.4C153.9 9.60001 151.4 8.00001 149.8 7.10001V10.5H148.1V7.00001ZM153 13.1C153.8 14.2 155 15.3 156 15.9C155.6 16.3 155.1 16.9 154.8 17.4C154.1 16.9 153.4 16 152.8 15.1V18.3H151.2V15.1C150.4 16.1 149.5 16.9 148.6 17.5C148.4 17.1 147.9 16.5 147.5 16.1C148.8 15.5 150.1 14.4 150.9 13.1H149.1V11.4H151.2V9.80001H152.8V11.4H155.4V13.1H153Z" fill="white"/>
<path d="M170.3 13C170 12.5 169.6 11.7 169.2 11V18.2H167.5V11.7C167 13.2 166.4 14.5 165.7 15.4C165.5 14.9 165.1 14 164.8 13.5C165.8 12.2 166.8 10.1 167.3 8.20001H165.3V6.60001H167.6V3.20001H169.3V6.50001H171.2V8.30001H169.3V8.60001C169.7 9.10001 171.2 10.9 171.5 11.4L170.3 13ZM176 8.40001C176.6 10.6 177.6 12.9 178.7 14.2C178.3 14.5 177.7 15.2 177.4 15.7C176.8 14.7 176.2 13.4 175.7 11.9V18.4H174V11.9C173.3 13.6 172.4 15.2 171.5 16.2C171.3 15.7 170.8 14.9 170.5 14.4C171.9 13 173 10.7 173.7 8.50001H171.6V6.60001H174V3.20001H175.7V6.50001H178.3V8.30001H176V8.40001Z" fill="white"/>
<path d="M103.8 31.8H102.6C102.5 31.6 102.5 31.2 102.5 31C102.1 31.7 101.3 31.9 100.3 31.9C98.2001 31.9 97.1001 30.3 97.1001 28.2C97.1001 26.1 98.4001 24.5 100.7 24.5C102.6 24.5 103.6 25.5 103.8 26.6H102.2C102 26.1 101.7 25.6 100.6 25.6C99.2001 25.6 98.7001 26.8 98.7001 28.2C98.7001 29.6 99.2001 30.7 100.6 30.7C101.8 30.7 102.1 29.9 102.1 29H100.5V27.8H103.7V31.8H103.8Z" fill="white"/>
<path d="M107.2 28.9V31.9H105.6V24.7H108.8C110.3 24.7 111.4 25.4 111.4 26.6C111.4 27.6 110.8 28 110.2 28.3C111 28.6 111.3 29.1 111.3 30V30.2C111.3 30.8 111.3 31.4 111.4 31.8H109.8C109.7 31.5 109.6 31 109.6 30.1V30C109.6 29.2 109.3 28.9 108.2 28.9H107.2ZM107.2 27.7H108.4C109.2 27.7 109.8 27.5 109.8 26.7C109.8 26 109.3 25.8 108.6 25.8H107.2V27.7Z" fill="white"/>
<path d="M118 28.7H114.6V30.6H118.4L118.2 31.8H113V24.6H118.1V25.8H114.5V27.4H117.9V28.7H118Z" fill="white"/>
<path d="M124.8 28.7H121.4V30.6H125.2L125 31.8H119.8V24.6H124.9V25.8H121.3V27.4H124.7V28.7H124.8Z" fill="white"/>
<path d="M126.5 31.8V24.6H128.6C130.9 29 131.3 29.7 131.4 30C131.3 29.1 131.3 28 131.3 26.8V24.6H132.8V31.8H130.8C128.3 27 128 26.4 127.9 26.1C128 27 128 28.2 128 29.5V31.7H126.5V31.8Z" fill="white"/>
<path d="M137.8 24.6H142.9V25.8H139.4V27.6H142.7V28.8H139.4V31.8H137.8V24.6Z" fill="white"/>
<path d="M151 28.2C151 30.3 149.9 31.9 147.4 31.9C145 31.9 143.9 30.2 143.9 28.2C143.9 26.4 145 24.6 147.5 24.6C149.9 24.6 151 26.3 151 28.2ZM145.6 28.2C145.6 29.6 146.2 30.8 147.5 30.8C148.9 30.8 149.4 29.7 149.4 28.2C149.4 26.9 148.9 25.7 147.5 25.7C146.1 25.7 145.6 26.8 145.6 28.2Z" fill="white"/>
<path d="M154.2 28.9V31.9H152.6V24.7H155.8C157.3 24.7 158.4 25.4 158.4 26.6C158.4 27.6 157.8 28 157.2 28.3C158 28.6 158.3 29.1 158.3 30V30.2C158.3 30.8 158.3 31.4 158.4 31.8H156.8C156.7 31.5 156.6 31 156.6 30.1V30C156.6 29.2 156.3 28.9 155.2 28.9H154.2ZM154.2 27.7H155.4C156.2 27.7 156.8 27.5 156.8 26.7C156.8 26 156.3 25.8 155.6 25.8H154.2V27.7Z" fill="white"/>
<path d="M165 28.7H161.6V30.6H165.4L165.2 31.8H160V24.6H165.1V25.8H161.5V27.4H164.9V28.7H165Z" fill="white"/>
<path d="M168 29.7C168.1 30.3 168.6 30.8 169.4 30.8C170.3 30.8 170.6 30.4 170.6 29.9C170.6 29.3 170.2 29 169 28.7C167.2 28.2 166.5 27.6 166.5 26.6C166.5 25.3 167.7 24.5 169.2 24.5C171.1 24.5 171.9 25.4 172 26.5H170.4C170.3 26 170 25.6 169.2 25.6C168.5 25.6 168.1 25.9 168.1 26.4C168.1 26.9 168.5 27.1 169.6 27.4C171.6 27.9 172.1 28.7 172.1 29.7C172.1 30.9 171.2 31.9 169.2 31.9C167.5 31.9 166.4 31.1 166.3 29.7H168Z" fill="white"/>
<path d="M175.1 25.9H173V24.7H178.9V25.9H176.8V31.9H175.2V25.9H175.1Z" fill="white"/>
</g>
<defs>
<clipPath id="clip0_242_1218">
<rect width="178.8" height="45.4" fill="white"/>
</clipPath>
</defs>
</svg>
