<svg width="114" height="24" viewBox="0 0 114 24" fill="none" xmlns="http://www.w3.org/2000/svg">
<path d="M17.2 11.8C17.2 11.8 17.2 11.9 17.4 12C18.7 13 19.3 14 19.3 16C19.3 18.5 17.1 20.3 14.6 20.3V23.8C18.9 23.8 22.8 20.7 22.8 16.4C22.8 14.8 22.4 13.3 21.3 11.8C21.3 11.7 21.6 11.5 21.8 11.1C22.1 10.6 22.1 10.1 22.1 8.2V0H11.1V6.5H7.59998V10.1H14.7V3.7H18.7V9.2C18.7 9.2 18.9 10.8 17.2 11.8Z" fill="white"/>
<path d="M7.7 0H6.7C4.8 0 2.9 0.6 1.6 2.1C0.1 3.7 0 5.1 0 7.4C0 9 0 23.8 0 23.8H11.2V17.4H14.7V13.8H7.6V20.3H3.6V6.6C3.6 6.6 3.3 3.6 6.9 3.6H7.7V0Z" fill="white"/>
<path d="M44.1 13.5V16.3H33.1V12.5H42.7C44.1 12.5 44.1 13.5 44.1 13.5ZM41.9 15V13.8H35.1V15H41.9Z" fill="white"/>
<path d="M31.1 23.8V17.1H44.7C45 17.1 45.4 17.3 45.4 17.3C45.9 17.5 46.2 18 46.3 18.6V23.8H44V23.3H33.4V23.8H31.1ZM43.9 19.5V18.6H39.7V19.5H43.9ZM37.6 19.5V18.6H33.4V19.5H37.6ZM43.9 21.8V20.9H39.7V21.8H43.9ZM37.6 21.9V21H33.4V21.9H37.6Z" fill="white"/>
<path d="M44.1 10.3H33.1V11.7H44.1V10.3Z" fill="white"/>
<path d="M30.2 12.1V7.70001H37.5V6.60001H39.7V7.70001H45.4C45.4 7.70001 46.9 7.80001 46.9 9.00001V12.1H44.9V9.60001H32.3V12.1H30.2Z" fill="white"/>
<path d="M67.4 13L68.8 8.4C69 7.7 68.3 7 67.6 7H61.8V23.9H63.9V20.8C63.9 20.8 64.5 21.7 64.9 22.2C65.6 22.2 66 22 66.6 21.8C68 21.1 68.9 19.7 69.1 18.3C69.2 16.2 68.6 14.5 67.4 13ZM66.9 18.4C66.6 19.2 65.9 20 65.1 20.2C64.7 20.3 64.4 20.4 63.9 20.2V9.1H66.6C66.2 10.6 65.7 12.1 65.2 13.5C65.3 13.8 65.7 14 65.8 14.3C66.6 15.5 67.4 16.9 66.9 18.4Z" fill="white"/>
<path d="M61.1 14.4V12.2H58.1V10.5H61.1V8.5H58.1V6.5H55.8V8.5H52.3V10.6H55.8V12.2H52.3V14.3H55.8V16H52.4V18.2H55.7C55.6 20.6 53.6 22.2 53.6 22.2L54.9 23.9C58 22.2 58.1 18.3 58.1 18.3H61.1V16H58.1V14.4H61.1Z" fill="white"/>
<path d="M101.5 16.1V13.7L100.2 14.5V11.5H101.5V9.50002H100.2V6.80002H98.3V9.50002H96.4V11.6H98.3V15.6C97.1 16.4 96.2 16.8 96.2 16.8L96.9 18.9C97.3 18.7 97.7 18.4 98.3 18V20.5C98.3 20.7 98.2 21.1 98.1 21.3C98 21.5 97.3 22 96.7 22.1L97.5 23.9C99 23.7 99.5 23.1 99.8 22.8C100.1 22.5 100.4 21.7 100.4 20.6V17C101.1 16.4 101.5 16.1 101.5 16.1Z" fill="white"/>
<path d="M103.6 9.80001H110.6C110.8 9.80001 110.9 9.90001 110.9 10.1V12.5H112.8V9.20001C112.8 8.60001 112.2 8.10001 111.7 8.10001H108.3V6.70001H106.3V8.00001H101.8V12H103.6V9.80001Z" fill="white"/>
<path d="M108.3 18.5H111V17.3C111 17.3 111.9 18.1 112.4 18.3C112.8 17.9 113.3 17.4 113.6 16.9C111.7 15.5 110.4 13.5 109.6 11.4C109.4 11 109.2 10.8 108.6 10.8C108 10.8 105.7 10.8 105.7 10.8V12.7C105.7 12.7 107.9 12.7 108 12.7C108.1 12.7 108.2 12.8 108.2 12.8C108.7 14.3 109.5 15.5 110.5 16.7H103.9C104.7 15.6 105.2 14.6 105.5 13.3C105.5 13.3 105.5 13.1 105.3 13.1C105.2 13.1 103.6 13.1 103.6 13.1C103.2 14.5 102.2 16 101.1 17L102.3 18.5C102.9 18 103.4 17.5 103.8 16.8V18.4H106.4V21.6H101.7V23.4H112.8V21.6H108.2V18.5H108.3Z" fill="white"/>
<path d="M87.9 14V12.8C88.6 13.2 89.4 13.6 90.3 13.9L91.3 12.1C84.9 9.4 83.2 6.5 83.2 6.5H81.9C81.9 6.5 80.2 9.4 73.8 12.1L74.8 13.9C75.6 13.6 76.4 13.2 77.1 12.9V14H81.6V16H75.1V17.9H77L76 18.4C76 18.4 77.5 20.6 77.9 21.8H75V23.7H89.9V21.8H87.1C88 20.6 88.8 18.4 88.8 18.4L87.8 17.9H89.8V16H83.3V14H87.9ZM77.9 17.9H81.6V21.8H78.6L79.6 21.2C79.5 20.5 78.5 18.7 77.9 17.9ZM87 17.9C86.6 18.7 85.9 20.4 85.1 21.2L86.1 21.8H83.4V17.9H87M82.4 9H82.7C83.6 9.9 84.9 11 86.7 12.1H78.4C80.2 11 81.5 9.9 82.4 9Z" fill="white"/>
</svg>
