<svg width="162" height="299" viewBox="0 0 162 299" fill="none" xmlns="http://www.w3.org/2000/svg">
<path d="M22.1146 253.472C23.6119 257.626 25.2852 267.685 24.0963 275.426C24.0082 275.995 26.6504 275.951 26.6504 275.557C26.6504 275.208 28.8522 260.469 27.7513 255.746C26.6504 251.022 22.1146 253.472 22.1146 253.472Z" fill="#FFEB50"/>
<path d="M22.9072 253.909C22.8631 254.04 22.8191 254.171 22.775 254.346C22.5989 254.215 22.4228 254.084 22.2906 253.953C23.3916 257.276 24.4925 263.53 24.4925 269.566C24.4925 271.578 24.3604 273.546 24.0961 275.383C24.0961 275.383 24.0961 275.383 24.0961 275.426C24.0961 275.732 24.7567 275.82 25.4172 275.82C26.0337 275.82 26.6503 275.689 26.6503 275.514C26.6503 275.208 28.0594 265.761 28.0594 259.551C28.0594 258.851 28.0594 258.195 28.0154 257.583C26.7824 256.096 25.109 255.877 22.9072 253.909Z" fill="#E5D348"/>
<path d="M43.7805 255.702C44.1328 258.545 52.3236 263.749 53.7327 264.449C55.1419 265.149 54.5694 266.111 53.5126 268.954C52.4557 271.84 50.6502 274.726 50.7383 275.12C50.8263 275.514 53.8649 275.426 53.9529 275.208C54.041 274.989 55.3621 270.659 57.0355 266.811C58.7089 263.006 58.4446 263.924 56.9034 261.65C55.4061 259.376 54.8337 258.588 55.8465 255.833C56.8153 253.078 43.7805 255.702 43.7805 255.702Z" fill="#FFEB50"/>
<path d="M49.5052 255.877C49.4612 255.877 48.096 256.577 45.2777 256.577C44.8814 256.577 44.485 256.577 44.0447 256.533C45.5419 259.463 52.4116 263.837 53.7327 264.493C54.3492 264.799 54.5694 265.149 54.5694 265.673C54.5694 266.373 54.129 267.379 53.5125 269.041C52.4997 271.84 50.7382 274.726 50.7382 275.164C50.7382 275.164 50.7382 275.164 50.7382 275.208C50.7823 275.382 51.5749 275.47 52.4116 275.47C53.1602 275.47 53.9529 275.382 53.9529 275.295C54.0409 275.076 55.362 270.747 57.0354 266.898C57.784 265.192 58.1363 264.449 58.1804 263.924C55.4061 262.131 49.8134 258.195 49.5052 255.877Z" fill="#E5D348"/>
<path d="M28.4116 231.342C30.3493 236.328 33.1676 237.946 40.3015 237.596C47.4794 237.246 50.8702 235.759 55.0096 236.503C59.1491 237.246 63.7729 241.488 64.1692 244.725C64.3454 246.255 62.5399 253.253 61.5711 256.008C60.6023 258.763 61.1307 259.551 62.6279 261.825C64.1252 264.099 64.4334 263.181 62.7601 266.985C61.0867 270.79 59.9858 275.164 59.6775 275.382C59.3692 275.601 56.5509 275.732 56.4628 275.295C56.3748 274.858 58.1803 272.015 59.2371 269.128C60.294 266.242 60.8225 265.324 59.4573 264.58C58.0482 263.88 49.9014 258.676 49.5051 255.833C49.5051 255.833 47.2152 256.97 42.4593 256.314C37.7033 255.658 34.6208 255.658 34.2245 256.445C33.8281 257.233 34.4006 266.242 32.2869 275.689C32.1988 276.126 29.9089 275.907 29.7768 275.645C29.6447 275.382 31.1419 270.003 29.8649 262.7C28.5878 255.396 26.2979 257.102 22.5988 253.515C18.1512 250.06 20.0007 234.928 20.0007 234.928L28.4116 231.342Z" fill="#FFEB50"/>
<path d="M19.6484 226.312C17.8429 230.117 15.4209 235.759 15.8172 241.27C16.1695 246.78 19.3842 251.897 22.819 254.346C23.7438 250.935 29.8208 247.174 30.4814 241.663C31.1419 236.153 29.0722 230.424 27.4429 226.531L19.6484 226.312Z" fill="#FFEB50"/>
<path d="M28.1475 228.28C29.2485 231.211 30.3934 234.884 30.5696 238.602C30.5696 238.689 30.5696 238.82 30.5255 238.908C29.865 244.419 23.7879 248.18 22.8632 251.591C19.4283 249.142 16.2577 244.025 15.8614 238.514C15.8614 238.427 15.8614 238.296 15.8614 238.208C16.1696 234.884 17.3146 231.692 18.4595 228.98C17.0944 232.217 15.7733 236.153 15.7733 240.133C15.7733 240.526 15.7733 240.876 15.8174 241.27C16.1696 246.78 19.3843 251.897 22.8191 254.346C23.7439 250.935 29.8209 247.174 30.4815 241.663C30.5696 240.963 30.6136 240.22 30.6136 239.52C30.6136 235.497 29.3806 231.473 28.1475 228.28ZM28.1475 228.237C28.1475 228.28 28.1475 228.28 28.1475 228.237C28.1475 228.28 28.1475 228.28 28.1475 228.237Z" fill="#E5D348"/>
<path d="M18.4595 228.98C18.4595 228.98 18.4155 228.98 18.4595 228.98C18.4155 228.98 18.4595 228.98 18.4595 228.98ZM18.4595 228.893C18.4595 228.937 18.4595 228.937 18.4595 228.893C18.4595 228.937 18.4595 228.937 18.4595 228.893ZM18.5035 228.849C18.4595 228.849 18.4595 228.893 18.5035 228.849C18.4595 228.893 18.4595 228.849 18.5035 228.849ZM28.1035 228.149C28.1035 228.149 28.1035 228.193 28.1035 228.149C28.1035 228.193 28.1035 228.149 28.1035 228.149ZM27.8393 227.493C27.9273 227.712 28.0154 227.931 28.1035 228.149C28.0154 227.931 27.9273 227.712 27.8393 227.493ZM19.2081 227.231C18.988 227.756 18.7237 228.281 18.5035 228.849C18.7237 228.281 18.988 227.756 19.2081 227.231Z" fill="#F2F2F2"/>
<path d="M19.208 227.231C18.9878 227.756 18.7236 228.281 18.5034 228.849V228.893C18.5034 228.893 18.5034 228.893 18.5034 228.937C17.3585 231.648 16.2576 234.841 15.9053 238.165C15.9053 238.252 15.9053 238.383 15.9053 238.471C16.2576 243.981 19.4722 249.098 22.9071 251.547C23.8318 248.136 29.9089 244.375 30.5694 238.864C30.5694 238.777 30.6134 238.646 30.6134 238.558C30.4373 234.841 29.2923 231.211 28.1914 228.237V228.193V228.149C28.1914 228.149 28.1914 228.149 28.1914 228.106C28.1034 227.887 28.0153 227.668 27.9272 227.45C27.663 227.756 27.4428 228.018 27.3988 228.149C27.3107 228.412 26.9584 232.217 26.1217 232.698C25.8135 233.572 25.3731 233.879 23.8759 233.879C23.7438 233.879 23.6557 233.879 23.5236 233.879C21.7181 233.835 21.1456 233.397 20.9695 232.567C20.1328 232.26 19.9566 228.193 19.8686 227.931C19.6484 227.799 19.4282 227.537 19.208 227.231Z" fill="#D9C844"/>
<path d="M18.5916 218.571C17.7109 218.484 15.6852 219.271 12.5587 218.309C10.1367 217.522 9.87244 214.329 9.87244 213.498C9.87244 212.667 10.3128 212.449 10.6211 213.498C10.9293 214.548 11.6339 216.866 13.4834 217.259C15.333 217.653 15.9935 216.953 15.9935 216.953L18.5916 218.571Z" fill="#004F74"/>
<path d="M18.5916 218.571C17.7109 218.484 15.6852 219.271 12.5587 218.309C10.1367 217.522 9.87244 214.329 9.87244 213.498C9.87244 212.667 10.3128 212.449 10.6211 213.498C10.9293 214.548 11.6339 216.866 13.4834 217.259C15.333 217.653 15.9935 216.953 15.9935 216.953L18.5916 218.571Z" fill="#003C60"/>
<path d="M28.0594 221.196C28.8961 220.54 30.1292 220.321 31.7585 220.758C33.3879 221.196 34.3126 221.196 34.7089 221.327C35.1053 221.458 33.9163 223.426 31.8906 223.776C29.8649 224.126 28.2796 222.42 28.2796 222.42L28.0594 221.196Z" fill="#FFEB50"/>
<path d="M34.6649 221.283L34.7089 221.327C34.6649 221.327 34.6649 221.327 34.6208 221.327C34.3566 221.327 33.9603 221.458 33.4759 221.589C32.9915 221.72 32.419 221.852 31.8906 221.852C31.6264 221.852 31.3622 221.808 31.142 221.764C30.1732 221.502 29.8209 221.37 29.2484 221.37C28.9842 221.37 28.6759 221.414 28.1915 221.414C28.4117 221.808 28.5438 222.245 28.6319 222.683C29.1163 223.076 30.1291 223.776 31.3622 223.776C31.5383 223.776 31.7144 223.776 31.8906 223.732C33.6521 223.426 34.753 221.895 34.753 221.414C34.753 221.327 34.7089 221.283 34.6649 221.283ZM28.1035 221.152C28.0594 221.152 28.0594 221.152 28.1035 221.152C28.0594 221.152 28.0594 221.152 28.1035 221.152ZM30.2172 220.496C30.6576 220.496 31.0979 220.54 31.5823 220.671C31.0979 220.583 30.6135 220.496 30.2172 220.496Z" fill="#E5D348"/>
<path d="M34.753 221.327L34.7089 221.283C34.3126 221.152 33.3438 221.152 31.7585 220.714C30.1292 220.277 28.9402 220.54 28.0594 221.152L28.1035 221.283C28.1916 221.327 28.2356 221.327 28.2356 221.327C29.6448 221.196 29.7328 221.239 31.186 221.633C31.9347 221.852 32.8154 221.677 33.564 221.502C34.0484 221.414 34.4888 221.283 34.753 221.327Z" fill="#FFEB50"/>
<path d="M19.3843 220.933C18.5476 220.233 17.3586 219.927 15.7293 220.277C14.0999 220.627 13.1311 220.583 12.7348 220.671C12.3385 220.758 13.3954 222.814 15.421 223.251C17.4467 223.688 19.0761 222.07 19.0761 222.07L19.3843 220.933Z" fill="#FFEB50"/>
<path d="M19.2961 220.889C19.3401 220.889 19.3401 220.889 19.2961 220.889C19.3401 220.889 19.3401 220.889 19.2961 220.889ZM12.7347 220.671C12.6906 220.671 12.6466 220.714 12.6466 220.802C12.6466 221.283 13.6594 222.857 15.3769 223.251C15.6411 223.295 15.8613 223.339 16.0814 223.339C17.2264 223.339 18.1512 222.77 18.6796 222.42C18.7677 221.983 18.9438 221.545 19.164 221.152C18.5915 221.064 18.2392 221.021 17.931 221.021C17.4906 221.021 17.0943 221.108 16.2576 221.283C16.0814 221.327 15.8613 221.327 15.6851 221.327C15.1126 221.327 14.4961 221.152 13.9677 221.021C13.4393 220.846 12.9989 220.714 12.7347 220.714H12.6906L12.7347 220.671ZM17.0062 220.146C16.6539 220.146 16.2136 220.19 15.7732 220.277C16.2136 220.19 16.6099 220.146 17.0062 220.146Z" fill="#E5D348"/>
<path d="M12.6908 220.714L12.7348 220.671C13.1312 220.583 14.1 220.627 15.7293 220.277C17.3587 219.927 18.5476 220.233 19.3843 220.933L19.3403 221.108C19.2522 221.152 19.2082 221.152 19.2082 221.152C17.799 220.977 17.7109 220.977 16.2577 221.327C15.5091 221.502 14.6724 221.283 13.9679 221.064C13.3954 220.889 12.911 220.714 12.6908 220.714Z" fill="#FFEB50"/>
<path d="M20.7933 232.567C20.9695 233.397 21.542 233.835 23.3474 233.922C25.1529 233.966 25.6373 233.704 25.9896 232.741C26.2098 232.042 23.4355 230.817 23.4355 230.817L20.7933 232.567Z" fill="#FFEB50"/>
<path d="M20.7933 232.61C20.9695 233.441 21.542 233.879 23.3474 233.922C23.4796 233.922 23.6117 233.922 23.6997 233.922C25.197 233.922 25.6373 233.616 25.9456 232.741C25.6373 233.616 25.197 233.922 23.6997 233.922C23.5676 233.922 23.4796 233.922 23.3474 233.922C21.542 233.879 20.9695 233.441 20.7933 232.61Z" fill="#D9C844"/>
<path d="M7.36236 215.335C4.80825 213.848 4.5 211.18 5.07247 211.355C5.51283 211.487 5.51283 211.924 6.78989 213.367C6.96604 213.586 7.18622 213.761 7.4064 213.892C7.45044 213.936 7.53851 213.892 7.53851 213.804C7.53851 213.455 7.62658 212.973 7.84676 212.667C8.24309 212.099 8.59538 212.099 8.55135 212.405C8.55135 212.624 8.33116 213.148 8.41924 213.717C8.46327 214.111 8.81556 214.46 9.21189 214.548C10.2688 214.767 11.6779 214.942 13.5275 215.204C13.6596 215.204 13.7476 215.073 13.6596 214.942C12.999 214.111 12.6027 212.842 12.7788 212.011C12.999 211.049 13.3513 211.268 13.4394 212.011C13.5275 212.755 14.7164 215.029 16.566 215.598H16.5219C20.8815 216.385 21.1898 217.959 21.7182 219.577L19.6926 220.321C19.6926 220.321 19.3843 219.49 18.988 218.878C18.2834 217.915 15.9054 217.391 13.3954 216.91H13.3513H13.2632C12.6908 216.822 12.2504 216.778 10.577 217.172C8.81557 217.609 7.84676 217.566 6.96604 217.303C6.08531 217.041 5.77705 216.166 6.17338 216.21C6.56971 216.254 7.31833 216.603 8.06695 216.56C8.68346 216.516 9.25593 216.254 9.07978 215.991C8.46327 215.86 7.84676 215.641 7.36236 215.335Z" fill="#004F74"/>
<path d="M20.3972 219.665C19.9128 218.528 19.9128 217.872 20.177 216.079C20.4413 214.285 19.5605 213.017 20.3532 212.842C20.9697 212.711 21.8945 214.723 21.7624 216.341C21.7183 217.128 21.6302 218.309 22.2027 219.49L20.3972 219.665Z" fill="#004F74"/>
<path d="M28.808 218.834C29.6887 218.79 31.6703 219.709 34.841 218.878C37.307 218.222 37.7474 215.073 37.7914 214.198C37.8355 213.367 37.3951 213.148 37.0428 214.198C36.6905 215.248 35.8538 217.478 33.9602 217.784C32.1107 218.09 31.4942 217.347 31.4942 217.347L28.808 218.834Z" fill="#004F74"/>
<path d="M28.808 218.834C29.6887 218.79 31.6703 219.709 34.841 218.878C37.307 218.222 37.7474 215.073 37.7914 214.198C37.8355 213.367 37.3951 213.148 37.0428 214.198C36.6905 215.248 35.8538 217.478 33.9602 217.784C32.1107 218.09 31.4942 217.347 31.4942 217.347L28.808 218.834Z" fill="#003C60"/>
<path d="M40.2574 216.254C42.8996 214.898 43.34 212.23 42.7675 212.405C42.3271 212.536 42.2831 212.973 40.962 214.329C40.7859 214.504 40.5657 214.679 40.3015 214.81C40.2574 214.854 40.1693 214.81 40.1693 214.723C40.1693 214.373 40.1253 213.892 39.9492 213.586C39.5528 212.973 39.2446 212.973 39.2446 213.28C39.2446 213.498 39.4207 214.067 39.3327 214.592C39.2446 214.985 38.8923 215.291 38.496 215.379C37.4391 215.554 36.0299 215.641 34.1364 215.772C34.0042 215.772 33.9162 215.598 34.0042 215.51C34.7088 214.723 35.1932 213.455 35.0171 212.667C34.8409 211.705 34.4886 211.88 34.3565 212.667C34.2244 213.411 32.9033 215.598 31.0098 216.079H31.0538C26.6502 216.603 26.2538 218.178 25.6373 219.796L27.7511 220.671C27.7511 220.671 27.9713 219.84 28.4557 219.271C29.2043 218.309 31.5822 217.959 34.1364 217.609H34.1804H34.2685C34.8409 217.522 35.2813 217.522 36.9107 218.047C38.6721 218.571 39.5969 218.615 40.4776 218.397C41.3583 218.178 41.7547 217.303 41.3583 217.347C40.962 217.391 40.2134 217.653 39.4207 217.566C38.8042 217.478 38.2758 217.172 38.4519 216.953C39.1125 216.691 39.729 216.472 40.2574 216.254Z" fill="#004F74"/>
<path d="M26.9586 219.84C27.487 218.746 27.531 218.047 27.3549 216.254C27.1788 214.46 28.1476 213.236 27.3549 213.017C26.7824 212.842 25.7255 214.81 25.7696 216.428C25.7696 217.216 25.8136 218.397 25.1531 219.577L26.9586 219.84Z" fill="#004F74"/>
<path d="M20.7934 232.61C19.9567 232.348 19.7806 228.237 19.6925 227.974C19.6044 227.668 18.6797 226.794 18.5035 226.006C18.3274 225.219 18.4154 223.907 18.6797 222.464C18.9439 221.021 20.3971 219.621 20.6613 219.359C21.498 218.571 26.1218 218.965 26.7383 219.534C27.0466 219.796 28.3677 221.327 28.5438 222.77C28.764 224.213 28.72 225.525 28.5438 226.312C28.3236 227.1 27.3548 227.931 27.2668 228.237C27.1787 228.543 26.7824 232.566 25.9016 232.829C23.5237 233.485 23.3475 231.954 23.3475 231.954C23.3475 231.954 23.1273 233.354 20.7934 232.61Z" fill="#FFEB50"/>
<path d="M23.3915 231.867C23.3915 231.867 23.2153 232.829 21.9823 232.829C21.6741 232.829 21.2777 232.785 20.7933 232.61C20.9695 233.441 21.542 233.879 23.3474 233.922C23.4796 233.922 23.6117 233.922 23.6997 233.922C25.197 233.922 25.6373 233.616 25.9456 232.741C25.5493 232.873 25.197 232.916 24.8887 232.916C23.5236 232.916 23.3915 231.867 23.3915 231.867Z" fill="#CEBE41"/>
<path d="M21.7181 229.811C20.6172 229.899 20.2209 230.292 20.1328 231.254V231.342C20.2649 231.998 20.4851 232.479 20.7493 232.566C21.2337 232.741 21.6301 232.785 21.9383 232.785C23.1713 232.785 23.3475 231.823 23.3475 231.823C23.3475 231.823 23.4796 232.829 24.8447 232.829C25.153 232.829 25.5053 232.785 25.9016 232.654C26.1218 232.523 26.3419 232.042 26.5181 231.473V231.386C26.4741 230.38 26.1218 230.03 25.0209 229.855C25.0209 230.117 25.0209 230.292 25.0209 230.292L23.3034 230.249H23.2594L21.542 230.205C21.7181 230.249 21.7181 230.074 21.7181 229.811Z" fill="#F2DF4C"/>
<path d="M23.0393 218.834C22.6429 218.834 22.2906 218.834 21.9384 218.878C22.2906 218.878 22.687 218.834 23.0393 218.834ZM23.0393 218.834C23.0833 218.834 23.0833 218.834 23.0393 218.834C23.0833 218.834 23.0833 218.834 23.0393 218.834Z" fill="#E5E5E5"/>
<path d="M20.7494 219.271C20.7053 219.271 20.7053 219.271 20.7494 219.271C20.7053 219.271 20.7053 219.271 20.7494 219.271ZM21.9383 218.878C21.4099 218.921 20.9255 219.053 20.7053 219.228C20.9695 219.053 21.4099 218.965 21.9383 218.878Z" fill="#004768"/>
<path d="M18.7237 222.42C18.6356 222.945 18.5476 223.47 18.5035 223.951C18.5476 223.47 18.5916 222.945 18.7237 222.42Z" fill="#E5E5E5"/>
<path d="M28.5879 222.639C28.5879 222.682 28.5879 222.682 28.5879 222.639C28.6319 222.989 28.676 223.339 28.676 223.645C28.676 223.339 28.676 223.032 28.5879 222.639C28.5879 222.682 28.5879 222.682 28.5879 222.639Z" fill="#E5E5E5"/>
<path d="M23.0393 218.834C22.643 218.834 22.2907 218.834 21.9384 218.878C21.41 218.921 20.9256 219.053 20.7054 219.227C20.6614 219.271 20.5292 219.402 20.3971 219.577C20.0889 219.883 19.6926 220.365 19.3843 220.889C19.3403 220.977 19.2962 221.064 19.2522 221.108C19.032 221.502 18.8559 221.939 18.7678 222.376C18.6797 222.901 18.5916 223.426 18.5476 223.907C18.8999 223.164 20.0889 222.551 20.9696 222.551C21.41 222.551 21.7182 222.682 21.8503 223.032C22.1586 223.907 21.8944 228.368 21.8063 229.767C22.0705 229.724 22.3788 229.724 22.7311 229.724C22.9512 229.724 23.2155 229.724 23.5237 229.724C24.2283 229.724 24.7567 229.767 25.1971 229.855C25.1971 228.455 25.1971 223.995 25.5494 223.12C25.6815 222.814 25.9898 222.682 26.3421 222.682C27.2228 222.682 28.5439 223.426 28.8081 224.257C28.8081 224.038 28.8081 223.82 28.7641 223.601C28.72 223.295 28.72 222.945 28.676 222.595C28.6319 222.158 28.4558 221.72 28.2356 221.327C28.1916 221.239 28.1475 221.152 28.1035 221.108C27.6191 220.277 27.0026 219.577 26.8265 219.402C26.8265 219.402 26.8265 219.402 26.7824 219.359C26.3421 219.096 24.5806 218.834 23.0393 218.834C23.0834 218.834 23.0834 218.834 23.0393 218.834Z" fill="#E5D348"/>
<path d="M22.6869 229.767C22.3346 229.767 22.0264 229.767 21.7622 229.811C21.7622 230.074 21.7181 230.249 21.7181 230.249L23.4356 230.292H23.4796L25.197 230.336C25.197 230.336 25.197 230.161 25.197 229.899C24.7567 229.855 24.1842 229.811 23.5236 229.767C23.1713 229.767 22.9071 229.767 22.6869 229.767Z" fill="#D9C844"/>
<path d="M23.3916 231.867C23.1714 229.68 21.6301 230.642 21.6741 230.292C21.6741 229.942 21.9384 229.724 23.4796 229.767C25.0209 229.811 25.2411 230.03 25.2411 230.38C25.1971 230.773 23.876 229.68 23.3916 231.867Z" fill="#003C60"/>
<path d="M25.1971 230.467C25.1971 230.642 25.065 230.773 24.8888 230.773C24.7127 230.773 24.4044 230.73 24.4485 230.555C24.4485 230.38 24.7567 230.117 24.9329 230.117C25.065 230.161 25.2411 230.292 25.1971 230.467Z" fill="#003C60"/>
<path d="M22.5109 230.511C22.5109 230.686 22.1586 230.73 21.9824 230.686C21.8063 230.642 21.6742 230.555 21.6742 230.38C21.6742 230.205 21.8063 230.074 21.9824 230.074C22.1586 230.074 22.5109 230.336 22.5109 230.511Z" fill="#003C60"/>
<path d="M42.4593 256.358C42.5033 256.358 42.5474 256.358 42.5914 256.358C42.5474 256.358 42.5033 256.358 42.4593 256.358ZM42.4153 256.358C42.4593 256.358 42.4593 256.358 42.4593 256.358H42.4153ZM36.9107 255.877C35.3694 255.877 34.4447 256.096 34.2245 256.489C34.4447 256.096 35.3694 255.877 36.9107 255.877ZM36.9107 255.877C36.9547 255.877 36.9547 255.877 36.9107 255.877C36.9547 255.877 36.9547 255.877 36.9107 255.877Z" fill="#F2F2F2"/>
<path d="M49.5052 255.877C49.4612 255.877 48.096 256.577 45.2777 256.577C48.096 256.533 49.4612 255.877 49.5052 255.877Z" fill="#D9C844"/>
<path d="M48.272 249.929C45.4537 249.929 34.5327 251.416 34.2684 256.489C34.4886 256.052 35.4134 255.877 36.9547 255.877C36.9547 255.877 36.9547 255.877 36.9987 255.877C38.3638 255.877 40.2133 256.052 42.4152 256.358C42.4592 256.358 42.4592 256.358 42.4592 256.358C42.5032 256.358 42.5473 256.358 42.5913 256.358C43.6042 256.489 44.4849 256.533 45.2775 256.533C48.0959 256.533 49.461 255.877 49.505 255.833C48.3601 251.504 49.6812 250.323 48.8885 249.929C48.8004 249.929 48.5803 249.929 48.272 249.929Z" fill="#F2DF4C"/>
<path d="M113.05 190.188C114.811 192.287 117.453 193.818 120.58 194.255C123.618 194.693 126.569 193.949 128.859 192.462C129.475 194.299 131.193 195.742 133.395 196.048C136.037 196.398 138.459 195.042 139.295 192.856C142.642 192.2 145.505 190.144 146.958 187.301C147.53 187.476 148.147 187.608 148.763 187.695C155.016 188.57 160.697 184.634 161.49 178.992C162.282 173.306 157.879 168.014 151.626 167.14C150.481 166.965 149.38 166.965 148.323 167.14C148.455 166.659 148.587 166.178 148.675 165.653C149.336 161.061 146.561 156.775 142.202 154.807C141.497 151.483 138.943 148.64 135.464 147.372C136.565 145.054 137.05 142.43 136.785 139.675C135.993 131.627 128.771 125.723 120.668 126.554C119.215 126.685 117.806 127.035 116.485 127.604C116.529 126.904 116.485 126.161 116.441 125.461C115.648 117.414 108.426 111.51 100.323 112.341C94.6425 112.909 90.0187 116.627 88.0371 121.569C84.9986 117.939 80.2867 115.839 75.2225 116.364C67.1198 117.151 61.1749 124.324 62.0115 132.371C62.1437 133.552 62.3638 134.689 62.7602 135.738C60.2501 137.707 58.4446 140.462 57.6519 143.567C55.8465 142.43 53.7327 141.73 51.4428 141.73C46.0263 141.73 41.4906 145.491 40.3016 150.521C39.4209 150.346 38.5401 150.215 37.6154 150.215C30.8778 150.215 25.4173 155.638 25.4173 162.329C25.4173 163.16 25.5054 163.947 25.6375 164.691C19.7366 165.872 15.2449 172.169 15.2449 179.823C15.2449 188.307 20.7935 195.174 27.6191 195.174C30.2173 195.174 32.6393 194.168 34.6649 192.462C36.7346 196.179 40.742 198.716 45.3217 198.716C48.6245 198.716 51.619 197.404 53.8208 195.305C54.7455 197.317 56.8153 198.716 59.1932 198.716C62.0115 198.716 64.3895 196.704 64.962 194.08C64.962 194.08 72.8005 194.561 72.272 186.47C72.8885 186.558 73.5491 186.645 74.2096 186.645C80.9472 186.645 86.4077 181.222 86.4077 174.531C86.4077 174.225 86.4077 173.962 86.3637 173.656C86.4958 173.7 86.6719 173.7 86.804 173.744C91.7361 176.499 95.5233 172.344 95.5233 172.344C95.3031 173.044 95.1269 173.831 95.0389 174.575C94.026 181.747 95.5233 187.389 101.865 188.264C103.23 188.438 105.299 188.089 106.62 187.739C106.532 187.608 106.841 192.375 113.05 190.188Z" fill="url(#paint0_linear_146_4)"/>
<path d="M96.3158 314L91.9562 159.749C91.9122 158.83 91.1635 158.087 90.2388 158.087C89.314 158.087 88.5214 158.83 88.5214 159.749L84.1617 314H96.3158Z" fill="#004F74"/>
<path d="M91.2076 168.233L101.292 155.681C101.732 155.157 102.481 155.069 103.009 155.463C103.538 155.856 103.67 156.6 103.274 157.125L91.9563 173.306L91.2076 168.233Z" fill="#004F74"/>
<path d="M91.0755 200.772L116.573 181.266C117.101 180.872 117.85 180.96 118.29 181.441C118.73 181.966 118.642 182.709 118.158 183.147L90.6792 206.632L91.0755 200.772Z" fill="#004F74"/>
<path d="M88.7416 206.676L63.6849 187.52C63.1565 187.126 62.4079 187.214 61.9675 187.695C61.5271 188.22 61.6152 188.963 62.0996 189.401L87.3325 210.962C88.1692 211.661 89.4462 211.049 89.3582 209.956L89.182 207.594C89.182 207.201 89.0059 206.894 88.7416 206.676Z" fill="#003C60"/>
<path d="M126.393 134.383C126.348 134.383 126.348 134.383 126.527 134.471C126.438 134.427 126.393 134.427 126.393 134.383Z" fill="#00C6B2"/>
<path d="M134.407 155.288C134.407 155.288 134.407 155.332 134.452 155.421C134.407 155.376 134.407 155.332 134.407 155.288Z" fill="#00C6B2"/>
<path d="M136.433 159.836C136.433 159.836 136.478 159.836 136.567 159.836C136.522 159.88 136.478 159.88 136.433 159.836Z" fill="#00C6B2"/>
<path d="M150.877 173.744C150.922 173.877 150.966 173.877 150.922 173.832C150.922 173.788 150.877 173.788 150.877 173.744Z" fill="#00C6B2"/>
<path d="M134.674 189.007C134.674 189.007 134.629 189.007 134.539 189.007H134.584C134.629 188.963 134.629 188.963 134.674 189.007Z" fill="#00C6B2"/>
<path d="M149.865 164.431C149.865 164.431 149.865 164.342 149.776 164.253C149.776 164.253 149.776 164.253 149.776 164.298C149.821 164.342 149.821 164.386 149.865 164.431Z" fill="#00C6B2"/>
<path d="M156.955 187.608C156.91 187.608 156.91 187.608 156.955 187.608C156.91 187.608 156.866 187.564 156.866 187.564C156.866 187.564 156.866 187.564 156.822 187.564C156.734 187.52 156.822 187.476 156.955 187.608Z" fill="#00C6B2"/>
<path d="M155.985 185.117C155.985 185.073 155.985 185.073 155.985 185.117C156.03 185.029 156.03 184.984 156.075 184.94C156.119 184.896 156.075 184.94 155.985 185.117Z" fill="#00C6B2"/>
<path d="M145.064 161.892C145.064 161.936 145.109 161.981 145.109 162.025C145.154 162.069 145.109 162.069 145.064 161.892C145.064 161.848 145.064 161.892 145.064 161.892Z" fill="#00C6B2"/>
<path d="M158.099 175.712C158.099 175.755 158.099 175.799 158.099 175.843C158.143 175.974 158.099 176.062 158.099 175.712Z" fill="#00C6B2"/>
<path d="M158.277 184.46C158.322 184.504 158.322 184.504 158.143 184.371H158.188C158.188 184.415 158.232 184.415 158.277 184.46Z" fill="#00C6B2"/>
<path d="M133.659 193.206C133.703 193.206 133.703 193.162 133.748 193.162C133.748 193.206 133.703 193.206 133.659 193.206Z" fill="#00C6B2"/>
<path d="M156.338 187.127C156.293 187.039 156.293 187.039 156.338 187.127V187.127Z" fill="#00C6B2"/>
<path d="M143.128 153.54C143.082 153.494 143.082 153.494 143.128 153.54C143.082 153.494 143.082 153.494 143.128 153.54Z" fill="#00C6B2"/>
<path d="M110.452 127.212V127.256C110.452 127.167 110.407 126.99 110.452 127.212Z" fill="#00C6B2"/>
<path d="M138.767 161.192C138.812 161.192 138.812 161.236 138.856 161.281C138.812 161.236 138.767 161.192 138.767 161.192Z" fill="#00C6B2"/>
<path d="M126.877 189.094C126.789 189.182 126.833 189.138 126.877 189.094V189.094Z" fill="#00C6B2"/>
<path d="M148.456 188.482C148.367 188.482 148.323 188.482 148.279 188.438C148.279 188.438 148.367 188.438 148.456 188.482Z" fill="#00C6B2"/>
<path d="M148.895 188.309C148.942 188.263 148.942 188.263 148.895 188.309V188.309Z" fill="#00C6B2"/>
<path d="M127.185 195.655C127.23 195.699 127.318 195.699 127.362 195.699C127.274 195.699 127.23 195.655 127.185 195.655Z" fill="#00C6B2"/>
<path d="M151.626 167.14C150.481 166.965 149.38 166.965 148.323 167.14C148.455 166.659 148.587 166.178 148.675 165.653C149.336 161.061 146.561 156.775 142.202 154.807C141.497 151.483 138.943 148.64 135.464 147.372C136.565 145.054 137.05 142.43 136.785 139.675C135.993 131.627 128.771 125.723 120.668 126.554C119.215 126.685 117.806 127.035 116.485 127.604C116.529 126.904 116.485 126.161 116.441 125.461C115.648 117.414 108.426 111.51 100.323 112.341C96.6682 112.69 93.4535 114.396 91.0756 116.845C91.1196 116.845 91.1636 116.801 91.1636 116.801C93.1012 115.752 95.3471 115.183 97.593 115.227C101.16 115.315 104.639 117.064 107.017 119.644C109.747 122.662 110.892 126.773 110.54 130.796C110.54 130.971 110.496 131.146 110.496 131.321C110.496 131.409 110.496 131.496 110.452 131.584C110.364 132.021 110.319 132.502 110.275 132.983C110.275 133.071 110.275 133.202 110.319 133.289C110.804 133.071 111.288 132.852 111.817 132.633C116.661 130.84 122.826 131.54 126.833 134.908C130.312 137.881 132.426 142.823 129.607 146.978C129.211 147.547 128.551 148.159 128.418 148.815C129.607 148.815 130.664 148.859 131.765 149.34C133.703 150.171 135.2 151.92 135.861 153.888C136.433 155.55 136.433 157.431 135.817 159.049C136.609 159.18 137.402 159.311 138.106 159.705C139.075 160.23 139.912 161.017 140.528 161.935C141.145 162.854 141.541 163.903 141.673 164.997C141.806 166.09 141.629 167.184 141.145 168.146C140.925 168.583 140.617 168.977 140.308 169.37C140.837 169.239 141.365 169.152 141.938 169.108C143.875 168.933 145.813 169.283 147.574 170.07C149.16 170.595 150.657 171.513 151.714 172.825C153.695 175.318 154.444 179.429 151.538 181.528C150.657 182.141 149.644 182.447 148.587 182.491C147.53 182.534 146.473 182.316 145.461 181.966C145.417 182.053 145.417 182.141 145.372 182.228C145.108 184.152 144.272 185.639 142.686 186.951C141.013 188.395 138.899 189.094 136.653 189.138C136.257 189.138 135.861 189.138 135.464 189.094C135.288 189.094 135.112 189.051 134.936 189.051C134.848 189.051 134.76 189.051 134.672 189.007C134.672 189.007 134.672 189.007 134.584 189.007H134.54C133.703 188.876 132.91 188.701 132.118 188.438C131.677 188.307 131.281 188.176 130.884 188.001C130.84 188.001 130.796 187.957 130.752 187.957C130.4 188.351 130.004 188.701 129.563 189.007C128.551 189.794 127.406 190.407 126.217 190.931C125.028 191.412 123.795 191.806 122.562 192.025C121.901 192.156 121.196 192.243 120.492 192.243C119.699 192.243 118.907 192.156 118.158 191.981C117.762 191.893 117.365 191.762 116.969 191.631C115.912 191.456 114.855 191.15 113.886 190.669C113.71 190.581 113.578 190.581 113.446 190.625C115.208 192.506 117.718 193.862 120.58 194.255C123.618 194.692 126.569 193.949 128.859 192.462C129.475 194.299 131.193 195.742 133.395 196.048C136.037 196.398 138.459 195.042 139.295 192.856C142.642 192.2 145.505 190.144 146.958 187.301C147.53 187.476 148.147 187.608 148.763 187.695C155.016 188.57 160.697 184.634 161.49 178.992C162.282 173.263 157.835 167.971 151.626 167.14Z" fill="#00B6AF"/>
<path d="M61.9675 132.283C62.0996 133.464 62.3198 134.601 62.7161 135.651C60.206 137.619 58.4005 140.374 57.6079 143.479C55.8024 142.342 53.6886 141.643 51.3987 141.643C45.9823 141.643 41.4465 145.404 40.2575 150.433C39.3768 150.258 38.4961 150.127 37.5713 150.127C30.8337 150.127 25.3732 155.55 25.3732 162.242C25.3732 163.072 25.4613 163.86 25.5934 164.603C19.6925 165.784 15.2008 172.082 15.2008 179.735C15.2008 188.22 20.7494 195.086 27.575 195.086C30.1732 195.086 32.5952 194.08 34.6209 192.375C36.6906 196.092 40.6979 198.629 45.2777 198.629C48.2722 198.629 51.0464 197.535 53.1602 195.742L53.4685 195.217C52.3675 196.748 50.3419 197.535 48.4483 197.492C46.5547 197.492 44.7052 196.792 42.9878 195.873C39.4649 193.993 36.3823 191.019 34.9291 187.301C31.7585 189.226 27.3549 188.264 24.8007 185.596C22.2466 182.928 21.4099 178.948 21.9824 175.318C22.2907 173.263 22.9953 171.251 24.2723 169.589C25.5494 167.927 27.3549 166.659 29.4246 166.265C27.487 162.766 28.5879 158.043 31.5824 155.332C34.5328 152.62 38.9805 151.833 42.8997 152.707L43.0318 152.62C43.1199 150.346 44.6171 148.334 46.5547 147.153C48.4923 145.972 50.8263 145.579 53.0721 145.491C55.9345 145.404 58.7969 145.797 61.4831 146.672L61.5271 146.497C61.1748 142.78 63.2005 138.931 66.5473 137.138C63.4207 131.365 64.2574 123.712 68.617 118.77L68.3528 118.857C63.9932 121.743 61.439 126.817 61.9675 132.283Z" fill="#008A9A"/>
<path d="M89.27 314V158.393C88.8296 158.699 88.5214 159.18 88.5214 159.749L84.1617 314H89.27Z" fill="#003C60"/>
<path d="M41.8428 278.269C54.0761 278.269 63.9931 277.172 63.9931 275.82C63.9931 274.467 54.0761 273.371 41.8428 273.371C29.6095 273.371 19.6925 274.467 19.6925 275.82C19.6925 277.172 29.6095 278.269 41.8428 278.269Z" fill="#1BC38C"/>
<path d="M127.915 91.6206C122.676 84.9619 112.198 82.1947 110.336 73.9362C109.254 69.1367 111.678 64.2076 111.505 59.3217C111.289 53.2251 106.699 47.5609 100.767 46.134C95.0951 44.7504 88.2106 46.6961 84.0107 42.6317C80.6334 39.3456 80.9798 33.8976 79.1179 29.5738C77.9489 26.9362 69.9819 16.4726 56.5161 17.64C52.4027 17.9859 48.246 19.5425 44.3059 18.4183C37.8111 16.5158 35.3864 8.68968 30.407 4.14967C24.8648 -1.03892 15.5556 -1.38482 9.58041 3.24167C2.91242 8.47349 0.141319 18.9371 -8.12872 20.7964C-12.9349 21.8773 -17.8709 19.456 -22.7636 19.629C-28.8687 19.8451 -34.5409 24.4284 -35.9697 30.352C-37.3553 36.0162 -35.4068 42.8911 -39.4769 47.0852C-42.7676 50.4578 -48.3531 49.8957 -52.5531 51.9712C-66.322 58.8893 -59.0046 71.6446 -65.1097 80.8543C-71.2148 90.064 -80.827 94.4743 -81.0002 110.04C-81.1734 125.606 -68.1839 124.179 -63.5076 135.767C-58.8314 147.355 -64.5901 161.926 -47.0541 170.271C-29.5182 178.616 -14.7967 174.076 -14.7967 174.076C-9.08128 172.044 -2.71638 171.957 3.04233 173.816C7.84846 175.373 12.1783 178.27 16.8546 180.173C31.0998 186.01 48.8522 181.902 59.114 170.401C62.5779 166.509 65.5222 161.71 70.3716 159.894C76.7798 157.516 83.7509 161.234 90.5921 161.753C96.7838 162.229 103.149 159.851 107.479 155.44C111.852 151.03 114.103 144.631 113.54 138.448C113.151 134.34 111.635 130.189 112.761 126.254C114.666 119.769 122.503 117.347 127.049 112.375C132.202 106.84 132.548 97.5443 127.915 91.6206Z" fill="#30D9A1"/>
<path d="M127.742 91.7069C122.503 85.0482 112.025 82.281 110.163 74.0225C109.081 69.223 111.505 64.2939 111.332 59.408C111.116 53.3114 106.526 47.6472 100.594 46.2203C94.9221 44.8367 88.0376 46.7824 83.8377 42.718C80.4604 39.4319 80.8068 33.9839 78.9449 29.6601C77.2996 25.9416 74.0522 23.5202 69.9388 20.58C71.5842 24.2985 72.1903 30.0925 72.6233 34.0704C72.9697 37.5727 72.4068 42.0694 74.7882 45.0096C78.4686 49.5497 85.4397 47.3445 90.3757 48.5552C95.8747 49.9388 100.118 55.3436 100.291 61.1807C100.421 65.8937 98.2128 70.6067 99.2087 75.1899C100.941 83.1025 110.639 85.7401 115.446 92.1393C119.775 97.8468 119.429 106.754 114.666 112.072C110.423 116.828 103.192 119.12 101.417 125.346C100.334 129.108 101.763 133.129 102.11 137.021C102.629 142.944 100.508 149.041 96.4809 153.278C92.4541 157.516 86.5655 159.764 80.8501 159.332C74.5285 158.813 68.077 155.224 62.1451 157.559C57.642 159.288 54.9142 163.915 51.7101 167.633C42.2277 178.659 25.8176 182.55 12.6115 176.973C8.28163 175.113 4.29816 172.389 -0.161598 170.876C-4.92444 169.276 -10.1636 169.147 -15.013 170.573L-15.0996 174.205C-9.3842 172.173 -3.01931 172.087 2.73941 173.946C7.54555 175.503 11.8754 178.4 16.5517 180.302C30.7969 186.139 48.5493 182.032 58.8111 170.53C62.275 166.639 65.2193 161.839 70.0687 160.023C76.4769 157.645 83.448 161.364 90.2891 161.883C96.4808 162.358 102.846 159.98 107.176 155.57C111.549 151.159 113.8 144.76 113.237 138.577C112.848 134.47 111.332 130.319 112.458 126.384C114.363 119.898 122.2 117.477 126.747 112.505C132.029 106.927 132.419 97.6306 127.742 91.7069Z" fill="#36E7B8"/>
<path d="M39.7165 74.4549L39.1969 82.1945L38.5907 91.6637" stroke="#004F74" stroke-width="4.7109" stroke-miterlimit="10" stroke-linecap="round" stroke-linejoin="round"/>
<path d="M34.7371 75.1467L39.1968 82.1945" stroke="#004F74" stroke-width="4.7109" stroke-miterlimit="10" stroke-linecap="round" stroke-linejoin="round"/>
<path d="M-3.40894 90.7989L11.6157 99.9654" stroke="#004F74" stroke-width="4.7109" stroke-miterlimit="10" stroke-linecap="round" stroke-linejoin="round"/>
<path d="M1.00745 86.3022L5.07752 95.9875" stroke="#004F74" stroke-width="4.7109" stroke-miterlimit="10" stroke-linecap="round" stroke-linejoin="round"/>
<path d="M25.3846 82.2378L13.694 96.8955" stroke="#004F74" stroke-width="4.7109" stroke-miterlimit="10" stroke-linecap="round" stroke-linejoin="round"/>
<path d="M30.4939 87.5993L19.1063 90.4963" stroke="#004F74" stroke-width="4.7109" stroke-miterlimit="10" stroke-linecap="round" stroke-linejoin="round"/>
<path d="M32.0526 114.104L56.7761 121.368" stroke="#004F74" stroke-width="4.7109" stroke-miterlimit="10" stroke-linecap="round" stroke-linejoin="round"/>
<path d="M46.5144 118.169L55.9968 115.445" stroke="#004F74" stroke-width="4.7109" stroke-miterlimit="10" stroke-linecap="round" stroke-linejoin="round"/>
<path d="M-2.75943 133.734L10.0569 121.671L12.1786 84.8753C12.2219 84.097 12.8714 83.4484 13.694 83.4484C14.5167 83.4484 15.2095 84.1402 15.2095 84.9618L14.5167 116.785L46.0814 82.7134C46.6875 82.0648 47.7267 82.0216 48.4195 82.6269C49.1123 83.2322 49.1556 84.27 48.5494 84.9618L22.1806 114.753L46.601 109.089C47.3803 108.916 48.1597 109.435 48.2463 110.256C48.3329 110.905 47.8999 111.51 47.2937 111.726L19.2362 119.941L4.99102 138.015L9.84046 299.899H-12.2418L-7.39238 135.161L-2.75943 133.734Z" fill="#004F74"/>
<path d="M-2.2831 133.216L-2.75939 133.734L-7.47893 135.118L-12.3284 299.856H1.87356L-2.2831 133.216Z" fill="#003C60"/>
<path d="M10.0136 121.671L-2.80273 133.734L-4.40479 134.21V142.685L47.4669 82.2378C46.9473 82.1513 46.3845 82.3242 45.9948 82.7566L14.4301 116.828L10.0136 121.671Z" fill="#003C60"/>
<path d="M11.1827 101.479L12.395 121.325L9.927 123.011L11.1827 101.479Z" fill="#003C60"/>
<path d="M38.2876 113.369C38.3309 113.196 38.3742 113.023 38.4608 112.85C38.7639 112.202 39.1536 111.597 39.5 110.991C39.7597 110.516 39.9762 109.997 40.1494 109.478C40.236 109.478 40.2793 109.435 40.3226 109.348C40.4958 109.089 40.669 108.873 40.8422 108.656C40.8855 108.786 40.9288 108.873 41.0154 108.959C41.102 109.045 41.2319 109.089 41.3618 109.132C41.4917 109.175 41.6216 109.218 41.7948 109.262C41.7948 109.262 41.7948 109.262 41.7948 109.305C41.0587 110.429 40.4092 111.683 39.9329 112.937C39.8463 113.153 39.7598 113.369 39.6299 113.586C39.5 113.802 39.3268 113.931 39.1103 114.018C38.8938 114.104 38.634 114.061 38.4608 113.888C38.3309 113.715 38.2876 113.542 38.2876 113.369Z" fill="#EFEFEF"/>
<path d="M48.3329 101.998C48.3762 101.998 48.4195 102.041 48.4195 102.084C48.4195 102.127 48.3762 102.127 48.3762 102.127C47.7267 102.387 46.9907 102.387 46.3412 102.214C46.5577 102.084 46.7742 101.954 47.034 101.825C47.1206 101.781 47.2505 101.695 47.3803 101.695C47.4669 101.695 47.5968 101.738 47.6834 101.738C47.8999 101.825 48.1164 101.911 48.3329 101.998Z" fill="#004F74"/>
<path d="M44.0464 101.046C44.2196 100.787 44.6092 100.657 44.9123 100.614C45.2587 100.528 45.6051 100.528 45.9515 100.571C46.3412 100.614 46.6876 100.701 46.9907 100.917C47.0773 101.003 47.2072 101.09 47.2505 101.176C47.3804 101.349 47.4669 101.565 47.5102 101.781C47.4669 101.781 47.3804 101.738 47.3371 101.738C47.2072 101.738 47.1206 101.825 46.9907 101.868C46.7742 101.998 46.5577 102.127 46.2979 102.257C46.5577 102.344 46.8175 102.387 47.1206 102.387C46.6876 102.689 46.168 102.906 45.6051 102.992C45.2154 103.079 44.7391 103.079 44.4361 102.819C44.2196 102.689 44.0897 102.473 44.0031 102.214C43.9165 102.041 43.8732 101.825 43.8732 101.652C43.8732 101.392 43.9165 101.219 44.0464 101.046Z" fill="#E3E3E3"/>
<path d="M45.6483 102.949C46.1679 102.862 46.6875 102.646 47.1638 102.344C47.2071 102.344 47.2937 102.344 47.337 102.344C47.337 102.387 47.337 102.387 47.2937 102.43C47.0772 102.906 47.1638 103.684 46.6442 103.857C46.1679 103.987 45.7349 103.468 45.2153 103.425C45.0854 103.425 44.9556 103.425 44.8257 103.338C44.7391 103.295 44.6525 103.165 44.6525 103.079C44.6525 102.992 44.6525 102.949 44.6958 102.906C44.9555 102.992 45.3019 102.992 45.6483 102.949Z" fill="white"/>
<path d="M42.1846 110.775C42.1413 110.689 42.098 110.645 42.098 110.559C42.0547 110.472 42.0547 110.386 42.0547 110.299C42.0547 109.997 41.9248 108.959 41.9248 108.7C41.9681 108.7 42.098 108.397 42.1413 108.786L42.2279 110.04C42.4011 110.213 42.531 110.429 42.7042 110.602C42.7475 110.645 42.7475 110.689 42.7908 110.732C42.7908 110.775 42.7908 110.818 42.7475 110.861C42.7908 110.948 42.8341 111.034 42.8341 111.121C42.8341 111.164 42.8341 111.164 42.8341 111.207C42.8341 111.251 42.7908 111.251 42.7908 111.251C42.7475 111.251 42.7475 111.251 42.7042 111.251C42.6609 111.251 42.6609 111.207 42.6609 111.164C42.6176 111.121 42.5743 111.078 42.531 110.991C42.5743 111.078 42.531 111.251 42.4444 111.294C42.4011 111.251 42.4011 111.207 42.3578 111.164C42.3578 111.207 42.3578 111.294 42.3145 111.337C42.2712 111.38 42.2712 111.424 42.1846 111.467C42.1413 111.467 42.0547 111.467 42.0547 111.38C42.0547 111.294 42.098 111.251 42.1413 111.207C42.1846 111.078 42.2279 110.905 42.1846 110.775Z" fill="#004F74"/>
<path d="M43.9164 108.397C43.9597 108.397 44.0463 108.354 44.0896 108.354L45.8649 109.651C46.0381 109.694 46.2113 109.737 46.3412 109.867C46.4711 109.997 46.5577 110.17 46.5577 110.343C46.5577 110.516 46.4711 110.732 46.2979 110.818C46.2979 110.775 46.3412 110.689 46.3412 110.645C46.2979 110.775 46.2113 110.861 46.1247 110.948C46.1247 110.905 46.1247 110.861 46.1247 110.818C46.0381 110.948 45.9515 110.991 45.8216 111.034C45.6917 111.034 45.5618 110.948 45.5185 110.818C45.6917 110.905 45.9082 110.905 46.0381 110.775C46.0814 110.732 46.1247 110.689 46.1247 110.645C46.1247 110.602 46.1247 110.516 46.0814 110.472C45.9948 110.429 45.9082 110.472 45.8649 110.559C45.8216 110.645 45.8649 110.732 45.9082 110.775C45.8649 110.818 45.7783 110.775 45.7783 110.732C45.735 110.689 45.7783 110.602 45.7783 110.559C45.8216 110.516 45.8649 110.472 45.8649 110.429C45.9082 110.343 45.9082 110.256 45.8649 110.17C45.8216 110.083 45.7783 109.997 45.6917 109.997C45.6484 109.997 45.6051 109.997 45.5618 109.997C45.5185 109.953 45.5185 109.91 45.4752 109.867C45.4319 109.737 45.3453 109.608 45.2154 109.521L43.7 108.44C43.8298 108.44 43.8731 108.44 43.9164 108.397Z" fill="#004F74"/>
<path d="M40.7991 108.31C40.8424 107.619 41.3187 107.013 41.7083 106.451C42.098 105.889 42.531 105.37 42.9207 104.808C43.2238 104.419 43.5269 103.987 43.9166 103.727C44.1331 103.554 44.4362 103.425 44.6959 103.338C44.7392 103.381 44.7392 103.381 44.7825 103.381C44.9124 103.468 45.0423 103.425 45.1722 103.468C45.6918 103.468 46.1248 104.03 46.6011 103.9C46.731 103.857 46.8176 103.77 46.8609 103.684C46.9042 103.943 46.7743 104.419 46.7743 104.678C46.7743 105.154 46.731 105.673 46.6444 106.149C46.5145 106.667 46.298 107.186 45.9949 107.662C45.5186 108.397 44.7392 108.959 43.9166 109.262C43.0506 109.521 42.1413 109.521 41.2754 109.218C41.1455 109.175 41.0156 109.132 40.929 109.045C40.7991 108.786 40.7991 108.527 40.7991 108.31Z" fill="white"/>
<path d="M40.0629 109.218C40.1928 108.613 40.366 108.094 40.4526 107.489C40.6258 105.932 41.3186 104.462 42.4011 103.338C42.6176 103.122 42.8773 102.906 43.1804 102.819C43.4835 102.733 43.8732 102.819 44.0464 103.079C44.133 103.252 44.1763 103.425 44.133 103.641C44.0897 103.684 44.0464 103.684 44.0031 103.727C43.6134 104.03 43.3103 104.419 43.0072 104.808C42.6176 105.37 42.1846 105.889 41.7949 106.451C41.3619 107.013 40.9289 107.619 40.8856 108.31C40.8856 108.44 40.8856 108.527 40.8856 108.656C40.7124 108.873 40.5392 109.132 40.366 109.348C40.3227 109.391 40.2794 109.478 40.1928 109.478C40.1495 109.478 40.1062 109.435 40.1062 109.348C40.0197 109.305 40.0629 109.262 40.0629 109.218Z" fill="#E3E3E3"/>
<path d="M43.8732 101.609C43.8732 101.825 43.9598 101.998 44.0031 102.171C44.0897 102.387 44.2628 102.603 44.436 102.776C44.4793 102.819 44.5659 102.862 44.6525 102.906C44.6525 102.949 44.6092 103.035 44.6092 103.079C44.6092 103.165 44.6525 103.252 44.6958 103.295C44.4793 103.381 44.2628 103.468 44.0463 103.597C44.0896 103.425 44.0463 103.208 43.9598 103.035C43.7866 102.776 43.3969 102.689 43.0938 102.776C42.834 102.862 42.6175 103.035 42.401 103.208C42.7041 102.776 43.0072 102.344 43.267 101.868C43.4402 101.609 43.6134 101.349 43.8298 101.09C43.8298 101.09 43.8732 101.046 43.9165 101.003C43.9165 101.219 43.8732 101.436 43.8732 101.609Z" fill="#C9C9C9"/>
<path d="M39.7164 108.613C39.8463 108.354 40.0195 108.094 40.1927 107.835C40.2793 107.748 40.3226 107.662 40.4092 107.532C40.3659 107.878 40.2793 108.181 40.1927 108.483C40.1061 108.57 40.0195 108.656 39.9329 108.743C39.8463 108.786 39.7597 108.829 39.7164 108.786C39.6731 108.786 39.6731 108.7 39.7164 108.613Z" fill="#E3E3E3"/>
<path d="M55.3905 89.4586C55.4771 89.545 55.5637 89.5883 55.6503 89.718C55.9967 90.2369 56.3431 90.7557 56.8627 91.1449C57.0792 91.3178 57.2957 91.4908 57.5555 91.707C58.075 92.1393 58.2915 92.6582 58.1616 93.3068C58.0317 93.9553 57.5988 94.3445 56.9493 94.5174C56.8627 94.5607 56.7761 94.5607 56.6462 94.5607C56.473 94.5607 56.2998 94.431 56.2998 94.258C56.2998 94.0851 56.4297 93.9553 56.6029 93.9553C57.0792 93.9121 57.4689 93.6094 57.5122 93.1338C57.5554 92.7879 57.4256 92.4852 57.1225 92.2258C56.6462 91.8799 56.2132 91.4908 55.8235 91.0584C55.7802 90.9719 55.6936 90.9287 55.607 90.8422C55.607 90.8854 55.607 90.9287 55.607 90.9719C55.607 92.5717 55.607 94.1715 55.607 95.8146C55.607 96.5496 55.0008 97.1117 54.3081 97.0685C53.7452 97.0685 53.2256 96.6361 53.139 96.0308C53.139 95.9875 53.139 95.9875 53.0957 95.9443C53.0957 95.8146 53.0957 95.7281 53.0957 95.5984C53.0957 95.5552 53.0957 95.5552 53.0957 95.5119C53.2256 94.8201 53.8751 94.3877 54.5679 94.5174C54.6977 94.5607 54.8276 94.6039 55.0008 94.6471C55.0008 94.6039 55.0008 94.5607 55.0008 94.5174C55.0008 92.9609 55.0008 91.361 55.0008 89.8045C55.0008 89.6315 55.0441 89.4586 55.2173 89.3721C55.3039 89.4586 55.3472 89.4586 55.3905 89.4586Z" fill="white"/>
<path d="M61.4523 102.819C61.4523 102.776 61.4523 102.733 61.4523 102.689C61.4523 101.349 61.4523 99.9654 61.4523 98.6251C61.4523 98.3656 61.5389 98.2791 61.7554 98.2359C63.1842 97.8468 64.6564 97.4144 66.0852 97.0252C66.3883 96.9388 66.5615 97.0685 66.5615 97.3711C66.5615 99.1439 66.5615 100.873 66.5615 102.646C66.5615 103.381 65.9553 103.943 65.2625 103.9C64.6564 103.9 64.0935 103.381 64.0502 102.733C64.0069 102.084 64.4399 101.522 65.0893 101.392C65.3924 101.349 65.5223 101.349 65.9553 101.522C65.9553 100.657 65.9553 99.7925 65.9553 98.9277C64.6997 99.2736 63.4007 99.6628 62.145 100.009C62.145 100.052 62.145 100.095 62.145 100.138C62.145 101.392 62.145 102.603 62.145 103.857C62.145 104.592 61.5822 105.154 60.8461 105.111C60.2399 105.111 59.677 104.592 59.6337 103.943C59.5904 103.295 60.0234 102.733 60.6729 102.603C60.8894 102.603 61.1492 102.689 61.4523 102.819Z" fill="white"/>
<path d="M14.5167 100.787C14.4734 100.614 14.4301 100.441 14.3435 100.268C14.0404 99.6195 13.6507 99.0142 13.3043 98.4089C13.0446 97.9333 12.8281 97.4144 12.6549 96.8955C12.5683 96.8955 12.525 96.8523 12.4817 96.7658C12.3085 96.5064 12.1353 96.2902 11.9621 96.074C11.9188 96.2037 11.8755 96.2902 11.7889 96.3767C11.7023 96.4631 11.5724 96.5064 11.4425 96.5496C11.3126 96.5929 11.1827 96.6361 11.0095 96.6793C11.0095 96.6793 11.0095 96.6793 11.0095 96.7226C11.7456 97.8468 12.3951 99.1007 12.8714 100.355C12.958 100.571 13.0446 100.787 13.1745 101.003C13.3043 101.219 13.4775 101.349 13.694 101.436C13.9105 101.522 14.1703 101.479 14.3435 101.306C14.5167 101.176 14.56 100.96 14.5167 100.787Z" fill="#EFEFEF"/>
<path d="M4.47136 89.4153C4.42806 89.4153 4.38477 89.4586 4.38477 89.5018C4.38477 89.545 4.42807 89.545 4.42807 89.545C5.07755 89.8045 5.81362 89.8045 6.4631 89.6315C6.24661 89.5018 6.03011 89.3721 5.77032 89.2424C5.68372 89.1991 5.55383 89.1127 5.42394 89.1127C5.33734 89.1127 5.20744 89.1559 5.12084 89.1559C4.94765 89.2424 4.68785 89.3288 4.47136 89.4153Z" fill="#004F74"/>
<path d="M8.80129 88.4641C8.62809 88.2046 8.23841 88.0749 7.93532 88.0317C7.58893 87.9452 7.24254 87.9452 6.89615 87.9885C6.50647 88.0317 6.16008 88.1182 5.85699 88.3344C5.77039 88.4208 5.6405 88.5073 5.5972 88.5938C5.4673 88.7667 5.3807 88.9829 5.3374 89.1991C5.3807 89.1991 5.4673 89.1559 5.5106 89.1559C5.6405 89.1559 5.72709 89.2424 5.85699 89.2856C6.07348 89.4153 6.28997 89.545 6.54976 89.6747C6.28997 89.7612 6.03018 89.8045 5.72709 89.8045C6.16008 90.1071 6.67966 90.3233 7.24254 90.4098C7.63223 90.4963 8.10851 90.4963 8.4116 90.2368C8.6281 90.1071 8.75799 89.8909 8.84459 89.6315C8.93119 89.4586 8.97449 89.2424 8.97449 89.0694C8.97449 88.8532 8.88789 88.637 8.80129 88.4641Z" fill="#E3E3E3"/>
<path d="M7.15593 90.3665C6.63635 90.2801 6.11677 90.0639 5.64048 89.7612C5.59718 89.7612 5.51058 89.7612 5.46729 89.7612C5.46729 89.8045 5.46729 89.8045 5.51059 89.8477C5.72708 90.3233 5.64048 91.1016 6.16007 91.2746C6.63635 91.4043 7.06934 90.8854 7.58892 90.8422C7.71882 90.8422 7.84871 90.8422 7.9786 90.7557C8.0652 90.7125 8.1518 90.5827 8.1518 90.4963C8.1518 90.4098 8.1518 90.3665 8.1085 90.3233C7.84871 90.453 7.50232 90.453 7.15593 90.3665Z" fill="white"/>
<path d="M10.3167 98.4521C10.36 98.3656 10.4033 98.3224 10.4033 98.2359C10.4466 98.1494 10.4466 98.063 10.4466 97.9765C10.4466 97.6738 10.5765 96.6361 10.5765 96.3767C10.5332 96.3767 10.4033 96.074 10.36 96.4631L10.2734 97.7171C10.1002 97.89 9.97033 98.1062 9.79713 98.2792C9.75383 98.3224 9.75384 98.3656 9.71054 98.4089C9.71054 98.4521 9.71054 98.4953 9.75384 98.5386C9.71054 98.6251 9.66724 98.7115 9.66724 98.798C9.66724 98.8412 9.66724 98.8412 9.66724 98.8845C9.66724 98.9277 9.71054 98.9277 9.71054 98.9277C9.75384 98.9277 9.75383 98.9277 9.79713 98.9277C9.84043 98.9277 9.84043 98.8845 9.84043 98.8412C9.88373 98.798 9.92703 98.7548 9.97033 98.6683C9.92703 98.7548 9.97033 98.9277 10.0569 98.971C10.1002 98.9277 10.1002 98.8845 10.1435 98.8412C10.1435 98.8845 10.1435 98.971 10.1868 99.0142C10.2301 99.0574 10.2301 99.1007 10.3167 99.1439C10.36 99.1439 10.4466 99.1439 10.4466 99.0574C10.4466 98.971 10.4033 98.9277 10.36 98.8845C10.2734 98.7548 10.2301 98.5818 10.3167 98.4521Z" fill="#004F74"/>
<path d="M8.93113 95.2957C8.88783 95.2957 8.80123 95.2525 8.75794 95.2525L6.98269 96.5496C6.8095 96.5929 6.63631 96.6361 6.50641 96.7658C6.37651 96.8955 6.28992 97.0685 6.28992 97.2414C6.28992 97.4144 6.37651 97.6306 6.5497 97.7171C6.5497 97.6738 6.50641 97.5874 6.50641 97.5441C6.54971 97.6738 6.63631 97.7603 6.7229 97.8468C6.7229 97.8035 6.7229 97.7603 6.7229 97.7171C6.8095 97.8468 6.8961 97.89 7.02599 97.9333C7.15589 97.9333 7.28578 97.8468 7.32908 97.7171C7.15589 97.8035 6.93939 97.8035 6.8095 97.6738C6.7662 97.6306 6.7229 97.5874 6.7229 97.5441C6.7229 97.5009 6.7229 97.4144 6.7662 97.3712C6.85279 97.3279 6.93939 97.3712 6.98269 97.4576C7.02599 97.5441 6.98269 97.6306 6.9394 97.6738C6.98269 97.7171 7.06929 97.6738 7.06929 97.6306C7.11258 97.5874 7.06929 97.5009 7.06929 97.4576C7.02599 97.4144 6.98269 97.3712 6.98269 97.3279C6.93939 97.2414 6.93939 97.155 6.98269 97.0685C7.02599 96.982 7.06929 96.8955 7.15589 96.8955C7.19919 96.8955 7.24248 96.8955 7.28578 96.8955C7.32908 96.8523 7.32908 96.8091 7.37238 96.7658C7.41568 96.6361 7.50227 96.5064 7.63217 96.4199L9.14762 95.339C9.01772 95.339 8.97443 95.339 8.93113 95.2957Z" fill="#004F74"/>
<path d="M12.0053 95.7281C11.962 95.0363 11.4857 94.431 11.0961 93.8689C10.7064 93.3068 10.2734 92.7879 9.8837 92.2258C9.58061 91.8367 9.27752 91.4043 8.88783 91.1449C8.67134 90.9719 8.36825 90.8422 8.10846 90.7557C8.06516 90.7989 8.06516 90.7989 8.02186 90.7989C7.89197 90.8854 7.76207 90.8422 7.63217 90.8854C7.11259 90.8854 6.6796 91.4475 6.20332 91.3178C6.07342 91.2746 5.98683 91.1881 5.94353 91.1016C5.90023 91.361 6.03012 91.8367 6.03012 92.0961C6.03012 92.5717 6.07342 93.0906 6.16002 93.5662C6.28992 94.0851 6.50641 94.6039 6.8095 95.0795C7.28579 95.8146 8.06516 96.3767 8.88783 96.6793C9.75381 96.9388 10.6631 96.9388 11.529 96.6361C11.6589 96.5929 11.7888 96.5496 11.8754 96.4632C12.0053 96.247 12.0486 95.9875 12.0053 95.7281Z" fill="white"/>
<path d="M12.7413 96.6361C12.6115 96.0308 12.4383 95.5119 12.3517 94.9066C12.1785 93.35 11.4857 91.8799 10.4032 90.7557C10.1867 90.5395 9.92694 90.3233 9.62385 90.2369C9.32076 90.1504 8.93107 90.2369 8.75788 90.4963C8.67128 90.6692 8.62798 90.8422 8.67128 91.0584C8.71458 91.1016 8.75788 91.1016 8.80117 91.1449C9.19086 91.4475 9.49395 91.8367 9.79704 92.2258C10.1867 92.7879 10.6197 93.3068 11.0094 93.8689C11.4424 94.431 11.8754 95.0363 11.9187 95.7281C11.9187 95.8578 11.9187 95.9443 11.9187 96.074C12.0919 96.2902 12.2651 96.5496 12.4383 96.7658C12.4816 96.8091 12.5249 96.8955 12.6115 96.8955C12.6547 96.8955 12.698 96.8523 12.698 96.7658C12.7846 96.7226 12.7846 96.6793 12.7413 96.6361Z" fill="#E3E3E3"/>
<path d="M8.93119 89.0262C8.93119 89.2424 8.84459 89.4153 8.80129 89.5883C8.7147 89.8045 8.5415 90.0207 8.36831 90.1936C8.32501 90.2368 8.23841 90.2801 8.15182 90.3233C8.15182 90.3666 8.19512 90.453 8.19512 90.4963C8.19512 90.5828 8.15182 90.6692 8.10852 90.7125C8.32501 90.7989 8.54151 90.8854 8.758 91.0151C8.7147 90.8422 8.758 90.626 8.8446 90.453C9.01779 90.1936 9.40748 90.1071 9.71057 90.1936C9.97036 90.2801 10.1869 90.453 10.4033 90.626C10.1003 90.1936 9.79717 89.7612 9.53738 89.2856C9.36418 89.0262 9.19099 88.7667 8.97449 88.5073C8.97449 88.5073 8.93119 88.4641 8.8879 88.4208C8.93119 88.6803 8.97449 88.8532 8.93119 89.0262Z" fill="#C9C9C9"/>
<path d="M8.10852 90.3666H8.15182C8.10852 90.3233 8.10852 90.3233 8.10852 90.3666Z" fill="#8A7147"/>
<path d="M13.0878 96.074C12.9579 95.8146 12.7847 95.5551 12.6115 95.2957C12.5249 95.2092 12.4816 95.1228 12.395 94.993C12.4383 95.3389 12.5249 95.6416 12.6115 95.9443C12.6981 96.0308 12.7847 96.1172 12.8713 96.2037C12.9579 96.247 13.0445 96.2902 13.0878 96.247C13.1744 96.2037 13.1311 96.1172 13.0878 96.074Z" fill="#E3E3E3"/>
<path d="M87.449 299.715L86.1486 259.978C81.179 260.683 76.0702 259.837 71.4258 257.439C65.9454 254.617 61.5332 249.914 55.9599 247.281C50.8046 244.836 44.5347 244.318 39.4258 246.905C34.5492 249.303 31.2981 254.053 28.1399 258.567C24.9817 263.035 21.3591 267.69 16.2503 269.524C13.6958 270.465 10.9092 270.606 8.21544 270.465C5.19658 270.324 2.13127 269.759 -0.562485 268.396C-3.25624 266.985 -5.57844 264.681 -6.50732 261.765V299.715H87.449Z" fill="url(#paint1_linear_146_4)"/>
<path d="M86.1951 259.931C81.2256 260.636 76.1167 259.79 71.4723 257.392C65.9919 254.57 61.5797 249.867 56.0064 247.234C50.8976 244.789 44.7205 244.318 39.6117 246.764C42.2126 246.435 44.8599 246.435 47.3214 247.234C49.9223 248.08 52.2445 249.679 54.3345 251.466C59.9077 256.075 64.7379 261.671 71.0543 265.151C75.7452 267.737 81.1327 269.054 86.4737 268.913L86.1951 259.931Z" fill="url(#paint2_linear_146_4)"/>
<path d="M158.462 299.715C158.694 297.128 158.09 294.307 156.883 291.955C154.282 286.83 149.452 282.974 143.925 281.61C140.349 280.716 136.54 280.857 132.918 280.246C129.249 279.682 125.44 278.13 123.49 274.932C121.4 271.499 122.003 267.079 121.121 263.129C119.542 256.028 112.807 250.667 105.609 249.962C98.4562 249.256 91.2109 252.783 86.5665 258.332C83.5476 261.953 81.4577 266.373 78.1137 269.665C74.0731 273.662 68.2675 275.779 62.6478 275.261C58.2821 274.885 54.2414 273.051 50.015 271.828C45.7886 270.606 41.0978 270.041 37.2429 272.111C33.3416 274.18 31.1123 278.365 29.6725 282.55C28.1863 286.736 27.2574 291.156 24.8424 294.871C23.5419 296.893 21.6842 298.68 19.5477 299.715H158.462Z" fill="#008EC6"/>
<path d="M156.929 291.955C154.328 286.83 149.498 282.974 143.971 281.61C140.395 280.716 136.587 280.857 132.964 280.246C129.295 279.682 125.487 278.13 123.536 274.932C121.446 271.499 122.05 267.079 121.167 263.129C119.588 256.028 112.854 250.667 105.655 249.961C104.355 249.82 103.054 249.867 101.754 250.009C102.218 250.15 102.729 250.338 103.147 250.573C105.005 251.419 106.723 252.548 108.302 253.818C109.742 254.993 111.043 256.357 112.111 257.909C113.504 259.931 114.526 262.188 115.315 264.492C116.105 266.797 116.616 269.148 117.034 271.499C117.823 275.496 118.427 280.152 121.911 282.738C125.905 285.701 130.642 285.372 135.147 286.689C139.559 287.958 143.553 291.062 145.969 294.965C146.851 296.423 147.548 298.022 148.059 299.668H158.462C158.694 297.081 158.09 294.26 156.929 291.955Z" fill="url(#paint3_linear_146_4)"/>
<path d="M21.1733 299.715H36.9179C39.3329 293.836 37.8932 286.312 41.5623 281.045C43.6522 278.036 47.3678 276.249 50.9904 276.437C53.2197 276.578 55.3561 277.425 57.5855 277.848C60.0934 278.365 62.7872 278.318 65.2023 277.377C66.6421 276.813 67.9425 275.967 68.9643 274.838C66.8743 275.355 64.7378 275.543 62.6014 275.355C58.2357 274.979 54.195 273.145 49.9686 271.923C45.7887 270.7 41.0514 270.136 37.1965 272.205C33.3417 274.18 31.1124 278.365 29.6726 282.55C28.1864 286.736 27.2575 291.156 24.8424 294.871C23.7742 296.564 21.1269 298.821 19.4084 299.903L21.1733 299.715Z" fill="url(#paint4_linear_146_4)"/>
<defs>
<linearGradient id="paint0_linear_146_4" x1="72.2107" y1="137.37" x2="84.9374" y2="171.054" gradientUnits="userSpaceOnUse">
<stop offset="0.0286976" stop-color="#00838C"/>
<stop offset="1" stop-color="#009C9A"/>
</linearGradient>
<linearGradient id="paint1_linear_146_4" x1="33.0361" y1="248.263" x2="42.5753" y2="291.444" gradientUnits="userSpaceOnUse">
<stop offset="0.0294669" stop-color="#68E3BA"/>
<stop offset="0.2953" stop-color="#30D9A1"/>
<stop offset="0.4646" stop-color="#2CD4A1"/>
<stop offset="0.6625" stop-color="#21C69F"/>
<stop offset="0.874" stop-color="#0EAF9D"/>
<stop offset="1" stop-color="#009D9B"/>
</linearGradient>
<linearGradient id="paint2_linear_146_4" x1="39.5812" y1="257.064" x2="86.4708" y2="257.064" gradientUnits="userSpaceOnUse">
<stop offset="0.00748866" stop-color="#24EDD8"/>
<stop offset="1" stop-color="#05DFCA"/>
</linearGradient>
<linearGradient id="paint3_linear_146_4" x1="153.713" y1="301.059" x2="103.681" y2="252.163" gradientUnits="userSpaceOnUse">
<stop offset="0.0424898" stop-color="#00A7EB"/>
<stop offset="1" stop-color="#00A7EB" stop-opacity="0"/>
</linearGradient>
<linearGradient id="paint4_linear_146_4" x1="19.4216" y1="285.31" x2="68.9837" y2="285.31" gradientUnits="userSpaceOnUse">
<stop offset="0.275" stop-color="#006DB8"/>
<stop offset="0.4654" stop-color="#007ABD"/>
<stop offset="0.7376" stop-color="#0087C2"/>
<stop offset="1" stop-color="#008BC4"/>
</linearGradient>
</defs>
</svg>
