<svg width="164" height="219" viewBox="0 0 164 219" fill="none" xmlns="http://www.w3.org/2000/svg">
<path d="M58.2665 74C45.7207 74.1697 35.5485 84.3489 35.5485 96.9881C35.5485 99.1088 35.8028 101.145 36.3962 103.096C23.0875 105.471 13 117.092 13 131.089C13 146.782 25.7153 159.59 41.4823 159.59C50.8068 159.59 57.4188 155.01 63.946 148.987C67.9301 150.938 72.4228 151.956 77.0004 151.956C78.5262 151.956 80.052 151.871 81.4931 151.617C96.4972 149.326 107.263 136.433 107.263 121.673C107.263 136.433 96.4972 149.326 81.4931 151.617C79.9673 151.871 78.4414 151.956 77.0004 151.956C74.7964 151.956 72.5924 151.701 70.4732 151.277C85.9011 147.884 96.3276 133.04 93.8693 117.177C91.8349 103.52 80.8997 93.3405 67.8453 91.644C65.9804 83.6703 59.8771 77.3083 52.0784 74.9331C53.9433 74.3393 56.0625 74 58.2665 74Z" fill="#008DC5"/>
<path d="M58.4359 74C58.4359 74 58.3511 74 58.4359 74C58.3511 74 58.4359 74 58.4359 74ZM58.5206 74C58.5206 74 58.4359 74 58.5206 74C58.4359 74 58.5206 74 58.5206 74C69.371 74 78.4413 81.5496 80.8148 91.644C93.8692 93.3405 104.804 103.52 106.839 117.177C107.093 118.704 107.178 120.231 107.178 121.673C107.178 120.146 107.093 118.704 106.839 117.177C104.804 103.52 93.8692 93.3405 80.8148 91.644C78.4413 81.5496 69.371 74 58.5206 74Z" fill="#009CD2"/>
<path d="M58.5207 74C58.5207 74 58.4359 74 58.5207 74C58.4359 74 58.4359 74 58.4359 74C58.4359 74 58.4359 74 58.3511 74C58.3511 74 58.3511 74 58.2663 74C58.2663 74 58.2664 74 58.1816 74C55.9776 74 53.9431 74.3393 51.9087 74.9331C59.7074 77.2234 65.8108 83.5854 67.6757 91.644C80.73 93.3405 91.6652 103.52 93.6997 117.177C96.0732 133.04 85.7314 147.884 70.3035 151.277C72.4227 151.786 74.6267 151.956 76.8307 151.956C78.3565 151.956 79.7976 151.871 81.3234 151.617C96.3275 149.326 107.093 136.433 107.093 121.673C107.093 120.146 107.008 118.704 106.754 117.177C104.72 103.52 93.7844 93.3405 80.73 91.644C78.4413 81.5496 69.3711 74 58.5207 74Z" fill="#00A3E5"/>
<path d="M60.9792 136.602L56.4865 128.544C56.2322 128.204 56.4017 127.695 56.7408 127.441C57.0798 127.187 57.5884 127.271 57.8427 127.695L63.1832 135.245C63.4375 135.669 63.3527 136.178 62.9289 136.433L62.0812 136.942C61.7421 137.196 61.1487 137.026 60.9792 136.602Z" fill="#003C60"/>
<path d="M59.8767 150.599L49.4501 143.473C48.9415 143.134 48.8567 142.455 49.111 141.946C49.3653 141.437 50.0435 141.268 50.6369 141.522L61.7416 147.545C62.3349 147.884 62.5045 148.563 62.1654 149.157L61.4873 150.344C61.1482 150.768 60.47 150.938 59.8767 150.599Z" fill="#003C60"/>
<path d="M66.9126 197.423H58.1814L60.8092 127.95C60.8092 127.017 61.5721 126.338 62.5046 126.338C63.437 126.338 64.2 127.102 64.2 127.95L66.9126 197.423Z" fill="#004F74"/>
<path d="M62.1655 126.423C61.4026 126.593 60.8092 127.271 60.8092 128.035L58.1814 197.508H61.5721L62.1655 126.423Z" fill="#003C60"/>
<path d="M64.8783 144.322L71.0664 135.075C71.3207 134.651 71.2359 134.057 70.8121 133.718C70.3882 133.379 69.7948 133.464 69.4558 133.888L62.3352 142.455C61.9961 142.88 62.0809 143.558 62.5047 143.897L63.4372 144.576C63.861 144.915 64.5392 144.746 64.8783 144.322Z" fill="#004F74"/>
<path d="M145.642 93.815C147.741 96.3406 150.89 98.1822 154.615 98.7083C158.235 99.2345 161.751 98.34 164.479 96.5511C165.214 98.7609 167.26 100.497 169.884 100.866C173.032 101.287 175.918 99.6554 176.915 97.0246C180.903 96.2354 184.313 93.7624 186.045 90.3423C186.727 90.5528 187.462 90.7106 188.196 90.8159C195.647 91.8682 202.416 87.1327 203.36 80.3452C204.305 73.5051 199.058 67.1385 191.607 66.0862C190.243 65.8757 188.931 65.8757 187.671 66.0862C187.829 65.5074 187.986 64.9286 188.091 64.2972C188.878 58.7725 185.573 53.6161 180.378 51.2484C179.539 47.2495 176.495 43.8294 172.35 42.3036C173.662 39.5149 174.239 36.3579 173.924 33.0431C172.98 23.3617 164.374 16.2585 154.72 17.2582C152.988 17.416 151.309 17.8369 149.735 18.521C149.788 17.6791 149.735 16.7846 149.683 15.9428C148.738 6.26134 140.133 -0.841871 130.478 0.157841C123.71 0.841854 118.2 5.31425 115.839 11.2599C112.219 6.89274 106.604 4.36715 100.57 4.99855C90.9155 5.94564 83.8319 14.5747 84.8289 24.2561C84.9863 25.6768 85.2486 27.0448 85.7209 28.3076C82.73 30.6753 80.5787 33.9902 79.6343 37.7259C77.483 36.3579 74.9644 35.5161 72.2359 35.5161C65.782 35.5161 60.3775 40.0411 58.9608 46.0919C57.9114 45.8815 56.862 45.7236 55.7601 45.7236C47.7321 45.7236 41.2257 52.2481 41.2257 60.2984C41.2257 61.2981 41.3306 62.2452 41.488 63.1397C34.352 64.4551 29 72.0844 29 81.2923C29 91.4999 35.6113 99.7607 43.7443 99.7607C46.84 99.7607 49.7259 98.5505 52.1396 96.4984C54.6057 100.971 59.3806 104.023 64.8375 104.023C68.7728 104.023 72.3408 102.444 74.9644 99.9185C76.0662 102.339 78.5324 104.023 81.3658 104.023C84.7239 104.023 87.5573 101.602 88.2395 98.4453C88.2395 98.4453 97.5792 99.024 96.9496 89.29C97.6842 89.3952 98.4712 89.5005 99.2583 89.5005C107.286 89.5005 113.793 82.976 113.793 74.9257C113.793 74.5574 113.793 74.2417 113.74 73.8734C113.898 73.926 114.108 73.926 114.265 73.9786C120.142 77.2935 124.654 72.2949 124.654 72.2949C124.392 73.1368 124.182 74.0839 124.077 74.9783C122.87 83.6074 124.654 90.3949 132.21 91.4473C133.837 91.6577 136.303 91.2368 137.877 90.8159C137.824 90.7106 138.192 96.4458 145.642 93.815Z" fill="#009D9B"/>
<path d="M125.651 242.772L120.457 57.194C120.404 56.0891 119.512 55.1946 118.41 55.1946C117.308 55.1946 116.364 56.0891 116.364 57.194L111.169 242.772H125.651Z" fill="#004F74"/>
<path d="M119.617 67.4016L131.633 52.3007C132.157 51.6693 133.049 51.5641 133.679 52.0376C134.309 52.5112 134.466 53.4056 133.994 54.037L120.509 73.5051L119.617 67.4016Z" fill="#004F74"/>
<path d="M119.46 106.548L149.84 83.0813C150.47 82.6077 151.362 82.713 151.887 83.2917C152.411 83.9231 152.306 84.8176 151.729 85.3438L118.988 113.599L119.46 106.548Z" fill="#004F74"/>
<path d="M116.679 113.651L86.8227 90.6054C86.1931 90.1319 85.3011 90.2371 84.7764 90.8159C84.2517 91.4473 84.3566 92.3418 84.9338 92.8679L114.999 118.808C115.996 119.65 117.518 118.913 117.413 117.598L117.203 114.756C117.203 114.283 116.993 113.914 116.679 113.651Z" fill="#003C60"/>
<path d="M161.489 26.6765C161.436 26.6765 161.436 26.6765 161.646 26.7821C161.594 26.7293 161.541 26.7293 161.489 26.6765Z" fill="#00C6B2"/>
<path d="M162.067 92.4996C161.96 92.6071 162.013 92.5533 162.067 92.4996V92.4996Z" fill="#00C6B2"/>
<path d="M162.433 100.392C162.486 100.445 162.591 100.445 162.643 100.445C162.591 100.445 162.538 100.392 162.433 100.392C162.486 100.392 162.433 100.392 162.433 100.392Z" fill="#00C6B2"/>
<path d="M191.554 66.0862C190.19 65.8757 188.878 65.8757 187.619 66.0862C187.777 65.5074 187.934 64.9286 188.039 64.2972C188.826 58.7725 185.52 53.6161 180.326 51.2484C179.486 47.2495 176.443 43.8294 172.298 42.3036C173.609 39.5149 174.187 36.3579 173.872 33.0431C172.927 23.3617 164.322 16.2585 154.668 17.2582C152.936 17.416 151.257 17.8369 149.683 18.521C149.735 17.6791 149.683 16.7846 149.63 15.9428C148.686 6.26134 140.081 -0.841871 130.426 0.157841C126.071 0.578772 122.241 2.63081 119.407 5.57733C119.46 5.57733 119.512 5.52471 119.512 5.52471C121.821 4.26192 124.497 3.57791 127.173 3.63052C131.423 3.73576 135.568 5.84041 138.402 8.94478C141.655 12.5753 143.019 17.5212 142.599 22.362C142.599 22.5724 142.547 22.7829 142.547 22.9934C142.547 23.0986 142.547 23.2038 142.494 23.309C142.389 23.8352 142.337 24.414 142.284 24.9928C142.284 25.098 142.284 25.2559 142.337 25.3611C142.914 25.098 143.491 24.8349 144.121 24.5718C149.893 22.4146 157.239 23.2564 162.013 27.3079C166.159 30.8858 168.677 36.8315 165.319 41.83C164.847 42.514 164.06 43.2507 163.902 44.0399C165.319 44.0399 166.578 44.0925 167.89 44.6713C170.199 45.671 171.983 47.7757 172.77 50.1434C173.452 52.1428 173.452 54.4053 172.717 56.3521C173.662 56.51 174.606 56.6678 175.446 57.1414C176.6 57.7728 177.597 58.7199 178.332 59.8248C179.066 60.9298 179.539 62.1926 179.696 63.508C179.854 64.8234 179.644 66.1388 179.066 67.2963C178.804 67.8225 178.437 68.2961 178.07 68.7696C178.699 68.6118 179.329 68.5065 180.011 68.4539C182.32 68.2434 184.628 68.6644 186.727 69.6115C188.616 70.2429 190.4 71.3478 191.659 72.9263C194.021 75.9254 194.913 80.8714 191.45 83.397C190.4 84.1336 189.193 84.5019 187.934 84.5545C186.675 84.6071 185.415 84.3441 184.209 83.9231C184.156 84.0284 184.156 84.1336 184.104 84.2388C183.789 86.554 182.792 88.3429 180.903 89.9214C178.909 91.6577 176.39 92.4996 173.714 92.5522C173.242 92.5522 172.77 92.5522 172.298 92.4996C172.088 92.4996 171.878 92.447 171.668 92.447C171.563 92.447 171.458 92.447 171.353 92.3944C171.353 92.3944 171.353 92.3944 171.248 92.3944H171.196C170.199 92.2365 169.254 92.0261 168.31 91.7104C167.785 91.5525 167.313 91.3947 166.841 91.1842C166.788 91.1842 166.736 91.1316 166.683 91.1316C166.264 91.6051 165.791 92.0261 165.267 92.3944C164.06 93.3415 162.696 94.0781 161.279 94.7095C159.862 95.2883 158.393 95.7618 156.924 96.0249C156.137 96.1827 155.297 96.288 154.458 96.288C153.513 96.288 152.569 96.1827 151.677 95.9723C151.204 95.867 150.732 95.7092 150.26 95.5514C149.001 95.3409 147.741 94.9726 146.587 94.3938C146.377 94.2886 146.22 94.2886 146.062 94.3412C148.161 96.6037 151.152 98.2348 154.563 98.7083C158.183 99.2345 161.699 98.34 164.427 96.5511C165.162 98.7609 167.208 100.497 169.832 100.866C172.98 101.287 175.866 99.6554 176.863 97.0246C180.85 96.2354 184.261 93.7624 185.993 90.3423C186.675 90.5528 187.409 90.7106 188.144 90.8159C195.595 91.8682 202.363 87.1327 203.308 80.3452C204.252 73.4525 199.005 67.0859 191.554 66.0862Z" fill="#00B6AF"/>
<path d="M84.7764 24.1509C84.9338 25.5716 85.1962 26.9396 85.6684 28.2024C82.6776 30.5701 80.5263 33.885 79.5818 37.6207C77.4305 36.2527 74.9119 35.4108 72.1834 35.4108C65.7295 35.4108 60.325 39.9358 58.9083 45.9867C57.8589 45.7763 56.8095 45.6184 55.7076 45.6184C47.6796 45.6184 41.1732 52.1428 41.1732 60.1931C41.1732 61.1929 41.2782 62.14 41.4356 63.0344C34.352 64.4551 29 72.0844 29 81.2923C29 91.4999 35.6113 99.7607 43.7443 99.7607C46.84 99.7607 49.7259 98.5505 52.1396 96.4985C54.6057 100.971 59.3806 104.023 64.8375 104.023C68.4055 104.023 71.7112 102.707 74.2298 100.55L74.5971 99.9185C73.2853 101.76 70.8716 102.707 68.6154 102.655C66.3592 102.655 64.1554 101.813 62.109 100.708C57.9114 98.4453 54.2384 94.8673 52.5069 90.395C48.729 92.7101 43.4819 91.5525 40.4386 88.3429C37.3953 85.1333 36.3984 80.3452 37.0805 75.9781C37.4478 73.5051 38.2873 71.0847 39.809 69.0853C41.3306 67.0859 43.4819 65.56 45.948 65.0865C43.6393 60.8772 44.9511 55.1946 48.5191 51.9324C52.0347 48.6702 57.3342 47.7231 62.0041 48.7754L62.1615 48.6702C62.2664 45.9341 64.0504 43.5138 66.3592 42.0931C68.6679 40.6725 71.4488 40.1989 74.1248 40.0937C77.5354 39.9885 80.946 40.462 84.1467 41.5143L84.1992 41.3039C83.7794 36.8315 86.1931 32.2012 90.1809 30.044C86.4555 23.0986 87.4524 13.8907 92.647 7.94507L92.3322 8.0503C87.19 11.4704 84.1467 17.5739 84.7764 24.1509Z" fill="#008A9A"/>
<path d="M117.361 243.088V55.8786C116.836 56.2469 116.469 56.8257 116.469 57.5097L111.326 243.088H117.361Z" fill="#003C60"/>
<g clip-path="url(#clip0_208_214)">
<path d="M164 219V166.455C157.969 164.251 151.696 162 145.327 162.575C139.296 163.102 133.796 166.024 128.295 168.658C122.843 171.245 116.86 173.592 110.877 172.777C103.157 171.724 97.0779 165.688 89.6475 163.197C80.4801 160.132 69.3827 163.389 63.8823 171.245C59.8293 176.992 58.6713 184.656 53.5569 189.494L58.8161 219.096H164V219Z" fill="url(#paint0_linear_208_214)"/>
<path d="M145.328 162.527C140.985 162.91 136.884 164.539 132.879 166.407C137.994 165.688 143.253 165.832 148.271 167.029C154.061 168.371 159.513 171.101 164 174.981V166.455C158.017 164.203 151.745 162 145.328 162.527Z" fill="#07DDC9"/>
<path d="M65.2814 195.098C67.6457 190.931 68.8519 186.237 70.6371 181.782C72.4224 177.328 74.8831 172.921 78.8878 170.287C83.761 167.125 90.0817 167.125 95.8716 167.892C97.3674 168.083 98.8631 168.323 100.359 168.514C96.8849 166.55 93.4591 164.395 89.7439 163.102C80.5765 160.036 69.4792 163.293 63.9787 171.149C59.9258 176.897 58.7678 184.56 53.6533 189.398L56.4035 204.774C59.974 202.283 63.1102 198.978 65.2814 195.098Z" fill="url(#paint1_linear_208_214)"/>
<path d="M135.87 219C135.485 214.114 133.555 209.372 130.37 205.636C126.172 200.75 119.9 197.637 113.434 197.35C106.824 197.014 99.4904 199.313 93.9899 195.721C90.9985 193.757 89.2132 190.452 86.8008 187.818C80.1423 180.489 67.9352 178.908 59.5881 184.321C53.4121 188.345 49.6004 195.386 43.0867 198.787C38.6478 201.086 33.2438 201.421 28.5636 199.649C25.1379 198.355 22.1465 196.008 18.576 195.146C12.1588 193.566 5.16264 197.445 2.12292 203.241C-0.386049 208.031 -0.530798 213.779 1.01319 219H135.87Z" fill="#008DC5"/>
<path d="M130.322 205.636C126.124 200.75 119.852 197.637 113.386 197.35C106.776 197.014 99.4421 199.313 93.9416 195.721C90.9501 193.757 89.1649 190.452 86.7524 187.818C82.6995 183.363 76.6201 181.016 70.5889 181.112C72.4706 181.734 74.2558 182.692 75.7998 184.034C80.1905 187.818 82.024 193.709 85.6427 198.212C89.4544 202.954 95.2444 206.067 101.324 206.594C104.75 206.882 108.272 206.45 111.697 206.977C117.15 207.839 121.926 211.336 125.304 215.743C126.076 216.749 126.8 217.85 127.379 219.048H135.919C135.436 214.114 133.506 209.372 130.322 205.636Z" fill="url(#paint2_linear_208_214)"/>
<path d="M9.1191 213.683C9.64984 208.893 12.7378 204.295 17.2733 202.571C23.5457 200.176 30.7349 203.433 37.2003 201.756C39.1785 201.277 41.012 200.319 42.556 199.026C38.2135 201.086 33.0026 201.325 28.5154 199.649C25.0897 198.355 22.0982 196.008 18.5278 195.146C12.1588 193.566 5.16264 197.445 2.12292 203.241C-0.386049 208.031 -0.530797 213.779 1.01319 219H9.4086C9.07085 217.276 8.9261 215.455 9.1191 213.683Z" fill="url(#paint3_linear_208_214)"/>
</g>
<defs>
<linearGradient id="paint0_linear_208_214" x1="116.74" y1="165.406" x2="107.728" y2="209.999" gradientUnits="userSpaceOnUse">
<stop offset="0.0294669" stop-color="#68E3BA"/>
<stop offset="0.2953" stop-color="#30D9A1"/>
<stop offset="0.4646" stop-color="#2CD4A1"/>
<stop offset="0.6625" stop-color="#21C69F"/>
<stop offset="0.874" stop-color="#0EAF9D"/>
<stop offset="1" stop-color="#009D9B"/>
</linearGradient>
<linearGradient id="paint1_linear_208_214" x1="91.2845" y1="162.305" x2="63.134" y2="185.457" gradientUnits="userSpaceOnUse">
<stop stop-color="#30B4BA" stop-opacity="0"/>
<stop offset="0.9705" stop-color="#009B82"/>
</linearGradient>
<linearGradient id="paint2_linear_208_214" x1="133.24" y1="220.035" x2="81.8835" y2="182.852" gradientUnits="userSpaceOnUse">
<stop offset="0.0424898" stop-color="#00A7EB"/>
<stop offset="1" stop-color="#00A7EB" stop-opacity="0"/>
</linearGradient>
<linearGradient id="paint3_linear_208_214" x1="-1.39075" y1="210.788" x2="41.1649" y2="197.806" gradientUnits="userSpaceOnUse">
<stop offset="0.275" stop-color="#006DB8"/>
<stop offset="0.4654" stop-color="#007ABD"/>
<stop offset="0.7376" stop-color="#0087C2"/>
<stop offset="1" stop-color="#008BC4"/>
</linearGradient>
<clipPath id="clip0_208_214">
<rect width="164" height="57" fill="white" transform="translate(0 162)"/>
</clipPath>
</defs>
</svg>
