<svg width="122" height="125" viewBox="0 0 122 125" fill="none" xmlns="http://www.w3.org/2000/svg">
<path d="M63.206 93.6302C61.0575 93.5228 58.9627 92.932 57.1902 92.0726C54.612 90.8372 52.5173 89.1721 50.1539 87.7219C46.0718 85.1437 40.6468 82.6192 34.8459 82.4581C28.8301 82.2969 22.7606 84.9825 18.4636 87.7219C16.154 89.1721 14.0592 90.8909 11.4273 92.0726C9.49365 92.9857 7.13031 93.6302 4.82068 93.6302H63.206Z" fill="#004F74"/>
<path d="M63.206 93.4691C58.4793 93.1468 54.8806 90.5686 51.067 87.9904C47.8443 85.8419 44.353 84.0694 40.5931 82.9952C32.6974 80.8467 24.8554 83.21 18.1414 87.507C13.9518 90.1926 10.0845 93.1468 4.8744 93.2542C4.39099 93.2542 4.39099 94.0062 4.8744 94.0062C11.4273 94.0062 17.9802 94.0062 24.5331 94.0062C35.007 94.0062 45.5347 94.0062 56.0086 94.0062C58.4256 94.0062 60.789 93.8988 63.206 93.8988C63.582 93.8988 63.582 93.308 63.206 93.308C56.6531 93.308 50.1002 93.2005 43.5473 93.2005C33.0734 93.2005 22.5458 93.2005 12.0719 93.2005C9.6548 93.2005 7.29146 93.2005 4.8744 93.2005C4.8744 93.4691 4.8744 93.6839 4.8744 93.9525C8.90283 93.8451 12.3941 92.18 15.6169 89.9778C19.0545 87.6682 22.5458 85.466 26.5205 84.1231C30.8175 82.6729 35.2756 82.2969 39.68 83.3712C43.7084 84.338 47.4683 86.2179 50.9596 88.5276C54.7732 91.052 58.4256 93.5228 63.1523 93.7914C63.4746 93.8451 63.4746 93.4691 63.206 93.4691Z" fill="#004F74"/>
<path d="M120.195 93.6302C118.046 93.5228 115.952 92.932 114.179 92.0726C111.601 90.8372 109.506 89.1721 107.143 87.7219C103.061 85.1437 97.6357 82.6192 91.8348 82.4581C85.819 82.2969 79.7495 84.9825 75.4525 87.7219C73.1429 89.1721 71.0481 90.8909 68.4162 92.0726C66.4825 92.9857 64.1192 93.6302 61.8096 93.6302H120.195Z" fill="#004F74"/>
<path d="M120.195 93.4691C115.468 93.1468 111.87 90.5686 108.056 87.9904C104.833 85.8419 101.342 84.0694 97.582 82.9952C89.6863 80.8467 81.8443 83.21 75.1302 87.507C70.9407 90.1926 67.0734 93.1468 61.8633 93.2543C61.3799 93.2543 61.3799 94.0062 61.8633 94.0062C68.4162 94.0062 74.9691 94.0062 81.522 94.0062C91.9959 94.0062 102.524 94.0062 112.997 94.0062C115.415 94.0062 117.778 93.8988 120.195 93.8988C120.571 93.8988 120.571 93.308 120.195 93.308C113.642 93.308 107.089 93.2005 100.536 93.2005C90.0623 93.2005 79.5347 93.2005 69.0607 93.2005C66.6437 93.2005 64.2803 93.2005 61.8633 93.2005C61.8633 93.4691 61.8633 93.6839 61.8633 93.9525C65.8917 93.8451 69.383 92.18 72.6058 89.9778C76.0434 87.6682 79.5347 85.466 83.5094 84.1232C87.8064 82.6729 92.2645 82.2969 96.6689 83.3712C100.697 84.338 104.457 86.2179 107.949 88.5276C111.762 91.052 115.415 93.5228 120.141 93.7914C120.463 93.8451 120.463 93.4691 120.195 93.4691Z" fill="#004F74"/>
<path d="M12.5015 108.294C11.5347 112.913 9.43994 116.404 6.96917 118.23C6.53947 117.693 5.62636 116.619 5.03552 116.243C6.91546 115.008 8.52683 112.806 9.43994 110.12H5.51893V107.595H10.4605L10.8902 107.488L12.5015 108.294ZM23.4052 106.736C21.8475 108.24 20.0213 109.959 18.5173 111.087C19.9138 113.235 21.7938 114.9 24.1571 115.921C23.5663 116.458 22.868 117.532 22.492 118.23C19.5379 116.78 17.4968 114.363 15.9928 111.302V116.458C15.9928 117.908 15.7243 118.66 14.8649 119.09C14.0592 119.52 12.8238 119.52 11.105 119.52C10.9976 118.768 10.6216 117.586 10.2993 116.834C11.3199 116.888 12.5553 116.888 12.9312 116.888C13.3072 116.888 13.4146 116.727 13.4146 116.404V105.716H8.36569V103.137H15.8317C14.1129 102.278 11.7496 101.419 9.92335 100.881L11.105 98.6792C13.4684 99.2163 16.7985 100.452 18.5173 101.419L17.2282 103.889C16.906 103.674 16.4225 103.406 15.9391 103.191V105.071C16.3151 106.467 16.7985 107.81 17.3894 109.046C18.7859 107.81 20.2898 106.253 21.2567 104.91L23.4052 106.736Z" fill="#004F74"/>
<path d="M42.1508 112.752C42.0971 112.43 42.0434 112.054 41.9896 111.678C38.3909 112.268 37.7464 112.483 37.3167 112.698C37.2092 112.268 36.887 111.14 36.6184 110.496C37.1018 110.388 37.5315 109.851 38.1224 108.992C38.3909 108.67 38.8206 107.971 39.3577 107.005C37.9075 107.219 37.4778 107.327 37.1555 107.488C37.0481 107.058 36.7258 105.984 36.511 105.393C36.887 105.286 37.2092 104.856 37.5852 104.158C37.9612 103.513 39.1429 100.989 39.7874 98.6255L41.7211 99.4849C41.0765 101.311 40.1634 103.298 39.2503 104.91L40.5394 104.802C41.0228 103.836 41.4525 102.815 41.8285 101.795L43.6547 103.03C42.5805 105.447 41.184 107.918 39.7337 109.959L41.6137 109.69C41.4525 109.099 41.3451 108.455 41.184 107.971L42.7953 107.488C43.2787 108.992 43.7084 110.979 43.8696 112.161L42.1508 112.752ZM39.1966 113.719C39.0355 115.813 38.7132 118.069 38.2835 119.52C37.8538 119.251 36.9944 118.982 36.511 118.821C36.9944 117.425 37.263 115.33 37.3704 113.396L39.1966 113.719ZM41.0765 113.343C41.3451 115.008 41.5062 117.103 41.5599 118.499L39.8412 118.821C39.8412 117.425 39.68 115.276 39.5189 113.665L41.0765 113.343ZM42.849 112.752C43.225 113.987 43.6547 115.652 43.8159 116.78L42.2582 117.371C42.0971 116.243 41.6674 114.524 41.3451 113.235L42.849 112.752ZM51.7653 116.297C53.1081 116.78 54.5046 117.371 55.4177 117.801L54.4509 119.681C53.3767 119.144 51.6042 118.338 50.1002 117.693L50.7448 116.351H47.7369L48.9723 117.693C47.3609 118.445 45.3735 119.305 43.8696 119.842C43.7084 119.358 43.3325 118.553 43.0639 118.016C44.1919 117.586 45.7495 116.995 46.8775 116.404H44.1919V109.69H54.3972V116.297H51.7653ZM48.1666 101.311H43.3862V99.5923H48.1666V98.6255H50.5299V99.5923H55.0955V101.311H50.5299V102.063H54.4509V103.674H44.0844V102.063H48.1666V101.311ZM43.4399 104.319H55.0418V108.885H43.4399V104.319ZM45.4272 107.273H46.8775V105.93H45.4272V107.273ZM46.2866 111.624H52.1413V110.926H46.2866V111.624ZM46.2866 113.235H52.1413V112.537H46.2866V113.235ZM46.2866 114.954H52.1413V114.256H46.2866V114.954ZM49.9391 107.273V105.93H48.65V107.273H49.9391ZM53.0007 105.93H51.7116V107.273H53.0007V105.93Z" fill="#004F74"/>
<path d="M75.3988 115.975C75.0765 115.706 74.5931 115.276 74.0559 114.793V119.412H71.8V115.384C70.9406 116.565 70.0275 117.586 69.007 118.23C68.8458 117.532 68.4161 116.458 68.0402 115.76C69.3293 115.008 70.7258 113.665 71.6389 112.322H68.6847V110.013H71.8V107.81H74.0559V110.013H76.9027V112.322H74.0559V112.376C74.8616 112.913 76.7416 114.202 77.2787 114.578L75.3988 115.975ZM76.3119 103.889C74.5394 106.038 72.1223 107.703 69.5441 108.723C69.2218 108.079 68.5773 107.112 68.0939 106.629C70.4035 105.877 72.6594 104.588 74.2171 102.976H69.007V100.667H76.3119V98.6255H78.7289V100.667H86.0338V102.976H80.8774C83.0259 104.05 85.8727 105.554 86.6784 106.038L85.9264 108.509C84.3687 107.327 80.8774 105.125 78.7289 103.889V108.67H76.3119V103.889ZM83.0796 112.43C84.1539 113.933 85.819 115.437 87.2155 116.243C86.6784 116.78 85.9264 117.693 85.4967 118.338C84.5836 117.586 83.6167 116.404 82.7573 115.115V119.573H80.5014V115.115C79.4272 116.458 78.1918 117.64 76.9027 118.392C76.5804 117.855 75.9359 116.941 75.3988 116.512C77.1713 115.706 78.9975 114.095 80.1254 112.43H77.601V110.12H80.5014V107.864H82.7573V110.12H86.4098V112.43H83.0796Z" fill="#004F74"/>
<path d="M107.089 112.322C106.713 111.57 106.122 110.496 105.531 109.529V119.627H103.168V110.657C102.416 112.698 101.557 114.578 100.59 115.867C100.321 115.115 99.7842 113.987 99.4082 113.289C100.805 111.516 102.148 108.562 102.846 105.877H99.999V103.352H103.168V98.7329H105.531V103.352H108.163V105.877H105.531V106.253C106.122 106.951 108.163 109.475 108.593 110.066L107.089 112.322ZM114.985 105.823C115.844 108.885 117.187 112 118.691 113.88C118.1 114.363 117.294 115.276 116.918 115.921C116.005 114.578 115.2 112.644 114.555 110.603V119.573H112.084V110.496C111.118 112.913 109.936 115.061 108.593 116.512C108.324 115.76 107.68 114.739 107.25 114.041C109.13 112.054 110.742 108.885 111.708 105.769H108.754V103.245H112.084V98.6255H114.501V103.245H118.046V105.769H114.985V105.823Z" fill="#004F74"/>
<path d="M0.0402843 96.477C0.147709 96.477 0.147709 96.3158 0.0402843 96.3158C-0.0134281 96.3696 -0.0134281 96.477 0.0402843 96.477Z" fill="black"/>
<path d="M63.3136 86.0031C64.9249 87.0773 67.0734 87.2922 68.8459 86.6476C70.887 85.8956 72.4984 84.0694 73.0355 81.9746C73.6263 79.8799 73.1966 77.5702 72.015 75.744C73.4652 74.2401 73.8412 71.823 72.9281 69.9431C72.015 68.0631 69.8665 66.8815 67.8254 67.0963C67.4494 66.0221 66.8586 64.9478 66.0529 64.1421C65.2472 63.3364 64.1729 62.6919 63.045 62.5845C61.7022 62.4233 60.3594 62.9605 59.2851 63.8199C58.2646 64.6793 57.5126 65.8609 57.0292 67.0963C54.9881 66.9352 52.8934 68.2243 52.034 70.1042C51.1746 71.9841 51.6043 74.3475 53.1082 75.7977C53.1082 75.7977 52.4099 77.0331 52.3562 77.1405C52.1414 77.6239 51.9802 78.1611 51.9265 78.6445C51.7654 79.7187 51.7654 80.793 52.034 81.8135C52.5711 83.962 54.0213 85.7345 56.0624 86.5402C56.5458 86.755 57.0829 86.8625 57.62 86.9699C59.3926 87.2385 61.2725 86.7013 62.669 85.5734C62.8839 85.7345 63.0987 85.8957 63.3136 86.0031Z" fill="#004F74"/>
<path d="M61.0039 94.2748L61.4873 83.0489L56.9755 78.9668C56.6532 78.6982 56.5995 78.2685 56.8143 77.9999C56.9218 77.8388 57.0829 77.7851 57.2977 77.7851C57.4589 77.7851 57.6737 77.8388 57.7812 77.9462L61.541 80.793L61.7022 77.6239L59.3388 75.4217C59.124 75.2069 59.124 74.8846 59.2851 74.6698C59.3925 74.5623 59.5537 74.4549 59.7148 74.4549C59.8222 74.4549 59.9297 74.5086 60.0371 74.5623L61.8096 75.8514L61.917 73.8104C61.917 73.3807 62.293 73.0584 62.7227 73.0584C63.1524 73.0584 63.5284 73.3807 63.5284 73.8104L63.6895 77.8925L66.7511 75.5292C66.8585 75.4217 67.0197 75.368 67.1808 75.368C67.342 75.368 67.5031 75.4217 67.6105 75.5829C67.8254 75.7977 67.7717 76.1737 67.5031 76.4423L63.7432 79.8262L64.3878 94.1136H61.0039V94.2748Z" fill="#004F74"/>
<path d="M62.7227 73.3807C63.045 73.3807 63.3135 73.6492 63.3135 73.9715L63.5284 78.4833L66.9123 75.9051C67.0197 75.8514 67.1271 75.7977 67.2345 75.7977C67.342 75.7977 67.4494 75.8514 67.5031 75.9051C67.6105 76.0663 67.6105 76.3348 67.3957 76.496L63.5821 79.9336L64.2266 94.1136H61.2725L61.7559 82.9952L57.1903 78.8593C56.9755 78.6445 56.9218 78.3759 57.0829 78.1611C57.1366 78.0536 57.2978 77.9999 57.4052 77.9999C57.5126 77.9999 57.6737 78.0536 57.7812 78.1611L61.8633 81.2764L62.0244 77.6239L59.6074 75.368C59.5 75.2606 59.4462 75.0458 59.5537 74.9383C59.6074 74.8846 59.7148 74.8309 59.8222 74.8309C59.8759 74.8309 59.9834 74.8309 60.0371 74.8846L62.1319 76.4423L62.2393 74.0252C62.1319 73.6492 62.4004 73.3807 62.7227 73.3807ZM62.7227 73.0047C62.1856 73.0047 61.7559 73.4344 61.7022 73.9715L61.6485 75.6366L60.1982 74.5623C60.0908 74.4549 59.9297 74.4012 59.7685 74.4012C59.5537 74.4012 59.3388 74.5086 59.1777 74.6698C58.9091 74.992 58.9628 75.4217 59.2314 75.6903L61.541 77.8388L61.4336 80.5244L57.996 77.8925C57.8349 77.7314 57.5663 77.6777 57.3515 77.6777C57.0829 77.6777 56.8681 77.7851 56.7069 77.9462C56.4384 78.3222 56.4921 78.8593 56.8681 79.1816L61.2725 83.21L60.7891 94.1136V94.5433H61.2188H64.1729H64.6026V94.1136L63.9581 80.1484L67.6105 76.8183C67.9865 76.496 68.0402 76.0126 67.7717 75.6903C67.6105 75.5292 67.3957 75.4217 67.1808 75.4217C66.966 75.4217 66.8048 75.4755 66.59 75.6366L63.8507 77.7314L63.6895 74.0252C63.6895 73.3807 63.2598 73.0047 62.7227 73.0047Z" fill="white"/>
<path d="M50.5301 90.5149C47.4147 90.5149 44.8365 87.9904 44.8365 84.8214C44.8365 81.6524 47.361 79.1279 50.5301 79.1279C53.6991 79.1279 56.2236 81.6524 56.2236 84.8214C56.2236 87.9904 53.6454 90.5149 50.5301 90.5149Z" fill="#004F74"/>
<path d="M50.5299 79.3427C53.5378 79.3427 56.0086 81.8135 56.0086 84.8214C56.0086 87.8293 53.5378 90.3001 50.5299 90.3001C47.522 90.3001 45.0513 87.8293 45.0513 84.8214C45.0513 81.8135 47.522 79.3427 50.5299 79.3427ZM50.5299 78.9668C47.2535 78.9668 44.6216 81.5987 44.6216 84.8751C44.6216 88.1516 47.2535 90.7835 50.5299 90.7835C53.8064 90.7835 56.4383 88.1516 56.4383 84.8751C56.4383 81.5987 53.8064 78.9668 50.5299 78.9668Z" fill="white"/>
<path d="M74.5395 90.5149C71.4241 90.5149 68.8459 87.9904 68.8459 84.8214C68.8459 81.6524 71.3704 79.1279 74.5395 79.1279C77.7085 79.1279 80.233 81.6524 80.233 84.8214C80.233 87.9904 77.7085 90.5149 74.5395 90.5149Z" fill="#004F74"/>
<path d="M74.5393 79.3427C77.5472 79.3427 80.018 81.8135 80.018 84.8214C80.018 87.8293 77.5472 90.3001 74.5393 90.3001C71.5314 90.3001 69.0607 87.8293 69.0607 84.8214C69.1144 81.8135 71.5314 79.3427 74.5393 79.3427ZM74.5393 78.9668C71.2629 78.9668 68.631 81.5987 68.631 84.8751C68.631 88.1516 71.2629 90.7835 74.5393 90.7835C77.8158 90.7835 80.4477 88.1516 80.4477 84.8751C80.4477 81.5987 77.8158 78.9668 74.5393 78.9668Z" fill="white"/>
<path d="M51.443 94.0599H49.5631L50.1539 85.7882C50.1539 85.6271 50.3151 85.5197 50.5299 85.5197C50.7448 85.5197 50.9059 85.6271 50.9059 85.7882L51.443 94.0599Z" fill="white"/>
<path d="M75.5063 94.0599H73.6263L74.2172 85.7882C74.2172 85.6271 74.3783 85.5197 74.5932 85.5197C74.808 85.5197 74.9692 85.6271 74.9692 85.7882L75.5063 94.0599Z" fill="white"/>
<path d="M41.4526 60.5434L41.6137 71.7693C41.56 71.823 38.4447 65.4849 41.4526 60.5434Z" fill="#004F74"/>
<path d="M41.4526 60.5434L41.6138 71.7693C41.5601 71.823 44.5142 65.4312 41.4526 60.5434Z" fill="#004F74"/>
<path d="M51.2819 77.4091L41.5599 71.7693C41.5599 71.7693 45.5347 77.5702 51.2819 77.4091Z" fill="#004F74"/>
<path d="M51.2819 77.4091L41.5599 71.7693C41.5599 71.7693 48.5425 72.3064 51.2819 77.4091Z" fill="#004F74"/>
<path d="M31.838 77.4091L41.5599 71.7693C41.5599 71.7693 34.5773 72.3064 31.838 77.4091Z" fill="#004F74"/>
<path d="M31.838 77.4091L41.5599 71.7693C41.5599 71.7693 37.5852 77.5702 31.838 77.4091Z" fill="#004F74"/>
<path d="M42.5805 93.5765H40.432L41.1303 72.3601H41.8822L42.5805 93.5765Z" fill="#004F74"/>
<path d="M42.688 71.5007C42.9028 72.1453 42.5268 72.7898 41.936 73.0047C41.2914 73.2195 40.6469 72.8435 40.432 72.2527C40.2172 71.6082 40.5932 70.9636 41.184 70.7488C41.8286 70.5339 42.4731 70.8562 42.688 71.5007Z" fill="#004F74"/>
<path d="M83.5631 60.5434L83.7242 71.7693C83.6705 71.823 80.5552 65.4849 83.5631 60.5434Z" fill="#004F74"/>
<path d="M83.563 60.5434L83.7241 71.7693C83.6704 71.823 86.6246 65.4312 83.563 60.5434Z" fill="#004F74"/>
<path d="M93.3925 77.4091L83.6705 71.7693C83.6705 71.7693 87.5915 77.5702 93.3925 77.4091Z" fill="#004F74"/>
<path d="M93.3925 77.4091L83.6705 71.7693C83.6705 71.7693 90.6531 72.3064 93.3925 77.4091Z" fill="#004F74"/>
<path d="M73.8949 77.4091L83.6168 71.7693C83.6706 71.7693 76.6342 72.3064 73.8949 77.4091Z" fill="#004F74"/>
<path d="M73.8949 77.4091L83.6168 71.7693C83.6706 71.7693 79.6958 77.5702 73.8949 77.4091Z" fill="#004F74"/>
<path d="M84.6911 93.5765H82.5426L83.2409 72.3601H83.9928L84.6911 93.5765Z" fill="#004F74"/>
<path d="M84.7986 71.5007C85.0134 72.1453 84.6374 72.7898 84.0466 73.0047C83.402 73.2195 82.7575 72.8435 82.5426 72.2527C82.3278 71.6082 82.7038 70.9636 83.2946 70.7488C83.9392 70.5339 84.5837 70.8562 84.7986 71.5007Z" fill="#004F74"/>
<path d="M27.8095 60.0063L26.6815 60.6508C26.5204 60.4897 26.3056 60.1674 26.1444 59.9526C26.1444 60.8657 25.4999 61.4565 24.5868 61.9936C22.6531 63.0679 20.8269 62.2085 19.6989 60.2211C18.6247 58.2875 18.947 56.0853 21.0955 54.8499C22.868 53.8831 24.2645 54.2591 25.0702 55.2796L23.6199 56.0853C23.244 55.763 22.6531 55.4407 21.6326 55.9779C20.3435 56.6761 20.5046 58.0726 21.2566 59.3617C21.9549 60.6508 23.0828 61.4028 24.3182 60.7046C25.4462 60.06 25.3387 59.2006 24.8553 58.3412V58.2875L23.2977 59.1469L22.6531 57.9652L25.7147 56.2464L27.8095 60.0063Z" fill="#004F74"/>
<path d="M29.6894 55.6556L30.9785 58.5561L29.4209 59.2543L26.3593 52.218L29.5283 50.8215C30.9785 50.1769 32.3213 50.3918 32.8584 51.6272C33.2881 52.594 32.9122 53.2922 32.375 53.8294C33.2881 53.7757 33.7716 54.2054 34.1475 55.0647L34.255 55.2259C34.5235 55.8704 34.8458 56.4613 35.0607 56.7835L33.5567 57.4281C33.2881 57.1595 33.0733 56.7298 32.6973 55.8704L32.5899 55.7093C32.2139 54.9036 31.7842 54.7425 30.7637 55.2259L29.6894 55.6556ZM29.206 54.5276L30.3877 53.9905C31.1397 53.6682 31.6768 53.1848 31.3545 52.4328C31.0859 51.7883 30.4414 51.7883 29.7968 52.0569L28.4003 52.6477L29.206 54.5276Z" fill="#004F74"/>
<path d="M40.6468 51.3586L37.1555 52.4866L37.8 54.4739L41.6673 53.1848L41.8822 54.4739L36.6184 56.1927L34.2013 48.8878L39.4651 47.169L39.8948 48.4044L36.2424 49.5861L36.7795 51.2512L40.2708 50.1232L40.6468 51.3586Z" fill="#004F74"/>
<path d="M47.7906 49.6398L44.1918 50.4455L44.6753 52.4866L48.65 51.5734L48.7574 52.8625L43.3324 54.0979L41.6136 46.5782L46.9849 45.3428L47.2534 46.5782L43.4936 47.4376L43.8696 49.1564L47.4683 48.3507L47.7906 49.6398Z" fill="#004F74"/>
<path d="M50.2075 52.594L49.3481 44.9668L51.5504 44.6983C54.612 49.049 55.0954 49.8009 55.2565 50.1232C55.0417 49.2101 54.9342 47.9747 54.7731 46.7393L54.5045 44.376L56.0622 44.2149L56.9216 51.842L54.8268 52.1106C51.5503 47.2765 51.1744 46.7393 51.0132 46.4171C51.1744 47.3839 51.3355 48.7267 51.4966 50.0695L51.7652 52.4328L50.2075 52.594Z" fill="#004F74"/>
<path d="M62.2391 44L67.6641 44.2149L67.6104 45.5039L63.9042 45.3428L63.8505 47.2765L67.3418 47.4376L67.2881 48.7267L63.7431 48.6193L63.6357 51.7883L61.9169 51.7346L62.2391 44Z" fill="#004F74"/>
<path d="M76.3656 49.2638C76.0433 51.466 74.5931 53.0237 71.9612 52.6477C69.383 52.2717 68.5236 50.2844 68.8459 48.1359C69.1144 46.2559 70.5647 44.4297 73.1966 44.8594C75.8285 45.1817 76.6879 47.2227 76.3656 49.2638ZM70.6721 48.4044C70.4572 49.9084 70.9406 51.2512 72.2835 51.4123C73.7337 51.6272 74.432 50.6066 74.7005 48.9953C74.9154 47.5987 74.5931 46.2559 73.0891 46.0411C71.6389 45.8262 70.8869 46.9005 70.6721 48.4044Z" fill="#004F74"/>
<path d="M79.8032 50.8215L78.9975 53.8831L77.3861 53.4534L79.3735 46.0411L82.7036 46.9542C84.2613 47.3839 85.1744 48.3507 84.7984 49.6935C84.5299 50.714 83.8316 51.0363 83.0796 51.09C83.8316 51.5734 83.939 52.2717 83.7242 53.1848L83.6705 53.3997C83.5093 54.0442 83.3482 54.6888 83.3482 55.1185L81.7368 54.6888C81.6831 54.3665 81.7905 53.8294 82.0591 52.9163L82.1128 52.7014C82.3276 51.842 82.0591 51.466 80.9848 51.1975L79.8032 50.8215ZM80.1254 49.6398L81.3608 49.9621C82.1665 50.1769 82.8648 50.1769 83.0796 49.3175C83.2408 48.6193 82.7573 48.2433 82.1128 48.0821L80.6089 47.7062L80.1254 49.6398Z" fill="#004F74"/>
<path d="M90.9753 54.2591L87.5377 52.97L86.8394 54.9036L90.653 56.3001L90.0084 57.4281L84.7983 55.4945L87.484 48.297L92.6941 50.2306L92.2644 51.466L88.6656 50.1232L88.0748 51.7346L91.5124 53.0237L90.9753 54.2591Z" fill="#004F74"/>
<path d="M93.5534 56.5687C93.3922 57.267 93.6071 57.8578 94.4128 58.2875C95.2722 58.7172 95.7556 58.5023 95.9704 58.0189C96.2927 57.3744 95.9704 56.9447 95.0036 56.139C93.4459 54.8499 93.1237 53.9905 93.5534 52.97C94.1442 51.6809 95.6482 51.5197 97.0984 52.218C98.9246 53.0774 99.3006 54.3128 98.8709 55.4945L97.3132 54.7962C97.4744 54.2591 97.367 53.7219 96.5613 53.346C95.863 53.0237 95.3796 53.1311 95.1647 53.6682C94.8962 54.2054 95.2185 54.5276 96.1853 55.3333C97.9041 56.7835 98.0652 57.6967 97.5818 58.7172C97.0447 59.8452 95.7556 60.436 93.7682 59.4692C92.1031 58.6635 91.3512 57.3744 91.942 55.9779L93.5534 56.5687Z" fill="#004F74"/>
<path d="M102.416 56.4076L100.429 55.2796L101.073 54.1516L106.606 57.267L105.961 58.3949L103.974 57.267L100.805 62.853L99.3007 61.9936L102.416 56.4076Z" fill="#004F74"/>
<path d="M9.86963 65.4312L16.5837 60.9731" stroke="#004F74" stroke-width="1.1645" stroke-miterlimit="10" stroke-linecap="round" stroke-linejoin="round"/>
<path d="M112.782 65.4312L106.068 60.9731" stroke="#004F74" stroke-width="1.1645" stroke-miterlimit="10" stroke-linecap="round" stroke-linejoin="round"/>
<path d="M4.9281 124.3H121.108" stroke="#004F74" stroke-width="1.1395" stroke-miterlimit="10" stroke-linecap="round" stroke-linejoin="round"/>
<path d="M67.2623 13.8361C67.2623 13.8361 67.2623 13.9016 67.5246 14.0984C69.0328 15.2787 69.8197 16.459 69.8197 18.8197C69.8197 21.7705 67.2623 23.9344 64.3115 23.9344V28C69.3607 28 74.0164 24.3934 74.0164 19.2131C74.0164 17.377 73.4918 15.541 72.2459 13.7705C72.3115 13.7049 72.5738 13.377 72.7705 12.9836C73.0984 12.459 73.164 11.8033 73.164 9.57377V0H60.1803V7.67213H56.0492V11.8689H64.4426V4.2623H69.0984V10.8197C69.0328 10.8197 69.2295 12.6557 67.2623 13.8361Z" fill="#009D9B"/>
<path d="M55.9836 0H54.8033C52.5738 0.0655738 50.2787 0.721311 48.7705 2.4918C47.1312 4.32787 47 5.96721 47 8.65574V28H60.1803V20.3934H64.3771V16.1311H55.9836V23.8033H51.1967V7.80328C51.1967 7.80328 50.8688 4.32787 55.0656 4.19672L56.0492 4.13115L55.9836 0Z" fill="#008DC5"/>
</svg>
