<?xml version="1.0" encoding="utf-8"?>
<!-- Generator: Adobe Illustrator 23.0.1, SVG Export Plug-In . SVG Version: 6.00 Build 0)  -->
<svg version="1.1" id="圖層_1" xmlns="http://www.w3.org/2000/svg" xmlns:xlink="http://www.w3.org/1999/xlink" x="0px" y="0px"
	 viewBox="0 0 240 230" style="enable-background:new 0 0 240 230;" xml:space="preserve">
<style type="text/css">
	.st0{fill:#004F74;}
	.st1{fill:#FFFFFF;}
	.st2{fill:none;stroke:#004F74;stroke-width:1.1645;stroke-linecap:round;stroke-linejoin:round;stroke-miterlimit:10;}
	.st3{fill:#009D9B;}
	.st4{fill:#008DC5;}
</style>
<g>
	<g>
		<g>
			<g>
				<path class="st0" d="M122.3,167.2c-4-0.2-7.9-1.3-11.2-2.9c-4.8-2.3-8.7-5.4-13.1-8.1c-7.6-4.9-17.7-9.5-28.5-9.8
					c-11.2-0.3-22.5,4.7-30.5,9.8c-4.3,2.8-8.2,5.9-13.1,8.1c-3.6,1.7-8,2.9-12.3,2.9L122.3,167.2z"/>
				<g>
					<path class="st0" d="M122.3,166.8c-4-0.2-7.9-1.4-11.5-3.1c-3.5-1.7-6.7-4-9.9-6.2c-6.1-4.1-12.7-7.7-19.8-9.8
						c-3.7-1.1-7.6-1.8-11.5-1.9c-3.9-0.1-7.9,0.4-11.7,1.3c-7.3,1.8-14.2,5.1-20.4,9.3c-3.2,2.1-6.3,4.4-9.6,6.2
						c-3.5,1.9-7.3,3.3-11.2,3.8c-1,0.1-2,0.2-2.9,0.2c-0.8,0-0.8,1.3,0,1.3c1,0,1.9,0,2.9,0c2.6,0,5.3,0,7.9,0c3.9,0,7.8,0,11.7,0
						c4.7,0,9.5,0,14.2,0c5.2,0,10.4,0,15.7,0c5.3,0,10.5,0,15.8,0c4.9,0,9.8,0,14.7,0c4.1,0,8.3,0,12.4,0c3,0,5.9,0,8.9,0
						c0.5,0,1,0,1.6-0.1c0.3,0,0.4,0,0.7,0c0.2,0,0.4,0,0.6,0c0.3,0,0.6,0,0.9,0c0.1,0,0.2,0,0.3,0c0,0,0.1,0,0.1,0s0.1,0,0.1,0
						c0.4,0-0.1,0,0,0c0,0,0.2,0,0.2,0c0.6,0,0.6-1,0-1c-0.1,0-0.1,0-0.2,0C122,166.7,121.3,166.7,122.3,166.8
						c-0.1-0.1-0.2-0.1-0.2-0.1c0,0,0,0-0.1,0c0,0-0.1,0-0.1,0c-0.1,0-0.2,0-0.3,0c-0.3,0-0.6,0-0.9,0c-0.2,0-0.4,0-0.6,0
						c-0.2,0-0.1,0-0.3,0c-0.1,0-0.2,0-0.4,0c-2.6-0.1-5.3-0.1-7.9-0.1c-3.9,0-7.8,0-11.7,0c-4.7,0-9.5,0-14.2,0
						c-5.2,0-10.4,0-15.6,0c-5.3,0-10.5,0-15.8,0c-4.9,0-9.8,0-14.7,0c-4.2,0-8.3,0-12.5,0c-3,0-6,0-8.9,0c-1.4,0-2.9-0.1-4.3,0
						c-0.1,0-0.1,0-0.2,0c0,0.4,0,0.9,0,1.3c3.9,0,7.8-1,11.4-2.5c3.6-1.5,6.8-3.7,10-5.9c3-2.1,6-4.1,9.3-5.8
						c3.4-1.8,7-3.4,10.7-4.6c3.8-1.2,7.7-2,11.7-2.3s7.9,0.3,11.8,1.2c7.3,1.7,14.1,5,20.3,9.1c3.2,2.1,6.3,4.4,9.7,6.2
						c3.4,1.9,7.1,3.3,11,3.9c0.9,0.1,1.9,0.2,2.8,0.3C122.8,167.6,122.8,166.9,122.3,166.8z"/>
				</g>
			</g>
			<g>
				<path class="st0" d="M228.3,167.2c-4-0.2-7.9-1.3-11.2-2.9c-4.8-2.3-8.7-5.4-13.1-8.1c-7.6-4.9-17.7-9.5-28.5-9.8
					c-11.2-0.3-22.5,4.7-30.4,9.8c-4.3,2.8-8.2,5.9-13.1,8.1c-3.6,1.7-8,2.9-12.3,2.9L228.3,167.2z"/>
				<g>
					<path class="st0" d="M228.3,166.8c-4-0.2-7.9-1.4-11.5-3.1c-3.5-1.7-6.6-4-9.9-6.2c-6.1-4.1-12.6-7.7-19.8-9.8
						c-3.7-1.1-7.6-1.8-11.5-1.9c-3.9-0.1-7.9,0.4-11.7,1.3c-7.3,1.8-14.1,5.1-20.4,9.3c-3.2,2.1-6.3,4.4-9.6,6.2
						c-3.5,1.9-7.3,3.3-11.2,3.8c-1,0.1-2,0.2-2.9,0.2c-0.8,0-0.8,1.3,0,1.3c1,0,1.9,0,2.9,0c2.6,0,5.3,0,7.9,0c3.9,0,7.8,0,11.7,0
						c4.7,0,9.5,0,14.2,0c5.2,0,10.4,0,15.6,0c5.3,0,10.5,0,15.8,0c4.9,0,9.8,0,14.7,0c4.1,0,8.3,0,12.4,0c3,0,5.9,0,8.9,0
						c0.5,0,1,0,1.6-0.1c0.4,0,0.4,0,0.7,0c0.2,0,0.4,0,0.6,0c0.3,0,0.6,0,0.9,0c0.1,0,0.2,0,0.3,0c0,0,0.1,0,0.1,0s0.1,0,0.1,0
						c0.4,0-0.1,0,0,0c0,0,0.1,0,0.2,0c0.6,0,0.6-1,0-1c-0.1,0-0.1,0-0.2,0S227.4,166.7,228.3,166.8c-0.1-0.1-0.2-0.1-0.2-0.1
						c0,0,0,0-0.1,0c0,0-0.1,0-0.1,0c-0.1,0-0.2,0-0.3,0c-0.3,0-0.6,0-0.9,0c-0.2,0-0.4,0-0.6,0c-0.2,0-0.1,0-0.3,0
						c-0.1,0-0.2,0-0.4,0c-2.6-0.1-5.3-0.1-7.9-0.1c-3.9,0-7.8,0-11.6,0c-4.7,0-9.5,0-14.2,0c-5.2,0-10.4,0-15.6,0
						c-5.3,0-10.5,0-15.8,0c-4.9,0-9.8,0-14.7,0c-4.1,0-8.3,0-12.4,0c-3,0-5.9,0-8.9,0c-1.4,0-2.9-0.1-4.3,0c-0.1,0-0.1,0-0.2,0
						c0,0.4,0,0.9,0,1.3c3.9,0,7.8-1,11.4-2.5c3.6-1.5,6.8-3.7,10-5.9c3-2.1,6-4.1,9.3-5.8c3.4-1.8,7-3.4,10.7-4.6
						c3.8-1.2,7.7-2,11.7-2.3s7.9,0.3,11.8,1.2c7.3,1.7,14.1,5,20.3,9.1c3.2,2.1,6.3,4.4,9.7,6.2c3.4,1.9,7.1,3.3,11,3.9
						c0.9,0.1,1.9,0.2,2.8,0.3C228.8,167.6,228.8,166.9,228.3,166.8z"/>
				</g>
			</g>
		</g>
		<g>
			<path class="st0" d="M28.8,194.4c-1.8,8.6-5.7,15.1-10.3,18.5c-0.8-1-2.5-3-3.6-3.7c3.5-2.3,6.5-6.4,8.2-11.4h-7.3v-4.7H25
				l0.8-0.2L28.8,194.4z M49.2,191.6c-2.9,2.8-6.3,6-9.1,8.1c2.6,4,6,7.1,10.5,9c-1,1-2.4,3-3.1,4.3c-5.5-2.7-9.3-7.2-12.1-12.9v9.6
				c0,2.7-0.5,4.1-2.1,4.9c-1.5,0.8-3.8,0.8-7,0.8c-0.2-1.4-0.9-3.6-1.5-5c1.9,0.1,4.2,0.1,4.9,0.1c0.7,0,0.9-0.3,0.9-0.9v-19.9H21
				V185H35c-3.2-1.6-7.6-3.2-11-4.2l2.2-4.1c4.4,1,10.6,3.3,13.8,5.1l-2.4,4.6c-0.6-0.4-1.5-0.9-2.4-1.3v3.5
				c0.7,2.6,1.6,5.1,2.7,7.4c2.6-2.3,5.4-5.2,7.2-7.7L49.2,191.6z"/>
			<path class="st0" d="M84,202.8c-0.1-0.6-0.2-1.3-0.3-2c-6.7,1.1-7.9,1.5-8.7,1.9c-0.2-0.8-0.8-2.9-1.3-4.1
				c0.9-0.2,1.7-1.2,2.8-2.8c0.4-0.6,1.3-1.9,2.3-3.7c-2.8,0.4-3.5,0.6-4.1,0.9c-0.2-0.8-0.8-2.8-1.2-3.9c0.7-0.2,1.3-1,2-2.3
				c0.7-1.2,2.9-5.9,4.1-10.3l3.7,1.6c-1.2,3.4-2.9,7.1-4.6,10.1L81,188c0.9-1.8,1.7-3.7,2.4-5.6l3.4,2.3c-2,4.5-4.6,9.1-7.3,12.9
				L83,197c-0.3-1.1-0.5-2.3-0.8-3.2l3-0.9c0.9,2.8,1.7,6.5,2,8.7L84,202.8z M78.5,204.6c-0.3,3.9-0.9,8.1-1.7,10.8
				c-0.8-0.5-2.4-1-3.3-1.3c0.9-2.6,1.3-6.5,1.6-10.1L78.5,204.6z M82,203.9c0.4,3.1,0.8,7,0.9,9.6l-3.2,0.6c0-2.6-0.3-6.6-0.6-9.6
				L82,203.9z M85.3,202.8c0.7,2.3,1.5,5.4,1.8,7.5l-2.9,1.1c-0.3-2.1-1.1-5.3-1.7-7.7L85.3,202.8z M101.9,209.4
				c2.5,0.9,5.1,2,6.8,2.8l-1.8,3.5c-2-1-5.3-2.6-8.1-3.7l1.2-2.5h-5.6l2.3,2.5c-3,1.4-6.7,3-9.5,4c-0.3-0.9-1-2.4-1.5-3.4
				c2.1-0.8,5-1.9,7.1-3h-5v-12.5h19v12.5L101.9,209.4L101.9,209.4z M95.3,181.5h-8.9v-3.2h8.9v-1.8h4.4v1.8h8.5v3.2h-8.5v1.4h7.3v3
				H87.7v-3h7.6V181.5z M86.5,187.1h21.6v8.5H86.5V187.1z M90.1,192.6h2.7v-2.5h-2.7V192.6z M91.8,200.6h10.9v-1.3H91.8V200.6z
				 M91.8,203.7h10.9v-1.3H91.8V203.7z M91.8,206.9h10.9v-1.3H91.8V206.9z M98.6,192.6v-2.5h-2.4v2.5H98.6z M104.2,190.1h-2.4v2.5
				h2.4V190.1z"/>
			<path class="st0" d="M145.9,208.8c-0.6-0.5-1.5-1.3-2.5-2.2v8.6h-4.2v-7.5c-1.6,2.2-3.4,4.1-5.2,5.4c-0.3-1.3-1.1-3.3-1.8-4.6
				c2.4-1.4,5-3.9,6.7-6.4h-5.5v-4.3h5.8v-4.1h4.2v4.1h5.3v4.3h-5.3v0.1c1.5,1,5,3.4,6,4.1L145.9,208.8z M147.6,186.3
				c-3.3,4-7.8,7.1-12.6,9c-0.6-1.2-1.8-3-2.7-3.9c4.3-1.4,8.5-3.8,11.4-6.8H134v-4.3h13.6v-3.8h4.5v3.8h13.6v4.3h-9.6
				c4,2,9.3,4.8,10.8,5.7l-1.4,4.6c-2.9-2.2-9.4-6.3-13.4-8.6v8.9h-4.5L147.6,186.3L147.6,186.3z M160.3,202.2
				c2,2.8,5.1,5.6,7.7,7.1c-1,1-2.4,2.7-3.2,3.9c-1.7-1.4-3.5-3.6-5.1-6v8.3h-4.3v-8.3c-2,2.5-4.3,4.7-6.7,6.1
				c-0.6-1-1.8-2.7-2.8-3.6c3.3-1.5,6.7-4.5,8.8-7.6H150v-4.3h5.4v-4.2h4.3v4.2h6.8v4.3L160.3,202.2L160.3,202.2z"/>
			<path class="st0" d="M204.9,202c-0.7-1.4-1.8-3.4-2.9-5.2v18.8h-4.4v-16.7c-1.4,3.8-3,7.3-4.8,9.7c-0.4-1.4-1.5-3.5-2.2-4.8
				c2.6-3.3,5.1-8.8,6.4-13.8h-5.3v-4.7h5.9v-8.6h4.4v8.6h4.9v4.7H202v0.7c1.1,1.3,4.9,6,5.7,7.1L204.9,202z M219.6,189.9
				c1.6,5.7,4.1,11.5,6.9,15c-1.1,0.9-2.6,2.6-3.4,3.8c-1.6-2.5-3.2-6.1-4.4-9.9v16.8h-4.5v-16.9c-1.8,4.5-4,8.5-6.5,11.2
				c-0.5-1.4-1.7-3.3-2.5-4.6c3.5-3.7,6.5-9.6,8.3-15.4h-5.4v-4.7h6.2v-8.6h4.5v8.6h6.6v4.7H219.6z"/>
		</g>
		<g>
			<g>
				<path d="M8.7,172.5c0.2,0,0.2-0.3,0-0.3C8.5,172.2,8.5,172.5,8.7,172.5L8.7,172.5z"/>
			</g>
		</g>
		<g>
			<g>
				<g>
					<g id="Tree_9_00000178923934250675328690000011077909462848846015_">
						<path class="st0" d="M122.4,153c3,2,7,2.4,10.4,1.2c3.8-1.4,6.8-4.8,7.8-8.6c1.1-3.9,0.3-8.2-1.9-11.6
							c2.7-2.8,3.4-7.3,1.7-10.8c-1.7-3.5-5.7-5.7-9.5-5.3c-0.7-2-1.8-4-3.3-5.5c-1.5-1.6-3.5-2.7-5.6-2.9c-2.5-0.3-5,0.7-7,2.3
							s-3.3,3.8-4.2,6.1c-3.8-0.3-7.7,2.1-9.3,5.6s-0.8,7.9,2,10.6c0,0-1.3,2.3-1.4,2.5c-0.4,0.9-0.7,1.9-0.8,2.8
							c-0.3,1.9-0.3,4,0.2,5.9c1,3.9,3.7,7.3,7.6,8.8c0.9,0.4,1.9,0.6,2.9,0.8c3.3,0.4,6.8-0.5,9.4-2.6
							C121.7,152.5,122,152.7,122.4,153z"/>
						<path class="st0" d="M122.7,140"/>
						<g>
							<path class="st0" d="M118.1,168.4l0.9-20.9l-8.4-7.6c-0.6-0.5-0.7-1.3-0.3-1.8c0.2-0.3,0.5-0.4,0.9-0.4
								c0.3,0,0.7,0.1,0.9,0.3l7,5.3l0.3-5.9l-4.4-4.1c-0.4-0.4-0.4-0.9-0.1-1.4c0.2-0.2,0.5-0.4,0.8-0.4c0.2,0,0.4,0.1,0.6,0.2
								l3.3,2.4l0.2-3.8c0-0.8,0.7-1.4,1.5-1.4s1.4,0.6,1.5,1.4l0.3,7.6l5.7-4.4c0.3-0.2,0.5-0.3,0.8-0.3c0.3,0,0.6,0.1,0.8,0.4
								c0.4,0.4,0.3,1.1-0.2,1.6l-6.9,6.3l1.2,26.6H118.1z"/>
							<path class="st1" d="M121.3,129.5c0.6,0,1.1,0.5,1.1,1.1l0.4,8.4l6.3-4.8c0.2-0.1,0.4-0.2,0.6-0.2c0.2,0,0.4,0.1,0.5,0.2
								c0.2,0.3,0.1,0.8-0.2,1.1l-7.1,6.4l1.2,26.4h-5.6l0.9-20.7l-8.5-7.7c-0.4-0.4-0.5-0.9-0.2-1.3c0.1-0.2,0.3-0.3,0.6-0.3
								s0.5,0.1,0.7,0.3l7.6,5.8l0.3-6.8l-4.5-4.2c-0.2-0.2-0.3-0.6-0.1-0.8c0.1-0.1,0.3-0.2,0.5-0.2c0.1,0,0.3,0,0.4,0.1l3.9,2.9
								l0.2-4.5C120.2,130,120.7,129.5,121.3,129.5 M121.3,128.7c-1,0-1.8,0.8-1.9,1.8l-0.1,3.1l-2.7-2c-0.2-0.2-0.5-0.3-0.8-0.3
								c-0.4,0-0.8,0.2-1.1,0.5c-0.5,0.6-0.4,1.4,0.1,1.9l4.3,4l-0.2,5l-6.4-4.9c-0.3-0.3-0.8-0.4-1.2-0.4c-0.5,0-0.9,0.2-1.2,0.5
								c-0.6,0.7-0.4,1.7,0.3,2.3l8.2,7.5l-0.9,20.3l0,0.8h0.8h5.6h0.8l0-0.8l-1.2-26l6.8-6.2c0.7-0.6,0.8-1.5,0.3-2.1
								c-0.3-0.3-0.7-0.5-1.1-0.5c-0.4,0-0.8,0.1-1.1,0.4l-5.1,3.9l-0.3-6.9C123.1,129.5,122.3,128.7,121.3,128.7L121.3,128.7z"/>
						</g>
					</g>
					<g>
						<circle class="st0" cx="98.6" cy="150.8" r="10.6"/>
						<path class="st1" d="M98.6,140.6c5.6,0,10.2,4.6,10.2,10.2c0,5.6-4.6,10.2-10.2,10.2c-5.6,0-10.2-4.6-10.2-10.2
							S93,140.6,98.6,140.6 M98.6,139.8c-6.1,0-11,4.9-11,11s4.9,11,11,11s11-4.9,11-11S104.7,139.8,98.6,139.8L98.6,139.8z"/>
					</g>
					<g>
						<path class="st0" d="M143.4,161.4c-5.8,0-10.6-4.8-10.6-10.6s4.8-10.6,10.6-10.6S154,145,154,150.8S149.2,161.4,143.4,161.4z"
							/>
						<path class="st1" d="M143.4,140.6c5.6,0,10.2,4.6,10.2,10.2c0,5.6-4.6,10.2-10.2,10.2c-5.6,0-10.2-4.6-10.2-10.2
							S137.8,140.6,143.4,140.6 M143.4,139.8c-6.1,0-11,4.9-11,11s4.9,11,11,11s11-4.9,11-11S149.4,139.8,143.4,139.8L143.4,139.8z"
							/>
					</g>
					<path class="st1" d="M100.4,168h-3.5l1.1-15.4c0-0.3,0.3-0.5,0.7-0.5l0,0c0.4,0,0.7,0.2,0.7,0.5L100.4,168z"/>
					<path class="st1" d="M145.1,168h-3.5l1.1-15.4c0-0.3,0.3-0.5,0.7-0.5l0,0c0.4,0,0.7,0.2,0.7,0.5L145.1,168z"/>
				</g>
				<g>
					<g>
						<g>
							<g>
								<path class="st0" d="M81.7,105.6l0.3,20.9C82,126.5,76.2,114.8,81.7,105.6z"/>
								<path class="st0" d="M81.7,105.6l0.3,20.9C82,126.5,87.5,114.7,81.7,105.6z"/>
							</g>
							<g>
								<path class="st0" d="M100.1,137l-18.2-10.5C81.9,126.5,89.3,137.3,100.1,137z"/>
								<path class="st0" d="M100.1,137l-18.2-10.5C81.9,126.5,94.9,127.5,100.1,137z"/>
							</g>
							<g>
								<path class="st0" d="M63.8,137l18.1-10.5C81.9,126.5,68.9,127.5,63.8,137z"/>
								<path class="st0" d="M63.8,137l18.1-10.5C81.9,126.5,74.6,137.3,63.8,137z"/>
							</g>
						</g>
						<polygon class="st0" points="83.8,167.1 79.9,167.1 81.2,127.5 82.5,127.5 						"/>
						<g>
							<path class="st0" d="M84.1,125.9c0.4,1.2-0.3,2.4-1.4,2.8c-1.2,0.4-2.4-0.3-2.8-1.4s0.3-2.4,1.4-2.8
								C82.4,124.1,83.7,124.8,84.1,125.9z"/>
						</g>
					</g>
				</g>
				<g>
					<g>
						<g>
							<g>
								<path class="st0" d="M160.1,105.6l0.3,20.9C160.3,126.5,154.5,114.8,160.1,105.6z"/>
								<path class="st0" d="M160.1,105.6l0.3,20.9C160.3,126.5,165.9,114.7,160.1,105.6z"/>
							</g>
							<g>
								<path class="st0" d="M178.4,137l-18.1-10.5C160.3,126.5,167.7,137.3,178.4,137z"/>
								<path class="st0" d="M178.4,137l-18.1-10.5C160.3,126.5,173.3,127.5,178.4,137z"/>
							</g>
							<g>
								<path class="st0" d="M142.2,137l18.1-10.5C160.3,126.5,147.3,127.5,142.2,137z"/>
								<path class="st0" d="M142.2,137l18.1-10.5C160.3,126.5,152.9,137.3,142.2,137z"/>
							</g>
						</g>
						<polygon class="st0" points="162.2,167.1 158.2,167.1 159.6,127.5 160.9,127.5 						"/>
						<g>
							<path class="st0" d="M162.4,125.9c0.4,1.2-0.3,2.4-1.4,2.8s-2.4-0.3-2.8-1.4s0.3-2.4,1.4-2.8
								C160.8,124.1,162.1,124.8,162.4,125.9z"/>
						</g>
					</g>
				</g>
			</g>
			<path class="st2" d="M228.3,168"/>
			<path class="st2" d="M13.7,168"/>
		</g>
		<g>
			<g>
				<path class="st0" d="M58.6,103.6l-4.2-2.2l-0.1,0.1l-2.5,1.3l1.8,3.5l-2.9,1.5l-6.4-12.4l5.4-2.8c3.3-1.7,6.3-1.1,7.7,1.7
					c1,1.9,0.7,3.7-0.5,5.3l4.8,2.6L58.6,103.6z M50.7,94.9l-2.3,1.2l2.2,4.3l2.3-1.2c1.8-0.9,2.2-2.2,1.5-3.5
					C53.8,94.3,52.5,94,50.7,94.9z"/>
				<path class="st0" d="M69.6,87.2l4,10l-2.8,1.1l-0.5-1.2c-0.4,1.2-1.3,2.1-2.6,2.6c-2.5,1-4.8,0.3-6.1-2.8l-2.3-5.6l2.9-1.2
					l2.1,5.2c0.7,1.7,1.7,2.1,3,1.6c1.3-0.5,2-1.8,1.2-3.6l-2-4.9L69.6,87.2z"/>
				<path class="st0" d="M85,87.3l1.7,5.9l-3,0.9l-1.6-5.4c-0.5-1.7-1.5-2.2-2.8-1.8c-1.4,0.4-2.2,1.6-1.7,3.5l1.5,5.1l-3,0.9
					l-3-10.3l2.9-0.8l0.4,1.2c0.6-1.1,1.6-2,3-2.4C81.8,83.2,84.1,84.1,85,87.3z"/>
				<path class="st0" d="M96.7,79.6l0.5,3.7l6.4-0.9l0.4,2.6l-6.4,0.9l0.8,5l-3.2,0.5l-2.1-13.8l10.5-1.6l0.4,2.6L96.7,79.6z"/>
				<path class="st0" d="M106.2,84.3c-0.2-3.2,2.2-5.7,5.6-5.8c3.4-0.2,6,2,6.2,5.2c0.2,3.2-2.2,5.7-5.6,5.8
					C109,89.8,106.3,87.6,106.2,84.3z M114.8,83.9c-0.1-1.9-1.3-2.9-2.9-2.8s-2.7,1.3-2.6,3.1s1.4,2.9,2.9,2.8
					C113.8,86.9,114.9,85.8,114.8,83.9z"/>
				<path class="st0" d="M127.3,78.5l-0.1,2.9c-0.3,0-0.5-0.1-0.7-0.1c-1.7-0.1-2.9,0.8-2.9,2.9l-0.2,5.1l-3.1-0.1l0.3-10.8l3,0.1
					l0,1.4C124.3,78.9,125.6,78.4,127.3,78.5z"/>
				<path class="st0" d="M145.2,84.4l2.9,0.5l-0.9,5.6c-1.7,0.9-3.9,1.2-5.9,0.8c-4.3-0.7-7.1-4.2-6.4-8.4s4.4-6.6,8.8-5.9
					c2.4,0.4,4.3,1.6,5.4,3.3l-2.4,1.6c-0.8-1.2-1.9-1.9-3.3-2.1c-2.7-0.4-4.8,1.1-5.2,3.7c-0.4,2.6,1.1,4.7,3.8,5.2
					c0.9,0.1,1.7,0.1,2.6-0.2L145.2,84.4z"/>
				<path class="st0" d="M158.7,83.8l-0.7,2.8c-0.3-0.1-0.4-0.2-0.7-0.2c-1.7-0.4-3,0.2-3.5,2.2l-1.3,4.9l-3-0.8l2.7-10.4l2.9,0.7
					l-0.4,1.4C155.7,83.6,157.1,83.4,158.7,83.8z"/>
				<path class="st0" d="M169,93.9l-7.7-2.6c-0.1,1.4,0.7,2.5,2.2,3c1.1,0.4,2,0.3,2.9-0.1l1,2.2c-1.3,0.8-2.9,0.9-4.8,0.2
					c-3.5-1.2-5.1-4.2-4.1-7.2c1-3.1,4.1-4.5,7.2-3.4c3,1,4.6,3.8,3.5,7.1C169.3,93.3,169.1,93.6,169,93.9z M161.9,89.6l5,1.7
					c0.2-1.4-0.5-2.5-1.8-3C163.8,87.8,162.5,88.3,161.9,89.6z"/>
				<path class="st0" d="M180.9,98.9l-7.5-3.2c-0.3,1.3,0.5,2.6,2,3.2c1.1,0.4,1.9,0.5,2.9,0.1l0.8,2.3c-1.4,0.7-3,0.6-4.8-0.2
					c-3.4-1.5-4.7-4.6-3.5-7.5c1.3-3,4.4-4.1,7.4-2.8c2.9,1.2,4.3,4.2,3,7.3C181.2,98.3,181.1,98.7,180.9,98.9z M174.1,94l4.9,2.1
					c0.3-1.3-0.3-2.6-1.6-3.1C176.2,92.4,174.9,92.8,174.1,94z"/>
				<path class="st0" d="M193.7,103.6l-2.9,5.5l-2.8-1.4l2.6-5c0.8-1.5,0.5-2.6-0.8-3.3c-1.3-0.7-2.7-0.4-3.6,1.4l-2.5,4.7l-2.8-1.4
					l5-9.5l2.6,1.4l-0.6,1.1c1.2-0.4,2.5-0.3,3.8,0.4C194.2,98.5,195.2,100.7,193.7,103.6z"/>
			</g>
			<line class="st2" x1="24.4" y1="114.7" x2="36.9" y2="106.4"/>
			<line class="st2" x1="214.6" y1="114.7" x2="202" y2="106.4"/>
		</g>
	</g>
	<g>
		<path class="st3" d="M131.7,37.2C131.7,37.2,131.7,37.2,131.7,37.2c0,0,0,0.1,0.4,0.4c2.3,1.8,3.5,3.6,3.5,7.2
			c0,4.5-3.9,7.8-8.4,7.8v6.2c7.7,0,14.8-5.5,14.8-13.4c0-2.8-0.8-5.6-2.7-8.3c0.1-0.1,0.5-0.6,0.8-1.2c0.5-0.8,0.6-1.8,0.6-5.2
			V16.1h-19.8v11.7h-6.3v6.4h12.8V22.6h7.1v9.9C134.4,32.6,134.7,35.4,131.7,37.2"/>
		<path class="st4" d="M114.6,16.1h-1.8v0c-3.4,0.1-6.9,1.1-9.2,3.8c-2.5,2.8-2.7,5.3-2.7,9.4v29.5h20.1V47.2h6.4v-6.5h-12.8v11.7
			h-7.3V28c0,0-0.5-5.3,5.9-5.5l1.5-0.1V16.1z"/>
	</g>
</g>
</svg>
