<svg width="73" height="131" viewBox="0 0 73 131" fill="none" xmlns="http://www.w3.org/2000/svg">
<path d="M23.7788 128.6C23.0788 128.6 22.4788 128.1 22.3788 127.4L19.3788 103H17.3788C14.5788 103 12.3788 100.8 12.3788 98C12.3788 95.2 14.5788 93 17.3788 93H30.2788L30.8788 79.2C28.6788 79.9 26.3788 80.3 24.0788 80.3C23.0788 80.3 22.1788 80.2 21.2788 80.1C19.5788 79.9 17.7788 79.4 16.1788 78.7C9.67877 76.1 4.67877 70.3 2.87877 63.2C1.97877 59.9 1.87877 56.3 2.47877 52.8C2.77877 51.1 3.27877 49.4 3.97877 47.8C4.17877 47.4 5.17877 45.6 5.17877 45.5C5.37877 45.1 5.57877 44.7 5.77877 44.4C1.37877 39.5 0.178766 32.2 2.87877 26.1C5.57877 20.2 11.9788 16 18.5788 16C20.2788 11.9 22.6788 8.60004 25.5788 6.20004C28.7788 3.50004 32.6788 2.10004 36.5788 2.10004C37.0788 2.10004 37.6788 2.10004 38.1788 2.20004C41.8788 2.60004 45.4788 4.50004 48.3788 7.50004C50.5788 9.80004 52.3788 12.7 53.7788 16.1C53.9788 16.1 54.1788 16.1 54.3788 16.1C60.8788 16.1 67.0788 20 69.8788 25.7C72.7788 31.6 71.7788 39.3 67.4788 44.3C70.8788 50.2 71.8788 57.4 70.1788 63.7C68.2788 70.7 62.9788 76.6 56.3788 79C54.1788 79.8 51.7788 80.2 49.3788 80.2C47.2788 80.2 45.0788 79.9 43.0788 79.2L43.6788 93H55.5788C58.3788 93 60.5788 95.2 60.5788 98C60.5788 100.8 58.3788 103 55.5788 103H53.6788L50.6788 127.4C50.5788 128.1 49.9788 128.6 49.2788 128.6H23.7788Z" fill="#004F74"/>
<path d="M36.5788 3.50001C37.0788 3.50001 37.5788 3.50001 38.0788 3.60001C41.5788 4.00001 44.8788 5.90001 47.3788 8.40001C49.8788 11 51.5788 14.2 52.7788 17.5C53.2788 17.4 53.7788 17.4 54.2788 17.4C60.1788 17.4 65.9788 20.9 68.4788 26.2C71.2788 32 70.0788 39.4 65.5788 44C69.1788 49.6 70.4788 56.8 68.6788 63.2C66.8788 69.6 61.9788 75.2 55.7788 77.5C53.6788 78.3 51.4788 78.6 49.2788 78.6C46.5788 78.6 43.8788 78.1 41.4788 77L42.2788 94.3H55.5788C57.5788 94.3 59.1788 95.9 59.1788 97.9C59.1788 99.9 57.5788 101.5 55.5788 101.5H52.3788L49.1788 127.2H23.7788L20.5788 101.5H17.3788C15.3788 101.5 13.7788 99.9 13.7788 97.9C13.7788 95.9 15.3788 94.3 17.3788 94.3H31.5788L32.3788 77.1C29.7788 78.2 26.8788 78.8 24.0788 78.8C23.1788 78.8 22.2788 78.7 21.4788 78.6C19.8788 78.4 18.2788 77.9 16.6788 77.3C10.3788 74.8 5.87876 69.3 4.17876 62.7C3.37876 59.5 3.27876 56.2 3.77876 52.9C4.07876 51.3 4.47876 49.7 5.17876 48.2C5.37876 47.8 7.37876 44.1 7.47876 44.1C2.97876 39.6 1.57876 32.3 4.17876 26.5C6.67876 21 12.5788 17.3 18.5788 17.3C18.8788 17.3 19.1788 17.3 19.5788 17.3C21.0788 13.4 23.3788 9.80001 26.5788 7.10001C29.3788 5.00001 32.9788 3.50001 36.5788 3.50001ZM36.5788 0.700012C32.3788 0.700012 28.1788 2.30001 24.6788 5.20001C21.7788 7.60001 19.3788 10.8 17.5788 14.7C10.6788 15.1 4.37876 19.3 1.57876 25.6C-1.22124 31.8 -0.221236 39.3 3.97876 44.7C3.97876 44.8 3.87876 44.8 3.87876 44.9C3.57876 45.5 2.77876 46.9 2.57876 47.4C1.87876 49 1.37876 50.8 0.978763 52.6C0.378763 56.2 0.478764 60 1.47876 63.6C3.47876 71.2 8.77876 77.3 15.6788 80.1C17.4788 80.8 19.2788 81.3 21.0788 81.5C22.0788 81.6 23.0788 81.7 24.0788 81.7C25.8788 81.7 27.6788 81.5 29.3788 81.1L28.8788 91.6H17.3788C13.8788 91.6 10.9788 94.5 10.9788 98C10.9788 101.5 13.8788 104.4 17.3788 104.4H18.0788L20.9788 127.6C21.1788 129 22.3788 130.1 23.7788 130.1H49.1788C50.5788 130.1 51.7788 129 51.9788 127.6L54.8788 104.4H55.5788C59.0788 104.4 61.9788 101.5 61.9788 98C61.9788 94.5 59.0788 91.6 55.5788 91.6H44.9788L44.4788 81.1C46.0788 81.4 47.6788 81.6 49.2788 81.6C51.8788 81.6 54.3788 81.2 56.7788 80.3C63.7788 77.7 69.3788 71.5 71.4788 64.1C73.2788 57.7 72.3788 50.5 69.0788 44.4C73.1788 39 73.9788 31.2 71.0788 25.1C68.0788 19 61.5788 14.8 54.6788 14.7C53.2788 11.4 51.4788 8.70001 49.3788 6.50001C46.2788 3.30001 42.3788 1.30001 38.3788 0.800013C37.7788 0.700013 37.1788 0.700012 36.5788 0.700012Z" fill="#FFEB50"/>
<path d="M21.3788 37C19.6788 37.5 17.7788 37.9 16.3788 38.3L16.0788 36.7C16.5788 36.6 17.2788 36.5 17.9788 36.3V33.4H16.4788V32H17.9788V29.6H16.3788V28H21.0788V29.5H19.5788V32H20.9788V33.5H19.5788V36L21.2788 35.6L21.3788 37ZM27.5788 38.3C27.7788 38.3 27.8788 38 27.8788 36.4C28.1788 36.7 28.8788 37 29.2788 37.1C29.1788 39.2 28.7788 39.8 27.6788 39.8H26.7788C25.4788 39.8 25.1788 39.3 25.1788 37.8V33.4H24.3788C24.1788 36.6 23.6788 38.7 20.5788 39.9C20.4788 39.5 19.9788 38.9 19.6788 38.6C22.3788 37.7 22.6788 36.1 22.8788 33.4H21.2788V31.8H29.1788V33.4H26.9788V37.7C26.9788 38.2 26.9788 38.2 27.1788 38.2H27.5788V38.3ZM28.3788 29.6H21.7788V28H28.3788V29.6Z" fill="#FFEB50"/>
<path d="M33.4788 33.5C33.2788 34.8 32.8788 36.1 32.4788 37.2C32.6788 37.3 32.9788 37.5 33.3788 37.8C34.3788 38.4 35.6788 38.4 37.2788 38.4C38.8788 38.4 41.3788 38.2 42.9788 38.1C42.7788 38.5 42.5788 39.3 42.4788 39.7C41.3788 39.8 38.8788 39.9 37.1788 39.9C35.3788 39.9 34.1788 39.8 33.0788 39.2C32.4788 38.9 31.9788 38.4 31.6788 38.4C31.3788 38.4 31.0788 39.3 30.7788 40.1L29.7788 38.6C30.2788 38 30.7788 37.5 31.1788 37.2C31.4788 36.5 31.6788 35.6 31.8788 34.8H30.3788C30.6788 34 30.9788 32.9 31.2788 31.8H30.1788V30.3H32.9788C32.7788 31.3 32.4788 32.4 32.1788 33.3H32.6788H32.8788L33.4788 33.5ZM31.4788 29.8C31.2788 29.2 30.9788 28.2 30.7788 27.4L32.0788 27C32.2788 27.7 32.5788 28.7 32.7788 29.3L31.4788 29.8ZM34.4788 30.2H33.3788V28.8H35.1788C35.0788 28.4 34.8788 27.8 34.7788 27.4L36.2788 27.1C36.4788 27.6 36.6788 28.3 36.7788 28.7H38.0788V29.5C38.5788 28.7 38.8788 27.8 39.1788 26.9L40.5788 27.3C40.4788 27.7 40.3788 28 40.1788 28.4H42.8788V29.8H39.5788C39.3788 30.1 39.2788 30.4 39.0788 30.6H41.6788L41.9788 30.5L42.8788 31.2C42.4788 31.7 41.8788 32.3 41.3788 32.8V33.3H42.9788V34.6H41.3788V36.2C41.3788 36.8 41.2788 37.2 40.8788 37.5C40.4788 37.7 39.8788 37.7 39.0788 37.7C39.0788 37.3 38.8788 36.7 38.5788 36.3C39.0788 36.3 39.5788 36.3 39.7788 36.3C39.9788 36.3 39.9788 36.3 39.9788 36.1V34.5H38.4788V33.2H39.9788V32.3C40.1788 32.1 40.4788 31.9 40.6788 31.6H38.7788V30.7C38.4788 30.5 38.0788 30.1 37.8788 30H35.9788V31H38.1788V31.6C38.0788 35.3 37.9788 36.7 37.6788 37.1C37.4788 37.4 37.2788 37.6 36.8788 37.6C36.5788 37.7 36.1788 37.7 35.6788 37.7C35.6788 37.3 35.4788 36.7 35.2788 36.4C35.6788 36.4 35.8788 36.4 36.0788 36.4C36.2788 36.4 36.2788 36.4 36.3788 36.2C36.5788 36 36.5788 35 36.6788 32.4H35.8788C35.7788 34.1 35.4788 36.1 34.1788 37.5C33.9788 37.2 33.4788 36.8 33.1788 36.5C34.3788 35.1 34.4788 33.1 34.4788 31.7V30.2V30.2Z" fill="#FFEB50"/>
<path d="M45.7788 33C45.7788 34.9 45.5788 37.9 44.6788 39.8C44.4788 39.6 43.8788 39.1 43.5788 38.9C44.3788 37.2 44.3788 34.8 44.3788 33V29.3H46.9788V27H48.4788V27.7H51.3788V28.7H48.5788V29.2H50.6788H50.8788L51.8788 29.4C51.6788 30.1 51.4788 31 51.2788 31.6L50.0788 31.4C50.1788 31.1 50.2788 30.7 50.2788 30.3H48.5788V30.9L49.7788 30.8L49.8788 31.6L48.5788 31.7V31.8C48.5788 32.1 48.5788 32.2 48.8788 32.2H49.8788C50.1788 32.2 50.6788 32.2 50.8788 32.1C50.8788 32.4 50.8788 32.7 50.9788 33C50.7788 33.1 50.3788 33.1 49.9788 33.1H48.4788C47.4788 33.1 47.2788 32.6 47.2788 31.8L45.9788 32L45.8788 31.2L47.2788 31.1V30.4H45.7788V33ZM56.4788 32.9C56.0788 34.3 55.4788 35.7 54.6788 37C54.8788 37.6 55.0788 38 55.2788 38C55.4788 38 55.5788 37.4 55.6788 36.2C55.8788 36.5 56.5788 37 56.7788 37.1C56.4788 39.4 55.7788 39.9 55.1788 39.9C54.4788 39.9 53.8788 39.3 53.4788 38.4C53.0788 38.8 52.6788 39.2 52.1788 39.6C51.9788 39.3 51.5788 39 51.2788 38.7V39.3C49.2788 39.5 47.1788 39.7 45.5788 39.8L45.3788 38.6L46.8788 38.5C46.7788 38.2 46.6788 37.8 46.5788 37.5L47.6788 37.3C47.8788 37.7 47.9788 38.1 48.0788 38.4L48.7788 38.3C48.9788 37.9 49.1788 37.5 49.2788 37.1L50.6788 37.3C50.4788 37.6 50.2788 37.9 50.1788 38.2L51.2788 38.1V38.3C51.8788 37.9 52.4788 37.4 52.9788 36.7C52.6788 35.5 52.4788 34 52.3788 32.3L51.4788 32.4V31L52.4788 30.9C52.3788 29.7 52.3788 28.5 52.3788 27.1H53.8788C53.8788 28.3 53.8788 29.5 53.9788 30.7L56.6788 30.3L56.8788 31.7L54.0788 32.1C54.1788 33.1 54.2788 34.1 54.3788 34.9C54.7788 34.1 55.1788 33.2 55.3788 32.3L56.4788 32.9ZM51.4788 34.4H46.0788V33.4H51.4788V34.4ZM46.3788 37V34.8H51.1788V37H46.3788ZM47.5788 36.3H49.8788V35.7H47.5788V36.3ZM55.2788 30.1C54.9788 29.5 54.4788 28.5 54.0788 27.8L55.2788 27.2C55.6788 27.9 56.2788 28.8 56.5788 29.4L55.2788 30.1Z" fill="#FFEB50"/>
<path d="M21.0788 57.8L19.5788 58.2V61.6C19.5788 62.4 19.4788 62.8 18.9788 63C18.4788 63.3 17.8788 63.3 16.8788 63.3C16.8788 62.9 16.5788 62.2 16.3788 61.8C16.8788 61.8 17.4788 61.8 17.6788 61.8C17.8788 61.8 17.9788 61.7 17.9788 61.5V58.6C17.4788 58.7 16.9788 58.8 16.4788 59L16.0788 57.4C16.5788 57.3 17.2788 57.1 17.9788 57V54.5H16.2788V53H17.9788V50.4H19.5788V53H20.8788V54.5H19.5788V56.6L20.8788 56.3L21.0788 57.8ZM28.8788 53.5V63.2H27.2788V62.3H22.7788V63.3H21.1788V53.5H24.1788V50.5H25.6788V53.5H28.8788ZM22.7788 55.1V57.1H24.1788V55.1H22.7788ZM22.7788 60.8H24.1788V58.7H22.7788V60.8ZM25.7788 55.1V57.1H27.2788V55.1H25.7788ZM27.2788 60.8V58.7H25.7788V60.8H27.2788Z" fill="#FFEB50"/>
<path d="M35.2788 54.7C35.2788 56.1 35.0788 57.8 34.2788 59.5C34.9788 60.1 35.5788 60.7 35.9788 61.2L34.8788 62.6C34.5788 62.2 34.0788 61.6 33.4788 61.1C32.8788 62 32.1788 62.8 31.1788 63.5C30.9788 63.2 30.3788 62.6 29.9788 62.4C30.9788 61.7 31.7788 60.9 32.2788 60C31.5788 59.4 30.8788 58.7 30.1788 58.1C30.3788 57.3 30.6788 56.2 30.7788 55.1L30.1788 55L29.9788 53.4C30.3788 53.4 30.7788 53.4 31.1788 53.4C31.2788 52.4 31.3788 51.4 31.4788 50.5L33.0788 50.6C32.9788 51.5 32.8788 52.4 32.7788 53.4L33.7788 53.3V52.4H35.2788V53.2H35.9788V54.7H35.2788ZM32.4788 54.9C32.2788 55.8 32.1788 56.7 31.9788 57.5C32.2788 57.8 32.6788 58.1 33.0788 58.4C33.5788 57.2 33.6788 55.9 33.7788 54.8L32.4788 54.9ZM42.8788 57.7H40.0788V61.6C40.0788 62.4 39.8788 62.9 39.2788 63.1C38.6788 63.3 37.9788 63.4 36.8788 63.4C36.7788 62.9 36.5788 62.3 36.2788 61.8C36.9788 61.8 37.7788 61.8 37.9788 61.8C38.1788 61.8 38.2788 61.7 38.2788 61.5V57.7H35.3788V56.1H38.2788V54.8C38.8788 54.3 39.4788 53.5 39.9788 52.8H35.9788V51.3H41.0788L41.4788 51.2L42.5788 52C41.9788 53 40.9788 54.2 40.0788 55.1V56.1H42.8788V57.7V57.7Z" fill="#FFEB50"/>
<path d="M47.8788 59.4C47.6788 59 47.2788 58.5 46.9788 58V63.3H45.4788V58.4C45.0788 58.8 44.6788 59.2 44.3788 59.4C44.2788 58.9 43.9788 58 43.7788 57.7C44.9788 56.9 46.0788 55.6 46.7788 54.1H44.0788V52.6H45.8788C45.6788 52.1 45.2788 51.6 44.8788 51.1L46.0788 50.3C46.5788 50.8 46.9788 51.5 47.2788 52L46.4788 52.5H47.3788L47.6788 52.4L48.4788 53C48.1788 54 47.6788 55 47.0788 56C47.5788 56.5 48.4788 57.5 48.7788 57.8L47.8788 59.4ZM56.6788 61.9V63.1H48.3788V61.9H50.5788C50.4788 61.6 50.2788 61.2 50.1788 60.9L51.0788 60.6H49.3788V57.8H55.6788V60.6H54.0788L55.1788 60.9C54.9788 61.2 54.7788 61.6 54.5788 61.9H56.6788ZM48.4788 56.2H56.4788V57.4H48.4788V56.2ZM56.0788 55.7H48.8788V51.5H50.7788V50.4H52.0788V51.5H52.8788V50.4H54.1788V51.5H56.0788V55.7V55.7ZM50.2788 53.2H51.0788V52.5H50.2788V53.2ZM50.2788 54.7H51.0788V54H50.2788V54.7ZM50.7788 59.6H54.2788V58.8H50.7788V59.6ZM51.3788 60.6C51.5788 61 51.7788 61.5 51.8788 61.9H53.0788C53.2788 61.5 53.4788 61 53.5788 60.6H51.3788ZM52.8788 53.2V52.5H52.0788V53.2H52.8788ZM52.1788 54.1V54.8H52.9788V54.1H52.1788ZM54.7788 52.5H53.9788V53.2H54.7788V52.5ZM54.7788 54.1H53.9788V54.8H54.7788V54.1Z" fill="#FFEB50"/>
</svg>
