<svg width="42" height="43" viewBox="0 0 42 43" fill="none" xmlns="http://www.w3.org/2000/svg">
<g clip-path="url(#clip0_245_2958)">
<path d="M30.9002 21.2C30.9002 21.2 30.9002 21.1 30.9002 21.2C30.9002 21.2 30.9002 21.3 31.3002 21.6C33.6002 23.4 34.8002 25.2 34.8002 28.8C34.8002 33.3 30.9002 36.6 26.4002 36.6V42.8C34.1002 42.8 41.2002 37.3 41.2002 29.4C41.2002 26.6 40.4002 23.8 38.5002 21.1C38.6002 21 39.0002 20.5 39.3002 19.9C39.8002 19.1 39.9002 18.1 39.9002 14.7V0H20.0002V11.7H13.7002V18.1H26.5002V6.6H33.6002V16.6C33.6002 16.5 33.9002 19.3 30.9002 21.2Z" fill="#009D9B"/>
<path d="M13.8 0H12C8.6 0.1 5.1 1.2 2.7 3.8C0.2 6.6 0 9.1 0 13.3V42.8H20.1V31.2H26.5V24.7H13.7V36.4H6.4V11.9C6.4 11.9 5.9 6.6 12.3 6.4L13.8 6.3V0Z" fill="#008DC5"/>
</g>
<defs>
<clipPath id="clip0_245_2958">
<rect width="41.1" height="42.7" fill="white"/>
</clipPath>
</defs>
</svg>
