<svg width="329" height="430" viewBox="0 0 329 430" fill="none" xmlns="http://www.w3.org/2000/svg">
<g clip-path="url(#clip0_245_3887)">
<path d="M319.6 163.9C323.3 168.3 328.8 171.5 335.3 172.4C341.7 173.3 347.8 171.8 352.5 168.6C353.8 172.4 357.4 175.5 362 176.1C367.5 176.9 372.6 173.9 374.3 169.4C381.3 168 387.2 163.7 390.3 157.8C391.5 158.2 392.8 158.4 394 158.6C407 160.4 418.9 152.2 420.6 140.3C422.3 128.4 413 117.2 400 115.4C397.6 115.1 395.3 115.1 393.1 115.4C393.4 114.4 393.6 113.4 393.8 112.3C395.1 102.7 389.4 93.6 380.3 89.5C378.8 82.5 373.5 76.6 366.2 73.9C368.5 69 369.5 63.5 369 57.8C367.3 40.9 352.3 28.5 335.3 30.2C332.2 30.5 329.3 31.3 326.6 32.4C326.7 30.9 326.6 29.4 326.5 27.9C325 10.8 309.9 -1.50003 293 0.199974C281.1 1.39997 271.5 9.19998 267.4 19.6C261.1 12 251.2 7.59997 240.7 8.59997C223.8 10.3 211.4 25.3 213.1 42.3C213.3 44.8 213.9 47.1 214.7 49.4C209.5 53.5 205.7 59.3 204 65.8C200.3 63.4 195.8 62 191 62C179.7 62 170.2 69.9 167.7 80.5C165.9 80.1 164 79.9 162.1 79.9C148 79.9 136.6 91.3 136.6 105.4C136.6 107.1 136.8 108.8 137.1 110.4C124.8 112.9 115.4 126.2 115.4 142.2C115.4 160 127 174.4 141.2 174.4C146.7 174.4 151.7 172.3 155.9 168.7C160.2 176.5 168.6 181.8 178.2 181.8C185.1 181.8 191.3 179.1 195.9 174.6C197.8 178.8 202.1 181.8 207.1 181.8C213 181.8 218 177.6 219.1 172C219.1 172 235.5 173 234.3 156C235.6 156.2 237 156.3 238.4 156.3C252.5 156.3 263.9 144.9 263.9 130.8C263.9 130.2 263.9 129.6 263.8 129C264.1 129.1 264.4 129.1 264.7 129.1C275 134.9 282.9 126.1 282.9 126.1C282.4 127.6 282.1 129.2 281.9 130.8C279.8 145.9 282.9 157.8 296.1 159.6C299 160 303.3 159.2 306 158.5C306 158.5 306.6 168.5 319.6 163.9Z" fill="#009D9B"/>
<path d="M284.6 424.2L275.5 100C275.4 98 273.8 96.5 271.9 96.5C269.9 96.5 268.3 98.1 268.3 100L259.2 424.2H284.6Z" fill="#004F74"/>
<path d="M274 117.8L295 91.4C295.9 90.3 297.5 90.1 298.6 91C299.7 91.8 299.9 93.4 299.1 94.5L275.5 128.5L274 117.8Z" fill="#004F74"/>
<path d="M273.7 186.1L326.9 145.1C328 144.3 329.6 144.4 330.5 145.5C331.4 146.6 331.3 148.2 330.2 149.1L272.8 198.4L273.7 186.1Z" fill="#004F74"/>
<path d="M268.9 198.6L216.6 158.3C215.5 157.5 213.9 157.6 213 158.7C212.1 159.8 212.2 161.4 213.3 162.3L266 207.6C267.7 209.1 270.4 207.7 270.2 205.5L269.8 200.5C269.8 199.7 269.4 199 268.9 198.6Z" fill="#003C60"/>
<path d="M314.2 31.5V31.6C314.1 31.4 314.1 31.1 314.2 31.5Z" fill="#00C6B2"/>
<path d="M400.1 115.4C397.7 115.1 395.4 115.1 393.2 115.4C393.5 114.4 393.7 113.4 393.9 112.3C395.2 102.7 389.5 93.6 380.4 89.5C378.9 82.5 373.6 76.6 366.3 73.9C368.6 69 369.6 63.5 369.1 57.8C367.4 40.9 352.4 28.5 335.4 30.2C332.3 30.5 329.4 31.3 326.7 32.4C326.8 30.9 326.7 29.4 326.6 27.9C325 10.8 309.9 -1.50003 293 0.199974C285.3 0.999974 278.6 4.49997 273.7 9.69997C273.8 9.69997 273.8 9.59997 273.9 9.59997C278 7.39997 282.6 6.19997 287.3 6.29997C294.7 6.49997 302 10.1 307 15.6C312.7 22 315.1 30.6 314.4 39C314.4 39.4 314.3 39.7 314.3 40.1C314.3 40.3 314.3 40.4 314.2 40.6C314 41.6 313.9 42.5 313.8 43.5C313.8 43.7 313.8 43.9 313.9 44.2C314.9 43.7 315.9 43.2 317 42.8C327.1 39 340 40.5 348.3 47.6C355.6 53.8 359.9 64.3 354.1 72.9C353.3 74.1 351.9 75.4 351.6 76.8C354 76.8 356.3 76.9 358.6 77.9C362.6 79.7 365.8 83.4 367.2 87.5C368.4 91 368.4 94.9 367.1 98.4C368.7 98.7 370.4 98.9 371.9 99.8C374 100.9 375.7 102.5 377 104.4C378.3 106.3 379.1 108.5 379.3 110.8C379.6 113.1 379.2 115.4 378.2 117.5C377.7 118.4 377.1 119.3 376.4 120.1C377.5 119.8 378.6 119.6 379.8 119.5C383.8 119.2 387.9 119.9 391.6 121.5C394.9 122.6 398 124.5 400.2 127.3C404.3 132.5 405.9 141.2 399.8 145.6C398 146.9 395.8 147.5 393.6 147.6C391.4 147.7 389.2 147.2 387.1 146.5C387 146.7 387 146.9 386.9 147.1C386.4 151.2 384.6 154.3 381.3 157.1C377.8 160.1 373.4 161.6 368.8 161.7C368 161.7 367.2 161.7 366.4 161.7C366 161.7 365.6 161.6 365.3 161.6C365.1 161.6 364.9 161.6 364.7 161.5C364.7 161.5 364.7 161.5 364.5 161.5H364.4C362.7 161.2 361 160.8 359.3 160.3C358.4 160 357.6 159.7 356.7 159.4C356.6 159.4 356.5 159.3 356.4 159.3C355.6 160.1 354.8 160.8 354 161.5C351.9 163.2 349.5 164.5 347 165.5C344.5 166.5 342 167.3 339.4 167.8C338 168.1 336.6 168.2 335.1 168.3C333.4 168.3 331.8 168.1 330.2 167.7C329.4 167.5 328.5 167.3 327.7 167C325.5 166.7 323.3 166 321.3 165C321 164.8 320.7 164.8 320.4 164.9C324.1 168.9 329.3 171.7 335.3 172.6C341.7 173.5 347.8 172 352.5 168.8C353.8 172.6 357.4 175.7 362 176.3C367.5 177.1 372.6 174.1 374.3 169.6C381.3 168.2 387.2 163.9 390.3 158C391.5 158.4 392.8 158.6 394 158.8C407 160.6 418.9 152.4 420.6 140.5C422.3 128.4 413.1 117.2 400.1 115.4Z" fill="#00B6AF"/>
<path d="M213 42.2C213.2 44.7 213.8 47 214.6 49.3C209.4 53.4 205.6 59.2 203.9 65.7C200.2 63.3 195.7 61.9 190.9 61.9C179.6 61.9 170.1 69.8 167.6 80.4C165.8 80 163.9 79.8 162 79.8C147.9 79.8 136.5 91.2 136.5 105.3C136.5 107 136.7 108.7 137 110.3C124.7 112.8 115.3 126.1 115.3 142.1C115.3 159.9 126.9 174.3 141.1 174.3C146.6 174.3 151.6 172.2 155.8 168.6C160.1 176.4 168.5 181.7 178.1 181.7C184.4 181.7 190.1 179.4 194.5 175.7L195.1 174.6C192.8 177.8 188.6 179.4 184.6 179.4C180.6 179.4 176.7 177.9 173.2 176C165.8 172 159.4 165.8 156.4 157.9C149.8 162 140.6 159.9 135.3 154.3C130 148.7 128.2 140.3 129.4 132.7C130 128.4 131.6 124.1 134.2 120.6C136.8 117.1 140.7 114.4 145 113.6C140.9 106.2 143.3 96.3 149.5 90.7C155.7 85 164.9 83.3 173.1 85.1L173.3 84.9C173.4 80.2 176.6 75.9 180.6 73.4C184.6 70.9 189.5 70.1 194.2 69.9C200.1 69.7 206.1 70.6 211.8 72.4L211.9 72.1C211.1 64.3 215.4 56.2 222.3 52.4C215.8 40.3 217.6 24.2 226.6 13.8L226 13.9C217.2 20 211.9 30.7 213 42.2Z" fill="#008A9A"/>
<path d="M270.1 424.7V97.6C269.2 98.2 268.6 99.3 268.5 100.5L259.4 424.7H270.1Z" fill="#003C60"/>
<path d="M69.2003 287.5C69.2003 287.5 49.9003 291.3 41.8003 287.1C41.8003 287.1 44.9003 283 51.7003 281.7C58.4003 280.4 69.2003 287.5 69.2003 287.5Z" fill="#00827D"/>
<path d="M69.2003 287.5C69.2003 287.5 49.9003 291.3 41.8003 287.1C41.8003 287.1 44.9003 283 51.7003 281.7C58.4003 280.4 69.2003 287.5 69.2003 287.5Z" fill="#00827D"/>
<path d="M70.4003 246.3C70.4003 246.3 71.1003 246.5 72.1003 246.8C73.9003 247.2 76.0003 247.7 77.7003 248.6C79.5003 249.6 80.9003 250.4 82.3003 251.3C82.8003 252.4 83.1003 253.4 83.2003 253.6C83.3003 254.3 77.5003 265.3 75.8003 268.6C74.1003 271.9 68.9003 271.5 67.4003 266C66.0003 260.6 68.1003 248.1 70.4003 246.3Z" fill="#009D9B"/>
<path d="M70.4003 246.3C70.4003 246.3 71.1003 246.5 72.1003 246.8C73.9003 247.2 76.0003 247.7 77.7003 248.6C79.5003 249.6 80.9003 250.4 82.3003 251.3C82.8003 252.4 83.1003 253.4 83.2003 253.6C83.3003 254.3 77.5003 265.3 75.8003 268.6C74.1003 271.9 68.9003 271.5 67.4003 266C66.0003 260.6 68.1003 248.1 70.4003 246.3Z" fill="#00827D"/>
<path d="M-15.8998 262C-16.3998 261.3 -12.7998 260.6 -12.1998 260.6C-11.4998 260.6 -8.49978 260.2 -8.49978 260.2C-12.8998 260 -14.1998 259.2 -14.0998 258.5C-13.9998 257.9 -10.5998 258.4 -9.89978 258.5C-9.19978 258.6 -6.79978 259.1 -5.99978 259.2C-5.19978 259.3 -2.89978 260.6 -1.69978 261C-0.499782 261.4 9.90022 258.9 15.5002 258.3C21.1002 257.7 23.9002 258.2 26.5002 257.7C29.1002 257.2 43.0002 251.3 46.0002 251.1C49.0002 250.9 54.9002 250.8 54.9002 250.8C55.0002 250.5 55.1002 250.4 55.1002 250.4C55.1002 250.4 62.1002 246.6 62.0002 237.8L70.0002 232.5L70.5002 234.7C70.5002 234.7 69.0002 242.8 70.4002 246.2C70.4002 246.2 70.8002 246.8 71.3002 247.5C71.4002 247.6 71.5002 247.6 71.6002 247.7C71.6002 247.7 71.6002 247.8 71.5002 247.9C72.6002 249.2 74.4002 250.9 76.3002 250.9C79.4002 251 90.0002 241.6 91.5002 239.2C92.9002 236.8 100.3 224 100.8 221.9C101.1 220.7 101.6 219.2 101.4 218.2C101.3 217.4 100.5 216.8 100.5 216.8C98.8002 214.6 98.1002 212.8 97.5002 210.9C96.8002 208.5 98.1002 209.9 99.8002 212.2C101.5 214.4 103.3 214.9 105.1 215.8C106.9 216.6 110.9 214.1 114.1 214.6C117.3 215.1 113.2 217.3 110.9 218.1C108.1 219.1 107 219.3 106.3 221C105.8 222.2 105.1 223.9 104.1 227.1C103.1 230.2 96.7002 245.5 95.2002 247.8C93.7002 250.1 77.2002 263.4 75.2002 265.2C73.2002 266.9 67.5002 280.6 66.9002 282.6C66.3002 284.6 66.9002 290.9 66.9002 290.9C66.9002 290.9 45.6002 294.8 45.1002 291.3C44.6002 287.8 46.0002 281.9 46.9002 280.7C47.8002 279.5 46.3002 263.8 46.9002 262.1C47.6002 260 45.1002 260.6 45.1002 260.6C39.2002 263.3 29.2002 263.5 28.6002 263.5C28.0002 263.5 28.1002 263.4 23.9002 264.2C19.7002 264.9 0.70022 264.4 0.10022 264.9C-0.59978 265.4 -2.89978 268 -3.49978 268C-4.09978 268 -5.99978 269.1 -6.39978 268.4C-6.69978 267.7 -5.89978 267.4 -4.99978 266.8C-4.09978 266.2 -3.69978 265.2 -3.59978 264.9C-3.49978 264.6 -6.39978 264.5 -6.99978 264.5C-7.59978 264.5 -8.29978 264.3 -9.89978 264.5C-11.4998 264.8 -13.4998 265.3 -13.8998 264.8C-14.3998 264.2 -11.8998 263.6 -11.4998 263.5C-11.0998 263.4 -8.79978 263 -8.79978 263C-9.29978 263 -11.6998 263.2 -11.6998 263.2C-14.7998 264.2 -15.9998 263.7 -15.5998 263.3C-15.2998 262.9 -12.0998 262.1 -11.7998 262C-11.4998 261.9 -8.79978 261.6 -8.79978 261.6C-8.79978 261.6 -11.5998 261.8 -11.9998 261.9C-12.4998 262 -15.3998 262.6 -15.8998 262Z" fill="#FBD6B1"/>
<path d="M102.9 216.9C101.9 216.3 100.9 216 99.9002 215.7C98.7002 214 98.1002 212.4 97.7002 210.8C97.0002 208.4 98.3002 209.8 100 212.1C101.7 214.3 103.5 214.8 105.3 215.7C107.1 216.5 111.1 214 114.3 214.5C117.5 215 113.4 217.2 111.1 218C109.1 218.8 108 219.1 107.2 219.8C105.8 218.8 104.3 217.9 102.9 216.9Z" fill="#F4BD89"/>
<path d="M60.9004 291.9C55.1004 292.7 46.9004 293.5 45.4004 291.8C50.8004 290.4 56.4004 288.2 60.9004 291.9Z" fill="#F4BD89"/>
<path d="M63.3003 307.7C63.3003 307.7 62.2003 332.6 62.7003 332.9C63.2003 333.3 69.6003 336.8 72.7003 344.4C75.8003 352 84.2003 363.9 85.5003 365.1C85.5003 365.1 86.7003 370.3 83.3003 371.5C83.3003 371.5 55.9003 341.2 50.6003 337.1C45.8003 333.4 47.2003 301.8 47.2003 301.8L63.3003 307.7Z" fill="#F4BD89"/>
<path d="M43.7002 316.7C43.7002 316.7 50.1002 316 55.5002 314.8L51.8002 288.7C51.8002 288.7 46.2002 288.9 44.2002 289.8C44.2002 289.8 42.6002 297.6 43.0002 302.8C43.5002 307.8 43.7002 316.7 43.7002 316.7Z" fill="#00827D"/>
<path d="M66.2001 240.9C64.4001 241.8 61.7001 241.4 62.0001 239.6C62.1001 238.8 62.1001 238.7 62.1001 237.8L70.4001 235.8C70.0001 238.3 68.0001 240 66.2001 240.9Z" fill="#F4BD89"/>
<path d="M69.2004 304C69.2004 304 71.3004 330.1 71.9004 330.1C78.5004 330.8 78.8004 332.1 84.5004 338C90.2004 343.9 104.7 350.7 106.4 351.4C106.4 351.4 108.3 356.5 105.5 358.9C105.5 358.9 71.8004 341.8 65.3004 340.5C58.8004 339.3 53.9004 305.3 53.9004 305.3L69.2004 304Z" fill="#FBD6B1"/>
<path d="M58.0004 248.1C58.0004 248.1 55.7004 254.1 59.2004 254.3C62.7004 254.5 70.3004 246.1 70.3004 246.1L73.6004 247C73.6004 247 67.2004 267.2 75.7004 268.6C75.7004 268.6 71.8004 276.4 69.8004 279C67.8004 281.6 68.7004 286.2 69.1004 287.4C69.1004 287.4 61.3004 283.3 52.9004 284.2C44.5004 285.1 41.7004 286.9 41.7004 286.9C41.7004 286.9 40.0004 278.5 43.8004 270.7C46.8004 264.5 47.0004 262.3 47.0004 262.3C47.0004 262.3 51.8004 259.8 54.0004 250.7C54.0004 250.9 57.7004 248.5 58.0004 248.1Z" fill="#009D9B"/>
<path d="M66.8002 287.5C66.8002 287.5 70.8002 295.8 71.2002 299.9C71.6002 304 71.7002 311.6 74.4002 313.8C74.4002 313.8 67.5002 316 63.6002 316.5C59.7002 317 55.4002 316.3 54.0002 316.5C54.0002 316.5 49.0002 300 47.0002 297.9C45.0002 295.8 44.4002 293.3 43.7002 292.8C43.8002 291.9 43.9002 291.3 44.2002 289.7C44.2002 289.7 58.4002 285.9 66.8002 287.5Z" fill="#009D9B"/>
<path d="M105.3 350.9C105.3 350.9 110.9 350.4 113 351.6C115.1 352.8 117.7 370.8 115.5 373C113.3 375.2 109.3 370.9 108.8 368.4C108.2 365.9 106.8 359.5 105.4 358.8C105.3 358.8 106.8 353.9 105.3 350.9Z" fill="#004F74"/>
<path d="M85.0002 364.4C85.0002 364.4 90.2002 365.2 91.8002 366.7C93.4002 368.2 91.4002 385.2 88.9002 386.7C86.4002 388.2 84.2002 383.5 84.2002 381C84.2002 378.6 84.3002 372.4 83.2002 371.5C83.2002 371.5 85.7002 367.4 85.0002 364.4Z" fill="#004F74"/>
<path d="M96.4003 208.3C95.1003 203.1 97.8003 197.5 102.8 195.4C105.7 194.2 110.3 192.9 115.5 196.3C122.6 200.9 121.5 211.2 115.2 214.8C106.3 220 97.9003 214.1 96.4003 208.3Z" fill="#F6493E"/>
<path d="M96.1001 205.9C96.1001 205.7 96.1001 205.4 96.1001 205.2C97.2001 205.7 98.8001 206.5 101 207C102.7 207.4 105.3 207.6 107.7 207.3C107.9 204.3 106.1 202.3 103.7 201.2C101.6 200.2 99.2001 199.9 97.6001 200C97.7001 199.8 97.8001 199.6 97.9001 199.4C99.5001 199.4 102.9 199.7 105.3 201.5C107.2 203 108.1 205.1 107.9 207.2C109.4 207 110.9 206.6 112.1 206C112.1 205.9 112.1 205.8 112.1 205.7C111.1 199.8 106.5 196.5 103 195.2C103.3 195.1 103.5 195 103.8 194.9C105.1 195.5 106.7 196.4 107.7 197.3C110.3 199.5 111.9 202.6 112.4 205.8C112.5 205.8 112.5 205.7 112.6 205.7C113.4 205.3 114.1 204.8 114.7 204.4C114.2 203.8 113.8 203.1 113.5 202.3C112.3 199.4 112.3 196.7 112.4 194.7C112.5 194.7 112.6 194.8 112.8 194.8C112.6 197 112.7 201.3 115.1 204.1C116.9 202.8 118.3 201.2 119.1 200C119.2 200.2 119.3 200.3 119.4 200.5C118.7 201.4 117.3 203 115.4 204.5C117 206.2 118.8 206.8 120.3 207C120.3 207.3 120.2 207.5 120.1 207.8C118.7 207.4 116.7 206.5 115.1 204.7C114.4 205.3 113.5 205.8 112.7 206.2C113 208.2 112.8 210.3 112.3 212.3C112 213.3 111.1 215.4 110.6 216.3C110.3 216.4 110 216.4 109.7 216.4C111 214.8 112.9 211.4 112.3 206.2C111.7 206.5 111 206.8 110.3 207C109.6 207.2 108.8 207.4 108 207.5C107.7 209.8 106.1 212 103.6 212.9C102.7 213.2 101.6 213.5 100.3 213.6C100.2 213.5 100 213.4 99.9001 213.3C102.9 213.1 106.8 211.9 107.6 207.5C103.5 208.3 98.7001 207.6 96.1001 205.9Z" fill="#752200"/>
<path d="M71.5002 221.5C71.7002 221.4 73.4002 233 70.3002 236.2C67.2002 239.4 61.2002 240.4 59.0002 237.9C56.6002 235.1 56.7002 222.6 61.5002 219.3C66.3002 216.1 71.5002 221.5 71.5002 221.5Z" fill="#FBD6B1"/>
<path d="M70.3004 217C72.0004 217.2 74.3004 218.1 76.7004 221.9C79.6004 226.5 77.5004 231.7 74.1004 234.2C70.7004 236.7 69.9004 237.2 69.8004 236.7C69.7004 236 69.7004 235.3 69.7004 234.6C69.8004 233.9 69.9004 233.1 70.2004 232.5C71.0004 230.8 68.4004 229.7 67.7004 228.3C67.1004 227.2 67.1004 224.8 66.2004 223L65.2004 221.6C65.2004 221.6 62.8004 219.8 60.4004 220.3C58.2004 220.7 61.1004 209.7 70.3004 217Z" fill="#004F74"/>
<path d="M67.9004 230.3C67.9004 231.7 68.5004 232.9 69.4004 232.9C70.3004 232.9 71.0004 231.8 71.0004 230.4C71.0004 229 70.4004 227.8 69.5004 227.8C68.6004 227.7 67.9004 228.9 67.9004 230.3Z" fill="#FBD6B1"/>
<path d="M340 439.8V330C327.5 325.4 314.5 320.7 301.3 321.9C288.8 323 277.4 329.1 266 334.6C254.7 340 242.3 344.9 229.9 343.2C213.9 341 201.3 328.4 185.9 323.2C166.9 316.8 143.9 323.6 132.5 340C124.1 352 121.7 368 111.1 378.1L122 439.9H340V439.8Z" fill="url(#paint0_linear_245_3887)"/>
<path d="M301.2 321.9C292.2 322.7 283.7 326.1 275.4 330C286 328.5 296.9 328.8 307.3 331.3C319.3 334.1 330.6 339.8 339.9 347.9V330C327.5 325.4 314.5 320.7 301.2 321.9Z" fill="url(#paint1_linear_245_3887)"/>
<path d="M135.3 389.9C140.2 381.2 142.7 371.4 146.4 362.1C150.1 352.8 155.2 343.6 163.5 338.1C173.6 331.5 186.7 331.5 198.7 333.1C201.8 333.5 204.9 334 208 334.4C200.8 330.3 193.7 325.8 186 323.1C167 316.7 144 323.5 132.6 339.9C124.2 351.9 121.8 367.9 111.2 378L116.9 410.1C124.3 404.9 130.8 398 135.3 389.9Z" fill="url(#paint2_linear_245_3887)"/>
<path d="M158.7 340.3C166.4 345.4 176.6 346.6 185.3 343.4C195.1 339.8 202.7 331.2 205.4 321.1C208.2 311.1 206.2 300 200.6 291.2C207.6 284.1 209.4 272.5 205.1 263.5C200.7 254.5 190.5 248.9 180.6 249.9C178.7 244.7 176 239.7 172.1 235.7C168.2 231.7 163.1 228.8 157.6 228.2C151.2 227.5 144.6 229.9 139.7 234C134.7 238.1 131.2 243.8 128.8 249.8C118.9 249.1 109 255.1 104.9 264.1C100.8 273.1 103 284.5 110 291.5C109.9 291.4 106.7 297.3 106.4 297.9C105.4 300.2 104.7 302.7 104.3 305.2C103.4 310.2 103.6 315.4 104.9 320.4C107.5 330.6 114.5 339.2 124.3 343.1C126.7 344.1 129.2 344.7 131.7 345.1C140.3 346.3 149.3 343.7 156 338.3C156.9 339 157.8 339.7 158.7 340.3Z" fill="url(#paint3_linear_245_3887)"/>
<path d="M153.4 301.1L140.7 289.3C140.1 288.7 140 287.8 140.6 287.2C141.1 286.6 142.1 286.5 142.7 286.9L156.6 297.3C157.3 297.8 157.4 298.8 156.9 299.5L155.7 300.9C155.1 301.6 154.1 301.7 153.4 301.1Z" fill="#003C60"/>
<path d="M151.7 326.3L129.3 306C128.2 305 128 303.6 128.7 302.7C129.4 301.8 130.9 301.8 132 302.7L156 321C157.2 321.9 157.6 323.5 156.8 324.4L155.1 326.4C154.5 327.4 152.8 327.3 151.7 326.3Z" fill="#003C60"/>
<path d="M163.1 397.1H148.8L153.1 282.6C153.2 281.1 154.4 279.9 155.9 279.9C157.4 279.9 158.7 281.1 158.7 282.6L163.1 397.1Z" fill="#004F74"/>
<path d="M159.4 311.7L178.3 294.5C179.2 293.7 179.4 292.5 178.8 291.7C178.2 291 177 291 176 291.7L155.7 307.2C154.7 308 154.4 309.3 155 310.1L156.4 311.8C157.1 312.6 158.4 312.6 159.4 311.7Z" fill="#004F74"/>
<path d="M155.6 279.9C154.3 280.1 153.2 281.2 153.2 282.6L148.9 397.1H154.6L155.6 279.9Z" fill="#003C60"/>
<path d="M205.2 263.5C200.8 254.5 190.6 248.9 180.7 249.9C178.8 244.7 176.1 239.7 172.2 235.7C168.3 231.7 163.2 228.8 157.7 228.2C154.9 227.9 152.1 228.2 149.4 228.9C153.6 230.1 157.4 232.6 160.4 235.7C164.3 239.7 167 244.7 168.9 249.9C178.8 248.8 189.1 254.5 193.4 263.5C197.8 272.5 195.9 284.1 188.9 291.2C194.5 300 196.5 311.1 193.7 321.1C190.9 331.1 183.3 339.8 173.6 343.4C172.2 343.9 170.8 344.3 169.3 344.6C174.6 345.6 180.3 345.3 185.4 343.4C195.2 339.8 202.8 331.2 205.5 321.1C208.3 311.1 206.3 300 200.7 291.2C207.7 284.1 209.5 272.5 205.2 263.5Z" fill="#00E5FF"/>
<path d="M289.8 418.5C289.8 418.5 294.8 421.3 299.1 424.4C303.4 427.5 308.5 430.9 305.2 431.7C301.9 432.5 294.8 432.7 292.2 429.5C292.2 429.5 286.3 428.7 283.7 427.3C281.1 425.9 283.7 420.6 283.7 420.6V417.6L289.8 418.5Z" fill="#008EC6"/>
<path d="M220.3 422.7L220.9 429C220.9 429 223.7 434.3 224.5 437.3C225.3 440.3 218.7 439.8 216.1 439C213.4 438.3 212.8 436.3 213.4 433.5C214 430.7 214 426.2 214 426.2L214.6 421.6L220.3 422.7Z" fill="#008EC6"/>
<path d="M247.2 329.9C247.2 329.9 253.3 331.1 254.1 334.2C254.9 337.3 259.9 344.7 267.3 357.7C278.6 377.3 291.1 413.4 291.8 419.1C291.8 419.1 288 419.4 282.5 418.4C281.5 418.2 284.5 415.9 284.5 415.9C284.5 415.9 262.9 391.9 264.2 382.9L237.9 355.1C237.9 355.1 234.3 378.4 232 388.4C229.7 398.4 225.5 407.2 223.5 413.1C221.5 419 221.7 422.9 221.7 422.9C221.7 422.9 216.9 425.6 213.5 421.3C212.4 419.8 215.5 420.6 215.6 418.7C215.8 416.7 212.8 408.1 212.8 399.4C212.8 395.2 215.4 391.9 216.1 386.3C216.8 380.7 213.7 357.9 214.1 351.2C214.6 344.5 215.9 339.9 215.6 337.5C215.3 335.2 214.1 331.7 220.3 331.2L247.2 329.9Z" fill="white"/>
<path d="M242.6 339.8C246.9 335.3 251.1 331.3 251.1 331.2C249.2 330.3 247.2 329.8 247.2 329.8L220.5 331.4C214.3 331.9 215.4 335.3 215.8 337.7C216 339.4 215.4 342.3 214.9 346.2C219.1 339.5 223.8 339.1 228.1 339.6C232.7 340.3 238.3 344.3 242.6 339.8Z" fill="#E3E3E3"/>
<path d="M200.6 316.2C200.6 316.2 184.3 340.3 178.8 340.6C173.3 340.8 174.6 330.3 176.6 325.9C178.6 321.5 186.6 308.1 186.6 308.1L200.6 316.2Z" fill="#FBD6B1"/>
<path d="M186.7 308.1C186.7 308.1 178.7 321.5 176.7 325.9C176.5 326.3 176.3 326.8 176.1 327.3C176.1 327.3 179.5 320.8 184.8 317.8L189.2 323.4C189.2 323.4 188.5 331.4 183.5 337.7C190.5 331.3 200.6 316.2 200.6 316.2L186.7 308.1Z" fill="#F4BD89"/>
<path d="M222.2 289.1C222.2 289.1 228.2 287.2 235.9 286.4C243.6 285.7 251 291.8 249.4 299.1C248.4 303.4 247.4 309.2 247.1 310.5C247.1 310.7 247 310.8 247 310.8L244 310.4C244 310.4 246.3 323.1 247.2 331.2C247.2 331.2 234.9 338.8 219.4 333.4C217.3 332.7 203 314.7 203 314.7L200.4 317.6L185.3 308.4C185.3 308.4 192.9 299.4 200.3 293.9C209.2 287.4 222.2 289.1 222.2 289.1Z" fill="#004F74"/>
<path d="M219.5 333.4C235 338.8 247.3 331.2 247.3 331.2C247.2 330.4 247.1 329.6 247 328.7C227.1 328.6 216.9 316.6 216.9 316.6C208.3 318.5 203.2 314.7 203.2 314.7C203.2 314.7 217.5 332.7 219.5 333.4Z" fill="#004560"/>
<path d="M206 250.7L185.5 321.5L190.2 323L214.1 253.3C215.3 249.9 214.3 246.4 212 245.7C209.7 245 207 247.2 206 250.7Z" fill="#FF8A1C"/>
<path d="M244.1 310.5C244.1 310.5 235.4 306.9 224.5 309.3L219.7 318L195.5 321.1L195 325.9C195 325.9 221.1 330.1 227.9 327.9C237 325.1 244.1 310.5 244.1 310.5Z" fill="#FBD6B1"/>
<path d="M223.7 310.8C226.3 310.6 234.3 310.4 242.3 313.8C243.5 311.8 244.1 310.5 244.1 310.5C244.1 310.5 235.4 306.9 224.5 309.3L223.7 310.8Z" fill="#F4BD89"/>
<path d="M185.5 316.4L185.7 311.3C185.8 309.5 187 308 188.8 307.5C190 307.2 191.3 307 192.6 307.1C195.8 307.4 195.8 307.7 195.7 308.4C195.6 309.1 192.6 308.9 191.7 309.1C190.7 309.3 189.7 309.8 189.7 309.8C189.7 309.8 193.7 309.4 195.1 310.8C196.5 312.2 191.7 319.1 191.7 319.1L185.5 316.4Z" fill="white"/>
<path d="M192.8 317.5C189.4 315.3 189.2 313.4 185.7 313.3L185.5 316.5L191.7 319.3C191.7 319.2 192.2 318.5 192.8 317.5Z" fill="#E3E3E3"/>
<path d="M232.7 278.3L230.8 272.9C229.6 268.4 225.9 266.6 222.2 267.4C218.5 268.2 216.2 270.9 216.4 274.2C216.5 277.5 217.3 280.9 217.3 280.9L213.9 289C213.9 289 207.4 296.8 216.9 298.6C221.7 299.5 227.9 294.8 226.1 289.5L227 285.9C227 285.9 230.4 285.9 231.6 285C233.5 283.5 232.1 278.7 232.1 278.7L232.7 278.3Z" fill="#FBD6B1"/>
<path d="M220.3 278.7L217.6 278.2C217.6 278.2 217.3 278.1 216.9 278.5C217.1 279.8 217.3 280.8 217.3 280.8L215.4 285.3C215 293.1 226.5 287.2 226.5 287.2L226.8 285.7C220.6 285.4 220.3 278.7 220.3 278.7Z" fill="#F4BD89"/>
<path d="M216.2 279.1L214.5 273.1C213.9 270.9 214.6 268.5 216.4 267.2C217.9 266 220 264.8 222.8 264.1C225.2 263.5 227.8 264.3 229.3 266.4C229.7 267 230.1 267.7 230.5 268.5C230.9 269.3 231.7 269.9 232.6 269.8L236.8 269.6C236.8 269.6 237.4 274.1 227.9 274.4C226.7 274.4 221.8 273.9 221.9 279.5C222 279.4 218.3 280.1 216.2 279.1Z" fill="#004F74"/>
<path d="M196.7 320.1L196.2 327.3L193.3 326.8C193.3 326.8 189.4 326.8 187.2 326.1C185 325.4 181.7 324.1 183 322.2C183 322.2 181.9 320 183.9 319.3C186 318.6 186.7 318.2 186.7 318.2L184.8 317.7L183.6 318.4C183.6 318.4 182.2 317.4 183.6 316.2C185 315 186.2 314.8 187.4 315.5C188.6 316.2 194.6 319.9 194.6 319.9L196.7 320.1Z" fill="white"/>
<path d="M281.6 439.8C280.8 429.6 276.8 419.7 270.2 411.9C261.5 401.7 248.5 395.2 235.1 394.6C221.4 393.9 206.2 398.7 194.8 391.2C188.6 387.1 184.9 380.2 179.9 374.7C166.1 359.4 140.8 356.1 123.5 367.4C110.7 375.8 102.8 390.5 89.3 397.6C80.1 402.4 68.9 403.1 59.2 399.4C52.1 396.7 45.9 391.8 38.5 390C25.2 386.7 10.8 394.8 4.40003 406.9C-0.799966 416.9 -1.09997 428.9 2.10003 439.8H281.6Z" fill="url(#paint4_linear_245_3887)"/>
<path d="M270.2 411.9C261.5 401.7 248.5 395.2 235.1 394.6C221.4 393.9 206.2 398.7 194.8 391.2C188.6 387.1 184.9 380.2 179.9 374.7C171.5 365.4 158.9 360.5 146.4 360.7C150.3 362 154 364 157.2 366.8C166.3 374.7 170.1 387 177.6 396.4C185.5 406.3 197.5 412.8 210.1 413.9C217.2 414.5 224.5 413.6 231.6 414.7C242.9 416.5 252.8 423.8 259.8 433C261.4 435.1 262.9 437.4 264.1 439.9H281.8C280.8 429.6 276.8 419.7 270.2 411.9Z" fill="url(#paint5_linear_245_3887)"/>
<path d="M18.8999 428.7C19.9999 418.7 26.3999 409.1 35.7999 405.5C48.7999 400.5 63.6999 407.3 77.0999 403.8C81.1999 402.8 84.9999 400.8 88.1999 398.1C79.1999 402.4 68.3999 402.9 59.0999 399.4C51.9999 396.7 45.7999 391.8 38.3999 390C25.0999 386.7 10.6999 394.8 4.29994 406.9C-0.900064 416.9 -1.20006 428.9 1.99994 439.8H19.3999C18.7999 436.1 18.4999 432.4 18.8999 428.7Z" fill="url(#paint6_linear_245_3887)"/>
</g>
<defs>
<linearGradient id="paint0_linear_245_3887" x1="241.992" y1="327.887" x2="223.05" y2="420.931" gradientUnits="userSpaceOnUse">
<stop offset="0.0294669" stop-color="#68E3BA"/>
<stop offset="0.2953" stop-color="#30D9A1"/>
<stop offset="0.4646" stop-color="#2CD4A1"/>
<stop offset="0.6625" stop-color="#21C69F"/>
<stop offset="0.874" stop-color="#0EAF9D"/>
<stop offset="1" stop-color="#009D9B"/>
</linearGradient>
<linearGradient id="paint1_linear_245_3887" x1="275.451" y1="334.783" x2="339.981" y2="334.783" gradientUnits="userSpaceOnUse">
<stop stop-color="#2AEEDA"/>
<stop offset="0.0294669" stop-color="#2AEEDA"/>
<stop offset="0.4603" stop-color="#16EAD1"/>
<stop offset="0.831" stop-color="#09E7CB"/>
<stop offset="0.8817" stop-color="#08E1CA"/>
<stop offset="0.9459" stop-color="#04D2C9"/>
<stop offset="1" stop-color="#00BFC7"/>
</linearGradient>
<linearGradient id="paint2_linear_245_3887" x1="113.738" y1="380.28" x2="195.033" y2="327.499" gradientUnits="userSpaceOnUse">
<stop offset="0.029516" stop-color="#009B82"/>
<stop offset="1" stop-color="#53DDB2"/>
</linearGradient>
<linearGradient id="paint3_linear_245_3887" x1="154.845" y1="237.102" x2="155.904" y2="344.043" gradientUnits="userSpaceOnUse">
<stop stop-color="#00D2EE"/>
<stop offset="0.1958" stop-color="#00CEEB"/>
<stop offset="0.4082" stop-color="#00C1E3"/>
<stop offset="0.6285" stop-color="#00ABD5"/>
<stop offset="0.8529" stop-color="#008DC1"/>
<stop offset="0.9333" stop-color="#0080B9"/>
</linearGradient>
<linearGradient id="paint4_linear_245_3887" x1="0.0409338" y1="400.238" x2="281.619" y2="400.238" gradientUnits="userSpaceOnUse">
<stop offset="0.0286976" stop-color="#30D179"/>
<stop offset="0.3005" stop-color="#2CCD78"/>
<stop offset="0.5937" stop-color="#1FC175"/>
<stop offset="0.8958" stop-color="#09AD70"/>
<stop offset="1" stop-color="#00A56E"/>
</linearGradient>
<linearGradient id="paint5_linear_245_3887" x1="276.19" y1="441.936" x2="169.217" y2="365.05" gradientUnits="userSpaceOnUse">
<stop offset="2e-07" stop-color="#48F259"/>
<stop offset="0.2925" stop-color="#30E079"/>
<stop offset="0.4797" stop-color="#24D888"/>
<stop offset="0.6311" stop-color="#1AC67D"/>
<stop offset="0.8063" stop-color="#12B874"/>
<stop offset="0.9575" stop-color="#0FB371"/>
</linearGradient>
<linearGradient id="paint6_linear_245_3887" x1="5.72504" y1="386.987" x2="67.1365" y2="436.751" gradientUnits="userSpaceOnUse">
<stop stop-color="#009A59"/>
<stop offset="1" stop-color="#32BE60"/>
</linearGradient>
<clipPath id="clip0_245_3887">
<rect width="329" height="430" fill="white"/>
</clipPath>
</defs>
</svg>
