<svg width="121" height="48" viewBox="0 0 121 48" fill="none" xmlns="http://www.w3.org/2000/svg">
<g clip-path="url(#clip0_245_2839)">
<path d="M113.9 11.8H66.2L61.2 0L55.5 11.8H7.1C3.2 11.8 0 15 0 18.9V40.1C0 44 3.2 47.2 7.1 47.2H113.9C117.8 47.2 121 44 121 40.1V18.9C121 14.9 117.8 11.8 113.9 11.8Z" fill="#009D9B"/>
<path d="M6.554 29.674V38.674H8.624V31.312H15.14V38.674H17.318V29.674H6.554ZM2.972 27.226V28.918H19.01V27.226H2.972ZM4.232 24.814V26.452H18.02V24.814H4.232ZM7.958 32.068V33.436H16.022V32.068H7.958ZM7.958 34.21V35.56H16.022V34.21H7.958ZM7.706 36.388V38.026H16.022V36.388H7.706ZM16.706 21.772C13.664 22.276 8.444 22.492 4.034 22.492C4.214 22.924 4.412 23.644 4.448 24.112C8.912 24.148 14.276 23.932 17.966 23.32L16.706 21.772ZM9.038 23.266C8.192 27.154 6.212 31.114 2.396 33.166C2.828 33.58 3.458 34.39 3.746 34.876C7.904 32.482 10.064 28.198 11.288 23.716L9.038 23.266ZM26.354 29.674V38.674H28.424V31.312H34.94V38.674H37.118V29.674H26.354ZM22.772 27.226V28.918H38.81V27.226H22.772ZM24.032 24.814V26.452H37.82V24.814H24.032ZM27.758 32.068V33.436H35.822V32.068H27.758ZM27.758 34.21V35.56H35.822V34.21H27.758ZM27.506 36.388V38.026H35.822V36.388H27.506ZM36.506 21.772C33.464 22.276 28.244 22.492 23.834 22.492C24.014 22.924 24.212 23.644 24.248 24.112C28.712 24.148 34.076 23.932 37.766 23.32L36.506 21.772ZM28.838 23.266C27.992 27.154 26.012 31.114 22.196 33.166C22.628 33.58 23.258 34.39 23.546 34.876C27.704 32.482 29.864 28.198 31.088 23.716L28.838 23.266ZM54.272 23.32C55.244 24.202 56.378 25.462 56.846 26.326L58.592 25.102C58.052 24.256 56.882 23.05 55.892 22.204L54.272 23.32ZM42.482 26.83V28.882H58.736V26.83H42.482ZM42.14 31.924L42.68 34.102C45.002 33.634 48.134 33.004 51.05 32.392L50.888 30.43C47.738 31.006 44.318 31.6 42.14 31.924ZM45.902 23.932V36.064C45.902 36.37 45.794 36.46 45.47 36.46C45.146 36.478 44.102 36.478 43.076 36.424C43.4 37.036 43.76 38.008 43.85 38.62C45.326 38.62 46.388 38.548 47.108 38.206C47.846 37.864 48.08 37.27 48.08 36.1V23.932H45.902ZM49.592 21.826C47.738 22.456 44.93 23.014 42.392 23.356C42.644 23.842 42.914 24.652 43.022 25.156C45.632 24.868 48.71 24.382 51.05 23.662L49.592 21.826ZM51.356 21.862C51.41 29.944 52.814 38.692 56.54 38.692C58.178 38.692 58.862 37.9 59.204 34.714C58.628 34.48 57.89 33.976 57.44 33.472C57.332 35.614 57.134 36.496 56.756 36.496C55.118 36.496 53.498 29.116 53.624 21.862H51.356ZM56.252 29.476C54.65 32.446 51.716 34.894 48.638 36.298C49.178 36.784 49.772 37.504 50.096 38.044C53.354 36.316 56.288 33.634 58.16 30.286L56.252 29.476ZM63.974 24.634V26.524H67.538V34.858H63.974V36.766H69.5V24.634H63.974ZM62.714 24.634V38.098H64.676V24.634H62.714ZM63.884 29.44V31.312H68.492V29.44H63.884ZM65.27 21.7C65.18 22.69 64.928 24.076 64.676 25.012L66.404 25.39C66.764 24.544 67.214 23.266 67.628 22.042L65.27 21.7ZM71.876 24.508V26.47H77.132V24.508H71.876ZM76.394 24.508V24.922C76.196 32.428 75.962 35.524 75.386 36.136C75.152 36.388 74.954 36.46 74.594 36.46C74.144 36.46 73.064 36.442 71.894 36.352C72.29 36.928 72.578 37.846 72.614 38.44C73.658 38.494 74.756 38.512 75.44 38.404C76.178 38.296 76.682 38.098 77.186 37.396C77.924 36.442 78.14 33.58 78.374 25.48C78.392 25.21 78.392 24.508 78.392 24.508H76.394ZM71.93 21.718C71.354 24.112 70.328 26.56 69.122 28.072C69.626 28.36 70.508 28.972 70.904 29.332C72.128 27.604 73.298 24.868 74 22.204L71.93 21.718ZM71.048 29.692C71.912 31.024 73.046 32.788 73.532 33.886L75.368 32.77C74.81 31.708 73.622 29.98 72.74 28.738L71.048 29.692ZM88.688 22.294V23.986H91.694V22.294H88.688ZM91.208 22.294V22.582C90.776 25.03 89.426 27.406 87.734 28.504C88.148 28.846 88.724 29.512 89.012 29.944C91.064 28.468 92.522 25.912 93.152 22.618L91.892 22.222L91.532 22.294H91.208ZM87.986 25.786C88.652 26.182 89.498 26.776 89.894 27.172L91.046 25.66C90.614 25.282 89.768 24.76 89.084 24.418L87.986 25.786ZM90.002 34.228C90.452 35.02 90.83 36.064 90.92 36.712L92.828 36.172C92.738 35.506 92.288 34.498 91.82 33.742L90.002 34.228ZM95.006 21.79L93.224 22.114C93.962 25.372 95.24 28.198 97.472 29.728C97.796 29.242 98.426 28.522 98.912 28.162C96.896 26.956 95.618 24.454 95.006 21.79ZM96.284 22.006C95.816 22.492 94.988 23.248 94.466 23.644L95.492 24.724C96.068 24.346 96.86 23.788 97.508 23.194L96.284 22.006ZM97.418 24.184C96.914 24.652 96.014 25.354 95.438 25.714L96.41 26.776C97.022 26.434 97.886 25.93 98.624 25.372L97.418 24.184ZM91.082 26.668V28.378H95.474V26.668H91.082ZM88.148 36.514V38.224H98.426V36.514H88.148ZM91.388 30.808H95.006V32.14H91.388V30.808ZM89.57 29.188V33.778H96.932V29.188H89.57ZM94.664 33.67C94.466 34.534 93.998 35.758 93.602 36.568L95.24 37.018C95.708 36.28 96.248 35.182 96.788 34.138L94.664 33.67ZM82.478 27.208V28.846H87.482V27.208H82.478ZM82.478 29.656V31.276H87.482V29.656H82.478ZM81.758 24.706V26.416H88.04V24.706H81.758ZM83.27 32.14V33.868H85.898V35.884H83.27V37.612H87.554V32.14H83.27ZM82.424 32.14V38.386H84.062V32.14H82.424ZM83.414 22.438C83.9 23.212 84.494 24.31 84.746 24.994L86.294 23.932C85.988 23.284 85.394 22.294 84.872 21.538L83.414 22.438ZM104.132 32.806V38.674H106.22V34.156H113.942V38.656H116.12V32.806H104.132ZM105.23 34.822V36.082H114.716V34.822H105.23ZM105.23 36.784V38.152H114.716V36.784H105.23ZM108.83 21.664V31.708H111.008V21.664H108.83ZM103.718 22.798V24.058H113.888V26.884H103.52V28.144H116.03V22.798H103.718ZM101.882 24.706V26.2H118.118V24.706H101.882ZM103.124 28.774V30.088H116.786V28.774H103.124ZM101.846 30.736V32.23H118.1V30.736H101.846Z" fill="white"/>
</g>
<defs>
<clipPath id="clip0_245_2839">
<rect width="121" height="47.2" fill="white"/>
</clipPath>
</defs>
</svg>
