<svg width="477" height="399" viewBox="0 0 477 399" fill="none" xmlns="http://www.w3.org/2000/svg">
<g clip-path="url(#clip0_244_2391)">
<path d="M82.1997 0L83.0997 77.0966C83.1997 77.0966 61.8997 34.0427 82.1997 0Z" fill="white"/>
<path d="M82.1997 0L83.0997 77.0966C83.1997 77.0966 103.5 33.542 82.1997 0Z" fill="#E3E3E3"/>
<path d="M149.7 115.545L83 77.0966C83 77.0966 110.1 116.746 149.7 115.545Z" fill="#E3E3E3"/>
<path d="M149.7 115.545L83 77.0966C83 77.0966 130.9 80.7011 149.7 115.545Z" fill="white"/>
<path d="M16.3999 115.745L82.9999 77.0966C82.9999 77.0966 35.0999 80.8013 16.3999 115.745Z" fill="#E3E3E3"/>
<path d="M16.3999 115.745L82.9999 77.0966C82.9999 77.0966 55.9999 116.846 16.3999 115.745Z" fill="white"/>
<path d="M90.0999 337.323H75.3999L80.2999 80.8013H85.1999L90.0999 337.323Z" fill="white"/>
<path d="M90.7999 74.994C92.1999 79.2994 89.7999 83.9051 85.4999 85.3069C81.1999 86.7087 76.5999 84.3056 75.1999 80.0003C73.7999 75.6949 76.1999 71.0891 80.4999 69.6873C84.8999 68.2856 89.4999 70.6886 90.7999 74.994Z" fill="white"/>
<path d="M88.9001 75.5947C89.9001 78.8989 88.1001 82.3031 84.9001 83.4045C81.6001 84.4058 78.2001 82.6035 77.1001 79.3995C76.1001 76.0954 77.9001 72.6911 81.1001 71.5897C84.4001 70.4883 87.9001 72.2906 88.9001 75.5947Z" fill="#E3E3E3"/>
<path d="M178.6 60.0753L179.4 129.362C179.5 129.362 160.3 90.6136 178.6 60.0753Z" fill="white"/>
<path d="M178.6 60.0753L179.4 129.362C179.5 129.362 197.7 90.1129 178.6 60.0753Z" fill="#E3E3E3"/>
<path d="M239.2 163.905L179.3 129.262C179.3 129.262 203.7 164.907 239.2 163.905Z" fill="#E3E3E3"/>
<path d="M239.2 163.905L179.3 129.262C179.3 129.262 222.3 132.466 239.2 163.905Z" fill="white"/>
<path d="M119.5 164.006L179.3 129.262C179.3 129.262 136.3 132.566 119.5 164.006Z" fill="#E3E3E3"/>
<path d="M119.5 164.006L179.3 129.262C179.3 129.262 155.1 165.007 119.5 164.006Z" fill="white"/>
<path d="M185.7 357.248H172.5L176.9 132.666H181.3L185.7 357.248Z" fill="white"/>
<path d="M186.3 127.36C187.5 131.264 185.4 135.37 181.5 136.571C177.6 137.773 173.5 135.67 172.3 131.765C171.1 127.86 173.2 123.755 177.1 122.554C181 121.352 185.1 123.555 186.3 127.36Z" fill="white"/>
<path d="M184.6 127.96C185.5 130.864 183.9 133.968 181 134.969C178.1 135.87 174.9 134.268 174 131.365C173.1 128.461 174.7 125.357 177.6 124.356C180.6 123.355 183.7 124.957 184.6 127.96Z" fill="#E3E3E3"/>
<path d="M311.8 326.109C300.2 324.407 288.5 320.802 279.4 313.293C263.8 300.477 257.6 278.048 240.5 267.335C221.6 255.52 195.2 263.13 179.8 279.35C173.9 285.558 169.2 292.767 163.3 298.774C156.8 305.483 148.7 310.789 139.6 312.792C130.5 314.794 120.4 313.192 113.1 307.485C109.7 304.782 106.9 301.278 103.2 298.875C94.3 292.967 80.8 295.871 75 304.882C69.8 312.892 70.7 323.906 64.9 331.415C59.2 338.825 47.9 340.627 39.4 336.622C30.9 332.617 25.3 323.806 23.7 314.594C22 305.383 23.9 295.771 27.3 287.06C31.5 276.246 38.2 265.332 36.2 253.918C33.6 239.4 17.3 230.989 2.6 231.09C-9.4 231.09 -22 235.996 -28 246.209V399H318.2L311.8 326.109Z" fill="#008DC5"/>
<path d="M219.6 261.628C205.1 261.628 190 268.637 179.8 279.35C173.9 285.558 169.2 292.767 163.3 298.774C163.3 298.774 163.3 298.774 163.2 298.875C163.2 298.875 163.2 298.875 163.1 298.975C158.2 303.881 152.4 308.086 145.9 310.589C149.3 311.29 152.8 311.691 156.3 311.691C159.3 311.691 162.3 311.39 165.3 310.89C187 306.784 205.4 288.562 227.1 288.562C228.2 288.562 229.3 288.562 230.4 288.662C243.2 289.763 254.5 297.673 264 306.384C270.3 312.191 276.5 318.9 278.1 327.31L285.9 317.398C283.7 316.096 281.6 314.694 279.6 312.992C264 300.176 257.8 277.748 240.7 267.035C234.1 263.33 227 261.628 219.6 261.628Z" fill="url(#paint0_linear_244_2391)"/>
<path d="M2.7 231.09C2.6 231.09 2.6 231.09 2.5 231.09C-9.4 231.09 -22 235.996 -28 246.209V347.035C-26.4 346.835 -24.8 346.735 -23.2 346.634C-22.5 346.634 -21.7 346.634 -21 346.634C-7 346.634 6.5 351.841 20.3 354.745C25.7 355.946 31.4 356.647 37.1 356.647C46.5 356.647 55.6 354.544 62.7 348.537C70.1 342.229 74 332.817 77 323.505C79.9 314.294 82.2 304.682 87.5 296.472C82.6 297.673 78.1 300.376 75.3 304.582C75.3 304.582 75.3 304.582 75.3 304.682C75.3 304.682 75.3 304.682 75.3 304.782C70.1 312.792 71 323.806 65.2 331.315C61.5 336.221 55.3 338.624 49.2 338.624C46.6 338.624 44.1 338.224 41.7 337.323C41 337.122 40.4 336.822 39.7 336.522C31.2 332.517 25.6 323.706 24 314.494C23.6 312.191 23.4 309.788 23.4 307.385C23.4 300.376 25.1 293.468 27.6 286.859C31.3 277.448 36.9 267.936 36.9 258.123C36.9 256.622 36.8 255.22 36.5 253.718C33.5 239.5 17.4 231.09 2.7 231.09Z" fill="url(#paint1_linear_244_2391)"/>
<path d="M51.7 170.213C19.3 170.414 -7 204.757 -7 247.01C-7 289.363 19.3 323.706 51.7 323.806C48.6 323.806 45.5 323.405 42.5 322.805C70.6 316.897 92 285.257 92 247.01C92 208.762 70.6 177.122 42.5 171.215C45.5 170.514 48.6 170.213 51.7 170.213Z" fill="url(#paint2_linear_244_2391)"/>
<path d="M52.0001 170.213C51.9001 170.213 51.9001 170.213 52.0001 170.213C51.9001 170.213 51.9001 170.213 51.9001 170.213C51.9001 170.213 51.9001 170.213 51.8001 170.213C48.7001 170.213 45.6001 170.614 42.6001 171.215C70.7001 177.122 92.1001 208.762 92.1001 247.01C92.1001 285.257 70.7001 316.897 42.6001 322.805C45.6001 323.405 48.7001 323.806 51.8001 323.806C51.8001 323.806 51.8001 323.806 51.9001 323.806H52.0001C52.5001 323.806 53.0001 323.806 53.5001 323.806C85.3001 322.704 110.9 288.762 110.9 247.01C110.9 204.556 84.5001 170.213 52.0001 170.213Z" fill="url(#paint3_linear_244_2391)"/>
<path d="M57.5999 280.652L67.1999 265.032C67.6999 264.331 67.4999 263.33 66.6999 262.829C65.9999 262.329 64.9999 262.529 64.4999 263.13L53.1999 277.648C52.5999 278.349 52.7999 279.45 53.5999 279.951L55.1999 281.052C55.9999 281.753 57.0999 281.453 57.5999 280.652Z" fill="#004F74"/>
<path d="M49 280.652L39.4 265.032C38.9 264.331 39.1 263.33 39.9 262.829C40.6 262.329 41.6 262.529 42.1 263.13L53.4 277.648C54 278.349 53.8 279.45 53 279.951L51.4 281.052C50.5 281.753 49.4 281.453 49 280.652Z" fill="#003C60"/>
<path d="M47.5001 298.774L36.5001 280.852C36.0001 280.051 36.2001 278.95 37.0001 278.349C37.8001 277.748 38.9001 277.948 39.5001 278.749L52.4001 295.37C53.1001 296.171 52.9001 297.473 52.0001 298.074L50.1001 299.375C49.3001 299.876 48.0001 299.676 47.5001 298.774Z" fill="#003C60"/>
<path d="M61.6002 399H44.2002L49.4002 260.727C49.5002 258.924 51.0002 257.423 52.8002 257.423C54.6002 257.423 56.1002 258.924 56.2002 260.727L61.6002 399Z" fill="#004F74"/>
<path d="M52.1998 399L51.3998 257.823C50.2998 258.324 49.4998 259.425 49.4998 260.727L44.2998 399H52.1998Z" fill="#003C60"/>
<path d="M223.5 290.264C223.5 290.264 223.4 290.264 223.5 290.264C223.4 290.264 223.5 290.264 223.5 290.264ZM192.8 184.231C175.7 184.431 161.9 198.349 161.9 215.57C161.9 218.474 162.3 221.177 163 223.881C144.8 227.085 131 243.005 131 262.128C131 283.555 148.4 300.977 169.8 300.977C182.5 300.977 191.5 294.769 200.4 286.559C205.9 289.162 211.9 290.664 218.2 290.664C219.9 290.664 221.6 290.564 223.3 290.364C221.6 290.564 219.9 290.664 218.2 290.664C215.2 290.664 212.2 290.364 209.3 289.663C230.4 285.057 244.5 264.832 241.3 243.105C238.5 224.381 223.6 210.564 205.8 208.261C203.2 197.347 194.9 188.636 184.3 185.532C187 184.731 189.8 184.231 192.8 184.231ZM192.9 184.231C192.9 184.231 192.8 184.231 192.9 184.231C192.8 184.231 192.9 184.231 192.9 184.231Z" fill="url(#paint4_linear_244_2391)"/>
<path d="M224.5 290.164C224.2 290.164 223.9 290.264 223.5 290.264C223.8 290.264 224.1 290.164 224.5 290.164ZM193.2 184.231C193.1 184.231 193.1 184.231 193.2 184.231C193.1 184.231 193.1 184.231 193.2 184.231C208 184.231 220.4 194.444 223.6 208.261C241.4 210.564 256.3 224.381 259.1 243.105C259.4 245.207 259.6 247.21 259.6 249.312C259.6 247.31 259.4 245.207 259.1 243.105C256.3 224.381 241.4 210.564 223.6 208.261C220.3 194.444 207.9 184.231 193.2 184.231Z" fill="#00E5FF"/>
<path d="M193.2 184.231C193.1 184.231 193.1 184.231 193.2 184.231C193.1 184.231 193.1 184.231 193.1 184.231C193.1 184.231 193.1 184.231 193 184.231H192.9C192.9 184.231 192.9 184.231 192.8 184.231C189.8 184.231 187 184.731 184.3 185.532C195 188.737 203.3 197.347 205.8 208.261C223.6 210.564 238.5 224.381 241.3 243.105C244.6 264.732 230.4 284.957 209.3 289.663C212.2 290.264 215.2 290.664 218.2 290.664C219.9 290.664 221.6 290.564 223.3 290.364H223.4C223.7 290.364 224 290.264 224.4 290.264C244.9 287.16 259.6 269.538 259.5 249.413C259.5 247.41 259.3 245.307 259 243.205C256.2 224.481 241.3 210.664 223.5 208.361C220.3 194.444 207.9 184.231 193.2 184.231Z" fill="url(#paint5_linear_244_2391)"/>
<path d="M196.5 269.638L190.3 258.624C190 258.123 190.2 257.423 190.7 257.122C191.2 256.822 191.9 256.922 192.2 257.423L199.5 267.736C199.9 268.236 199.7 269.037 199.2 269.338L198.1 270.038C197.5 270.339 196.8 270.239 196.5 269.638Z" fill="#003C60"/>
<path d="M195.1 288.662L180.9 278.849C180.2 278.349 180 277.448 180.5 276.747C180.9 276.046 181.8 275.846 182.5 276.246L197.7 284.456C198.5 284.857 198.7 285.858 198.3 286.559L197.3 288.161C196.8 288.962 195.8 289.162 195.1 288.662Z" fill="#003C60"/>
<path d="M204.6 352.642H192.7L196.3 257.923C196.3 256.622 197.4 255.62 198.6 255.62C199.9 255.62 200.9 256.622 200.9 257.923L204.6 352.642Z" fill="#004F74"/>
<path d="M198.2 255.72C197.2 255.921 196.3 256.822 196.3 257.923L192.7 352.642H197.3L198.2 255.72Z" fill="#003C60"/>
<path d="M201.8 280.151L210.2 267.535C210.6 266.934 210.5 266.133 209.9 265.733C209.3 265.332 208.5 265.433 208.1 265.933L198.4 277.648C197.9 278.249 198 279.15 198.6 279.55L199.9 280.552C200.5 280.952 201.4 280.752 201.8 280.151Z" fill="#004F74"/>
<path d="M145.3 391.803C145.3 394.106 143.4 395.908 141.2 395.908C138.9 395.908 137.1 394.006 137.1 391.803C137.1 389.5 139 387.698 141.2 387.698C143.4 387.598 145.3 389.5 145.3 391.803Z" fill="white"/>
<path d="M122.6 357.66C130.9 360.364 149 385.996 139.4 395.508C133.2 401.715 120.5 399.913 112 398.511C107.4 397.71 107.6 391.102 106.9 387.798C104.9 378.286 105 363.067 105 363.067L122.6 357.66Z" fill="white"/>
<path d="M114.1 394.707C113.7 394.707 113.3 394.707 112.9 394.807C112.2 394.206 111.3 393.906 110.3 393.906C108 393.906 106.2 395.808 106.2 398.011C106.2 400.214 108.1 400.214 110.3 400.214C110.8 400.214 111.3 400.214 111.7 400.214C112.4 400.214 113.2 400.214 114.1 400.214C117.7 400.214 120.6 400.314 120.6 398.311C120.6 396.309 117.7 394.707 114.1 394.707Z" fill="#C9C9C9"/>
<path d="M141.3 382.692C139.9 378.587 135.2 376.384 131.1 378.086C127 379.788 124.5 396.809 127.5 399.212C127.8 399.413 128.1 399.613 128.4 399.813C132.7 399.413 136.7 398.311 139.4 395.608C142.5 392.504 142.7 387.798 141.3 382.692Z" fill="#E8E8E8"/>
<path d="M131.9 394.707C131.5 394.707 131.1 394.707 130.8 394.807C130.1 394.206 129.3 393.906 128.4 393.906C126.3 393.906 124.6 395.808 124.6 398.011C124.6 400.214 126.3 400.214 128.4 400.214C128.9 400.214 129.3 400.214 129.7 400.214C130.4 400.214 131.1 400.214 131.9 400.214C135.2 400.214 137.8 400.314 137.8 398.311C137.8 396.309 135.2 394.707 131.9 394.707Z" fill="#C9C9C9"/>
<path d="M123.7 363.868C131.3 372.379 128.5 393.505 124.8 399.613C124 401.015 117.4 401.215 116.4 399.012C115.5 396.809 115.4 393.505 118.2 393.405C118.9 393.405 117.9 383.192 115.4 383.192C112.9 383.192 113.3 388.599 112.6 392.804C111.8 397.51 111.2 399.513 110.1 399.913C109.1 400.314 104.3 401.115 102.9 399.112C101.5 397.11 101.9 394.807 103.3 393.605C104.8 392.304 105 393.005 105.2 392.704C105.4 392.404 100.8 372.078 104.2 366.271C107.6 360.464 121.5 361.465 123.7 363.868Z" fill="#F0F0F0"/>
<path d="M124.3 364.569C125.5 367.072 125.9 372.279 125.3 374.882C125.1 375.883 125.1 375.382 125.1 374.181C125.2 372.879 124.8 376.284 123 378.486C121.2 380.689 119.5 381.891 119.8 381.39C120.1 380.889 120.5 379.488 120.3 379.888C120 380.389 118.8 381.791 117.7 382.592C116.6 383.292 117.4 382.592 117.7 381.991C118 381.39 117 383.192 115.1 384.594C113.2 385.996 114.9 384.794 113.7 383.793C112.5 382.792 111.3 381.39 111.5 381.69C111.7 381.991 112.5 382.692 112.2 382.692C112 382.692 109.9 381.59 109 380.489C108.1 379.388 107.2 378.486 108.4 380.489C108.7 380.99 105.4 379.087 104 373.78C102.9 369.876 104.2 366.371 104.2 366.371L124.3 364.569Z" fill="white"/>
<path d="M124.3 364.569C125.5 367.072 125.9 372.279 125.3 374.882C125.1 375.883 125.1 375.382 125.1 374.181C125.2 372.879 124.8 376.284 123 378.486C121.2 380.689 119.5 381.891 119.8 381.39C120.1 380.889 120.5 379.488 120.3 379.888C120 380.389 118.8 381.791 117.7 382.592C116.6 383.292 117.4 382.592 117.7 381.991C118 381.39 117 383.192 115.1 384.594C113.2 385.996 114.9 384.794 113.7 383.793C112.5 382.792 111.3 381.39 111.5 381.69C111.7 381.991 112.5 382.692 112.2 382.692C112 382.692 109.9 381.59 109 380.489C108.1 379.388 107.2 378.486 108.4 380.489C108.7 380.99 105.4 379.087 104 373.78C102.9 369.876 104.2 366.371 104.2 366.371L124.3 364.569Z" fill="#E8E8E8"/>
<path d="M125.3 373.48C125.4 372.879 125.5 372.078 125.5 371.277C125.4 368.874 125 366.271 124.2 364.669L104.2 366.271C104.2 366.271 103.7 367.673 103.6 369.775C103.6 370.576 103.8 371.478 104 372.279C105.5 377.485 108.7 379.387 108.4 378.987C107.2 376.984 108.1 377.986 109 378.987C109.9 380.088 112 381.19 112.2 381.19C112.4 381.19 111.6 380.589 111.5 380.189C111.3 379.888 112.6 381.19 113.7 382.291C114.9 383.292 113.2 384.494 115.1 383.092C117 381.69 117.9 379.888 117.7 380.489C117.4 381.09 116.6 381.791 117.7 381.09C118.8 380.389 120 378.887 120.3 378.386C120.6 377.886 120.2 379.287 119.8 379.888C119.5 380.389 121.2 379.187 123 376.984C124.8 374.782 125.2 371.478 125.1 372.679C125.1 373.28 125 373.78 125.1 373.881C125.1 373.78 125.1 373.78 125.1 373.881C125.2 373.881 125.2 373.78 125.3 373.48Z" fill="white"/>
<path d="M118.1 344.143C118.9 338.937 120.5 334.031 121.7 331.327C124.1 325.921 130.9 321.815 132.9 320.814C134.9 319.813 134.5 330.126 131.7 336.534C130.7 338.937 119.6 345.145 119.6 345.145L118.1 344.143Z" fill="#BDBDBD"/>
<path d="M132.9 320.714C130.9 321.715 123.8 326.221 121.7 331.227C120.6 333.931 119 338.937 118.1 344.043L118.5 344.243C122.4 339.137 127.2 336.133 130.4 330.226C132.5 326.321 133.1 322.616 133.3 320.514C133.2 320.614 133 320.714 132.9 320.714Z" fill="#E8E8E8"/>
<path d="M112.5 343.743C112.4 338.436 111.5 333.33 110.7 330.526C109.1 324.819 102.9 319.813 101 318.511C99.0997 317.21 98.0997 327.523 100.1 334.231C100.8 336.734 111 344.344 111 344.344L112.5 343.743Z" fill="#BDBDBD"/>
<path d="M101 318.611C102.9 319.913 109.3 325.32 110.7 330.626C111.4 333.53 112.4 338.636 112.5 343.843L112.1 344.043C109 338.436 104.5 334.832 102.2 328.624C100.7 324.519 100.5 320.714 100.6 318.611C100.8 318.411 100.9 318.511 101 318.611Z" fill="#E8E8E8"/>
<path d="M103.499 351.252C100.099 357.16 101.099 360.964 102.799 364.769C104.499 368.674 108.099 370.176 113.499 370.576C118.899 370.977 122.599 369.876 124.799 366.271C126.999 362.667 128.599 359.062 125.999 352.754C123.399 346.446 123.9 342.441 115.4 341.84C106.9 341.34 106.999 345.445 103.499 351.252Z" fill="#F0F0F0"/>
<path d="M126 364.269C125.9 362.266 126.2 361.065 124.1 360.063C119 357.66 114.2 360.163 114.2 359.963C114.1 360.163 109.7 356.959 104.4 358.662C102.2 359.362 102.4 360.664 102 362.566C102.2 363.468 102.4 364.369 102.8 365.27C104.5 369.175 108.1 370.677 113.5 371.077C118.9 371.478 122.6 370.376 124.8 366.772C125.4 365.971 125.8 365.17 126 364.269Z" fill="#F0F0F0"/>
<path d="M126 363.768C125.9 361.765 126.2 360.564 124.1 359.563C119 357.16 114.2 359.663 114.2 359.463C114.1 359.663 109.7 356.459 104.4 358.161C102.2 358.862 102.4 360.163 102 362.066C102.2 362.967 102.4 363.868 102.8 364.769C104.5 368.674 108.1 370.176 113.5 370.576C118.9 370.977 122.6 369.876 124.8 366.271C125.4 365.47 125.8 364.669 126 363.768Z" fill="white"/>
<path d="M117.9 359.463C117.8 356.959 117.1 346.446 122.1 344.243C120.8 342.942 118.8 342.141 115.4 341.941C111.9 341.74 109.9 342.241 108.5 343.342C113.3 346.146 111.2 356.559 110.7 358.962L117.9 359.463Z" fill="#CCCCCC"/>
<path d="M114.1 362.166C113.6 362.066 110.4 359.362 110.5 358.561C110.6 357.76 111.1 357.36 114.4 357.56C117.7 357.76 118.2 358.261 118.2 359.062C118.1 359.863 114.6 362.166 114.1 362.166Z" fill="#E79183"/>
<path d="M468.2 401.405L475.3 401.305C464.8 401.305 453.3 400.805 445.5 393.896C437.4 386.787 435.4 374.672 427.4 367.463C419.7 360.554 408.2 359.954 398 361.556C387.8 363.158 377.7 366.462 367.4 366.261C358 366.061 348.7 362.757 341.3 356.95C331.2 349.04 324.9 337.125 315.1 328.915C300 316.199 276.8 314.096 259.6 323.908C247 331.117 237.6 344.034 223.6 348.039C215.5 350.341 207.1 349.24 198.7 348.239C193.6 347.638 188.5 346.937 183.4 347.037C168.4 347.338 153.9 354.346 143.3 364.96C133.3 374.872 126.7 387.889 123.1 401.506H468.2" fill="#30D8A0"/>
<path d="M286.6 317.801C287.1 318.101 287.5 318.401 288 318.702C294.6 323.508 298.3 331.218 302.3 338.326C312.4 356.549 326.8 374.171 346.9 379.678C358.7 382.882 371.1 381.681 383.3 382.281C395.5 382.982 408.6 386.186 416.1 395.698C417.5 397.4 418.6 399.303 419.7 401.305H468.2L475.3 401.205C464.8 401.205 453.3 400.705 445.5 393.796C437.4 386.687 435.4 374.572 427.4 367.363C421.9 362.457 414.4 360.755 406.8 360.755C403.8 360.755 400.8 361.055 397.9 361.455C397.7 361.455 397.4 361.556 397.2 361.556C387.6 363.057 378.1 366.161 368.4 366.161C368 366.161 367.7 366.161 367.3 366.161C357.9 365.961 348.6 362.657 341.2 356.85C331.1 348.94 324.8 337.025 315 328.814L314.9 328.714L314.8 328.614L314.7 328.514L314.6 328.414H314.5C313.6 327.613 312.6 326.912 311.6 326.211L311.5 326.111L311.4 326.011L311.3 325.911H311.2H311.1H311H310.9C303.8 321.005 295.3 318.301 286.6 317.801Z" fill="#09E7CA"/>
<path d="M251.5 329.515C242.5 336.524 234.4 344.935 223.6 348.039C220.1 349.04 216.5 349.44 212.8 349.44C210.8 349.44 208.8 349.34 206.8 349.14C204.1 348.94 201.3 348.539 198.6 348.239C193.8 347.638 189.1 347.037 184.3 347.037C184 347.037 183.6 347.037 183.3 347.037C183.1 347.037 182.8 347.037 182.6 347.037C167.9 347.538 153.7 354.447 143.2 364.86C133.3 374.772 126.6 387.788 123 401.405H147.3C148 397.4 149.2 393.596 150.9 389.891C153.7 383.984 157.9 378.877 162.8 374.472C171.2 366.962 181.7 361.656 192.8 359.353C205 356.85 218.1 357.751 229.6 352.945C239.8 348.639 247.9 339.928 251.5 329.515Z" fill="url(#paint6_linear_244_2391)"/>
<path d="M302 384.284C302 384.284 306.5 386.787 310.3 389.491C314.1 392.294 318.7 395.298 315.7 395.999C312.7 396.7 306.4 396.9 304 393.996C304 393.996 298.7 393.295 296.4 391.994C294.1 390.692 296.4 385.986 296.4 385.986V383.483L302 384.284Z" fill="#008EC6"/>
<path d="M239.9 388.089L240.5 393.796C240.5 393.796 243 398.502 243.7 401.205C244.4 403.909 238.5 403.408 236.1 402.807C233.7 402.206 233.2 400.404 233.7 397.901C234.2 395.398 234.3 391.393 234.3 391.393L234.8 387.288L239.9 388.089Z" fill="#008EC6"/>
<path d="M263.9 304.885C263.9 304.885 269.4 305.986 270.1 308.789C270.8 311.593 275.3 318.201 281.9 329.816C292 347.338 303.2 379.678 303.8 384.785C303.8 384.785 300.4 384.985 295.5 384.184C294.6 384.084 297.3 381.981 297.3 381.981C297.3 381.981 278 360.454 279.2 352.444L255.7 327.613C255.7 327.613 252.5 348.539 250.4 357.45C248.4 366.362 244.6 374.271 242.8 379.578C241 384.885 241.2 388.389 241.2 388.389C241.2 388.389 236.9 390.892 233.9 386.887C232.9 385.586 235.7 386.287 235.8 384.584C235.9 382.782 233.3 375.072 233.3 367.363C233.3 363.558 235.6 360.654 236.2 355.648C236.8 350.642 234 330.216 234.4 324.209C234.8 318.201 236 314.096 235.7 311.993C235.4 309.891 234.4 306.787 239.9 306.386L263.9 304.885Z" fill="white"/>
<path d="M259.7 313.796C263.5 309.791 267.3 306.186 267.3 306.086C265.6 305.285 263.8 304.885 263.8 304.885L239.9 306.286C234.3 306.687 235.4 309.791 235.7 311.893C235.9 313.395 235.4 315.998 234.9 319.503C238.6 313.495 242.8 313.095 246.8 313.595C251 314.196 255.9 317.801 259.7 313.796Z" fill="#E3E3E3"/>
<path d="M222.2 292.669C222.2 292.669 207.6 314.296 202.7 314.497C197.8 314.697 199 305.285 200.8 301.38C202.6 297.475 209.8 285.46 209.8 285.46L222.2 292.669Z" fill="#FBD6B1"/>
<path d="M209.8 285.36C209.8 285.36 202.6 297.375 200.8 301.28C200.6 301.68 200.5 302.081 200.3 302.582C200.3 302.582 203.4 296.774 208.1 294.071L212 299.077C212 299.077 211.3 306.286 206.9 311.893C213.1 306.086 222.2 292.569 222.2 292.569L209.8 285.36Z" fill="#F4BD89"/>
<path d="M241.5 268.339C241.5 268.339 246.9 266.637 253.8 265.936C260.7 265.335 267.3 270.742 265.9 277.35C265 281.255 264.1 286.361 263.9 287.563C263.9 287.763 263.9 287.763 263.9 287.763L261.2 287.363C261.2 287.363 263.3 298.677 264.1 305.986C264.1 305.986 253.1 312.794 239.2 307.888C237.3 307.388 224.5 291.368 224.5 291.368L222.2 293.971L208.7 285.761C208.7 285.761 215.5 277.75 222.1 272.744C229.9 266.837 241.5 268.339 241.5 268.339Z" fill="#004F74"/>
<path d="M239.2 308.089C253.1 312.895 264.1 306.186 264.1 306.186C264 305.485 263.9 304.684 263.8 303.983C246 303.883 236.8 293.17 236.8 293.17C229.1 294.872 224.5 291.468 224.5 291.468C224.5 291.468 237.3 307.388 239.2 308.089Z" fill="#004560"/>
<path d="M227 233.996L208.7 297.375L212.9 298.677L234.3 236.198C235.3 233.095 234.5 230.091 232.5 229.39C230.4 228.789 227.9 230.892 227 233.996Z" fill="#FF8A1C"/>
<path d="M261.1 287.463C261.1 287.463 253.4 284.259 243.6 286.361L239.3 294.171L217.7 296.975L217.3 301.28C217.3 301.28 240.7 305.085 246.8 303.082C254.8 300.579 261.1 287.463 261.1 287.463Z" fill="#FBD6B1"/>
<path d="M242.9 287.763C245.2 287.563 252.4 287.463 259.5 290.466C260.5 288.664 261.1 287.463 261.1 287.463C261.1 287.463 253.4 284.259 243.6 286.361L242.9 287.763Z" fill="#F4BD89"/>
<path d="M208.7 292.869L208.9 288.264C209 286.662 210.1 285.26 211.6 284.859C212.6 284.559 213.9 284.359 215 284.459C217.9 284.759 217.9 284.96 217.8 285.66C217.7 286.261 215.1 286.161 214.2 286.261C213.3 286.461 212.4 286.862 212.4 286.862C212.4 286.862 215.9 286.461 217.2 287.763C218.5 289.065 214.2 295.272 214.2 295.272L208.7 292.869Z" fill="white"/>
<path d="M215.2 293.771C212.2 291.768 211.9 290.166 208.8 289.966L208.7 292.869L214.2 295.373C214.2 295.373 214.7 294.672 215.2 293.771Z" fill="#E3E3E3"/>
<path d="M250.9 258.727L249.2 253.821C248.1 249.816 244.8 248.214 241.5 248.814C238.2 249.515 236.2 251.918 236.3 254.822C236.4 257.725 237.1 260.829 237.1 260.829L234.1 268.038C234.1 268.038 228.3 275.047 236.7 276.649C241 277.45 246.5 273.245 244.9 268.439L245.7 265.235C245.7 265.235 248.8 265.235 249.8 264.434C251.5 263.132 250.2 258.727 250.2 258.727H250.9Z" fill="#FBD6B1"/>
<path d="M239.8 259.127L237.4 258.727C237.4 258.727 237.1 258.627 236.8 258.927C237 260.128 237.2 260.929 237.2 260.929L235.5 264.934C235.2 271.843 245.5 266.637 245.5 266.637L245.8 265.335C240.1 265.135 239.8 259.127 239.8 259.127Z" fill="#F4BD89"/>
<path d="M236.2 259.428L234.7 254.021C234.1 252.018 234.8 249.916 236.4 248.714C237.7 247.713 239.6 246.611 242.1 245.911C244.3 245.31 246.6 246.111 247.9 247.913C248.3 248.414 248.6 249.014 249 249.815C249.3 250.617 250.1 251.017 250.9 251.017L254.7 250.817C254.7 250.817 255.2 254.822 246.7 255.122C245.7 255.122 241.2 254.622 241.4 259.628C241.4 259.728 238.1 260.329 236.2 259.428Z" fill="#004F74"/>
<path d="M218.7 296.174L218.3 302.582L215.7 302.081C215.7 302.081 212.2 302.081 210.2 301.48C208.2 300.879 205.3 299.678 206.5 297.976C206.5 297.976 205.5 295.973 207.3 295.373C209.1 294.772 209.8 294.471 209.8 294.471L208.1 294.071L207 294.672C207 294.672 205.8 293.771 207 292.669C208.3 291.568 209.3 291.368 210.4 292.068C211.5 292.769 216.8 295.973 216.8 295.973L218.7 296.174Z" fill="white"/>
</g>
<defs>
<linearGradient id="paint0_linear_244_2391" x1="290.716" y1="340.8" x2="174.279" y2="279.267" gradientUnits="userSpaceOnUse">
<stop stop-color="#006DB8"/>
<stop offset="0.275" stop-color="#006DB8"/>
<stop offset="0.4829" stop-color="#007CBE"/>
<stop offset="0.7462" stop-color="#0089C3"/>
<stop offset="1" stop-color="#008DC5"/>
</linearGradient>
<linearGradient id="paint1_linear_244_2391" x1="44.1943" y1="349.075" x2="-10.0197" y2="247.078" gradientUnits="userSpaceOnUse">
<stop stop-color="#008EC6"/>
<stop offset="0.3165" stop-color="#0091CB"/>
<stop offset="0.6832" stop-color="#009BD9"/>
<stop offset="1" stop-color="#00A7EB"/>
</linearGradient>
<linearGradient id="paint2_linear_244_2391" x1="42.5247" y1="121.566" x2="42.5247" y2="339.317" gradientUnits="userSpaceOnUse">
<stop stop-color="#64F5C0"/>
<stop offset="0.275" stop-color="#64F5C0"/>
<stop offset="0.4355" stop-color="#60F0BF"/>
<stop offset="0.6242" stop-color="#56E2BB"/>
<stop offset="0.8264" stop-color="#44CAB5"/>
<stop offset="1" stop-color="#30B0AE"/>
</linearGradient>
<linearGradient id="paint3_linear_244_2391" x1="76.7123" y1="121.566" x2="76.7123" y2="339.317" gradientUnits="userSpaceOnUse">
<stop stop-color="#9CF9D7"/>
<stop offset="0.275" stop-color="#9CF9D7"/>
<stop offset="0.4827" stop-color="#98F4D6"/>
<stop offset="0.7256" stop-color="#8EE6D2"/>
<stop offset="0.9852" stop-color="#7CCFCB"/>
<stop offset="1" stop-color="#7BCDCB"/>
</linearGradient>
<linearGradient id="paint4_linear_244_2391" x1="186.418" y1="187.908" x2="186.418" y2="292.382" gradientUnits="userSpaceOnUse">
<stop stop-color="#00D2EE"/>
<stop offset="0.1957" stop-color="#00CEEB"/>
<stop offset="0.4082" stop-color="#00C1E3"/>
<stop offset="0.6286" stop-color="#00ABD5"/>
<stop offset="0.8532" stop-color="#008DC1"/>
<stop offset="0.9333" stop-color="#0080B9"/>
<stop offset="1" stop-color="#0080B9"/>
</linearGradient>
<linearGradient id="paint5_linear_244_2391" x1="221.937" y1="187.908" x2="221.937" y2="292.382" gradientUnits="userSpaceOnUse">
<stop stop-color="#00E2F6"/>
<stop offset="0.2496" stop-color="#00DEF4"/>
<stop offset="0.4992" stop-color="#00D2EE"/>
<stop offset="0.7481" stop-color="#00BEE3"/>
<stop offset="0.9333" stop-color="#00AAD9"/>
<stop offset="1" stop-color="#00AAD9"/>
</linearGradient>
<linearGradient id="paint6_linear_244_2391" x1="226.073" y1="324.1" x2="180.872" y2="365.329" gradientUnits="userSpaceOnUse">
<stop stop-color="#30D8A0"/>
<stop offset="1" stop-color="#30BC96"/>
</linearGradient>
<clipPath id="clip0_244_2391">
<rect width="477" height="399" fill="white"/>
</clipPath>
</defs>
</svg>
