<svg width="144" height="100" viewBox="0 0 144 100" fill="none" xmlns="http://www.w3.org/2000/svg">
<path d="M14.6999 75.9C13.5999 81.4 11.0999 85.5 8.1999 87.7C7.6999 87 6.5999 85.8 5.8999 85.3C8.0999 83.8 9.9999 81.2 11.0999 78.1H6.4999V75.1H12.2999L12.7999 75L14.6999 75.9ZM27.6999 74.1C25.8999 75.9 23.6999 77.9 21.8999 79.2C23.5999 81.7 25.6999 83.7 28.4999 84.9C27.7999 85.5 26.9999 86.8 26.4999 87.7C22.9999 86 20.5999 83.1 18.7999 79.5V85.6C18.7999 87.3 18.4999 88.2 17.4999 88.7C16.4999 89.2 15.0999 89.2 13.0999 89.2C12.9999 88.3 12.4999 86.9 12.0999 86C13.2999 86.1 14.7999 86.1 15.1999 86.1C15.5999 86.1 15.7999 85.9 15.7999 85.5V72.9H9.7999V69.9H18.5999C16.5999 68.9 13.7999 67.9 11.5999 67.2L12.9999 64.6C15.7999 65.3 19.6999 66.7 21.7999 67.8L20.2999 70.7C19.8999 70.4 19.3999 70.1 18.7999 69.9V72.1C19.2999 73.8 19.7999 75.3 20.4999 76.8C22.0999 75.4 23.8999 73.5 25.0999 71.9L27.6999 74.1Z" fill="#004F74"/>
<path d="M49.8001 81.2C49.8001 80.8 49.7001 80.4 49.6001 79.9C45.4001 80.6 44.6001 80.8 44.1001 81.1C44.0001 80.6 43.6001 79.2 43.3001 78.5C43.9001 78.4 44.3001 77.7 45.1001 76.7C45.4001 76.3 45.9001 75.5 46.6001 74.4C44.9001 74.6 44.4001 74.8 44.0001 75C43.9001 74.5 43.5001 73.2 43.2001 72.5C43.6001 72.4 44.0001 71.8 44.5001 71C45.0001 70.3 46.3001 67.2 47.1001 64.5L49.4001 65.5C48.6001 67.7 47.6001 70 46.5001 71.9L48.0001 71.8C48.5001 70.7 49.1001 69.4 49.6001 68.2L51.7001 69.6C50.4001 72.4 48.8001 75.3 47.1001 77.8L49.3001 77.5C49.1001 76.8 49.0001 76.1 48.8001 75.5L50.7001 74.9C51.2001 76.7 51.8001 79 52.0001 80.4L49.8001 81.2ZM46.3001 82.3C46.1001 84.8 45.7001 87.4 45.2001 89.1C44.7001 88.8 43.7001 88.5 43.1001 88.3C43.6001 86.6 44.0001 84.2 44.1001 81.9L46.3001 82.3ZM48.5001 81.9C48.8001 83.9 49.0001 86.3 49.0001 88L47.0001 88.4C47.0001 86.7 46.8001 84.2 46.6001 82.3L48.5001 81.9ZM50.6001 81.2C51.1001 82.7 51.6001 84.6 51.8001 85.9L50.0001 86.6C49.8001 85.3 49.3001 83.3 48.9001 81.7L50.6001 81.2ZM61.1001 85.3C62.7001 85.9 64.3001 86.6 65.4001 87L64.3001 89.2C63.0001 88.5 61.0001 87.6 59.1001 86.8L59.9001 85.2H56.4001L57.8001 86.8C55.9001 87.7 53.5001 88.7 51.8001 89.3C51.6001 88.7 51.2001 87.8 50.8001 87.1C52.1001 86.6 53.9001 85.9 55.3001 85.2H52.1001V77.3H64.2001V85.2H61.1001V85.3ZM56.9001 67.7H51.2001V65.7H56.9001V64.6H59.7001V65.7H65.1001V67.7H59.7001V68.6H64.4001V70.5H52.1001V68.6H56.9001V67.7ZM51.3001 71.2H65.0001V76.6H51.3001V71.2ZM53.6001 74.7H55.3001V73.1H53.6001V74.7ZM54.7001 79.8H61.6001V79H54.7001V79.8ZM54.7001 81.8H61.6001V81H54.7001V81.8ZM54.7001 83.8H61.6001V83H54.7001V83.8ZM59.0001 74.7V73.1H57.5001V74.7H59.0001ZM62.6001 73.1H61.1001V74.7H62.6001V73.1Z" fill="#004F74"/>
<path d="M88.9998 85C88.5998 84.7 87.9998 84.2 87.3998 83.6V89.1H84.6998V84.4C83.6998 85.8 82.5998 87 81.3998 87.8C81.1998 87 80.6998 85.7 80.2998 84.9C81.8998 84 83.4998 82.4 84.4998 80.8H80.9998V78H84.6998V75.4H87.3998V78H90.7998V80.8H87.3998V80.9C88.3998 81.5 90.5998 83 91.1998 83.5L88.9998 85ZM90.0998 70.7C87.9998 73.2 85.0998 75.2 82.0998 76.4C81.6998 75.6 80.9998 74.5 80.3998 73.9C83.0998 73 85.7998 71.5 87.6998 69.6H81.5998V66.8H90.1998V64.4H92.9998V66.8H101.6V69.6H95.4998C98.0998 70.9 101.4 72.6 102.3 73.2L101.4 76.1C99.4998 74.7 95.3998 72.1 92.8998 70.6V76.2H90.0998V70.7ZM98.0998 80.8C99.3998 82.5 101.3 84.4 103 85.3C102.4 85.9 101.5 87 101 87.8C99.8998 86.9 98.7998 85.5 97.7998 84V89.2H95.0998V84C93.8998 85.6 92.3998 87 90.8998 87.9C90.4998 87.2 89.6998 86.2 89.0998 85.6C91.1998 84.6 93.3998 82.7 94.6998 80.8H91.6998V78.1H95.0998V75.4H97.7998V78.1H102.1V80.8H98.0998Z" fill="#004F74"/>
<path d="M126.5 80.7C126.1 79.8 125.4 78.6 124.6 77.4V89.3H121.8V78.6C120.9 81 119.9 83.2 118.8 84.7C118.5 83.8 117.9 82.5 117.4 81.7C119.1 79.6 120.6 76.1 121.4 72.9H118V69.9H121.8V64.4H124.6V70H127.7V73H124.6V73.4C125.3 74.2 127.7 77.2 128.2 77.9L126.5 80.7ZM135.8 73C136.8 76.6 138.4 80.3 140.2 82.5C139.5 83.1 138.6 84.1 138.1 84.9C137.1 83.3 136.1 81.1 135.3 78.6V89.2H132.4V78.5C131.3 81.3 129.8 83.9 128.3 85.6C128 84.7 127.2 83.5 126.7 82.7C128.9 80.3 130.8 76.6 131.9 73H128.4V70H132.3V64.5H135.2V70H139.4V73H135.8Z" fill="#004F74"/>
<path d="M0.0999023 62C0.199902 62 0.199902 61.8 0.0999023 61.8C-9.76548e-05 61.8 -9.76548e-05 62 0.0999023 62Z" fill="black"/>
<path d="M32.8999 18.9L31.5999 19.6C31.3999 19.4 31.0999 19 30.9999 18.7C30.9999 19.8 30.2999 20.5 29.1999 21.1C26.8999 22.4 24.6999 21.3 23.3999 19C22.0999 16.7 22.4999 14.1 25.0999 12.7C27.1999 11.5 28.7999 12 29.7999 13.2L28.0999 14.2C27.6999 13.8 26.8999 13.4 25.7999 14.1C24.2999 15 24.4999 16.6 25.2999 18.1C26.0999 19.6 27.3999 20.5 28.8999 19.7C30.1999 19 30.0999 17.9 29.5999 16.9L27.7999 17.9L26.9999 16.5L30.5999 14.5L32.8999 18.9Z" fill="#004F74"/>
<path d="M35.1001 13.7L36.6001 17.1L34.7001 18L31.1001 9.70003L34.8001 8.00003C36.5001 7.20003 38.1001 7.50003 38.8001 9.00003C39.3001 10.1 38.9001 11 38.2001 11.6C39.3001 11.5 39.9001 12 40.3001 13.1L40.4001 13.3C40.7001 14 41.1001 14.7 41.4001 15.2L39.6001 16C39.3001 15.7 39.0001 15.2 38.6001 14.1L38.5001 13.9C38.1001 12.9 37.6001 12.8 36.4001 13.3L35.1001 13.7ZM34.5001 12.4L35.9001 11.8C36.8001 11.4 37.4001 10.9 37.0001 9.90003C36.7001 9.10003 35.9001 9.10003 35.2001 9.40003L33.5001 10.1L34.5001 12.4Z" fill="#004F74"/>
<path d="M47.9999 8.70001L43.7999 10L44.5999 12.3L49.1999 10.8L49.3999 12.3L43.1999 14.3L40.3999 5.70001L46.5999 3.70001L46.9999 5.20001L42.6999 6.60001L43.2999 8.60001L47.3999 7.20001L47.9999 8.70001Z" fill="#004F74"/>
<path d="M56.4001 6.6L52.2001 7.6L52.7001 10L57.4001 8.9L57.5001 10.4L51.1001 11.8L49.1001 2.9L55.5001 1.5L55.8001 3L51.4001 4L51.9001 6L56.1001 5L56.4001 6.6Z" fill="#004F74"/>
<path d="M59.2998 10.1L58.2998 1.10001L60.8998 0.800012C64.4998 6.00001 65.0998 6.80001 65.2998 7.20001C65.0998 6.10001 64.8998 4.70001 64.6998 3.20001L64.3998 0.400012L66.2998 0.200012L67.2998 9.20001L64.7998 9.50001C60.8998 3.80001 60.4998 3.10001 60.2998 2.80001C60.4998 3.90001 60.6998 5.50001 60.8998 7.10001L61.1998 9.90001L59.2998 10.1Z" fill="#004F74"/>
<path d="M73.5001 0L79.9001 0.3L79.8001 1.8L75.4001 1.6L75.3001 3.9L79.4001 4.1L79.3001 5.6L75.2001 5.4L75.1001 9.2L73.1001 9.1L73.5001 0Z" fill="#004F74"/>
<path d="M90.2 6.19997C89.8 8.79997 88.1 10.7 85 10.2C81.9 9.69998 81 7.39997 81.3 4.89997C81.6 2.69997 83.3 0.499975 86.5 0.999975C89.5 1.39997 90.6 3.79997 90.2 6.19997ZM83.4 5.19997C83.1 6.99997 83.7 8.49997 85.3 8.79997C87 9.09997 87.9 7.79997 88.1 5.89997C88.3 4.19997 87.9 2.69997 86.2 2.39997C84.6 2.19997 83.7 3.39997 83.4 5.19997Z" fill="#004F74"/>
<path d="M94.1998 7.99999L93.1998 11.6L91.2998 11.1L93.5998 2.29999L97.4998 3.29999C99.2998 3.79999 100.4 4.99999 99.9998 6.49999C99.6998 7.69999 98.7998 8.09999 97.8998 8.09999C98.7998 8.69999 98.8998 9.49999 98.5998 10.6L98.6998 11C98.4998 11.8 98.2998 12.5 98.2998 13L96.3998 12.5C96.3998 12.1 96.4998 11.5 96.7998 10.4L96.8998 10.2C97.1998 9.19999 96.8998 8.69999 95.5998 8.39999L94.1998 7.99999ZM94.5998 6.59999L96.0998 6.99999C96.9998 7.29999 97.8998 7.19999 98.0998 6.29999C98.2998 5.39999 97.7998 4.99999 96.9998 4.79999L95.2998 4.29999L94.5998 6.59999Z" fill="#004F74"/>
<path d="M107.5 12.1L103.4 10.6L102.6 12.9L107.1 14.6L106.3 15.9L100.2 13.6L103.4 5.09998L109.5 7.39998L109 8.79998L104.7 7.19998L104 9.09998L108.1 10.6L107.5 12.1Z" fill="#004F74"/>
<path d="M110.5 14.8C110.3 15.6 110.6 16.3 111.5 16.8C112.5 17.3 113.1 17.1 113.4 16.5C113.8 15.8 113.4 15.2 112.2 14.3C110.3 12.8 110 11.8 110.5 10.6C111.2 9.10002 113 8.90002 114.7 9.70002C116.9 10.7 117.3 12.2 116.8 13.5L115 12.6C115.2 11.9 115.1 11.3 114.1 10.9C113.3 10.5 112.7 10.7 112.4 11.3C112.1 11.9 112.5 12.3 113.6 13.2C115.6 14.9 115.8 16 115.3 17.2C114.7 18.5 113.2 19.2 110.8 18.1C108.8 17.2 108 15.7 108.6 14L110.5 14.8Z" fill="#004F74"/>
<path d="M121 14.7L118.6 13.4L119.4 12.1L125.9 15.8L125.1 17.1L122.7 15.8L119 22.4L117.2 21.4L121 14.7Z" fill="#004F74"/>
<path d="M11.6001 25.3L19.6001 20" stroke="#004F74" stroke-width="0.7387" stroke-miterlimit="10" stroke-linecap="round" stroke-linejoin="round"/>
<path d="M133.2 25.3L125.3 20" stroke="#004F74" stroke-width="0.7387" stroke-miterlimit="10" stroke-linecap="round" stroke-linejoin="round"/>
<path d="M5.7998 94.8H143" stroke="#004F74" stroke-width="0.7228" stroke-miterlimit="10" stroke-linecap="round" stroke-linejoin="round"/>
<path d="M52.7001 48.2C52.7001 48 52.7001 47.9 52.7001 47.7C51.8001 47.3 50.8001 46.9 49.9001 46.6L50.3001 58.5H47.8001L48.2001 46.1C45.6001 45.4 43.0001 45 40.4001 45C34.5001 45 28.7001 47.2 23.6001 50.1C17.8001 53.4 12.9001 58 5.8001 58.2C5.2001 58.2 5.2001 59.1 5.8001 59.1C23.4001 59.1 41.0001 59.1 58.6001 59.1L58.9001 55.2C55.4001 54.7 52.7001 51.8 52.7001 48.2Z" fill="#004F74"/>
<path d="M63.5 54C62.6 54.6 61.6 55 60.5 55.1L60.8 59C62.6 59 64.4 59 66.2 59C68.1 59 70 59 71.8 58.9V57.8C68.8 57.2 66.1 55.7 63.5 54Z" fill="#004F74"/>
<path d="M142 58.3C141.7 58.3 141.4 58.3 141.1 58.3C134.5 57.4 129.9 53 124.3 49.8C119.3 47 113.6 45 107.7 45C105 45 102.3 45.5 99.7 46.3L100.1 58.6H97.6L98 46.9C97 47.2 96.1 47.6 95.1 48C95.1 48.1 95.1 48.1 95.1 48.2C95.1 51.8 92.4 54.7 89 55.1L89.3 59C104.1 59 118.8 59 133.6 59C136.4 59 139.3 58.9 142.1 58.9C142.4 58.9 142.4 58.3 142 58.3Z" fill="#004F74"/>
<path d="M84.4002 54.1C81.8002 55.7 79.2002 57.1 76.2002 57.8L76.3002 59.1C79.9002 59.1 83.4002 59.1 87.0002 59.1L87.3002 55.2C86.2002 55 85.3002 54.6 84.4002 54.1Z" fill="#004F74"/>
<path d="M66.6002 48.2C66.6002 48.9 66.5002 49.6 66.3002 50.3C66.9002 50.5 67.5002 50.7 68.1002 50.8C69.5002 51 70.9002 50.8 72.2002 50.2L72.4002 46.2L67.2002 41.5C66.7002 41.1 66.7002 40.4 67.0002 40C67.2002 39.8 67.5002 39.7 67.7002 39.7C68.0002 39.7 68.2002 39.8 68.4002 40L72.5002 43.1L72.6002 39.9L70.0002 37.4C69.7002 37.1 69.6002 36.6 69.9002 36.2C70.1002 36 70.3002 35.9 70.6002 35.9C70.8002 35.9 71.0002 36 71.1002 36.1L72.8002 37.4L72.9002 35.5C72.9002 34.9 73.4002 34.4 74.1002 34.4C74.7002 34.4 75.3002 34.9 75.3002 35.5L75.5002 39.9L78.8002 37.4C79.0002 37.2 79.2002 37.2 79.5002 37.2C79.8002 37.2 80.0002 37.3 80.2002 37.5C80.5002 37.9 80.4002 38.5 80.0002 38.9L75.7002 42.8L76.0002 50.4C77.7002 51.1 79.7002 51.2 81.4002 50.6H81.5002C81.3002 49.9 81.2002 49.2 81.2002 48.5C81.2002 45.2 83.5002 42.4 86.6002 41.7C86.4002 40.3 86.0002 38.9 85.2002 37.7C86.9002 35.9 87.4002 33.1 86.3002 30.9C85.2002 28.7 82.7002 27.3 80.3002 27.6C79.7002 26 79.0002 24.8 78.0002 23.8C77.0002 22.8 75.8002 22.1 74.4002 21.9C72.8002 21.7 71.2002 22.3 70.0002 23.3C68.8002 24.3 67.9002 25.7 67.3002 27.2C64.9002 27 62.4002 28.5 61.4002 30.7C60.4002 32.9 60.9002 35.7 62.7002 37.4C62.7002 37.4 61.9002 38.8 61.8002 39C61.6002 39.6 61.4002 40.2 61.3002 40.8C61.3002 41 61.3002 41.1 61.2002 41.3C64.3002 42.2 66.6002 44.9 66.6002 48.2Z" fill="#004F74"/>
<path d="M72.7998 59C72.5998 59 72.3998 59 72.2998 59V59.1H75.7998V59C74.8998 59 73.9998 59 73.0998 59C72.9998 59.1 72.8998 59 72.7998 59Z" fill="#004F74"/>
<path d="M74.0998 49.1C73.6998 49.4 73.1998 49.7 72.6998 50L72.2998 58C72.5998 58.1 72.8998 58.1 73.0998 58.2C73.9998 58.2 74.7998 58.1 75.6998 57.9L75.3998 50C75.1998 49.9 74.9998 49.8 74.6998 49.6C74.4998 49.4 74.2998 49.3 74.0998 49.1Z" fill="#004F74"/>
<path d="M72.2998 58V59C72.4998 59 72.6998 59 72.7998 59C72.8998 59 72.8998 59.1 72.9998 59.1C73.8998 59.1 74.7998 59.1 75.6998 59.1L75.5998 57.9C74.7998 58.1 73.8998 58.2 72.9998 58.2C72.8998 58.1 72.5998 58.1 72.2998 58Z" fill="#004F74"/>
<path d="M79.6 38.3C79.8 38.1 79.9 37.8 79.7 37.6C79.6 37.5 79.5 37.5 79.4 37.5C79.3 37.5 79.1 37.5 79 37.6L75 40.7L74.8 35.4C74.8 35 74.5 34.7 74.1 34.7C73.7 34.7 73.4 35 73.4 35.4L73.3 38.3L70.8 36.5C70.7 36.4 70.7 36.4 70.6 36.4C70.5 36.4 70.4 36.4 70.3 36.5C70.2 36.7 70.2 36.9 70.3 37L73.2 39.7L73 44L68.2 40.3C68.1 40.2 67.9 40.1 67.8 40.1C67.7 40.1 67.5 40.2 67.4 40.3C67.2 40.5 67.3 40.9 67.5 41.1L72.9 46L72.7 50C73.2 49.8 73.7 49.5 74.1 49.1C74.3 49.3 74.5 49.4 74.8 49.6C75 49.7 75.2 49.9 75.5 50L75.2 42.4L79.6 38.3Z" fill="#004F74"/>
<path d="M59.1001 51.1L59.2001 49.4C59.2001 49.2 59.4001 49.1 59.6001 49.1C59.8001 49.1 60.0001 49.2 60.0001 49.4L60.2001 51.9C61.1001 52.5 62.1001 53.1 63.0001 53.7C64.3001 52.9 65.3001 51.6 65.8001 50.1C63.6001 49.1 62.0001 47.1 61.4001 44.7C61.2001 43.8 61.1001 42.9 61.1001 42C60.6001 41.9 60.1001 41.8 59.6001 41.8C56.1001 41.8 53.3001 44.6 53.1001 48C54.4001 48.6 55.6001 49.2 56.8001 49.8C57.7001 50.2 58.4001 50.7 59.1001 51.1Z" fill="#004F74"/>
<path d="M56.9002 49.8C55.7002 49.1 54.5002 48.5 53.2002 48C53.2002 48.1 53.2002 48.2 53.2002 48.3C53.2002 51.6 55.7002 54.3 58.9002 54.7L59.1002 51.2C58.4002 50.7 57.7002 50.2 56.9002 49.8Z" fill="#004F74"/>
<path d="M60.2998 51.9L60.4998 54.7C61.3998 54.6 62.2998 54.3 63.0998 53.8C62.1998 53.1 61.1998 52.5 60.2998 51.9Z" fill="#004F74"/>
<path d="M61.5 44.7C62.1 47.1 63.7 49.1 65.9 50.1C66.1 49.5 66.2 48.9 66.2 48.2C66.2 45.2 64.1 42.6 61.3 41.9C61.2 42.9 61.2 43.8 61.5 44.7Z" fill="#004F74"/>
<path d="M87.6002 49.4C87.6002 49.2 87.8002 49.1 88.0002 49.1C88.2002 49.1 88.4002 49.2 88.4002 49.4L88.5002 51.5C89.2002 51 90.0002 50.6 90.7002 50.2C91.9002 49.5 93.1002 48.9 94.4002 48.3C94.4002 44.7 91.5002 41.8 87.9002 41.8C87.4002 41.8 86.9002 41.9 86.4002 42C86.5002 43 86.4002 44 86.1002 44.9C85.5002 47.2 83.8002 49.1 81.7002 50.1C82.2002 51.7 83.3002 53 84.7002 53.9C85.5002 53.4 86.4002 52.8 87.2002 52.3L87.6002 49.4Z" fill="#004F74"/>
<path d="M87.3999 52.2C86.4999 52.8 85.6999 53.3 84.8999 53.8C85.5999 54.2 86.3999 54.5 87.2999 54.6L87.3999 52.2Z" fill="#004F74"/>
<path d="M88.6001 51.4L88.8001 54.6C92.0001 54.2 94.5001 51.5 94.5001 48.2C93.2001 48.8 92.0001 49.4 90.8001 50.1C90.1001 50.5 89.4001 51 88.6001 51.4Z" fill="#004F74"/>
<path d="M86.3001 44.8C86.6001 43.8 86.6001 42.9 86.6001 41.9C83.8001 42.6 81.6001 45.1 81.6001 48.2C81.6001 48.9 81.7001 49.5 81.9001 50.1C84.0001 49.1 85.6001 47.1 86.3001 44.8Z" fill="#004F74"/>
<path d="M49.1 31.5L49 19.6C46.4 24 47.8 29.3 48.6 31.6C48.6 31.6 48.6 31.6 48.7 31.6C48.8 31.5 48.9 31.5 49.1 31.5Z" fill="#004F74"/>
<path d="M49.6 31.6C50.4 29.2 51.7 23.9 49 19.6L49.1 31.5C49.3 31.5 49.4 31.5 49.6 31.6Z" fill="#004F74"/>
<path d="M50 33.9C51.7 35.8 55.5 39.5 60.6 39.4L50.3 33.5C50.2 33.7 50.1 33.8 50 33.9Z" fill="#004F74"/>
<path d="M60.5998 39.4C58.1998 34.9 52.9998 33.4 50.4998 33C50.4998 33.2 50.3998 33.4 50.2998 33.5L60.5998 39.4Z" fill="#004F74"/>
<path d="M47.7 33.3C47.7 33.2 47.7 33.1 47.6 33C45.1 33.5 39.9 35 37.5 39.5L47.8 33.6C47.8 33.4 47.8 33.4 47.7 33.3Z" fill="#004F74"/>
<path d="M47.8 33.5L37.5 39.4C42.6 39.5 46.4 35.8 48.1 33.9C48 33.8 47.9 33.7 47.8 33.5Z" fill="#004F74"/>
<path d="M49.5002 34.2C49.2002 34.3 48.9002 34.3 48.6002 34.2L48.2002 46.1C48.8002 46.3 49.3002 46.4 49.9002 46.6L49.5002 34.2Z" fill="#004F74"/>
<path d="M50.2998 58.5L49.8998 46.6C49.2998 46.4 48.7998 46.2 48.1998 46.1L47.7998 58.5H50.2998Z" fill="#004F74"/>
<path d="M49.5002 33.4V34.2C49.7002 34.1 49.8002 34.1 50.0002 33.9C49.4002 33.2 49.1002 32.8 49.1002 32.8C49.1002 32.8 48.8002 33.3 48.2002 33.9C48.3002 34 48.5002 34.1 48.6002 34.1V33.4H49.5002Z" fill="#004F74"/>
<path d="M49.0999 32.8C49.0999 32.8 48.8999 32.3 48.5999 31.6C47.9999 31.8 47.5999 32.4 47.6999 33C48.4999 32.8 49.0999 32.8 49.0999 32.8Z" fill="#004F74"/>
<path d="M50.5001 33C50.5001 32.8 50.5001 32.6 50.4001 32.4C50.3001 32 49.9001 31.7 49.6001 31.5C49.3001 32.3 49.1001 32.7 49.1001 32.7C49.2001 32.8 49.7001 32.9 50.5001 33Z" fill="#004F74"/>
<path d="M49.1001 32.8V31.5C49.0001 31.5 48.8001 31.5 48.7001 31.6C48.7001 31.6 48.7001 31.6 48.6001 31.6C48.9001 32.3 49.1001 32.8 49.1001 32.8Z" fill="#004F74"/>
<path d="M49.1001 31.5V32.8C49.1001 32.8 49.3001 32.3 49.6001 31.6C49.4001 31.5 49.3001 31.5 49.1001 31.5Z" fill="#004F74"/>
<path d="M50.3 33.5L49 32.8C49 32.8 49.3 33.3 49.9 33.9C50.1 33.8 50.2 33.7 50.3 33.5Z" fill="#004F74"/>
<path d="M49.1001 32.8L50.3001 33.5C50.4001 33.3 50.4001 33.2 50.5001 33C49.7001 32.9 49.2001 32.8 49.1001 32.8Z" fill="#004F74"/>
<path d="M47.8001 33.5L49.0001 32.8C49.0001 32.8 48.5001 32.8 47.6001 33C47.6001 33.1 47.6001 33.2 47.7001 33.3C47.8001 33.4 47.8001 33.4 47.8001 33.5Z" fill="#004F74"/>
<path d="M47.7998 33.5C47.8998 33.7 47.9998 33.8 48.0998 33.9C48.6998 33.2 48.9998 32.8 48.9998 32.8L47.7998 33.5Z" fill="#004F74"/>
<path d="M49.5001 34.2V33.4H48.6001V34.1C48.9001 34.3 49.2001 34.3 49.5001 34.2Z" fill="#004F74"/>
<path d="M98.8002 31.5L98.7002 19.6C96.1002 24 97.5002 29.3 98.3002 31.6C98.3002 31.6 98.3002 31.6 98.4002 31.6C98.5002 31.5 98.7002 31.5 98.8002 31.5Z" fill="#004F74"/>
<path d="M99.3002 31.6C100.1 29.2 101.4 23.9 98.7002 19.6L98.8002 31.5C99.0002 31.5 99.1002 31.5 99.3002 31.6Z" fill="#004F74"/>
<path d="M99.7002 33.9C101.4 35.8 105.2 39.5 110.3 39.4L100 33.5C100 33.7 99.8002 33.8 99.7002 33.9Z" fill="#004F74"/>
<path d="M110.3 39.4C107.9 34.9 102.7 33.4 100.2 33C100.2 33.2 100.1 33.4 100 33.5L110.3 39.4Z" fill="#004F74"/>
<path d="M97.4998 33.3C97.4998 33.2 97.4998 33.1 97.3998 33C94.8998 33.5 89.6998 35 87.2998 39.5L97.5998 33.6C97.4998 33.4 97.4998 33.4 97.4998 33.3Z" fill="#004F74"/>
<path d="M97.5998 33.5L87.2998 39.4C92.3998 39.5 96.1998 35.8 97.8998 33.9C97.7998 33.8 97.5998 33.7 97.5998 33.5Z" fill="#004F74"/>
<path d="M99.1999 34.2C98.8999 34.3 98.5999 34.3 98.2999 34.2L97.8999 46.9C98.4999 46.7 98.9999 46.5 99.5999 46.3L99.1999 34.2Z" fill="#004F74"/>
<path d="M100 58.5L99.6 46.2C99 46.4 98.4 46.6 97.9 46.8L97.5 58.5H100Z" fill="#004F74"/>
<path d="M100.2 33C100.2 32.8 100.2 32.6 100.1 32.4C99.9998 32 99.5998 31.7 99.2998 31.5C98.9998 32.3 98.7998 32.7 98.7998 32.7C98.8998 32.8 99.3998 32.9 100.2 33Z" fill="#004F74"/>
<path d="M99.1999 33.4V34.2C99.3999 34.1 99.4999 34.1 99.6999 33.9C99.0999 33.2 98.7999 32.8 98.7999 32.8C98.7999 32.8 98.4999 33.3 97.8999 33.9C97.9999 34 98.1999 34.1 98.2999 34.1V33.4H99.1999Z" fill="#004F74"/>
<path d="M98.8001 32.8C98.8001 32.8 98.6001 32.3 98.3001 31.6C97.7001 31.8 97.3001 32.4 97.4001 33C98.3001 32.8 98.8001 32.8 98.8001 32.8Z" fill="#004F74"/>
<path d="M98.7998 32.8V31.5C98.6998 31.5 98.4998 31.5 98.3998 31.6C98.3998 31.6 98.3998 31.6 98.2998 31.6C98.5998 32.3 98.7998 32.8 98.7998 32.8Z" fill="#004F74"/>
<path d="M98.7998 31.5V32.8C98.7998 32.8 98.9998 32.3 99.2998 31.6C99.0998 31.5 98.9998 31.5 98.7998 31.5Z" fill="#004F74"/>
<path d="M100 33.5L98.7002 32.8C98.7002 32.8 99.0002 33.3 99.6002 33.9C99.8002 33.8 100 33.7 100 33.5Z" fill="#004F74"/>
<path d="M98.7998 32.8L99.9998 33.5C100.1 33.3 100.1 33.2 100.2 33C99.3998 32.9 98.8998 32.8 98.7998 32.8Z" fill="#004F74"/>
<path d="M97.5999 33.5L98.7999 32.8C98.7999 32.8 98.2999 32.8 97.3999 33C97.3999 33.1 97.3999 33.2 97.4999 33.3C97.4999 33.4 97.4999 33.4 97.5999 33.5Z" fill="#004F74"/>
<path d="M97.6001 33.5C97.7001 33.7 97.8001 33.8 97.9001 33.9C98.5001 33.2 98.8001 32.8 98.8001 32.8L97.6001 33.5Z" fill="#004F74"/>
<path d="M99.1998 34.2V33.4H98.2998V34.1C98.5998 34.3 98.8998 34.3 99.1998 34.2Z" fill="#004F74"/>
</svg>
