<svg width="272" height="251" viewBox="0 0 272 251" fill="none" xmlns="http://www.w3.org/2000/svg">
<g clip-path="url(#clip0_1891:1684)">
<path d="M215.305 236.083C215.003 235.952 214.679 235.881 214.35 235.875H213.977C209.063 236.728 204.085 237.159 199.098 237.163C177.885 237.163 159.632 229.269 140.328 220.917C132.031 217.315 123.347 213.576 114.055 210.307C101.078 205.63 87.3986 203.208 73.6073 203.146C56.5691 203.106 39.753 207.017 24.4758 214.573C24.1514 214.762 23.8799 215.03 23.6865 215.352C23.4931 215.674 23.3841 216.04 23.3696 216.415C23.3618 216.727 23.4179 217.037 23.5344 217.327C23.6508 217.616 23.8251 217.878 24.0467 218.098C24.2682 218.317 24.5322 218.488 24.8224 218.602C25.1127 218.715 25.423 218.767 25.7342 218.756C31.9431 218.202 38.0966 217.897 44.0289 217.897C83.1349 217.897 108.44 230.086 125.2 238.147C129.155 240.058 132.571 241.706 135.71 242.994C147.862 248.127 160.895 250.846 174.083 251C188.579 251.072 202.835 247.297 215.401 240.058C215.783 239.829 216.083 239.485 216.259 239.075C216.508 238.537 216.537 237.924 216.341 237.365C216.144 236.806 215.738 236.346 215.208 236.083" fill="#00428E"/>
<path d="M269.788 185.944C269.289 185.937 268.802 186.098 268.405 186.401C266.275 188.036 264.044 189.534 261.726 190.888C258.774 192.588 255.701 194.065 252.53 195.307C250.442 196.264 248.277 197.042 246.059 197.634L244.966 196.595C236.987 188.991 217.13 166.456 204.284 120.832C206.364 101.051 206.826 81.1319 205.667 61.2748V61.2748C206.247 61.3718 206.842 61.4548 207.395 61.5934C209.24 61.9841 211.032 62.5933 212.733 63.4079C212.971 63.5182 213.231 63.575 213.493 63.5741C213.827 63.5742 214.154 63.4791 214.435 63.3001C214.717 63.121 214.942 62.8653 215.084 62.5629C215.253 62.1881 215.289 61.7666 215.186 61.3685C215.083 60.9703 214.846 60.6196 214.517 60.3746C212.762 59.0726 210.864 57.9758 208.861 57.1058C207.727 56.6072 206.427 56.2471 205.169 55.8316C204.961 54.2941 204.657 52.5213 204.228 50.5684C204.616 50.5684 205.017 50.5684 205.39 50.5684H206.317C208.204 50.5988 210.087 50.784 211.945 51.1223C213.81 51.4053 215.635 51.9122 217.379 52.6321C217.6 52.7146 217.834 52.7569 218.07 52.7568C218.414 52.7554 218.75 52.652 219.036 52.4598C219.321 52.2675 219.543 51.9949 219.675 51.6764C219.837 51.2941 219.862 50.8674 219.746 50.4685C219.63 50.0697 219.38 49.7233 219.038 49.488C217.228 48.2647 215.284 47.2517 213.244 46.4686C211.225 45.68 209.143 45.0593 207.022 44.6126C205.514 44.2941 203.966 44.1278 202.431 43.9339C202.223 43.2968 202.016 42.6597 201.781 42.0087C199.439 35.4281 194.81 29.9118 188.741 26.4683C187.662 25.7758 186.445 25.0002 186.362 24.8893C179.227 10.5679 161.735 0.595461 142.942 0.0552889C133.106 -0.38689 123.34 1.91472 114.733 6.70363C104.805 12.252 96.6534 20.5082 91.2247 30.5128C72.612 63.1308 37.5023 150.195 26.0111 180.999L23.2454 187.606C21.7243 188.714 21.7105 188.7 20.2586 189.877C14.9336 194.198 10.0638 199.052 5.72517 204.365C3.7831 206.735 1.96458 209.204 0.276871 211.761C0.0890215 212.077 -0.0200929 212.433 -0.0411915 212.8C-0.052284 213.101 -0.00309356 213.401 0.103471 213.683C0.210035 213.965 0.371842 214.222 0.57932 214.441C0.786798 214.659 1.03574 214.833 1.31154 214.953C1.58733 215.074 1.88439 215.137 2.18516 215.141C2.68657 215.149 3.17517 214.982 3.56798 214.67C5.90494 212.952 8.25572 211.318 10.565 209.808C15.8074 206.394 21.2778 203.344 26.9376 200.681C32.4531 198.101 38.1521 195.934 43.9877 194.199C49.6864 192.526 55.5076 191.303 61.3974 190.542C64.6193 190.127 67.4956 189.864 70.1506 189.753C72.1142 189.642 74.0778 189.6 76.0275 189.6H78.9176C84.7716 189.763 90.6073 190.332 96.3826 191.304C108.11 193.295 119.589 196.545 130.621 200.999C132.032 201.553 133.414 202.121 134.77 202.703L139.139 204.587C140.688 205.265 142.237 205.972 143.813 206.54C145.39 207.107 146.952 207.8 148.529 208.396C154.915 210.826 161.423 212.925 168.026 214.684C174.666 216.496 181.414 217.884 188.229 218.839C192.004 219.338 195.406 219.656 198.614 219.836C200.357 219.933 202.099 219.988 203.841 220.016H205.445C206.676 220.016 207.879 220.016 209.096 219.947C216.143 219.764 223.152 218.835 230.004 217.177C236.902 215.497 243.543 212.898 249.751 209.448C255.897 206.038 261.45 201.65 266.192 196.456C268.182 194.246 270.003 191.889 271.641 189.406C271.858 189.066 271.982 188.674 272 188.271C272.011 187.971 271.963 187.673 271.857 187.393C271.751 187.113 271.59 186.857 271.384 186.64C271.178 186.423 270.93 186.25 270.656 186.13C270.382 186.011 270.087 185.947 269.788 185.944" fill="#00428E"/>
<path d="M223.048 188.243C217.184 179.971 212.044 171.209 207.685 162.052C204.447 155.653 201.674 149.029 199.388 142.231C199.388 142.231 195.696 153.492 189.709 158.52C187.37 160.671 184.413 162.028 181.26 162.398C174.249 162.619 174.263 152.356 174.954 144.392C175.77 135.251 175.576 119.323 172.852 88.5328C171.382 89.1257 169.852 89.5576 168.289 89.8209C166.442 90.1615 164.567 90.3285 162.688 90.3195C162.204 90.3195 161.707 90.3195 161.236 90.3195C158.959 90.2124 156.696 89.9017 154.474 89.3915C154.243 89.3438 154.023 89.2506 153.828 89.1172C153.633 88.9838 153.467 88.8129 153.338 88.6145C153.209 88.4161 153.121 88.1941 153.079 87.9613C153.037 87.7285 153.041 87.4896 153.092 87.2585C153.179 86.8699 153.394 86.5218 153.702 86.2706C154.011 86.0193 154.395 85.8794 154.792 85.8735H156.521C158.019 85.8704 159.516 85.7687 161.001 85.5688C162.375 85.3744 163.734 85.0828 165.067 84.6962L166.588 84.2391L166.892 84.1422L168.192 83.6851C168.8 83.4358 169.132 83.2835 169.464 83.1311C169.796 82.9787 170.308 82.7156 170.626 82.5355C171.165 82.2308 171.442 82.0646 171.704 81.8845C171.967 81.7045 172.285 81.469 172.465 81.3167C172.866 80.9843 173.046 80.8318 173.225 80.6518L173.779 80.0424L174.041 79.71L174.29 79.3776L174.373 79.2391L174.456 79.1144C174.549 78.9678 174.632 78.8151 174.705 78.6573C175.313 77.4537 175.599 76.1127 175.535 74.7653C175.591 73.7938 175.453 72.8209 175.13 71.903C174.807 70.9852 174.306 70.1408 173.654 69.419C172.875 68.7143 171.919 68.2355 170.888 68.0339C170.132 67.8841 169.364 67.8099 168.593 67.8124C168.054 67.8124 167.666 67.8124 167.21 67.8124C167.21 67.8124 166.256 67.9093 165.938 67.9786H165.606C165.177 67.9786 164.749 68.117 164.32 68.2001C160.144 68.8992 156.036 69.9557 152.041 71.3581C150.658 71.829 149.275 72.2307 149.275 72.2307C142.278 108.893 141.891 130.542 142.154 142.051C142.347 149.96 142.485 155.459 139.969 158.063C139.29 158.728 138.482 159.246 137.594 159.584C136.707 159.922 135.759 160.074 134.811 160.029C132.819 160.029 126.749 158.298 124.287 154.281C112.603 135.154 116.184 84.3222 119.475 60.7624C118.333 60.7071 117.187 60.7768 116.06 60.9702C115.078 61.0925 114.104 61.2682 113.142 61.4965C111.308 61.8866 109.526 62.4909 107.832 63.2971C107.587 63.421 107.318 63.4874 107.044 63.491C106.708 63.4916 106.38 63.3952 106.098 63.2134C105.816 63.0316 105.592 62.772 105.454 62.466C105.289 62.0929 105.252 61.6757 105.35 61.2796C105.448 60.8835 105.674 60.5311 105.993 60.2777C107.758 58.9773 109.665 57.8807 111.676 57.0089C113.662 56.1399 115.715 55.4358 117.816 54.9036C119.199 54.5435 120.582 54.2526 121.964 54.0172L122.103 52.9645L122.421 51.0116C121.314 50.8316 120.747 50.7761 120.747 50.7761L119.918 50.693C118.338 50.5186 116.75 50.4308 115.161 50.4298H114.234C112.346 50.4593 110.464 50.6446 108.606 50.9839C106.782 51.3379 105.001 51.8906 103.296 52.6321C103.074 52.7316 102.834 52.7835 102.591 52.7845C102.244 52.7877 101.905 52.6865 101.616 52.4938C101.328 52.3012 101.104 52.026 100.973 51.7042C100.818 51.3196 100.797 50.8936 100.915 50.4959C101.033 50.0982 101.283 49.7525 101.623 49.5157C103.433 48.3 105.372 47.2874 107.403 46.4963C109.426 45.7171 111.507 45.0966 113.626 44.6403C115.738 44.1947 117.877 43.8847 120.028 43.7123C121.107 43.6154 122.199 43.5461 123.292 43.5184C123.831 43.5184 124.37 43.5184 124.951 43.5184H125.781C126.378 43.5008 126.975 43.5379 127.565 43.6292C129.473 44.0309 131.575 45.416 131.174 47.3412C131.174 47.3412 130.496 50.596 129.57 56.3994C129.501 56.9673 128.975 62.0366 132.045 64.7098C133.928 66.1181 136.257 66.7927 138.6 66.6074C141.918 66.6074 145.514 64.7929 150.271 63.1585C155.98 61.1418 161.974 60.0524 168.026 59.9314C171.717 60.0844 175.338 60.9992 178.66 62.6184C181.016 63.3584 183.478 63.7046 185.947 63.6433H186.431C188.49 63.8074 190.553 63.3797 192.377 62.4106C192.993 61.8893 193.464 61.2177 193.745 60.4607C194.026 59.7037 194.108 58.8869 193.981 58.0892C192.419 40.9838 187.385 39.1832 183.237 36.5239C182.397 37.9046 181.216 39.0448 179.808 39.8342L179.171 40.2774C178.462 40.8769 177.814 41.5449 177.236 42.2719C175.853 43.837 174.359 45.6099 172.603 45.6099C172.447 45.6232 172.289 45.6232 172.133 45.6099C170.478 45.1525 168.971 44.2691 167.763 43.0475C166.889 42.2674 165.939 41.5761 164.928 40.9838C163.868 40.4919 162.732 40.1828 161.568 40.0696C159.418 39.9858 157.377 39.1018 155.843 37.5904C155.49 37.2848 155.214 36.8993 155.038 36.4658C154.863 36.0323 154.793 35.5633 154.834 35.0973C155.014 34.1555 155.899 33.2829 157.461 32.5349C159.47 31.672 161.579 31.067 163.739 30.7344C165.966 30.329 168.224 30.1205 170.487 30.1111C172.597 30.0984 174.7 30.3403 176.752 30.8313C176.67 30.7291 176.6 30.6175 176.544 30.4989V30.4989C171.22 19.7232 157.309 12.05 142.596 11.6206H141.213C124.619 11.6206 109.975 20.6512 101.042 36.3716C83.6603 66.8428 51.8971 145.182 39.2305 178.312C43.9823 176.026 48.9296 174.171 54.0127 172.772C57.4128 171.801 60.8606 171.005 64.3424 170.39C67.8824 169.753 71.4224 169.282 74.8656 169.005C77.977 168.755 81.1713 168.631 84.3656 168.631C88.196 168.631 92.137 168.811 96.0504 169.185C103.047 169.868 109.981 171.085 116.793 172.827C123.487 174.496 130.064 176.601 136.484 179.129C138.102 179.78 139.678 180.445 141.255 181.138L143.647 182.19L145.804 183.188L150.036 185.057L154.281 186.886C160.116 189.337 165.896 191.553 171.455 193.465C177.402 195.515 183.251 197.246 188.851 198.617C191.741 199.337 194.618 200.002 197.632 200.529C199.112 200.792 200.564 201.041 202.043 201.263C203.523 201.484 204.989 201.692 206.468 201.872C210.736 202.379 215.03 202.638 219.328 202.648C220.946 202.648 222.55 202.648 224.168 202.523C227.482 202.364 230.783 202.013 234.055 201.47C230.043 197.367 226.371 192.944 223.076 188.243H223.048ZM125.2 27.2025C125.384 26.1875 125.885 25.2572 126.631 24.5454C127.376 23.8336 128.328 23.377 129.349 23.2413C130.122 23.0459 130.916 22.9481 131.713 22.9504C134.194 23.0213 136.608 23.7683 138.696 25.111C139.969 25.9005 143.329 27.8812 142.845 29.8895C142.458 31.4546 140.273 33.3106 138.918 34.0447C137.401 34.9045 135.682 35.3443 133.94 35.3189C132.579 35.2493 131.247 34.9069 130.021 34.3122C128.796 33.7174 127.702 32.8823 126.804 31.8563C126.212 31.2374 125.76 30.4972 125.481 29.6865C125.201 28.8759 125.101 28.0142 125.186 27.1609" fill="#FFD900"/>
<path d="M134.092 142.564C134.261 145.545 134.229 148.534 133.995 151.511C133.718 151.511 132.972 151.511 131.948 150.223C123.831 140.528 124.177 97.9512 126.873 70.8318C129.976 73.1921 133.809 74.3835 137.701 74.1975C138.494 74.2038 139.286 74.1342 140.066 73.9897C133.387 109.821 133.884 131.109 134.147 142.55" fill="white"/>
<path d="M184.288 150.39C183.853 150.854 183.344 151.243 182.781 151.539C182.792 149.313 182.926 147.089 183.182 144.877C184.108 134.461 186.03 112.841 181.246 71.9814C182.866 72.2671 184.509 72.4108 186.155 72.4108C189.874 72.4108 192.958 71.7183 194.728 70.3748C195.931 102.425 192.294 142.135 184.288 150.39" fill="white"/>
</g>
<defs>
<clipPath id="clip0_1891:1684">
<rect width="272" height="251" fill="white"/>
</clipPath>
</defs>
</svg>
