<svg width="805" height="155" viewBox="0 0 805 155" fill="none" xmlns="http://www.w3.org/2000/svg">
<path d="M179.7 94.1L209.4 73.1L179.7 52.2" stroke="#004F74"/>
<path d="M209.4 73.1001H152.5" stroke="#004F74"/>
<path d="M398.3 94.1L428 73.1L398.3 52.2" stroke="#004F74"/>
<path d="M428 73.1001H371" stroke="#004F74"/>
<path d="M614.4 94.1L644.1 73.1L614.4 52.2" stroke="#004F74"/>
<path d="M644.101 73.1001H587.101" stroke="#004F74"/>
<path d="M88.6004 129.4C87.9004 128.4 87.2004 127.3 86.8004 126.1C86.5004 125.1 86.4004 124 86.4004 123C86.3004 120.2 86.3004 110.6 86.4004 107.8C86.5004 106.3 86.6004 104.8 87.2004 103.4C88.0004 101.5 89.5004 99.9997 91.3004 98.8997C93.1004 97.7997 99.8004 95.4998 101.8 94.9998L97.2004 92.4998C93.4004 94.3998 89.4004 95.8998 85.5004 97.4998C83.9004 98.0998 84.6004 95.0997 83.3004 95.2997L68.6004 97.2997L68.3004 97.9998C68.1004 98.5998 67.4004 98.7997 66.9004 98.3997C65.4004 97.3997 63.8004 96.5997 62.1004 96.1997L57.4004 96.5997C59.4004 97.0997 61.4004 97.7997 63.1004 98.8997C64.9004 99.9997 66.4004 101.5 67.2004 103.4C67.8004 104.8 67.9004 106.3 68.0004 107.8C68.1004 110.6 68.1004 120.2 68.0004 123C68.0004 124.1 67.9004 125.1 67.6004 126.1C67.2004 127.3 66.5004 128.3 65.8004 129.4H88.6004V129.4Z" fill="#004F74"/>
<path d="M88.6004 129.4C87.9004 128.4 87.2004 127.3 86.8004 126.1C86.5004 125.1 86.4004 124 86.4004 123C86.3004 120.2 86.3004 110.6 86.4004 107.8C86.5004 106.3 86.6004 104.8 87.2004 103.4C88.0004 101.5 89.5004 99.9997 91.3004 98.8997C93.1004 97.7997 99.8004 95.4998 101.8 94.9998L97.2004 92.4998C93.4004 94.3998 89.4004 95.8998 85.5004 97.4998C83.9004 98.0998 84.6004 95.0997 83.3004 95.2997L68.6004 97.2997L68.3004 97.9998C68.1004 98.5998 67.4004 98.7997 66.9004 98.3997C65.4004 97.3997 63.8004 96.5997 62.1004 96.1997L57.4004 96.5997C59.4004 97.0997 61.4004 97.7997 63.1004 98.8997C64.9004 99.9997 66.4004 101.5 67.2004 103.4C67.8004 104.8 67.9004 106.3 68.0004 107.8C68.1004 110.6 68.1004 120.2 68.0004 123C68.0004 124.1 67.9004 125.1 67.6004 126.1C67.2004 127.3 66.5004 128.3 65.8004 129.4H88.6004V129.4Z" fill="url(#paint0_linear_422_1761)"/>
<path d="M72.9998 104.8C72.9998 104.8 72.9998 104.7 72.9998 104.8C72.5998 102.7 71.4998 100.6 70.0998 99.0996C69.5998 98.4996 68.9998 97.9996 68.2998 97.5996L68.1998 97.8996C67.9998 98.4996 67.2998 98.6996 66.7998 98.2996C66.5998 98.1996 66.3998 97.9996 66.1998 97.8996C65.9998 97.7996 65.7998 97.5996 65.5998 97.4996C64.4998 96.8996 63.2998 96.3996 61.9998 96.0996L57.2998 96.4996C59.2998 96.9996 61.2998 97.6996 62.9998 98.7996C64.7998 99.8996 66.2998 101.4 67.0998 103.3C67.6998 104.7 67.7998 106.2 67.8998 107.7C67.9998 110.5 67.9998 120.1 67.8998 122.9C67.8998 124 67.7998 125 67.4998 126C67.0998 127.2 66.3998 128.2 65.6998 129.3H72.6998C73.0998 128.5 73.3998 127.6 73.5998 126.7C73.8998 125.2 73.8998 123.7 73.7998 122.1C73.5998 117.2 73.4998 112.2 73.2998 107.3C73.1998 106.5 73.0998 105.6 72.9998 104.8Z" fill="#003C60"/>
<path d="M115.5 49.9998C113.8 47.4998 111.4 45.6997 108.5 44.7997C107.1 44.2997 105.6 44.0997 104.2 44.0997C103.9 44.0997 103.3 44.1998 103.2 43.9998C103 43.7998 102.9 43.3997 102.8 43.0997C102.5 42.4997 102.1 41.9997 101.7 41.5997C99.9002 39.6997 97.2002 38.6997 94.7002 38.2997C91.9002 37.8997 88.6002 38.1997 86.4002 40.1997C85.0002 38.8997 83.1002 38.4998 81.2002 38.4998C79.1002 38.4998 77.0002 38.8997 75.1002 39.6997C74.2002 40.0997 73.3002 40.5997 72.5002 41.1997C72.1002 41.4997 71.8002 41.7997 71.4002 42.1997C71.1002 42.5997 70.7002 42.9997 70.5002 43.3997C70.3002 43.6997 70.3002 44.1998 70.3002 44.4998C69.6002 49.2998 68.9002 54.0997 68.1002 58.8997C67.9002 60.3997 67.6002 61.8998 67.4002 63.4998C67.3002 63.8998 67.6002 64.1997 68.0002 64.1997C69.4002 64.2997 70.8002 64.4997 72.2002 64.5997C75.6002 64.8997 79.0002 65.2997 82.4002 65.5997C86.5002 65.9997 90.6002 66.3997 94.7002 66.8997C98.3002 67.2997 101.8 67.5998 105.4 67.9998C106.6 68.0998 107.7 68.1997 108.9 68.3997C109.4 68.4997 110 68.5997 110.6 68.5997H110.7C110.9 68.5997 111.1 68.4997 111.2 68.2997C112.9 65.8997 114.6 63.4998 116.3 60.9998C116.5 60.6998 116.8 60.2998 117 59.9998C117.2 59.6998 117.1 59.3997 116.9 59.1997L117.7 58.3997C117.8 58.4997 118.1 58.3997 118.1 58.1997C117.9 55.4997 117.1 52.4998 115.5 49.9998Z" fill="#007754"/>
<path d="M86.9 56.8996C85.9 51.8996 81.8 47.8996 76.8 46.8996C75.4 46.5996 74 46.5996 72.7 46.6996C71.7 43.9996 69.5 41.8996 66.9 40.6996C63.9 39.3996 60.5 39.4996 57.5 40.6996C55.9 41.2996 54.4 42.2996 53 43.4996C50.8 42.3996 48.3 42.0996 45.9 42.6996C43.6 43.2996 41.6 44.6996 40.2 46.4996C39.5 47.3996 39 48.4996 38.6 49.5996C35.8 49.7996 33.3 51.3996 31.6 53.6996C30.7 54.9996 30 56.3996 29.6 57.8996C29.4 58.5996 29.2 59.3996 29.1 60.1996C29.1 60.5996 29 60.8996 29 61.2996C29.1 62.3996 29.3 63.4996 29.4 64.5996C29.6 66.3996 29.8 68.0996 30 69.8996C30.1 70.9996 30.3 72.0996 30.4 73.1996C30.4 73.5996 30.7 73.7996 31.1 73.6996C32.9 73.3996 34.7 72.9996 36.5 72.6996C40.8 71.8996 45.1 71.0996 49.4 70.1996C54.6 69.1996 59.8 68.1996 65 67.1996C69.5 66.2996 74 65.4996 78.5 64.5996C80 64.2996 81.4 63.9996 82.9 63.7996C83.6 63.6996 84.3 63.5996 85 63.3996H85.1C85.3 63.3996 85.4 63.1996 85.5 62.9996C86.1 61.1996 86.7 59.2996 87.3 57.4996C87.5 57.1996 87.2 56.9996 86.9 56.8996Z" fill="#008278"/>
<path d="M122.2 66.7998C122.2 66.4998 122.1 66.1998 122.1 65.9998C122.1 65.9998 122.1 65.8998 122.1 65.7998C122.1 65.4998 121.9 65.3998 121.7 65.2998C121 62.6998 119.6 60.3998 117.6 58.4998C115.5 56.5998 112.8 55.0998 110 54.8998C108.5 54.7998 107.1 55.0998 105.9 55.9998C103.9 54.3998 101.5 53.3998 98.8998 53.2998C96.3998 53.1998 93.9998 54.0997 92.1998 55.6997C91.3998 56.3997 90.6998 57.2998 90.1998 58.2998C86.8998 55.9998 82.3998 56.0997 78.9998 58.1997C78.0998 58.6997 77.2998 59.3997 76.4998 60.1997C76.1998 60.4997 75.7998 60.8998 75.4998 61.2998C75.3998 61.3998 75.2998 61.5997 75.2998 61.6997C75.2998 62.0997 75.2998 62.5998 75.2998 63.0998C75.3998 67.7998 75.4998 72.4997 75.5998 77.1997C75.5998 78.5997 75.6998 80.0998 75.6998 81.4998C75.6998 81.8998 76.0998 82.0998 76.3998 82.0998C77.8998 81.8998 79.4998 81.6998 80.9998 81.4998C84.6998 80.9998 88.2998 80.4998 92.0998 79.9998C96.5998 79.3998 101 78.7998 105.5 78.0998C109.4 77.5998 113.2 76.9998 117.1 76.4998C118.4 76.2998 119.6 76.0998 120.9 75.9998C121.5 75.8998 122.1 75.8997 122.7 75.6997H122.8C123 75.6997 123.3 75.3998 123.2 75.0998C122.8 72.2998 122.6 69.5998 122.2 66.7998Z" fill="#009B4C"/>
<path d="M39.4004 62.7998C39.4004 62.8998 39.4004 62.9998 39.4004 63.0998H39.5004C39.5004 62.9998 39.5004 62.8998 39.4004 62.7998C39.4004 62.7998 39.5004 62.7998 39.4004 62.7998Z" fill="#29A8DF"/>
<path d="M82.8 71.9999C82.5 66.6999 78.9 61.6998 73.5 60.5998C72.2 60.2998 70.8 60.2998 69.4 60.5998C68.3 57.9998 66.2 55.8998 63.6 54.7998C60.5 53.4998 56.8 53.5998 53.9 55.2998C52.6 55.9998 51.6 57.0998 51 58.3998C48.9 57.5998 46.6 57.4998 44.4 58.2998C42.3 58.9998 40.5 60.4998 39.3 62.3998C39.1 62.7998 38.7 63.2998 38.8 63.6998C38.8 63.7998 38.9 63.8999 38.9 63.9999C39.1 64.4999 39.3 64.8998 39.4 65.3998C39.9 66.6998 40.4 67.8998 40.9 69.1998C41 69.4998 41.1 69.7999 41.2 69.9999C41.3 70.1999 41.5 70.3999 41.7 70.4999C42.3 70.8999 42.9 71.3998 43.5 71.7998C45.7 73.3998 47.8 74.9999 50 76.4999C51.6 77.6999 53.2 78.8999 54.8 79.9999C55.1 80.1999 55.3 80.1998 55.7 80.1998C56.5 80.0998 57.3 80.0999 58.2 79.9999C60.9 79.7999 63.6 79.5998 66.3 79.3998C68.3 79.2998 70.2 79.0999 72.2 78.9999C72.6 78.9999 72.9 78.7998 73.3 78.5998C74.2 78.0998 75.2 77.4999 76.1 76.9999C78.2 75.7999 80.4 74.5998 82.4 73.2998C82.5 73.1998 82.6 73.1998 82.7 73.0998C82.8 72.9998 82.8 72.9999 82.8 72.9999C83.3 72.6999 83.1 72.1999 82.8 71.9999Z" fill="#009D9B"/>
<path d="M58.2 76.7998C58.1 76.4998 58 76.0998 57.8 75.7998C57.3 74.5998 56.6 73.3997 55.8 72.3997C55.4 71.8997 55 71.3997 54.5 70.8997C51.6 67.9997 47.1 66.2998 43.2 67.9998C42.1 65.2998 40.1 63.0997 37.5 61.8997C34.7 60.5997 31.5 60.4998 28.6 61.5998C27 62.1998 25.5 63.1998 24.3 64.4998C24.3 64.4998 24.3 64.4998 24.3 64.5998C21.7 64.5998 19.3 66.3998 18.2 68.7998C17.1 71.1998 17.2 73.9998 18.4 76.2998C14.5 77.0998 11.4 81.0998 11.3 85.0998C11.2 89.2998 14.6 92.7998 18.5 93.5998C21 94.0998 23.5 93.7998 25.8 92.7998C25.9 92.7998 25.9 92.6998 25.9 92.5998C26.5 93.1998 27.1 93.8997 27.7 94.3997C28.6 95.0997 29.6 95.3998 30.8 95.4998C33.2 95.7998 35.7 95.4997 37.9 94.3997C38.5 94.0997 39 93.7998 39.6 93.4998C39.8 93.2998 40.1 93.1998 40.3 92.9998C40.5 92.7998 40.8 92.4997 41 92.3997C41.2 92.2997 41.6 92.5998 41.9 92.7998C42.2 92.9998 42.5 93.0998 42.8 93.2998C43.4 93.5998 44 93.7997 44.6 93.8997C47.1 94.5997 49.8 94.4997 52.2 93.6997C52.5 93.5997 52.8 93.4997 53 93.1997C53 93.0997 53 93.0998 53.1 92.9998C53.2 92.6998 53.3 92.3998 53.4 91.9998C53.8 90.7998 54.2 89.5998 54.6 88.4998C55.6 85.5998 56.6 82.7997 57.6 79.8997C57.9 79.1997 58.1 78.3997 58.4 77.6997V77.5998C58.5 77.3998 58.3 77.0998 58.2 76.7998Z" fill="#1EC38C"/>
<path d="M134.2 78.4997C133.9 76.4997 133.1 74.5997 131.9 72.9997C130 70.5997 127 69.1996 123.9 69.0996C123.1 69.0996 122.3 69.0996 121.6 69.2996C120.3 66.7996 118.1 64.7996 115.4 63.7996C112.3 62.5996 108.7 62.9996 105.8 64.6996C104.3 65.4996 102.9 66.6996 102.3 68.2996C99.8003 67.8996 97.2003 68.4997 95.1003 69.9997C94.1003 70.6997 93.3003 71.5996 92.6003 72.6996C92.3003 73.1996 91.7003 73.8997 91.9003 74.4997C92.4003 76.3997 93.0003 78.1996 93.5003 80.0996C94.4003 82.9996 95.2003 85.9996 96.1003 88.8996C96.4003 89.9996 96.7003 90.9996 97.0003 92.0996C97.1003 92.5996 97.2003 93.2996 97.6003 93.5996C102 96.5996 108 97.7996 112.8 95.0996C113.2 94.8996 113.6 94.5996 114 94.2996C115.5 95.9996 117.5 97.1996 119.7 97.7996C122.3 98.4996 125 98.1996 127.5 97.2996C128.4 96.9996 129.2 96.5996 130 96.0996C130.1 96.0996 130.2 96.0996 130.2 96.1996C131.8 96.4996 133.4 96.4996 135 96.1996C138 95.5996 140.8 93.7996 141.7 90.6996C143.3 85.5996 139.8 78.7997 134.2 78.4997Z" fill="#1EC38C"/>
<path d="M108.6 80.1996C106.2 76.7996 101.8 74.9996 97.7002 75.4996C94.5002 72.7996 90.3002 71.3996 86.1002 72.6996C85.7002 72.7996 85.4002 72.8996 85.0002 73.0996C84.8002 73.1996 84.6002 73.2996 84.4002 73.3996C84.3002 73.3996 84.2002 73.4996 84.2002 73.4996C84.1002 73.4996 84.1002 73.5996 84.1002 73.4996C84.0002 73.3996 83.8002 73.1996 83.7002 73.0996C83.6002 72.9996 83.5002 72.7996 83.3002 72.6996C83.0002 72.3996 82.7002 72.1996 82.4002 71.8996C81.2002 70.8996 79.9002 70.1996 78.4002 69.6996C75.6002 68.6996 72.4002 68.5996 69.5002 69.6996C66.5002 70.7996 63.9002 72.9996 62.4002 75.7996C59.9002 75.2996 57.1002 75.6996 54.9002 77.0996C52.8002 78.3996 51.2002 80.4996 50.5002 82.7996C48.4002 83.0996 46.5002 84.1996 45.3002 85.9996C44.1002 87.8996 44.0002 90.2996 45.0002 92.2996C47.2002 96.4996 52.7002 97.2996 57.0002 97.1996C59.3002 97.1996 61.7002 96.6996 63.6002 95.2996C67.2002 98.4996 72.3002 99.5996 76.8002 97.7996C78.1002 97.2996 79.2002 96.5996 80.3002 95.6996C82.3002 96.6996 84.7002 97.0996 86.9002 96.6996C89.1002 96.3996 91.1002 95.2996 92.7002 93.7996C96.2002 95.5996 100.3 95.8996 104.1 94.3996C106.7 93.3996 109.2 91.5996 110 88.6996C110.8 85.7996 110.3 82.5996 108.6 80.1996Z" fill="#30D9A1"/>
<path d="M144.4 140H9.5C4.8 140 1 136.2 1 131.5V22.2998C1 17.5998 4.8 13.7998 9.5 13.7998H144.4C149.1 13.7998 152.9 17.5998 152.9 22.2998V131.5C152.9 136.2 149.1 140 144.4 140Z" stroke="#004F74" stroke-width="0.9755"/>
<path fill-rule="evenodd" clip-rule="evenodd" d="M306.715 69.6515C306.036 70.2074 300.062 66.026 305.163 64.1183C306.05 63.8171 307.161 63.6161 308.489 63.5926C317.079 63.4358 341.76 62.1554 347.39 78.3843C352.905 94.2119 351.745 112.881 335.602 120.002C334.051 120.705 332.166 115.372 333.308 114.862C346.681 108.947 346.6 93.3493 342.058 80.2689C340.428 75.5075 336.383 73.0776 331.938 71.543C323.494 68.6744 313.383 69.2252 308.544 69.2883C307.688 69.2808 307.063 69.2964 306.715 69.6515Z" fill="#FFC84F"/>
<path fill-rule="evenodd" clip-rule="evenodd" d="M292.841 78.2452C293.148 74.3785 296.456 64.6532 308.488 63.5925L307.566 78.3105C307.489 78.3029 292.456 82.1042 292.841 78.2452Z" fill="#F4901E"/>
<path fill-rule="evenodd" clip-rule="evenodd" d="M290.992 117.892L268.424 85.4761L272.127 82.7275L295.788 103.404L290.992 117.892Z" fill="#F4901E"/>
<path fill-rule="evenodd" clip-rule="evenodd" d="M274.127 82.5802C274.212 84.2809 273.48 85.863 272.197 86.8782C270.914 87.8934 269.209 88.2574 267.623 87.8055C264.237 86.8557 260.38 85.749 257.786 85.0252C257.208 84.8452 256.698 84.3434 256.599 83.7612C256.457 83.1138 256.702 82.4933 257.181 82.091C260.77 79.214 267.316 74.0539 270.905 71.1769C271.384 70.7746 272.073 70.698 272.629 70.9852C273.184 71.2725 273.629 71.8164 273.663 72.4408C273.713 75.0877 273.916 79.1136 274.127 82.5802Z" fill="#FFC84F"/>
<path d="M333.163 81.7119C333.053 79.8015 331.457 78.3128 329.533 78.3109C319.853 78.2953 292.796 78.2565 292.796 78.2565C292.796 78.2565 289.174 116.39 287.977 128.997C287.877 130 288.194 131.045 288.899 131.812C289.604 132.578 290.585 132.993 291.604 133.031C300.801 133.062 323.408 133.1 332.546 133.125C333.571 133.1 334.514 132.688 335.184 131.995C335.861 131.239 336.259 130.266 336.18 129.245C335.526 118.923 333.761 91.3953 333.163 81.7119Z" fill="#FFC84F"/>
<path d="M245.801 56.8997C242.701 59.8997 243.901 64.1998 247.201 66.7998C251.501 70.1998 256.401 67.0997 260.801 72.6997C260.801 72.6997 260.101 62.4997 256.401 58.1997C253.001 54.1997 248.501 54.1997 245.801 56.8997Z" fill="#86D2CD"/>
<path d="M230.5 87.0998C232.6 92.4998 238.5 93.3997 243.6 90.6997C250.2 87.1997 248.9 79.3998 258.2 77.0998C258.2 77.0998 245.1 72.4998 237.9 74.7998C231.1 76.7998 228.7 82.2998 230.5 87.0998Z" fill="#86D2CD"/>
<path d="M265.701 40.3997C259.901 41.1997 257.701 46.6997 259.101 52.1997C260.901 59.3997 268.801 60.0997 268.801 69.5997C268.801 69.5997 276.401 57.9997 276.001 50.4997C275.601 43.3997 270.801 39.6997 265.701 40.3997Z" fill="#86D2CD"/>
<path d="M362.5 140H227.5C222.8 140 219 136.2 219 131.5V22.2998C219 17.5998 222.8 13.7998 227.5 13.7998H362.4C367.1 13.7998 370.9 17.5998 370.9 22.2998V131.5C371 136.2 367.2 140 362.5 140Z" stroke="#004F74" stroke-width="0.9755"/>
<path d="M505.4 43.5996C505.4 43.5996 506.4 49.8996 489.1 59.7996C489.1 59.7996 486.9 48.7996 491.2 45.0996C495.5 41.3996 497.3 37.4996 499 38.1996C500.6 38.8996 504.4 40.2996 505.4 43.5996Z" fill="#52C9D1"/>
<path d="M487.9 59.9997C487.9 59.9997 483.9 32.4997 496.1 35.5997C505.2 37.8997 505.5 43.5997 505.5 43.5997C505.5 43.5997 503.7 37.8997 498.8 42.5997C495.1 46.0997 490.7 54.8996 489.2 59.8996L487.9 59.9997Z" fill="#7CDEDE"/>
<path d="M463.2 68.2998C463.2 68.2998 468.2 72.2998 485.3 61.9998C485.3 61.9998 476.8 54.6998 471.4 56.5998C466 58.4998 461.8 58.1998 461.6 59.9998C461.5 61.7998 460.8 65.7998 463.2 68.2998Z" fill="#52C9D1"/>
<path d="M486 61.0997C486 61.0997 464 44.1998 460.8 56.2998C458.4 65.3998 463.2 68.3997 463.2 68.3997C463.2 68.3997 459.1 63.9997 465.6 62.0997C470.5 60.5997 480.2 61.0997 485.4 62.1997L486 61.0997Z" fill="#7CDEDE"/>
<path d="M483.8 62.1997C484.5 63.3997 486.5 63.5997 488.2 62.6997C489.9 61.7997 490.7 59.8997 489.9 58.6997C489.2 57.4997 487.2 57.2997 485.5 58.1997C483.9 59.0997 483.1 60.8997 483.8 62.1997Z" fill="#52C9D1"/>
<path d="M483.8 62.1997C483.1 60.9997 483.9 59.1997 485.5 58.1997L488.1 62.6997C486.5 63.5997 484.6 63.3997 483.8 62.1997Z" fill="#52C9D1"/>
<path d="M464.6 86.8997C464.6 86.1997 465.2 85.5997 465.9 85.5997L527.2 85.1997C527.9 85.1997 528.5 85.7998 528.5 86.4998L528.7 129.3C528.7 130 528.1 130.6 527.4 130.6L466.1 131C465.4 131 464.8 130.4 464.8 129.7L464.6 86.8997Z" fill="#004F74"/>
<path d="M496.6 86.6997C496.6 85.9997 497.2 85.3997 497.9 85.3997L527.3 85.1997C528 85.1997 528.6 85.7998 528.6 86.4998L528.8 129.3C528.8 130 528.2 130.6 527.5 130.6L498.1 130.8C497.4 130.8 496.8 130.2 496.8 129.5L496.6 86.6997Z" fill="#004F74"/>
<path d="M460.2 78.0996C459.8 77.4996 460 76.6996 460.7 76.2996L513.6 45.2996C514.2 44.8996 515 45.0996 515.4 45.7996L519.1 52.0996C519.5 52.6996 519.3 53.4995 518.6 53.8995L465.7 84.8995C465.1 85.2995 464.3 85.0995 463.9 84.3995L460.2 78.0996Z" fill="#004F74"/>
<path d="M487.8 61.9997C487.4 61.3997 487.6 60.5997 488.3 60.1997L513.6 45.3997C514.2 44.9997 515 45.1997 515.4 45.8997L519.1 52.1997C519.5 52.7997 519.3 53.5997 518.6 53.9997L493.3 68.6997C492.7 69.0997 491.9 68.8997 491.5 68.1997L487.8 61.9997Z" fill="#004F74"/>
<path d="M487.183 60.8515L483.386 63.0735L488.385 71.6181L492.183 69.3961L487.183 60.8515Z" fill="#7CDEDE"/>
<path d="M490.984 58.6221L487.188 60.8455L492.19 69.3882L495.987 67.1649L490.984 58.6221Z" fill="#7CDEDE"/>
<path d="M500.986 85.3854L492.186 85.4338L492.435 130.834L501.235 130.785L500.986 85.3854Z" fill="#7CDEDE"/>
<path d="M500.989 85.3976L496.589 85.4211L496.832 130.821L501.232 130.798L500.989 85.3976Z" fill="#7CDEDE"/>
<path d="M531.7 58.0996L526.5 61.5996L520.6 59.2996L522.3 65.3996L518.3 70.2996L524.6 70.4996L528 75.7996L530.2 69.8996L536.3 68.2996L531.3 64.3996L531.7 58.0996Z" fill="#FCBA56"/>
<path d="M507.2 77.0997C508.2 76.5997 509.4 77.0997 509.9 78.0997C510.4 79.0997 509.9 80.2997 508.9 80.7997C507.9 81.2997 506.7 80.7997 506.2 79.7997C505.7 78.7997 506.2 77.5997 507.2 77.0997Z" fill="#52C9D1"/>
<path d="M538.8 44.1997C537.3 44.8997 536.7 46.5997 537.4 48.0997C538.1 49.5997 539.8 50.1998 541.3 49.4998C542.8 48.7998 543.4 47.0997 542.7 45.5997C542 44.0997 540.2 43.4997 538.8 44.1997Z" fill="#004F74"/>
<path d="M539.3 77.5997C537.6 78.3997 536.9 80.2998 537.7 81.9998C538.5 83.6998 540.4 84.3997 542.1 83.5997C543.8 82.7997 544.5 80.8997 543.7 79.1997C542.9 77.5997 540.9 76.7997 539.3 77.5997Z" fill="#FCBA56"/>
<path d="M555.7 53.1997L554.4 61.0997L547.2 64.3997L554.2 68.0997L555.2 75.9998L560.9 70.3997L568.6 71.8997L565.1 64.7997L569 57.8997L561.1 58.9998L555.7 53.1997Z" fill="#7CDEDE"/>
<path d="M578.593 140H443.505C438.802 140 435 136.2 435 131.5V22.2998C435 17.5998 438.802 13.7998 443.505 13.7998H578.493C583.196 13.7998 586.998 17.5998 586.998 22.2998V131.5C587.098 136.2 583.296 140 578.593 140Z" stroke="#004F74" stroke-width="0.9755"/>
<g clip-path="url(#clip0_422_1761)">
<path d="M683.72 75.9002C684.521 77.5002 698.029 88.9002 698.029 88.9002L704.533 79.8002C704.533 79.8002 697.329 73.7002 696.628 72.9002C696.628 72.9002 704.333 57.0001 708.636 49.5001C709.337 49.1001 711.338 47.3002 712.138 47.1002C713.339 46.9002 715.741 46.2002 716.241 45.8002C716.841 45.4002 718.042 44.6002 718.743 44.1002C719.443 43.6002 720.344 43.1002 720.644 42.8002C720.844 42.6002 721.444 42.4002 721.845 42.3002C722.445 42.1002 722.545 41.2002 721.945 40.9002C721.344 40.6002 720.544 40.9001 719.943 41.0001C718.442 41.4001 716.341 42.9002 716.341 42.7002C716.241 42.5002 718.643 38.9001 718.943 38.5001C719.143 38.1001 721.945 33.9002 722.245 32.9002C722.545 31.9002 721.945 31.6002 721.444 31.9002C721.044 32.2002 716.741 37.6002 716.741 37.6002C716.741 37.6002 716.241 38.3002 716.141 37.8002C716.041 37.3002 719.843 32.4001 720.344 31.5001C720.744 30.7001 720.644 29.9002 719.743 30.1002C718.643 30.3002 714.94 35.9002 714.94 35.9002C714.94 35.9002 714.44 36.6002 714.24 36.3002C714.04 36.0002 717.342 31.8002 717.442 31.3002C717.542 30.8002 717.142 30.2001 716.441 30.5001C715.541 30.9001 712.238 35.9002 712.238 35.9002C712.238 35.9002 711.838 36.2002 711.838 35.9002C711.738 35.6002 714.34 31.9002 714.34 31.3002C714.34 30.8002 713.839 30.8002 713.839 30.8002C712.839 30.6002 710.838 34.6002 709.337 36.2002C708.936 36.6002 706.535 40.4001 703.333 45.5001C699.33 51.1001 688.223 66.1002 688.223 66.1002C688.223 66.1002 682.919 74.3002 683.72 75.9002Z" fill="#FBD6B1"/>
<path d="M771.477 174.7C771.477 174.5 765.273 148.2 762.771 142.4C760.27 136.6 750.563 109.5 750.563 109.5L763.172 106.7C763.172 106.7 771.277 127.9 774.979 137.4C778.682 147 777.081 164.6 777.281 169.6C777.281 169.7 777.781 173.8 777.781 173.9C777.881 174.4 777.981 174.9 778.081 175C778.281 175.2 778.682 176.9 778.682 177.1C778.682 177.2 779.082 177.8 779.182 178.1C779.282 178.4 779.682 181.7 779.782 182.3C779.882 182.8 779.582 184.1 779.582 184.1L779.682 186.4C779.782 188.1 778.081 187.6 778.081 187.6C778.081 188.4 777.881 188.8 777.381 188.9C776.981 189 776.38 188.9 776.38 189C776.38 189.1 776.28 189.3 776.28 189.3C776.28 189.8 775.78 190.2 775.379 190.3C774.979 190.4 774.379 190.1 774.179 189.9C773.979 189.7 773.879 189.7 773.879 189.7C773.478 190 772.077 190 771.777 189.5C771.477 189 771.177 186.7 770.977 186.4C770.877 186.2 770.476 185.8 770.476 185.5C770.476 185.2 769.276 182.7 769.175 182.2C769.075 181.7 769.776 180.1 769.976 179.1C770.176 178.1 771.077 176.6 771.377 176.1C771.577 175.9 771.577 175.3 771.477 174.7Z" fill="#FBD6B1"/>
<path d="M702.832 77.6003C703.533 77.4003 722.145 88.8002 722.345 93.2002C722.545 97.6002 716.241 104.6 710.837 101.8C705.534 99.0003 694.627 87.6003 694.627 87.6003C694.627 87.6003 700.531 78.2003 702.832 77.6003Z" fill="#009D9B"/>
<path d="M735.054 84.9002C735.054 84.9002 745.76 84.2002 750.063 88.9002C754.266 93.5002 740.657 130.2 739.857 136.2C739.056 142.1 743.759 157.8 743.759 157.8C743.759 157.8 718.543 162.9 711.338 158.1C711.338 158.1 710.538 115.6 711.338 111.4C712.139 107.2 718.543 90.0002 720.144 88.3002C721.545 86.6002 735.054 84.9002 735.054 84.9002Z" fill="#50BFA5"/>
<path d="M755.466 125.3C755.466 125.3 741.557 108.6 739.056 102.5C736.554 96.3002 740.256 87.1002 746.16 86.4002C752.064 85.7002 766.774 113 766.774 113L755.466 125.3Z" fill="#009D9B"/>
<path d="M733.652 76.7001C733.652 76.7001 735.754 73.0001 737.555 71.2001C739.356 69.4001 741.858 64.2001 741.057 58.2001C740.357 52.2001 735.754 49.9001 733.152 49.2001C730.65 48.5001 721.244 48.5001 718.042 50.1001C714.84 51.6001 716.541 63.6001 716.541 63.6001L721.545 72.8001L733.652 76.7001Z" fill="#004F74"/>
<path d="M722.946 78.5002L721.845 88.8002C721.845 88.8002 721.545 91.7002 723.046 92.8002C725.547 94.8002 734.753 84.9002 734.753 84.9002L733.752 68.7002L722.946 78.5002Z" fill="#FBD6B1"/>
<path d="M733.952 73.5001C731.651 80.1001 725.647 83.3001 722.345 83.7001L722.945 78.4001L733.652 68.6001L733.952 73.5001Z" fill="#F4BD89"/>
<path d="M728.549 52.3001C723.746 50.4001 718.342 53.4001 717.341 58.4001C716.941 60.6001 716.441 63.3001 716.241 66.3001C715.74 73.5001 719.143 80.8001 722.445 80.9001C725.747 81.1001 735.053 76.8001 735.853 66.6001C736.454 60.3001 733.652 54.3001 728.549 52.3001Z" fill="#FBD6B1"/>
<path d="M733.552 67.3001C733.452 68.9001 734.452 70.2001 735.753 70.3001C737.054 70.4001 738.155 69.1 738.255 67.5C738.355 65.9 737.354 64.6 736.053 64.5C734.753 64.4 733.552 65.7001 733.552 67.3001Z" fill="#FBD6B1"/>
<path d="M736.054 64.5001C736.054 64.5001 736.755 61.1001 736.454 57.8001C736.154 54.5001 733.352 49.8001 730.05 49.1001C726.648 48.4001 718.843 49.7001 717.842 47.6001C716.842 45.5001 716.842 45.7001 716.441 45.3001C715.641 44.5001 710.938 47.7001 711.138 53.3001C711.338 58.9001 716.341 58.7001 717.242 58.9001C718.243 59.1001 726.948 55.4001 729.65 55.5001C732.352 55.7001 736.054 64.5001 736.054 64.5001Z" fill="#004F74"/>
<path d="M711.038 141.5C710.938 136.4 710.938 129.1 710.938 129.1C719.943 120.3 734.953 84.9001 734.953 84.9001C734.953 84.9001 740.256 84.6 744.859 86C745.96 86.3 728.149 134.5 711.038 141.5Z" fill="#FFC84F"/>
</g>
<path d="M795.593 139.8H660.505C655.802 139.8 652 136 652 131.3V22.1001C652 17.4001 655.802 13.6001 660.505 13.6001H795.493C800.196 13.6001 803.998 17.4001 803.998 22.1001V131.3C804.098 136 800.296 139.8 795.593 139.8Z" stroke="#004F74"/>
<path d="M77.4 26.1999C84.2483 26.1999 89.8 20.6483 89.8 13.7999C89.8 6.9516 84.2483 1.3999 77.4 1.3999C70.5517 1.3999 65 6.9516 65 13.7999C65 20.6483 70.5517 26.1999 77.4 26.1999Z" fill="#004F74"/>
<path d="M78.9574 6.99039V20.0813H77.3722V8.65232H77.2955L74.0994 10.7745V9.16368L77.3722 6.99039H78.9574Z" fill="white"/>
<path d="M295.4 24.8C302.248 24.8 307.8 19.2483 307.8 12.4C307.8 5.55163 302.248 0 295.4 0C288.552 0 283 5.55163 283 12.4C283 19.2483 288.552 24.8 295.4 24.8Z" fill="#004F74"/>
<path d="M291.355 18.7622V17.6116L295.676 12.8815C296.183 12.3275 296.601 11.846 296.929 11.4369C297.257 11.0236 297.5 10.6358 297.658 10.2736C297.82 9.90709 297.901 9.52357 297.901 9.123C297.901 8.66278 297.79 8.26434 297.568 7.92769C297.351 7.59104 297.053 7.3311 296.673 7.14786C296.294 6.96462 295.868 6.873 295.395 6.873C294.892 6.873 294.453 6.97741 294.078 7.18621C293.707 7.39076 293.42 7.6784 293.215 8.04914C293.015 8.41988 292.915 8.85454 292.915 9.35312H291.406C291.406 8.58607 291.583 7.91277 291.937 7.33323C292.29 6.75368 292.772 6.30198 293.381 5.97812C293.995 5.65425 294.683 5.49232 295.446 5.49232C296.213 5.49232 296.893 5.65425 297.485 5.97812C298.077 6.30198 298.542 6.73877 298.879 7.28849C299.215 7.8382 299.384 8.44971 299.384 9.123C299.384 9.60454 299.296 10.0754 299.121 10.5356C298.951 10.9916 298.653 11.5008 298.227 12.0633C297.805 12.6216 297.219 13.3034 296.469 14.1088L293.528 17.2537V17.356H299.614V18.7622H291.355Z" fill="white"/>
<path d="M511.4 24.8C518.248 24.8 523.8 19.2483 523.8 12.4C523.8 5.55163 518.248 0 511.4 0C504.552 0 499 5.55163 499 12.4C499 19.2483 504.552 24.8 511.4 24.8Z" fill="#004F74"/>
<path d="M511.778 18.9412C510.935 18.9412 510.183 18.7963 509.522 18.5065C508.866 18.2168 508.344 17.8141 507.956 17.2984C507.572 16.7785 507.364 16.1756 507.33 15.4895H508.94C508.974 15.9114 509.119 16.2757 509.375 16.5825C509.631 16.8851 509.965 17.1195 510.379 17.2856C510.792 17.4518 511.25 17.5349 511.753 17.5349C512.315 17.5349 512.814 17.4369 513.249 17.2409C513.683 17.0449 514.024 16.7722 514.271 16.4227C514.518 16.0733 514.642 15.6685 514.642 15.2082C514.642 14.7267 514.523 14.3027 514.284 13.9362C514.045 13.5655 513.696 13.2757 513.236 13.0669C512.776 12.8581 512.213 12.7537 511.548 12.7537H510.5V11.3474H511.548C512.068 11.3474 512.524 11.2537 512.916 11.0662C513.313 10.8787 513.621 10.6145 513.843 10.2736C514.069 9.93266 514.182 9.53209 514.182 9.07187C514.182 8.62868 514.084 8.24303 513.888 7.91491C513.692 7.58678 513.415 7.3311 513.057 7.14786C512.703 6.96462 512.286 6.873 511.804 6.873C511.352 6.873 510.926 6.9561 510.526 7.12229C510.129 7.28422 509.805 7.52073 509.554 7.83181C509.303 8.13863 509.166 8.50937 509.145 8.94402H507.611C507.636 8.25795 507.843 7.65709 508.231 7.14147C508.619 6.62158 509.126 6.21675 509.752 5.92698C510.383 5.63721 511.075 5.49232 511.83 5.49232C512.639 5.49232 513.334 5.65638 513.913 5.98451C514.493 6.30837 514.938 6.73664 515.249 7.26931C515.56 7.80198 515.716 8.37726 515.716 8.99516C515.716 9.73238 515.522 10.3609 515.134 10.8808C514.751 11.4007 514.229 11.7608 513.568 11.9611V12.0633C514.395 12.1997 515.04 12.5513 515.505 13.118C515.969 13.6805 516.202 14.3773 516.202 15.2082C516.202 15.9199 516.008 16.5591 515.62 17.1258C515.237 17.6883 514.712 18.1315 514.048 18.4554C513.383 18.7793 512.626 18.9412 511.778 18.9412Z" fill="white"/>
<path d="M728.4 24.8C735.248 24.8 740.8 19.2483 740.8 12.4C740.8 5.55163 735.248 0 728.4 0C721.552 0 716 5.55163 716 12.4C716 19.2483 721.552 24.8 728.4 24.8Z" fill="#004F74"/>
<path d="M723.048 16.0778V14.7738L728.801 5.67154H729.747V7.69143H729.108L724.761 14.5693V14.6715H732.509V16.0778H723.048ZM729.21 18.7625V15.6815V15.0742V5.67154H730.719V18.7625H729.21Z" fill="white"/>
<path d="M144.3 154.3H9.5C4.8 154.3 1 150.5 1 145.8V129.3H152.8V145.8C152.8 150.5 149 154.3 144.3 154.3Z" fill="#004F74" stroke="#004F74" stroke-width="0.9075"/>
<path d="M362.3 154.3H227.5C222.8 154.3 219 150.5 219 145.8V129.3H370.8V145.8C370.8 150.5 367 154.3 362.3 154.3Z" fill="#004F74" stroke="#004F74" stroke-width="0.9075"/>
<path d="M578.394 154.3H443.506C438.803 154.3 435 150.5 435 145.8V129.3H587V145.8C587 150.5 583.097 154.3 578.394 154.3Z" fill="#004F74" stroke="#004F74" stroke-width="0.9075"/>
<path d="M795.489 154.3H660.511C655.805 154.3 652 150.5 652 145.8V129.3H804V145.8C804 150.5 800.195 154.3 795.489 154.3Z" fill="#004F74" stroke="#004F74" stroke-width="0.9075"/>
<path d="M31.3459 140.379H28.6299V141.359H30.3519V145.335H31.3459V140.379ZM31.3459 144.915H30.4499C29.8059 145.531 29.0639 146.161 28.4619 146.623L29.0079 147.617C29.6799 146.987 30.3099 146.385 30.9119 145.783C31.7939 146.889 33.0679 147.393 34.9299 147.463C36.5259 147.519 39.5779 147.491 41.1739 147.421C41.2159 147.127 41.3839 146.651 41.5099 146.427C39.7879 146.539 36.4979 146.581 34.9159 146.511C33.2499 146.441 32.0039 145.965 31.3459 144.915ZM28.6999 135.717C29.5119 136.417 30.4219 137.425 30.7859 138.125L31.6679 137.523C31.2759 136.823 30.3379 135.857 29.5119 135.185L28.6999 135.717ZM32.3819 140.771V141.583H40.8799V140.771H32.3819ZM31.9339 142.927V143.753H41.3139V142.927H31.9339ZM34.4539 139.763V143.333H35.4619V139.763H34.4539ZM37.7579 139.763V143.333H38.7519V139.763H37.7579ZM32.7319 137.047V137.789H36.1199V135.409H32.1999V136.137H35.1959V137.047H32.7319ZM32.4379 137.047V138.517C32.4379 139.357 32.7179 139.567 33.7539 139.567C33.9639 139.567 35.2939 139.567 35.5179 139.567C36.2319 139.567 36.4979 139.329 36.5959 138.419C36.3439 138.377 35.9939 138.265 35.8259 138.125C35.7839 138.741 35.7139 138.825 35.3779 138.825C35.1119 138.825 34.0479 138.825 33.8519 138.825C33.4039 138.825 33.3339 138.769 33.3339 138.503V137.047H32.4379ZM37.3519 137.047V137.789H40.6839V135.409H36.7919V136.137H39.7739V137.047H37.3519ZM37.0439 137.047V138.503C37.0439 139.357 37.3379 139.567 38.4019 139.567C38.6259 139.567 40.0539 139.567 40.2779 139.567C41.0339 139.567 41.2999 139.329 41.3979 138.377C41.1459 138.321 40.7959 138.209 40.6139 138.083C40.5719 138.741 40.5019 138.825 40.1519 138.825C39.8719 138.825 38.7239 138.825 38.4999 138.825C38.0239 138.825 37.9399 138.769 37.9399 138.503V137.047H37.0439ZM37.5059 144.383C38.4719 144.887 39.5079 145.559 40.0679 146.077L41.1039 145.615C40.4319 145.097 39.2839 144.411 38.2619 143.921L37.5059 144.383ZM34.9439 143.893C34.3139 144.467 33.2639 144.999 32.3119 145.377C32.5359 145.517 32.9279 145.853 33.0819 146.035C34.0199 145.587 35.1539 144.901 35.8679 144.215L34.9439 143.893Z" fill="white"/>
<path d="M52.7239 136.179H54.1519V137.663H52.7239V136.179ZM50.4839 136.179H51.8839V137.663H50.4839V136.179ZM48.3139 136.179H49.6439V137.663H48.3139V136.179ZM47.4459 135.423V138.419H55.0339V135.423H47.4459ZM47.5999 139.287V140.085H54.7539V139.287H47.5999ZM46.8999 141.079V141.919H55.4539V141.079H46.8999ZM47.0399 143.249V144.075H55.2579V143.249H47.0399ZM47.3199 145.083V145.895H54.9499V145.083H47.3199ZM50.6239 138.223V141.415H51.6319V138.223H50.6239ZM50.6239 143.613V147.841H51.6319V143.613H50.6239ZM48.6499 142.045C48.8739 142.465 49.0839 143.039 49.1679 143.389L50.0779 143.151C49.9939 142.787 49.7419 142.241 49.5179 141.849L48.6499 142.045ZM52.8359 141.709C52.6959 142.115 52.4159 142.745 52.1919 143.165L52.9899 143.389C53.2279 143.025 53.5359 142.493 53.8159 141.975L52.8359 141.709ZM42.3779 142.115L42.6579 143.137C43.8479 142.759 45.3879 142.255 46.8439 141.751L46.7039 140.785C45.1079 141.303 43.4699 141.807 42.3779 142.115ZM42.5739 137.677V138.657H46.8299V137.677H42.5739ZM44.3379 134.863V146.511C44.3379 146.721 44.2539 146.763 44.0859 146.763C43.9179 146.777 43.3859 146.777 42.7699 146.763C42.9099 147.057 43.0359 147.491 43.0779 147.743C43.9599 147.743 44.5059 147.715 44.8279 147.547C45.1779 147.379 45.3179 147.099 45.3179 146.511V134.863H44.3379Z" fill="white"/>
<path d="M64.9599 135.913V147.085H65.9679V135.913H64.9599ZM61.4739 137.327V138.181H69.2299V137.327H61.4739ZM61.0959 146.581V147.449H69.4959V146.581H61.0959ZM61.8939 144.621V145.475H69.0199V144.621H61.8939ZM68.5719 135.031C66.9759 135.395 64.0639 135.619 61.7259 135.703C61.8239 135.927 61.9499 136.291 61.9639 136.515C64.3719 136.459 67.3399 136.235 69.2019 135.815L68.5719 135.031ZM62.9999 141.709H67.9839V142.843H62.9999V141.709ZM62.9999 139.917H67.9839V141.023H62.9999V139.917ZM62.0619 139.133V143.627H68.9639V139.133H62.0619ZM58.9679 136.011V147.701H59.9899V136.011H58.9679ZM56.6719 138.797V139.791H61.7539V138.797H56.6719ZM59.0239 139.175C58.5199 140.911 57.3999 143.095 56.3919 144.215C56.5739 144.453 56.8259 144.887 56.9239 145.181C58.0019 143.879 59.1219 141.429 59.6819 139.455L59.0239 139.175ZM61.0399 135.059C60.0179 135.535 58.1699 135.927 56.5879 136.193C56.7139 136.431 56.8539 136.767 56.9099 137.005C58.5339 136.781 60.4939 136.389 61.7819 135.871L61.0399 135.059ZM59.9479 140.603L59.4579 141.023C59.8919 141.513 60.9419 142.843 61.2779 143.417L61.8939 142.591C61.6139 142.241 60.2979 140.911 59.9479 140.603Z" fill="white"/>
<path d="M75.6139 136.333V137.257H83.4539V136.333H75.6139ZM76.1179 146.021V146.959H83.5099V146.021H76.1179ZM79.3659 134.863C79.3239 136.151 79.1839 137.845 79.0299 138.881L79.9679 139.007C80.1499 137.929 80.3319 136.263 80.4439 134.919L79.3659 134.863ZM75.6419 139.371V147.743H76.5939V139.371H75.6419ZM78.5959 141.135H81.7739V142.241H78.5959V141.135ZM78.5959 142.997H81.7739V144.117H78.5959V142.997ZM78.5959 139.287H81.7739V140.379H78.5959V139.287ZM77.6719 138.489V144.901H82.7259V138.489H77.6719ZM70.7139 137.887V138.881H75.2639V137.887H70.7139ZM72.6879 134.849V147.715H73.6539V134.849H72.6879ZM72.6599 138.475C72.2679 140.477 71.3579 142.913 70.4339 144.173C70.6019 144.397 70.8539 144.803 70.9659 145.069C71.9459 143.669 72.8699 140.911 73.3039 138.699L72.6599 138.475ZM73.5839 139.665L73.1079 140.113C73.4579 140.659 74.4519 142.339 74.7599 143.053L75.3479 142.269C75.0819 141.849 73.8919 140.057 73.5839 139.665Z" fill="white"/>
<path d="M85.8339 137.103V138.041H89.1099V145.307H85.8339V146.259H90.0899V137.103H85.8339ZM85.2039 137.103V147.379H86.1839V137.103H85.2039ZM85.7639 140.995V141.933H89.6279V140.995H85.7639ZM87.3459 134.821C87.2339 135.549 86.9679 136.613 86.7299 137.285L87.5699 137.495C87.8499 136.865 88.1999 135.899 88.4799 135.031L87.3459 134.821ZM92.0779 137.061V138.041H96.3759V137.061H92.0779ZM96.0119 137.061V137.285C95.8159 143.459 95.5919 145.783 95.1299 146.287C94.9759 146.469 94.8079 146.511 94.5279 146.511C94.2059 146.511 93.3659 146.497 92.4559 146.427C92.6519 146.707 92.7779 147.141 92.8059 147.449C93.5899 147.491 94.4159 147.519 94.8919 147.463C95.3819 147.421 95.7039 147.295 96.0119 146.889C96.5719 146.203 96.7679 144.033 96.9919 137.607C96.9919 137.453 96.9919 137.061 96.9919 137.061H96.0119ZM92.3719 134.793C91.9239 136.739 91.1539 138.671 90.2019 139.903C90.4539 140.043 90.8879 140.337 91.0699 140.505C92.0359 139.175 92.8619 137.117 93.3799 135.031L92.3719 134.793ZM91.7279 140.701C92.4979 141.723 93.4359 143.109 93.8559 143.963L94.7519 143.403C94.3039 142.577 93.3379 141.219 92.5399 140.225L91.7279 140.701Z" fill="white"/>
<path d="M104.048 138.111H107.268V139.721H104.048V138.111ZM103.068 137.355V140.477H108.304V137.355H103.068ZM102.424 142.199H104.286V144.271H102.424V142.199ZM101.528 141.429V145.041H105.21V141.429H101.528ZM107.058 142.199H109.018V144.271H107.058V142.199ZM106.162 141.429V145.041H109.942V141.429H106.162ZM99.3019 135.465V147.743H100.324V136.403H111.006V135.465H99.3019ZM99.9739 146.091V147.057H111.37V146.091H99.9739Z" fill="white"/>
<path d="M112.588 138.279V139.273H116.34V138.279H112.588ZM114.072 135.017V144.397H115.052V135.017H114.072ZM112.49 144.803L112.896 145.853C114.002 145.307 115.36 144.607 116.648 143.949L116.368 143.011C114.94 143.711 113.47 144.397 112.49 144.803ZM116.564 136.935V137.887H125.272V136.935H116.564ZM116.102 145.181L116.382 146.175C117.726 145.797 119.49 145.293 121.184 144.803L121.072 143.907C119.252 144.397 117.348 144.901 116.102 145.181ZM121.254 134.863C121.31 141.709 121.898 147.729 124.11 147.729C124.992 147.729 125.286 147.127 125.44 145.265C125.216 145.153 124.894 144.943 124.684 144.705C124.642 146.161 124.502 146.721 124.236 146.721C123.032 146.721 122.22 141.485 122.276 134.863H121.254ZM122.822 135.409C123.438 135.857 124.152 136.501 124.516 136.935L125.146 136.333C124.796 135.913 124.04 135.297 123.438 134.891L122.822 135.409ZM124.054 139.217C123.2 142.633 121.576 145.321 119.056 146.917C119.28 147.085 119.672 147.435 119.826 147.617C122.346 145.839 124.04 143.053 125.02 139.399L124.054 139.217ZM117.81 140.071H119.63V142.423H117.81V140.071ZM116.984 139.217V143.291H120.484V139.217H116.984Z" fill="white"/>
<path d="M234.94 142.312V143.236H244.474V142.312H234.94ZM233.134 137.258V138.224H242.29V137.258H233.134ZM237.082 139.778V140.716H243.494V139.778H237.082ZM244.026 142.312V142.48C243.802 145.266 243.536 146.372 243.214 146.694C243.088 146.806 242.948 146.834 242.682 146.834C242.416 146.834 241.744 146.834 241.044 146.75C241.212 147.03 241.324 147.436 241.338 147.73C242.066 147.758 242.766 147.772 243.116 147.744C243.536 147.716 243.802 147.618 244.068 147.352C244.516 146.89 244.782 145.728 245.034 142.774C245.062 142.62 245.076 142.312 245.076 142.312H244.026ZM240.918 143.992C241.338 144.58 241.772 145.392 241.954 145.896L242.724 145.574C242.542 145.07 242.108 144.286 241.66 143.712L240.918 143.992ZM234.87 135.27C235.416 135.858 236.004 136.684 236.242 137.23L237.222 136.782C236.942 136.25 236.326 135.452 235.78 134.892L234.87 135.27ZM236.774 144.342C237.012 145.252 237.166 146.4 237.138 147.156L238.062 147.03C238.062 146.274 237.908 145.112 237.628 144.23L236.774 144.342ZM238.832 144.216C239.182 144.986 239.518 146.008 239.616 146.68L240.484 146.442C240.372 145.784 240.022 144.79 239.658 144.02L238.832 144.216ZM234.982 144.02C234.702 145.098 234.17 146.344 233.386 147.086L234.198 147.66C235.052 146.806 235.542 145.476 235.864 144.314L234.982 144.02ZM239.112 134.85C238.048 138.476 235.892 142.06 232.42 144.034C232.602 144.258 232.868 144.678 232.994 144.93C236.704 142.732 238.902 139.036 240.176 135.116L239.112 134.85ZM242.052 137.258C241.898 138.154 241.66 139.274 241.464 140.016L242.388 140.142C242.598 139.386 242.85 138.224 243.046 137.258H242.052ZM243.102 139.778C242.962 140.674 242.724 141.808 242.514 142.564L243.466 142.676C243.662 141.92 243.9 140.744 244.096 139.778H243.102Z" fill="white"/>
<path d="M246.77 140.464V141.458H250.746V140.464H246.77ZM248.59 137.748V138.756H253.084V137.748H248.59ZM253.49 138.378L252.594 138.574C253.63 142.466 255.562 145.448 258.768 146.82C258.922 146.54 259.258 146.12 259.496 145.91C256.374 144.734 254.414 141.878 253.49 138.378ZM258.04 138.742C257.116 139.806 255.506 141.206 254.316 142.046L255.058 142.648C256.276 141.836 257.83 140.534 259.006 139.428L258.04 138.742ZM252.468 137.748V146.372C252.468 146.596 252.398 146.666 252.146 146.68C251.908 146.694 251.082 146.694 250.228 146.652C250.396 146.96 250.55 147.422 250.606 147.716C251.768 147.716 252.524 147.702 252.986 147.534C253.434 147.352 253.588 147.03 253.588 146.386V137.748H252.468ZM249.878 135.732C251.642 136.194 253.896 137.02 255.058 137.664L255.59 136.684C254.4 136.054 252.118 135.27 250.396 134.878L249.878 135.732ZM250.354 140.464V140.674C249.752 143.11 248.24 145.042 246.476 146.05C246.728 146.232 247.148 146.624 247.316 146.862C249.108 145.7 250.732 143.6 251.46 140.716L250.76 140.422L250.564 140.464H250.354Z" fill="white"/>
<path d="M267.126 143.404H271.648V144.034H267.126V143.404ZM267.126 144.594H271.648V145.238H267.126V144.594ZM267.126 142.242H271.648V142.858H267.126V142.242ZM266.202 141.626V145.84H272.6V141.626H266.202ZM269.982 146.386C270.962 146.792 272.012 147.352 272.6 147.758L273.51 147.198C272.838 146.764 271.676 146.232 270.654 145.826L269.982 146.386ZM268.778 134.85V137.468H269.814V134.85H268.778ZM265.376 135.704V136.418H273.258V135.704H265.376ZM266.034 137.076V137.748H272.796V137.076H266.034ZM266.622 138.924H272.124V140.394H266.622V138.924ZM265.768 138.308V141.01H273.006V138.308H265.768ZM268.232 138.602C268.162 139.316 267.812 139.596 266.678 139.75C266.818 139.862 267 140.086 267.056 140.24C268.386 139.988 268.834 139.554 268.932 138.602H268.232ZM269.758 138.56V139.218C269.758 139.848 269.954 139.974 270.794 139.974C270.934 139.974 271.872 139.974 272.026 139.974C272.53 139.974 272.754 139.876 272.81 139.582C272.6 139.54 272.334 139.484 272.18 139.4C272.138 139.47 272.096 139.484 271.9 139.484C271.718 139.484 271.004 139.484 270.878 139.484C270.584 139.484 270.542 139.456 270.542 139.232V138.56H269.758ZM267.784 145.826C267.126 146.302 265.81 146.82 264.704 147.1C264.914 147.268 265.236 147.548 265.404 147.744C266.468 147.464 267.812 146.918 268.652 146.344L267.784 145.826ZM262.716 134.864C262.366 135.788 261.694 137.16 261.19 137.972L261.904 138.266C262.436 137.482 263.108 136.222 263.626 135.186L262.716 134.864ZM264.172 136.46C263.486 137.93 262.268 140.016 261.302 141.262L261.946 141.598C262.926 140.394 264.158 138.392 265.054 136.838L264.172 136.46ZM260.546 137.804C261.274 138.49 262.086 139.47 262.422 140.128L263.01 139.344C262.674 138.714 261.834 137.79 261.106 137.118L260.546 137.804ZM263.626 139.582C264.144 140.52 264.634 141.738 264.788 142.508L265.572 142.186C265.418 141.43 264.9 140.24 264.368 139.316L263.626 139.582ZM260.504 141.108L260.616 142.018C261.806 141.948 263.346 141.864 264.9 141.752V140.912C263.248 140.982 261.638 141.066 260.504 141.108ZM263.99 143.026C264.284 143.754 264.55 144.706 264.634 145.336L265.418 145.07C265.306 144.468 265.026 143.53 264.732 142.816L263.99 143.026ZM261.204 142.858C261.064 144.076 260.812 145.336 260.364 146.19C260.588 146.274 260.994 146.456 261.162 146.582C261.582 145.686 261.89 144.328 262.072 143.012L261.204 142.858ZM262.674 141.458V147.73H263.57V141.458H262.674Z" fill="white"/>
<path d="M278.536 136.264V137.146H283.506V136.264H278.536ZM278.83 138.364V139.232H283.184V138.364H278.83ZM283.492 138.042V138.994H287.44V138.042H283.492ZM280.552 134.864V138.98H281.476V134.864H280.552ZM279.852 140.772H282.162V142.368H279.852V140.772ZM278.97 139.974V143.138H283.072V139.974H278.97ZM279.152 143.698C279.418 144.426 279.656 145.378 279.712 145.966L280.608 145.714C280.538 145.154 280.258 144.216 279.978 143.488L279.152 143.698ZM283.548 140.478C283.926 141.598 284.262 143.068 284.36 143.964L285.2 143.67C285.116 142.816 284.752 141.36 284.346 140.254L283.548 140.478ZM282.022 143.404C281.854 144.16 281.518 145.28 281.224 145.966L282.05 146.204C282.344 145.546 282.68 144.538 282.988 143.656L282.022 143.404ZM278.228 146.512L278.48 147.436C279.908 147.198 281.882 146.89 283.758 146.568L283.702 145.7C281.672 146.008 279.586 146.33 278.228 146.512ZM285.606 134.892V146.498C285.606 146.694 285.536 146.75 285.354 146.764C285.172 146.778 284.584 146.778 283.954 146.75C284.094 147.03 284.248 147.492 284.276 147.744C285.158 147.744 285.732 147.716 286.096 147.548C286.446 147.38 286.572 147.086 286.572 146.498V134.892H285.606ZM274.714 137.888V138.868H278.578V137.888H274.714ZM276.366 134.85V147.716H277.304V134.85H276.366ZM276.352 138.476C276.044 140.464 275.246 142.942 274.434 144.202C274.602 144.412 274.84 144.804 274.938 145.056C275.806 143.642 276.59 140.856 276.954 138.672L276.352 138.476ZM277.234 139.624L276.828 140.016C277.122 140.562 277.934 142.256 278.186 142.956L278.718 142.172C278.494 141.766 277.486 140.002 277.234 139.624Z" fill="white"/>
<path d="M289.19 135.732C290.002 136.138 290.968 136.796 291.43 137.272L292.074 136.432C291.57 135.956 290.59 135.354 289.792 134.99L289.19 135.732ZM288.518 139.54C289.358 139.89 290.366 140.492 290.87 140.94L291.472 140.1C290.968 139.652 289.946 139.092 289.106 138.77L288.518 139.54ZM288.826 146.96L289.778 147.562C290.408 146.26 291.15 144.538 291.696 143.068L290.856 142.494C290.268 144.062 289.428 145.882 288.826 146.96ZM296.568 141.794V142.592H301.342V141.794H296.568ZM296.176 134.85V138.378H297.198V134.85H296.176ZM293.138 136.026V136.88H300.558V136.026H293.138ZM292.368 139.932V140.716H296.288V139.932H292.368ZM296.876 139.932V140.716H301.006V139.932H296.876ZM292.354 137.902V138.77H301.286V137.902H292.354ZM292.116 143.348V144.244H301.44V143.348H292.116ZM293.866 138.966V142.242L294.79 142.088V138.966H293.866ZM292.074 142.018L292.2 142.83C293.362 142.69 294.86 142.508 296.33 142.312V141.556C294.748 141.738 293.18 141.92 292.074 142.018ZM297.422 143.866V146.344C297.422 147.296 297.674 147.576 298.752 147.576C298.976 147.576 300.054 147.576 300.278 147.576C301.132 147.576 301.398 147.198 301.51 145.644C301.23 145.574 300.824 145.434 300.614 145.266C300.572 146.526 300.502 146.694 300.166 146.694C299.942 146.694 299.06 146.694 298.892 146.694C298.5 146.694 298.444 146.652 298.444 146.33V143.866H297.422ZM298.388 138.966V142.256H299.34V138.966H298.388ZM294.706 143.866C294.524 145.546 293.95 146.442 291.556 146.918C291.766 147.114 292.032 147.52 292.13 147.758C294.804 147.114 295.518 145.966 295.742 143.866H294.706Z" fill="white"/>
<path d="M302.756 138.448V139.498H306.97V138.448H302.756ZM308.468 134.892V146.26C308.468 146.526 308.356 146.61 308.09 146.624C307.796 146.624 306.9 146.638 305.892 146.596C306.06 146.918 306.27 147.436 306.312 147.744C307.614 147.744 308.426 147.716 308.902 147.52C309.364 147.338 309.56 147.002 309.56 146.26V134.892H308.468ZM306.606 138.448V138.686C306.018 141.892 304.408 144.286 302.406 145.546C302.658 145.714 303.078 146.134 303.26 146.386C305.318 144.986 307.012 142.368 307.726 138.672L307.012 138.406L306.83 138.448H306.606ZM309.504 137.174L308.664 137.37C309.7 141.514 311.604 145.084 314.796 146.666C314.978 146.344 315.342 145.924 315.608 145.714C312.472 144.342 310.47 140.94 309.504 137.174ZM314.068 137.132C313.144 138.378 311.52 140.016 310.33 140.982L311.072 141.57C312.29 140.632 313.886 139.092 315.034 137.818L314.068 137.132Z" fill="white"/>
<path d="M317.932 138.406V139.232H321.978V138.406H317.932ZM317.932 140.786V141.584H321.978V140.786H317.932ZM317.932 143.222V144.048H321.978V143.222H317.932ZM323.896 141.486V142.396H329.23V141.486H323.896ZM318.66 136.11V136.936H320.984V136.11H318.66ZM323 135.564V136.46H328.474V135.564H323ZM322.832 144.104V145.042H329.468V144.104H322.832ZM325.786 140.044V147.674H326.794V140.044H325.786ZM319.668 138.812V143.572H320.424V138.812H319.668ZM328.138 135.564V135.704C328.04 137.902 327.928 138.714 327.746 138.924C327.662 139.036 327.536 139.064 327.34 139.05C327.144 139.05 326.64 139.05 326.08 138.994C326.206 139.232 326.304 139.596 326.318 139.876C326.906 139.904 327.494 139.904 327.774 139.876C328.138 139.848 328.348 139.764 328.544 139.526C328.838 139.204 328.978 138.294 329.076 135.956C329.09 135.83 329.09 135.564 329.09 135.564H328.138ZM323.952 140.17C323.714 141.36 323.28 142.536 322.678 143.32C322.902 143.432 323.322 143.642 323.504 143.768C324.092 142.928 324.582 141.654 324.862 140.352L323.952 140.17ZM318.632 134.85C318.212 136.572 317.428 138.238 316.434 139.316C316.658 139.456 317.064 139.778 317.232 139.946C318.226 138.756 319.08 136.95 319.598 135.06L318.632 134.85ZM317.526 138.406V142.13C317.526 143.712 317.428 145.798 316.476 147.282C316.686 147.38 317.078 147.618 317.232 147.758C318.226 146.204 318.394 143.838 318.394 142.13V138.406H317.526ZM321.698 138.406V146.582C321.698 146.764 321.614 146.82 321.432 146.834C321.236 146.848 320.606 146.848 319.892 146.82C320.018 147.072 320.172 147.478 320.214 147.716C321.18 147.716 321.754 147.702 322.104 147.548C322.468 147.394 322.58 147.1 322.58 146.582V138.406H321.698ZM324.988 135.858C324.792 137.44 324.288 138.826 322.566 139.554C322.776 139.708 323.028 140.044 323.154 140.268C325.114 139.386 325.716 137.79 325.954 135.858H324.988ZM320.732 136.11V136.278C320.522 136.978 320.13 137.986 319.78 138.616C319.976 138.7 320.284 138.882 320.452 139.022C320.872 138.364 321.404 137.328 321.698 136.46L321.082 136.054L320.942 136.11H320.732Z" fill="white"/>
<path d="M342.082 135.2C340.36 135.83 337.322 136.39 334.718 136.726C334.83 136.978 334.984 137.37 335.026 137.622C337.686 137.3 340.822 136.782 342.866 136.082L342.082 135.2ZM334.242 140.856V141.864H343.44V140.856H334.242ZM334.788 146.19V147.198H343.216V146.19H334.788ZM338.414 136.754V146.47H339.464V136.754H338.414ZM332.59 138.574V147.73H333.64V137.566L333.626 137.538L332.59 138.574ZM334.116 134.864C333.248 137.062 331.806 139.204 330.294 140.576C330.504 140.842 330.826 141.388 330.938 141.64C332.576 140.044 334.144 137.622 335.138 135.186L334.116 134.864Z" fill="white"/>
<path d="M344.798 135.55V136.46H349.572V135.55H344.798ZM350.202 142.704V143.614H356.278V142.704H350.202ZM344.644 139.778V140.716H349.908V139.778H344.644ZM347.094 140.156V146.512C347.094 146.666 347.038 146.708 346.884 146.722C346.716 146.722 346.156 146.722 345.554 146.708C345.694 146.988 345.834 147.422 345.862 147.688C346.73 147.688 347.276 147.674 347.626 147.52C348.004 147.338 348.102 147.058 348.102 146.512V140.156H347.094ZM355.914 142.704V142.872C355.704 145.322 355.452 146.302 355.158 146.582C355.032 146.708 354.906 146.722 354.682 146.722C354.458 146.722 353.898 146.708 353.296 146.652C353.45 146.932 353.548 147.352 353.576 147.632C354.206 147.674 354.822 147.674 355.144 147.646C355.522 147.618 355.774 147.534 356.026 147.282C356.432 146.862 356.684 145.798 356.95 143.166C356.978 143.012 356.992 142.704 356.992 142.704H355.914ZM352.82 141.318C352.582 143.74 352.036 145.854 349.124 146.932C349.348 147.114 349.628 147.492 349.754 147.744C352.918 146.512 353.604 144.146 353.87 141.318H352.82ZM345.288 137.888C346.478 138.42 347.906 139.302 348.606 139.946L349.306 139.176C348.578 138.532 347.122 137.706 345.946 137.216L345.288 137.888ZM349.628 139.778V139.96C349.404 140.968 349.054 142.214 348.69 142.984L349.432 143.348C349.866 142.48 350.286 141.136 350.58 139.96L349.936 139.736L349.782 139.778H349.628ZM355.242 136.754C354.486 138.924 352.526 140.17 349.978 140.814C350.188 141.038 350.51 141.472 350.636 141.696C353.282 140.87 355.382 139.47 356.32 136.936L355.242 136.754ZM352.246 134.85C351.686 136.194 350.664 137.468 349.558 138.294C349.824 138.434 350.244 138.728 350.426 138.91C351.504 138.014 352.582 136.614 353.24 135.116L352.246 134.85ZM351.994 137.048L351.126 137.342C352.246 139.498 354.346 141.066 356.908 141.752C357.048 141.472 357.356 141.066 357.58 140.856C355.088 140.31 353.002 138.91 351.994 137.048ZM346.968 140.086C346.506 141.696 345.512 143.53 344.504 144.482C344.686 144.734 344.938 145.168 345.05 145.462C346.142 144.37 347.15 142.2 347.682 140.352L346.968 140.086ZM351.938 136.334L351.504 137.23H357.286V136.334H351.938ZM349.32 135.55V135.746C348.858 136.502 347.878 137.524 346.982 138.112C347.192 138.238 347.514 138.462 347.696 138.63C348.662 137.986 349.754 136.922 350.398 135.942L349.712 135.508L349.544 135.55H349.32Z" fill="white"/>
<path d="M465.178 138.923V139.875H472.794V138.923H465.178ZM462.784 141.499V142.493H475.202V141.499H462.784ZM466.466 142.185C466.228 144.467 465.626 146.077 462.476 146.861C462.7 147.071 462.98 147.491 463.092 147.757C466.508 146.805 467.292 144.915 467.586 142.185H466.466ZM470.008 142.101V146.049C470.008 147.169 470.344 147.491 471.632 147.491C471.912 147.491 473.522 147.491 473.802 147.491C474.922 147.491 475.23 147.001 475.342 145.083C475.062 144.999 474.614 144.831 474.39 144.663C474.348 146.273 474.25 146.525 473.718 146.525C473.354 146.525 472.024 146.525 471.744 146.525C471.156 146.525 471.058 146.455 471.058 146.035V142.101H470.008ZM468.412 134.863V137.089H469.518V134.863H468.412ZM463.106 136.361V139.329H464.17V137.355H473.774V139.329H474.88V136.361H463.106Z" fill="white"/>
<path d="M478.38 140.099V141.079H481.866V140.099H478.38ZM481.446 140.099V140.281C481.404 143.305 481.334 144.355 481.124 144.607C481.026 144.733 480.886 144.747 480.69 144.747C480.452 144.747 479.836 144.747 479.206 144.691C479.36 144.957 479.472 145.363 479.5 145.671C480.186 145.699 480.816 145.713 481.18 145.671C481.572 145.629 481.796 145.531 482.02 145.279C482.314 144.887 482.398 143.711 482.468 140.547C482.468 140.407 482.468 140.099 482.468 140.099H481.446ZM485.394 135.563C486.276 136.025 487.354 136.739 487.886 137.229L488.544 136.515C487.998 136.025 486.892 135.353 486.024 134.905L485.394 135.563ZM487.396 139.357C486.346 142.731 484.372 145.293 481.53 146.805C481.754 147.015 482.146 147.449 482.3 147.659C485.17 145.965 487.256 143.263 488.446 139.609L487.396 139.357ZM478.464 137.229V138.265H489.3V137.229H478.464ZM477.792 137.229V141.163C477.792 142.997 477.666 145.405 476.504 147.127C476.756 147.253 477.204 147.617 477.386 147.827C478.66 145.993 478.884 143.165 478.884 141.177V137.229H477.792ZM483.602 134.877C483.658 141.583 484.918 147.631 487.774 147.631C488.838 147.631 489.23 146.945 489.426 144.551C489.146 144.453 488.754 144.215 488.516 143.977C488.432 145.839 488.25 146.567 487.858 146.567C486.038 146.567 484.666 141.317 484.694 134.877H483.602Z" fill="white"/>
<path d="M502.082 135.199C500.36 135.829 497.322 136.389 494.718 136.725C494.83 136.977 494.984 137.369 495.026 137.621C497.686 137.299 500.822 136.781 502.866 136.081L502.082 135.199ZM494.242 140.855V141.863H503.44V140.855H494.242ZM494.788 146.189V147.197H503.216V146.189H494.788ZM498.414 136.753V146.469H499.464V136.753H498.414ZM492.59 138.573V147.729H493.64V137.565L493.626 137.537L492.59 138.573ZM494.116 134.863C493.248 137.061 491.806 139.203 490.294 140.575C490.504 140.841 490.826 141.387 490.938 141.639C492.576 140.043 494.144 137.621 495.138 135.185L494.116 134.863Z" fill="white"/>
<path d="M504.798 135.549V136.459H509.572V135.549H504.798ZM510.202 142.703V143.613H516.278V142.703H510.202ZM504.644 139.777V140.715H509.908V139.777H504.644ZM507.094 140.155V146.511C507.094 146.665 507.038 146.707 506.884 146.721C506.716 146.721 506.156 146.721 505.554 146.707C505.694 146.987 505.834 147.421 505.862 147.687C506.73 147.687 507.276 147.673 507.626 147.519C508.004 147.337 508.102 147.057 508.102 146.511V140.155H507.094ZM515.914 142.703V142.871C515.704 145.321 515.452 146.301 515.158 146.581C515.032 146.707 514.906 146.721 514.682 146.721C514.458 146.721 513.898 146.707 513.296 146.651C513.45 146.931 513.548 147.351 513.576 147.631C514.206 147.673 514.822 147.673 515.144 147.645C515.522 147.617 515.774 147.533 516.026 147.281C516.432 146.861 516.684 145.797 516.95 143.165C516.978 143.011 516.992 142.703 516.992 142.703H515.914ZM512.82 141.317C512.582 143.739 512.036 145.853 509.124 146.931C509.348 147.113 509.628 147.491 509.754 147.743C512.918 146.511 513.604 144.145 513.87 141.317H512.82ZM505.288 137.887C506.478 138.419 507.906 139.301 508.606 139.945L509.306 139.175C508.578 138.531 507.122 137.705 505.946 137.215L505.288 137.887ZM509.628 139.777V139.959C509.404 140.967 509.054 142.213 508.69 142.983L509.432 143.347C509.866 142.479 510.286 141.135 510.58 139.959L509.936 139.735L509.782 139.777H509.628ZM515.242 136.753C514.486 138.923 512.526 140.169 509.978 140.813C510.188 141.037 510.51 141.471 510.636 141.695C513.282 140.869 515.382 139.469 516.32 136.935L515.242 136.753ZM512.246 134.849C511.686 136.193 510.664 137.467 509.558 138.293C509.824 138.433 510.244 138.727 510.426 138.909C511.504 138.013 512.582 136.613 513.24 135.115L512.246 134.849ZM511.994 137.047L511.126 137.341C512.246 139.497 514.346 141.065 516.908 141.751C517.048 141.471 517.356 141.065 517.58 140.855C515.088 140.309 513.002 138.909 511.994 137.047ZM506.968 140.085C506.506 141.695 505.512 143.529 504.504 144.481C504.686 144.733 504.938 145.167 505.05 145.461C506.142 144.369 507.15 142.199 507.682 140.351L506.968 140.085ZM511.938 136.333L511.504 137.229H517.286V136.333H511.938ZM509.32 135.549V135.745C508.858 136.501 507.878 137.523 506.982 138.111C507.192 138.237 507.514 138.461 507.696 138.629C508.662 137.985 509.754 136.921 510.398 135.941L509.712 135.507L509.544 135.549H509.32Z" fill="white"/>
<path d="M518.392 142.297L518.672 143.319C519.974 142.941 521.654 142.409 523.25 141.905L523.124 140.953C521.388 141.457 519.596 141.989 518.392 142.297ZM518.574 137.677V138.657H523.11V137.677H518.574ZM520.52 134.863V146.525C520.52 146.721 520.45 146.791 520.254 146.791C520.086 146.791 519.498 146.791 518.868 146.777C518.994 147.057 519.148 147.477 519.176 147.729C520.114 147.743 520.674 147.715 521.038 147.547C521.402 147.393 521.542 147.099 521.542 146.525V134.863H520.52ZM523.6 138.083V147.687H524.594V139.077H530.124V147.603H531.174V138.083H523.6ZM524.202 141.821V142.815H530.432V141.821H524.202ZM524.23 145.699V146.707H530.46V145.699H524.23ZM526.82 134.877V146.315H527.814V134.877H526.82Z" fill="white"/>
<path d="M538.258 135.577V136.557H544.404V135.577H538.258ZM537.782 140.491V141.499H545.482V140.491H537.782ZM541.086 138.629V146.399C541.086 146.609 541.016 146.679 540.778 146.693C540.526 146.707 539.742 146.707 538.86 146.679C539 146.959 539.182 147.421 539.238 147.701C540.358 147.715 541.086 147.687 541.548 147.519C541.982 147.351 542.136 147.043 542.136 146.413V138.629H541.086ZM544.026 135.577V135.815C543.466 136.725 542.304 138.041 541.296 138.797C541.478 138.937 541.772 139.217 541.926 139.413C543.046 138.573 544.348 137.215 545.188 136.025L544.502 135.521L544.278 135.577H544.026ZM532.602 137.747V138.727H537.208V137.747H532.602ZM534.716 134.863C534.24 137.523 533.4 141.275 532.784 143.417L533.666 143.879C534.296 141.555 535.178 137.775 535.71 134.975L534.716 134.863ZM533.302 142.969C534.87 143.879 536.676 145.307 537.516 146.357L538.146 145.503C537.306 144.467 535.458 143.123 533.89 142.241L533.302 142.969ZM536.858 137.747V137.957C536.508 142.717 535.052 145.685 532.714 146.917C532.938 147.127 533.232 147.505 533.372 147.757C535.948 146.217 537.474 143.249 537.852 137.831L537.222 137.705L537.026 137.747H536.858Z" fill="white"/>
<path d="M553.182 144.971C553.448 145.489 553.686 146.217 553.756 146.693L554.624 146.427C554.554 145.979 554.316 145.279 554.008 144.747L553.182 144.971ZM556.92 144.719C556.766 145.223 556.458 145.979 556.22 146.455L557.018 146.693C557.256 146.245 557.564 145.601 557.844 144.985L556.92 144.719ZM553.35 142.843H557.606V143.963H553.35V142.843ZM552.454 142.143V144.663H558.53V142.143H552.454ZM552.874 138.223H558.04V139.217H552.874V138.223ZM552.874 136.557H558.04V137.537H552.874V136.557ZM551.992 135.829V139.945H558.964V135.829H551.992ZM551.656 140.603V141.443H559.286V140.603H551.656ZM551.404 146.609V147.421H559.454V146.609H551.404ZM553.966 134.849V136.333H554.806V134.849H553.966ZM556.038 134.849V136.333H556.878V134.849H556.038ZM554.092 136.193V139.735H554.792V136.193H554.092ZM556.038 136.193V139.735H556.738V136.193H556.038ZM546.686 138.587V139.525H551.334V138.587H546.686ZM547.036 135.773V136.711H551.012V135.773H547.036ZM550.466 140.519V145.699H551.208V140.519H550.466ZM548.632 138.993V147.729H549.528V138.993H548.632ZM546.952 140.533V142.185C546.952 143.459 546.882 144.943 546.476 146.105C546.672 146.203 546.98 146.427 547.12 146.595C547.61 145.279 547.694 143.655 547.694 142.213V140.533H546.952Z" fill="white"/>
<path d="M674.38 140.099V141.079H677.866V140.099H674.38ZM677.446 140.099V140.281C677.404 143.305 677.334 144.355 677.124 144.607C677.026 144.733 676.886 144.747 676.69 144.747C676.452 144.747 675.836 144.747 675.206 144.691C675.36 144.957 675.472 145.363 675.5 145.671C676.186 145.699 676.816 145.713 677.18 145.671C677.572 145.629 677.796 145.531 678.02 145.279C678.314 144.887 678.398 143.711 678.468 140.547C678.468 140.407 678.468 140.099 678.468 140.099H677.446ZM681.394 135.563C682.276 136.025 683.354 136.739 683.886 137.229L684.544 136.515C683.998 136.025 682.892 135.353 682.024 134.905L681.394 135.563ZM683.396 139.357C682.346 142.731 680.372 145.293 677.53 146.805C677.754 147.015 678.146 147.449 678.3 147.659C681.17 145.965 683.256 143.263 684.446 139.609L683.396 139.357ZM674.464 137.229V138.265H685.3V137.229H674.464ZM673.792 137.229V141.163C673.792 142.997 673.666 145.405 672.504 147.127C672.756 147.253 673.204 147.617 673.386 147.827C674.66 145.993 674.884 143.165 674.884 141.177V137.229H673.792ZM679.602 134.877C679.658 141.583 680.918 147.631 683.774 147.631C684.838 147.631 685.23 146.945 685.426 144.551C685.146 144.453 684.754 144.215 684.516 143.977C684.432 145.839 684.25 146.567 683.858 146.567C682.038 146.567 680.666 141.317 680.694 134.877H679.602Z" fill="white"/>
<path d="M688.94 142.311V143.235H698.474V142.311H688.94ZM687.134 137.257V138.223H696.29V137.257H687.134ZM691.082 139.777V140.715H697.494V139.777H691.082ZM698.026 142.311V142.479C697.802 145.265 697.536 146.371 697.214 146.693C697.088 146.805 696.948 146.833 696.682 146.833C696.416 146.833 695.744 146.833 695.044 146.749C695.212 147.029 695.324 147.435 695.338 147.729C696.066 147.757 696.766 147.771 697.116 147.743C697.536 147.715 697.802 147.617 698.068 147.351C698.516 146.889 698.782 145.727 699.034 142.773C699.062 142.619 699.076 142.311 699.076 142.311H698.026ZM694.918 143.991C695.338 144.579 695.772 145.391 695.954 145.895L696.724 145.573C696.542 145.069 696.108 144.285 695.66 143.711L694.918 143.991ZM688.87 135.269C689.416 135.857 690.004 136.683 690.242 137.229L691.222 136.781C690.942 136.249 690.326 135.451 689.78 134.891L688.87 135.269ZM690.774 144.341C691.012 145.251 691.166 146.399 691.138 147.155L692.062 147.029C692.062 146.273 691.908 145.111 691.628 144.229L690.774 144.341ZM692.832 144.215C693.182 144.985 693.518 146.007 693.616 146.679L694.484 146.441C694.372 145.783 694.022 144.789 693.658 144.019L692.832 144.215ZM688.982 144.019C688.702 145.097 688.17 146.343 687.386 147.085L688.198 147.659C689.052 146.805 689.542 145.475 689.864 144.313L688.982 144.019ZM693.112 134.849C692.048 138.475 689.892 142.059 686.42 144.033C686.602 144.257 686.868 144.677 686.994 144.929C690.704 142.731 692.902 139.035 694.176 135.115L693.112 134.849ZM696.052 137.257C695.898 138.153 695.66 139.273 695.464 140.015L696.388 140.141C696.598 139.385 696.85 138.223 697.046 137.257H696.052ZM697.102 139.777C696.962 140.673 696.724 141.807 696.514 142.563L697.466 142.675C697.662 141.919 697.9 140.743 698.096 139.777H697.102Z" fill="white"/>
<path d="M700.77 140.463V141.457H704.746V140.463H700.77ZM702.59 137.747V138.755H707.084V137.747H702.59ZM707.49 138.377L706.594 138.573C707.63 142.465 709.562 145.447 712.768 146.819C712.922 146.539 713.258 146.119 713.496 145.909C710.374 144.733 708.414 141.877 707.49 138.377ZM712.04 138.741C711.116 139.805 709.506 141.205 708.316 142.045L709.058 142.647C710.276 141.835 711.83 140.533 713.006 139.427L712.04 138.741ZM706.468 137.747V146.371C706.468 146.595 706.398 146.665 706.146 146.679C705.908 146.693 705.082 146.693 704.228 146.651C704.396 146.959 704.55 147.421 704.606 147.715C705.768 147.715 706.524 147.701 706.986 147.533C707.434 147.351 707.588 147.029 707.588 146.385V137.747H706.468ZM703.878 135.731C705.642 136.193 707.896 137.019 709.058 137.663L709.59 136.683C708.4 136.053 706.118 135.269 704.396 134.877L703.878 135.731ZM704.354 140.463V140.673C703.752 143.109 702.24 145.041 700.476 146.049C700.728 146.231 701.148 146.623 701.316 146.861C703.108 145.699 704.732 143.599 705.46 140.715L704.76 140.421L704.564 140.463H704.354Z" fill="white"/>
<path d="M721.126 143.403H725.648V144.033H721.126V143.403ZM721.126 144.593H725.648V145.237H721.126V144.593ZM721.126 142.241H725.648V142.857H721.126V142.241ZM720.202 141.625V145.839H726.6V141.625H720.202ZM723.982 146.385C724.962 146.791 726.012 147.351 726.6 147.757L727.51 147.197C726.838 146.763 725.676 146.231 724.654 145.825L723.982 146.385ZM722.778 134.849V137.467H723.814V134.849H722.778ZM719.376 135.703V136.417H727.258V135.703H719.376ZM720.034 137.075V137.747H726.796V137.075H720.034ZM720.622 138.923H726.124V140.393H720.622V138.923ZM719.768 138.307V141.009H727.006V138.307H719.768ZM722.232 138.601C722.162 139.315 721.812 139.595 720.678 139.749C720.818 139.861 721 140.085 721.056 140.239C722.386 139.987 722.834 139.553 722.932 138.601H722.232ZM723.758 138.559V139.217C723.758 139.847 723.954 139.973 724.794 139.973C724.934 139.973 725.872 139.973 726.026 139.973C726.53 139.973 726.754 139.875 726.81 139.581C726.6 139.539 726.334 139.483 726.18 139.399C726.138 139.469 726.096 139.483 725.9 139.483C725.718 139.483 725.004 139.483 724.878 139.483C724.584 139.483 724.542 139.455 724.542 139.231V138.559H723.758ZM721.784 145.825C721.126 146.301 719.81 146.819 718.704 147.099C718.914 147.267 719.236 147.547 719.404 147.743C720.468 147.463 721.812 146.917 722.652 146.343L721.784 145.825ZM716.716 134.863C716.366 135.787 715.694 137.159 715.19 137.971L715.904 138.265C716.436 137.481 717.108 136.221 717.626 135.185L716.716 134.863ZM718.172 136.459C717.486 137.929 716.268 140.015 715.302 141.261L715.946 141.597C716.926 140.393 718.158 138.391 719.054 136.837L718.172 136.459ZM714.546 137.803C715.274 138.489 716.086 139.469 716.422 140.127L717.01 139.343C716.674 138.713 715.834 137.789 715.106 137.117L714.546 137.803ZM717.626 139.581C718.144 140.519 718.634 141.737 718.788 142.507L719.572 142.185C719.418 141.429 718.9 140.239 718.368 139.315L717.626 139.581ZM714.504 141.107L714.616 142.017C715.806 141.947 717.346 141.863 718.9 141.751V140.911C717.248 140.981 715.638 141.065 714.504 141.107ZM717.99 143.025C718.284 143.753 718.55 144.705 718.634 145.335L719.418 145.069C719.306 144.467 719.026 143.529 718.732 142.815L717.99 143.025ZM715.204 142.857C715.064 144.075 714.812 145.335 714.364 146.189C714.588 146.273 714.994 146.455 715.162 146.581C715.582 145.685 715.89 144.327 716.072 143.011L715.204 142.857ZM716.674 141.457V147.729H717.57V141.457H716.674Z" fill="white"/>
<path d="M729.47 136.403V137.355H740.558V136.403H729.47ZM728.728 142.227V143.151H734.342V142.227H728.728ZM734.944 142.227V143.151H741.328V142.227H734.944ZM734.398 134.835V140.995H735.462V134.835H734.398ZM731.276 140.533V147.743H732.27V140.533H731.276ZM737.352 140.533V147.743H738.36V140.533H737.352ZM734.048 136.627C732.998 138.125 730.912 139.455 728.938 140.071C729.148 140.267 729.456 140.631 729.596 140.883C731.626 140.155 733.754 138.685 734.916 136.991L734.048 136.627ZM735.756 136.627L734.944 136.963C736.148 138.671 738.36 140.113 740.46 140.813C740.614 140.547 740.908 140.155 741.146 139.945C739.06 139.371 736.876 138.083 735.756 136.627ZM737.086 142.451C736.442 144.033 735.154 145.615 733.838 146.371C734.048 146.553 734.342 146.903 734.496 147.141C735.854 146.245 737.156 144.509 737.87 142.689L737.086 142.451ZM738.584 142.535L737.898 142.787C738.584 144.411 739.83 146.175 740.964 147.085C741.146 146.833 741.468 146.455 741.706 146.259C740.558 145.503 739.27 143.977 738.584 142.535ZM731.15 142.521C730.59 143.893 729.484 145.293 728.378 146.007C728.546 146.273 728.77 146.679 728.868 146.959C730.114 146.119 731.234 144.425 731.892 142.801L731.15 142.521ZM732.116 143.403L731.542 143.865C732.046 144.243 733.292 145.307 733.712 145.769L734.342 144.971C734.006 144.691 732.536 143.655 732.116 143.403Z" fill="white"/>
<path d="M748.902 137.859V138.867H755.146V137.859H748.902ZM751.436 134.849V147.715H752.472V134.849H751.436ZM751.366 138.307C750.764 140.715 749.364 143.319 747.908 144.719C748.118 144.957 748.412 145.363 748.538 145.657C750.078 144.145 751.478 141.219 752.164 138.573L751.366 138.307ZM752.598 138.307L751.842 138.517C752.458 141.093 753.564 143.879 754.768 145.391C754.964 145.111 755.328 144.747 755.58 144.565C754.348 143.249 753.2 140.687 752.598 138.307ZM742.756 137.859V138.867H748.3V137.859H742.756ZM745.276 134.849V147.715H746.298V134.849H745.276ZM745.192 138.475C744.702 140.519 743.54 142.899 742.406 144.159C742.588 144.411 742.854 144.845 742.98 145.139C744.17 143.739 745.346 141.023 745.906 138.727L745.192 138.475ZM746.27 139.147L745.696 139.693C746.2 140.295 747.474 141.933 747.894 142.661L748.594 141.751C748.244 141.331 746.704 139.553 746.27 139.147Z" fill="white"/>
<path d="M756.868 138.881V139.945H769.174V138.881H756.868ZM763.686 139.301L762.636 139.553C763.686 143.319 765.59 146.273 768.614 147.701C768.796 147.407 769.146 146.959 769.412 146.721C766.5 145.517 764.596 142.689 763.686 139.301ZM762.454 134.863C762.426 138.223 762.538 144.257 756.588 146.847C756.882 147.057 757.218 147.435 757.386 147.715C763.504 144.915 763.532 138.531 763.588 134.863H762.454Z" fill="white"/>
<path d="M774.48 136.403V137.383H783.468V136.403H774.48ZM775.866 139.637H781.984V141.737H775.866V139.637ZM774.9 138.741V142.633H783.006V138.741H774.9ZM775.768 142.913L774.9 143.207C776.384 145.769 779.254 147.225 782.964 147.757C783.104 147.463 783.37 147.043 783.594 146.819C779.954 146.413 777.084 145.111 775.768 142.913ZM778.372 134.905V141.093C778.372 143.459 778.134 145.853 773.976 146.903C774.186 147.127 774.48 147.547 774.606 147.785C778.946 146.497 779.408 143.809 779.408 141.107V134.905H778.372ZM773.878 134.821C773.066 136.949 771.694 139.035 770.28 140.365C770.476 140.617 770.77 141.163 770.868 141.401C772.422 139.847 773.92 137.495 774.872 135.129L773.878 134.821ZM772.408 138.489V147.799H773.416V137.509L773.402 137.495L772.408 138.489Z" fill="white"/>
<defs>
<linearGradient id="paint0_linear_422_1761" x1="79.4417" y1="130.289" x2="79.4417" y2="90.107" gradientUnits="userSpaceOnUse">
<stop stop-color="#009C9A" stop-opacity="0"/>
<stop offset="0.7378" stop-color="#00989A" stop-opacity="0.7449"/>
<stop offset="0.9904" stop-color="#00959A"/>
</linearGradient>
<clipPath id="clip0_422_1761">
<rect width="152" height="141" fill="white" transform="translate(652 13.6001)"/>
</clipPath>
</defs>
</svg>
