<svg width="805" height="155" viewBox="0 0 805 155" fill="none" xmlns="http://www.w3.org/2000/svg">
<path fill-rule="evenodd" clip-rule="evenodd" d="M179.988 51.791L210.267 73.099L179.988 94.5082L179.411 93.6917L208.532 73.1009L179.412 52.6088L179.988 51.791Z" fill="#004F74"/>
<path fill-rule="evenodd" clip-rule="evenodd" d="M152.5 72.5999H209.4V73.5999H152.5V72.5999Z" fill="#004F74"/>
<path fill-rule="evenodd" clip-rule="evenodd" d="M398.588 51.791L428.868 73.099L398.589 94.5082L398.012 93.6917L427.133 73.1009L398.013 52.6088L398.588 51.791Z" fill="#004F74"/>
<path fill-rule="evenodd" clip-rule="evenodd" d="M371 72.5999H428V73.5999H371V72.5999Z" fill="#004F74"/>
<path fill-rule="evenodd" clip-rule="evenodd" d="M614.689 51.791L644.968 73.099L614.69 94.5082L614.112 93.6917L643.234 73.1009L614.113 52.6088L614.689 51.791Z" fill="#004F74"/>
<path fill-rule="evenodd" clip-rule="evenodd" d="M587.101 72.5999H644.101V73.5999H587.101V72.5999Z" fill="#004F74"/>
<path d="M88.6004 129.4C87.9004 128.4 87.2004 127.3 86.8004 126.1C86.5004 125.1 86.4004 124 86.4004 123C86.3004 120.2 86.3004 110.6 86.4004 107.8C86.5004 106.3 86.6004 104.8 87.2004 103.4C88.0004 101.5 89.5004 100 91.3004 98.9C93.1004 97.8 99.8004 95.5 101.8 95L97.2004 92.5C93.4004 94.4 89.4004 95.9 85.5004 97.5C83.9004 98.1 84.6004 95.1 83.3004 95.3L68.6004 97.3L68.3004 98C68.1004 98.6 67.4004 98.8 66.9004 98.4C65.4004 97.4 63.8004 96.6 62.1004 96.2L57.4004 96.6C59.4004 97.1 61.4004 97.8 63.1004 98.9C64.9004 100 66.4004 101.5 67.2004 103.4C67.8004 104.8 67.9004 106.3 68.0004 107.8C68.1004 110.6 68.1004 120.2 68.0004 123C68.0004 124.1 67.9004 125.1 67.6004 126.1C67.2004 127.3 66.5004 128.3 65.8004 129.4H88.6004V129.4Z" fill="#004F74"/>
<path d="M88.6004 129.4C87.9004 128.4 87.2004 127.3 86.8004 126.1C86.5004 125.1 86.4004 124 86.4004 123C86.3004 120.2 86.3004 110.6 86.4004 107.8C86.5004 106.3 86.6004 104.8 87.2004 103.4C88.0004 101.5 89.5004 100 91.3004 98.9C93.1004 97.8 99.8004 95.5 101.8 95L97.2004 92.5C93.4004 94.4 89.4004 95.9 85.5004 97.5C83.9004 98.1 84.6004 95.1 83.3004 95.3L68.6004 97.3L68.3004 98C68.1004 98.6 67.4004 98.8 66.9004 98.4C65.4004 97.4 63.8004 96.6 62.1004 96.2L57.4004 96.6C59.4004 97.1 61.4004 97.8 63.1004 98.9C64.9004 100 66.4004 101.5 67.2004 103.4C67.8004 104.8 67.9004 106.3 68.0004 107.8C68.1004 110.6 68.1004 120.2 68.0004 123C68.0004 124.1 67.9004 125.1 67.6004 126.1C67.2004 127.3 66.5004 128.3 65.8004 129.4H88.6004V129.4Z" fill="url(#paint0_linear_488_2)"/>
<path d="M72.9998 104.8C72.9998 104.8 72.9998 104.7 72.9998 104.8C72.5998 102.7 71.4998 100.6 70.0998 99.1001C69.5998 98.5001 68.9998 98.0001 68.2998 97.6001L68.1998 97.9001C67.9998 98.5001 67.2998 98.7001 66.7998 98.3001C66.5998 98.2001 66.3998 98.0001 66.1998 97.9001C65.9998 97.8001 65.7998 97.6001 65.5998 97.5001C64.4998 96.9001 63.2998 96.4001 61.9998 96.1001L57.2998 96.5001C59.2998 97.0001 61.2998 97.7001 62.9998 98.8001C64.7998 99.9001 66.2998 101.4 67.0998 103.3C67.6998 104.7 67.7998 106.2 67.8998 107.7C67.9998 110.5 67.9998 120.1 67.8998 122.9C67.8998 124 67.7998 125 67.4998 126C67.0998 127.2 66.3998 128.2 65.6998 129.3H72.6998C73.0998 128.5 73.3998 127.6 73.5998 126.7C73.8998 125.2 73.8998 123.7 73.7998 122.1C73.5998 117.2 73.4998 112.2 73.2998 107.3C73.1998 106.5 73.0998 105.6 72.9998 104.8Z" fill="#003C60"/>
<path d="M115.5 50C113.8 47.5 111.4 45.7 108.5 44.8C107.1 44.3 105.6 44.1 104.2 44.1C103.9 44.1 103.3 44.2 103.2 44C103 43.8 102.9 43.4 102.8 43.1C102.5 42.5 102.1 42 101.7 41.6C99.9002 39.7 97.2002 38.7 94.7002 38.3C91.9002 37.9 88.6002 38.1999 86.4002 40.1999C85.0002 38.8999 83.1002 38.5 81.2002 38.5C79.1002 38.5 77.0002 38.8999 75.1002 39.6999C74.2002 40.0999 73.3002 40.5999 72.5002 41.1999C72.1002 41.4999 71.8002 41.7999 71.4002 42.1999C71.1002 42.5999 70.7002 43 70.5002 43.4C70.3002 43.7 70.3002 44.2 70.3002 44.5C69.6002 49.3 68.9002 54.1 68.1002 58.9C67.9002 60.4 67.6002 61.9 67.4002 63.5C67.3002 63.9 67.6002 64.1999 68.0002 64.1999C69.4002 64.2999 70.8002 64.5 72.2002 64.6C75.6002 64.9 79.0002 65.3 82.4002 65.6C86.5002 66 90.6002 66.4 94.7002 66.9C98.3002 67.3 101.8 67.6 105.4 68C106.6 68.1 107.7 68.2 108.9 68.4C109.4 68.5 110 68.6 110.6 68.6H110.7C110.9 68.6 111.1 68.5 111.2 68.3C112.9 65.9 114.6 63.5 116.3 61C116.5 60.7 116.8 60.3 117 60C117.2 59.7 117.1 59.3999 116.9 59.1999L117.7 58.4C117.8 58.5 118.1 58.3999 118.1 58.1999C117.9 55.4999 117.1 52.5 115.5 50Z" fill="#007754"/>
<path d="M86.9 56.9001C85.9 51.9001 81.8 47.9001 76.8 46.9001C75.4 46.6001 74 46.6001 72.7 46.7001C71.7 44.0001 69.5 41.9001 66.9 40.7001C63.9 39.4001 60.5 39.5001 57.5 40.7001C55.9 41.3001 54.4 42.3001 53 43.5001C50.8 42.4001 48.3 42.1001 45.9 42.7001C43.6 43.3001 41.6 44.7001 40.2 46.5001C39.5 47.4001 39 48.5001 38.6 49.6001C35.8 49.8001 33.3 51.4001 31.6 53.7001C30.7 55.0001 30 56.4001 29.6 57.9001C29.4 58.6001 29.2 59.4001 29.1 60.2001C29.1 60.6001 29 60.9001 29 61.3001C29.1 62.4001 29.3 63.5001 29.4 64.6001C29.6 66.4001 29.8 68.1001 30 69.9001C30.1 71.0001 30.3 72.1001 30.4 73.2001C30.4 73.6001 30.7 73.8001 31.1 73.7001C32.9 73.4001 34.7 73.0001 36.5 72.7001C40.8 71.9001 45.1 71.1001 49.4 70.2001C54.6 69.2001 59.8 68.2001 65 67.2001C69.5 66.3001 74 65.5001 78.5 64.6001C80 64.3001 81.4 64.0001 82.9 63.8001C83.6 63.7001 84.3 63.6001 85 63.4001H85.1C85.3 63.4001 85.4 63.2001 85.5 63.0001C86.1 61.2001 86.7 59.3001 87.3 57.5001C87.5 57.2001 87.2 57.0001 86.9 56.9001Z" fill="#008278"/>
<path d="M122.2 66.8C122.2 66.5 122.1 66.2 122.1 66C122.1 66 122.1 65.9 122.1 65.8C122.1 65.5 121.9 65.4 121.7 65.3C121 62.7 119.6 60.4 117.6 58.5C115.5 56.6 112.8 55.1 110 54.9C108.5 54.8 107.1 55.1 105.9 56C103.9 54.4 101.5 53.4 98.8998 53.3C96.3998 53.2 93.9998 54.1 92.1998 55.7C91.3998 56.4 90.6998 57.3 90.1998 58.3C86.8998 56 82.3998 56.1 78.9998 58.2C78.0998 58.7 77.2998 59.4 76.4998 60.2C76.1998 60.5 75.7998 60.9 75.4998 61.3C75.3998 61.4 75.2998 61.6 75.2998 61.7C75.2998 62.1 75.2998 62.6 75.2998 63.1C75.3998 67.8 75.4998 72.5 75.5998 77.2C75.5998 78.6 75.6998 80.1 75.6998 81.5C75.6998 81.9 76.0998 82.1 76.3998 82.1C77.8998 81.9 79.4998 81.7 80.9998 81.5C84.6998 81 88.2998 80.5 92.0998 80C96.5998 79.4 101 78.8 105.5 78.1C109.4 77.6 113.2 77 117.1 76.5C118.4 76.3 119.6 76.1 120.9 76C121.5 75.9 122.1 75.9 122.7 75.7H122.8C123 75.7 123.3 75.4 123.2 75.1C122.8 72.3 122.6 69.6 122.2 66.8Z" fill="#009B4C"/>
<path d="M39.4004 62.8C39.4004 62.9 39.4004 63 39.4004 63.1H39.5004C39.5004 63 39.5004 62.9 39.4004 62.8C39.4004 62.8 39.5004 62.8 39.4004 62.8Z" fill="#29A8DF"/>
<path d="M82.8 71.9999C82.5 66.6999 78.9 61.6998 73.5 60.5998C72.2 60.2998 70.8 60.2998 69.4 60.5998C68.3 57.9998 66.2 55.8998 63.6 54.7998C60.5 53.4998 56.8 53.5998 53.9 55.2998C52.6 55.9998 51.6 57.0998 51 58.3998C48.9 57.5998 46.6 57.4998 44.4 58.2998C42.3 58.9998 40.5 60.4998 39.3 62.3998C39.1 62.7998 38.7 63.2998 38.8 63.6998C38.8 63.7998 38.9 63.8999 38.9 63.9999C39.1 64.4999 39.3 64.8998 39.4 65.3998C39.9 66.6998 40.4 67.8998 40.9 69.1998C41 69.4998 41.1 69.7999 41.2 69.9999C41.3 70.1999 41.5 70.3999 41.7 70.4999C42.3 70.8999 42.9 71.3998 43.5 71.7998C45.7 73.3998 47.8 74.9999 50 76.4999C51.6 77.6999 53.2 78.8999 54.8 79.9999C55.1 80.1999 55.3 80.1998 55.7 80.1998C56.5 80.0998 57.3 80.0999 58.2 79.9999C60.9 79.7999 63.6 79.5998 66.3 79.3998C68.3 79.2998 70.2 79.0999 72.2 78.9999C72.6 78.9999 72.9 78.7998 73.3 78.5998C74.2 78.0998 75.2 77.4999 76.1 76.9999C78.2 75.7999 80.4 74.5998 82.4 73.2998C82.5 73.1998 82.6 73.1998 82.7 73.0998C82.8 72.9998 82.8 72.9999 82.8 72.9999C83.3 72.6999 83.1 72.1999 82.8 71.9999Z" fill="#009D9B"/>
<path d="M58.2 76.8C58.1 76.5 58 76.1 57.8 75.8C57.3 74.6 56.6 73.4 55.8 72.4C55.4 71.9 55 71.4 54.5 70.9C51.6 68 47.1 66.3 43.2 68C42.1 65.3 40.1 63.1 37.5 61.9C34.7 60.6 31.5 60.5 28.6 61.6C27 62.2 25.5 63.2 24.3 64.5C24.3 64.5 24.3 64.5 24.3 64.6C21.7 64.6 19.3 66.4 18.2 68.8C17.1 71.2 17.2 74 18.4 76.3C14.5 77.1 11.4 81.1 11.3 85.1C11.2 89.3 14.6 92.8 18.5 93.6C21 94.1 23.5 93.8 25.8 92.8C25.9 92.8 25.9 92.7 25.9 92.6C26.5 93.2 27.1 93.9 27.7 94.4C28.6 95.1 29.6 95.4 30.8 95.5C33.2 95.8 35.7 95.5 37.9 94.4C38.5 94.1 39 93.8 39.6 93.5C39.8 93.3 40.1 93.2 40.3 93C40.5 92.8 40.8 92.5 41 92.4C41.2 92.3 41.6 92.6 41.9 92.8C42.2 93 42.5 93.1 42.8 93.3C43.4 93.6 44 93.8 44.6 93.9C47.1 94.6 49.8 94.5 52.2 93.7C52.5 93.6 52.8 93.5 53 93.2C53 93.1 53 93.1 53.1 93C53.2 92.7 53.3 92.4 53.4 92C53.8 90.8 54.2 89.6 54.6 88.5C55.6 85.6 56.6 82.8 57.6 79.9C57.9 79.2 58.1 78.4 58.4 77.7V77.6C58.5 77.4 58.3 77.1 58.2 76.8Z" fill="#1EC38C"/>
<path d="M134.2 78.5001C133.9 76.5001 133.1 74.6001 131.9 73.0001C130 70.6001 127 69.2001 123.9 69.1001C123.1 69.1001 122.3 69.1001 121.6 69.3001C120.3 66.8001 118.1 64.8001 115.4 63.8001C112.3 62.6001 108.7 63.0001 105.8 64.7001C104.3 65.5001 102.9 66.7001 102.3 68.3001C99.8003 67.9001 97.2003 68.5001 95.1003 70.0001C94.1003 70.7001 93.3003 71.6001 92.6003 72.7001C92.3003 73.2001 91.7003 73.9001 91.9003 74.5001C92.4003 76.4001 93.0003 78.2001 93.5003 80.1001C94.4003 83.0001 95.2003 86.0001 96.1003 88.9001C96.4003 90.0001 96.7003 91.0001 97.0003 92.1001C97.1003 92.6001 97.2003 93.3001 97.6003 93.6001C102 96.6001 108 97.8001 112.8 95.1001C113.2 94.9001 113.6 94.6001 114 94.3001C115.5 96.0001 117.5 97.2001 119.7 97.8001C122.3 98.5001 125 98.2001 127.5 97.3001C128.4 97.0001 129.2 96.6001 130 96.1001C130.1 96.1001 130.2 96.1001 130.2 96.2001C131.8 96.5001 133.4 96.5001 135 96.2001C138 95.6001 140.8 93.8001 141.7 90.7001C143.3 85.6001 139.8 78.8001 134.2 78.5001Z" fill="#1EC38C"/>
<path d="M108.6 80.2001C106.2 76.8001 101.8 75.0001 97.7002 75.5001C94.5002 72.8001 90.3002 71.4001 86.1002 72.7001C85.7002 72.8001 85.4002 72.9001 85.0002 73.1001C84.8002 73.2001 84.6002 73.3001 84.4002 73.4001C84.3002 73.4001 84.2002 73.5001 84.2002 73.5001C84.1002 73.5001 84.1002 73.6001 84.1002 73.5001C84.0002 73.4001 83.8002 73.2001 83.7002 73.1001C83.6002 73.0001 83.5002 72.8001 83.3002 72.7001C83.0002 72.4001 82.7002 72.2001 82.4002 71.9001C81.2002 70.9001 79.9002 70.2001 78.4002 69.7001C75.6002 68.7001 72.4002 68.6001 69.5002 69.7001C66.5002 70.8001 63.9002 73.0001 62.4002 75.8001C59.9002 75.3001 57.1002 75.7001 54.9002 77.1001C52.8002 78.4001 51.2002 80.5001 50.5002 82.8001C48.4002 83.1001 46.5002 84.2001 45.3002 86.0001C44.1002 87.9001 44.0002 90.3001 45.0002 92.3001C47.2002 96.5001 52.7002 97.3001 57.0002 97.2001C59.3002 97.2001 61.7002 96.7001 63.6002 95.3001C67.2002 98.5001 72.3002 99.6001 76.8002 97.8001C78.1002 97.3001 79.2002 96.6001 80.3002 95.7001C82.3002 96.7001 84.7002 97.1001 86.9002 96.7001C89.1002 96.4001 91.1002 95.3001 92.7002 93.8001C96.2002 95.6001 100.3 95.9001 104.1 94.4001C106.7 93.4001 109.2 91.6001 110 88.7001C110.8 85.8001 110.3 82.6001 108.6 80.2001Z" fill="#30D9A1"/>
<path fill-rule="evenodd" clip-rule="evenodd" d="M9.50045 14.2878C5.06982 14.2878 1.4882 17.8694 1.4882 22.3V131.5C1.4882 135.931 5.06982 139.512 9.50045 139.512H144.4C148.831 139.512 152.413 135.931 152.413 131.5V22.3C152.413 17.8694 148.831 14.2878 144.4 14.2878H9.50045ZM0.512695 22.3C0.512695 17.3306 4.53107 13.3123 9.50045 13.3123H144.4C149.37 13.3123 153.388 17.3306 153.388 22.3V131.5C153.388 136.469 149.37 140.488 144.4 140.488H9.50045C4.53107 140.488 0.512695 136.469 0.512695 131.5V22.3Z" fill="#004F74"/>
<path fill-rule="evenodd" clip-rule="evenodd" d="M306.715 69.6518C306.036 70.2076 300.062 66.0263 305.163 64.1186C306.05 63.8173 307.161 63.6164 308.489 63.5928C317.079 63.4361 341.76 62.1557 347.39 78.3846C352.905 94.2121 351.745 112.882 335.602 120.002C334.051 120.705 332.166 115.372 333.308 114.863C346.681 108.947 346.6 93.3495 342.058 80.2692C340.428 75.5078 336.383 73.0778 331.938 71.5433C323.494 68.6746 313.383 69.2254 308.544 69.2885C307.688 69.281 307.063 69.2967 306.715 69.6518Z" fill="#FFC84F"/>
<path fill-rule="evenodd" clip-rule="evenodd" d="M292.841 78.2455C293.148 74.3788 296.456 64.6535 308.488 63.5928L307.566 78.3108C307.489 78.3031 292.456 82.1045 292.841 78.2455Z" fill="#F4901E"/>
<path fill-rule="evenodd" clip-rule="evenodd" d="M290.992 117.892L268.424 85.4764L272.127 82.7278L295.788 103.405L290.992 117.892Z" fill="#F4901E"/>
<path fill-rule="evenodd" clip-rule="evenodd" d="M274.127 82.5804C274.212 84.2812 273.48 85.8632 272.197 86.8784C270.914 87.8936 269.209 88.2576 267.623 87.8057C264.237 86.856 260.38 85.7492 257.786 85.0254C257.208 84.8454 256.698 84.3437 256.599 83.7614C256.457 83.1141 256.702 82.4935 257.181 82.0913C260.77 79.2143 267.316 74.0541 270.905 71.1771C271.384 70.7749 272.073 70.6982 272.629 70.9855C273.184 71.2727 273.629 71.8166 273.663 72.441C273.713 75.0879 273.916 79.1138 274.127 82.5804Z" fill="#FFC84F"/>
<path d="M333.163 81.7121C333.053 79.8017 331.457 78.313 329.533 78.3111C319.853 78.2956 292.796 78.2568 292.796 78.2568C292.796 78.2568 289.174 116.391 287.977 128.998C287.877 130.001 288.194 131.045 288.899 131.812C289.604 132.579 290.585 132.993 291.604 133.031C300.801 133.062 323.408 133.1 332.546 133.125C333.571 133.101 334.514 132.688 335.184 131.995C335.861 131.24 336.259 130.266 336.18 129.245C335.526 118.923 333.761 91.3955 333.163 81.7121Z" fill="#FFC84F"/>
<path d="M245.801 56.9C242.701 59.9 243.901 64.2 247.201 66.8C251.501 70.2 256.401 67.1 260.801 72.7C260.801 72.7 260.101 62.5 256.401 58.2C253.001 54.2 248.501 54.2 245.801 56.9Z" fill="#86D2CD"/>
<path d="M230.5 87.1C232.6 92.5 238.5 93.4 243.6 90.7C250.2 87.2 248.9 79.4 258.2 77.1C258.2 77.1 245.1 72.5 237.9 74.8C231.1 76.8 228.7 82.3 230.5 87.1Z" fill="#86D2CD"/>
<path d="M265.701 40.4C259.901 41.2 257.701 46.6999 259.101 52.1999C260.901 59.3999 268.801 60.1 268.801 69.6C268.801 69.6 276.401 58 276.001 50.5C275.601 43.4 270.801 39.7 265.701 40.4Z" fill="#86D2CD"/>
<path fill-rule="evenodd" clip-rule="evenodd" d="M227.5 14.2878C223.07 14.2878 219.488 17.8694 219.488 22.3V131.5C219.488 135.931 223.07 139.512 227.5 139.512H362.5C366.933 139.512 370.507 135.931 370.413 131.51L370.413 131.5V22.3C370.413 17.8694 366.831 14.2878 362.4 14.2878H227.5ZM218.513 22.3C218.513 17.3306 222.531 13.3123 227.5 13.3123H362.4C367.37 13.3123 371.388 17.3306 371.388 22.3V131.495C371.491 136.472 367.466 140.488 362.5 140.488H227.5C222.531 140.488 218.513 136.469 218.513 131.5V22.3Z" fill="#004F74"/>
<path d="M505.401 43.5998C505.401 43.5998 506.401 49.8999 489.101 59.7999C489.101 59.7999 486.901 48.7998 491.201 45.0998C495.501 41.3998 497.301 37.4998 499.001 38.1998C500.601 38.8998 504.401 40.2998 505.401 43.5998Z" fill="#52C9D1"/>
<path d="M487.901 59.9999C487.901 59.9999 483.901 32.4999 496.101 35.5999C505.201 37.8999 505.501 43.5999 505.501 43.5999C505.501 43.5999 503.701 37.8999 498.801 42.5999C495.101 46.0999 490.701 54.8999 489.201 59.8999L487.901 59.9999Z" fill="#7CDEDE"/>
<path d="M463.201 68.3C463.201 68.3 468.201 72.3 485.301 62C485.301 62 476.801 54.7 471.401 56.6C466.001 58.5 461.801 58.2 461.601 60C461.501 61.8 460.801 65.8 463.201 68.3Z" fill="#52C9D1"/>
<path d="M486.001 61.1C486.001 61.1 464.001 44.2 460.801 56.3C458.401 65.4 463.201 68.4 463.201 68.4C463.201 68.4 459.101 64 465.601 62.1C470.501 60.6 480.201 61.1 485.401 62.2L486.001 61.1Z" fill="#7CDEDE"/>
<path d="M483.801 62.1999C484.501 63.3999 486.501 63.5999 488.201 62.6999C489.901 61.7999 490.701 59.8999 489.901 58.6999C489.201 57.4999 487.201 57.2999 485.501 58.1999C483.901 59.0999 483.101 60.8999 483.801 62.1999Z" fill="#52C9D1"/>
<path d="M483.801 62.2C483.101 61 483.901 59.2 485.501 58.2L488.101 62.7C486.501 63.6 484.601 63.4 483.801 62.2Z" fill="#52C9D1"/>
<path d="M464.601 86.9C464.601 86.2 465.201 85.6 465.901 85.6L527.201 85.2C527.901 85.2 528.501 85.8 528.501 86.5L528.701 129.3C528.701 130 528.101 130.6 527.401 130.6L466.101 131C465.401 131 464.801 130.4 464.801 129.7L464.601 86.9Z" fill="#004F74"/>
<path d="M496.601 86.7C496.601 86 497.201 85.4 497.901 85.4L527.301 85.2C528.001 85.2 528.601 85.8 528.601 86.5L528.801 129.3C528.801 130 528.201 130.6 527.501 130.6L498.101 130.8C497.401 130.8 496.801 130.2 496.801 129.5L496.601 86.7Z" fill="#004F74"/>
<path d="M460.201 78.1C459.801 77.5 460.001 76.7001 460.701 76.3001L513.601 45.3001C514.201 44.9001 515.001 45.1001 515.401 45.8001L519.101 52.1C519.501 52.7 519.301 53.5 518.601 53.9L465.701 84.9C465.101 85.3 464.301 85.1 463.901 84.4L460.201 78.1Z" fill="#004F74"/>
<path d="M487.801 61.9999C487.401 61.3999 487.601 60.5999 488.301 60.1999L513.601 45.3999C514.201 44.9999 515.001 45.1999 515.401 45.8999L519.101 52.1999C519.501 52.7999 519.301 53.5999 518.601 53.9999L493.301 68.6999C492.701 69.0999 491.901 68.8999 491.501 68.1999L487.801 61.9999Z" fill="#004F74"/>
<path d="M487.184 60.852L483.387 63.074L488.386 71.6186L492.184 69.3966L487.184 60.852Z" fill="#7CDEDE"/>
<path d="M490.985 58.6226L487.188 60.8459L492.191 69.3887L495.988 67.1653L490.985 58.6226Z" fill="#7CDEDE"/>
<path d="M500.987 85.3856L492.187 85.4341L492.436 130.834L501.236 130.786L500.987 85.3856Z" fill="#7CDEDE"/>
<path d="M500.99 85.3978L496.59 85.4214L496.833 130.821L501.233 130.798L500.99 85.3978Z" fill="#7CDEDE"/>
<path d="M531.701 58.1001L526.501 61.6001L520.601 59.3001L522.301 65.4001L518.301 70.3001L524.601 70.5001L528.001 75.8001L530.201 69.9001L536.301 68.3001L531.301 64.4001L531.701 58.1001Z" fill="#FCBA56"/>
<path d="M507.201 77.1C508.201 76.6 509.401 77.1 509.901 78.1C510.401 79.1 509.901 80.3 508.901 80.8C507.901 81.3 506.701 80.8 506.201 79.8C505.701 78.8 506.201 77.6 507.201 77.1Z" fill="#52C9D1"/>
<path d="M538.801 44.2C537.301 44.9 536.701 46.6 537.401 48.1C538.101 49.6 539.801 50.2 541.301 49.5C542.801 48.8 543.401 47.1 542.701 45.6C542.001 44.1 540.201 43.5 538.801 44.2Z" fill="#004F74"/>
<path d="M539.301 77.6C537.601 78.4 536.901 80.3 537.701 82C538.501 83.7 540.401 84.4 542.101 83.6C543.801 82.8 544.501 80.9 543.701 79.2C542.901 77.6 540.901 76.8 539.301 77.6Z" fill="#FCBA56"/>
<path d="M555.701 53.2L554.401 61.1L547.201 64.4L554.201 68.1L555.201 76L560.901 70.4L568.601 71.9L565.101 64.8L569.001 57.9L561.101 59L555.701 53.2Z" fill="#7CDEDE"/>
<path fill-rule="evenodd" clip-rule="evenodd" d="M443.506 14.2878C439.072 14.2878 435.488 17.8697 435.488 22.3V131.5C435.488 135.93 439.072 139.512 443.506 139.512H578.593C583.029 139.512 586.605 135.931 586.511 131.51L586.511 131.5V22.3C586.511 17.8697 582.927 14.2878 578.493 14.2878H443.506ZM434.513 22.3C434.513 17.3303 438.534 13.3123 443.506 13.3123H578.493C583.465 13.3123 587.486 17.3303 587.486 22.3V131.495C587.589 136.472 583.561 140.488 578.593 140.488H443.506C438.534 140.488 434.513 136.47 434.513 131.5V22.3Z" fill="#004F74"/>
<g clip-path="url(#clip0_488_2)">
<path d="M683.72 75.9002C684.521 77.5002 698.029 88.9002 698.029 88.9002L704.533 79.8002C704.533 79.8002 697.329 73.7002 696.628 72.9002C696.628 72.9002 704.333 57.0001 708.636 49.5001C709.337 49.1001 711.338 47.3002 712.138 47.1002C713.339 46.9002 715.741 46.2002 716.241 45.8002C716.841 45.4002 718.042 44.6002 718.743 44.1002C719.443 43.6002 720.344 43.1002 720.644 42.8002C720.844 42.6002 721.444 42.4002 721.845 42.3002C722.445 42.1002 722.545 41.2002 721.945 40.9002C721.344 40.6002 720.544 40.9001 719.943 41.0001C718.442 41.4001 716.341 42.9002 716.341 42.7002C716.241 42.5002 718.643 38.9001 718.943 38.5001C719.143 38.1001 721.945 33.9002 722.245 32.9002C722.545 31.9002 721.945 31.6002 721.444 31.9002C721.044 32.2002 716.741 37.6002 716.741 37.6002C716.741 37.6002 716.241 38.3002 716.141 37.8002C716.041 37.3002 719.843 32.4001 720.344 31.5001C720.744 30.7001 720.644 29.9002 719.743 30.1002C718.643 30.3002 714.94 35.9002 714.94 35.9002C714.94 35.9002 714.44 36.6002 714.24 36.3002C714.04 36.0002 717.342 31.8002 717.442 31.3002C717.542 30.8002 717.142 30.2001 716.441 30.5001C715.541 30.9001 712.238 35.9002 712.238 35.9002C712.238 35.9002 711.838 36.2002 711.838 35.9002C711.738 35.6002 714.34 31.9002 714.34 31.3002C714.34 30.8002 713.839 30.8002 713.839 30.8002C712.839 30.6002 710.838 34.6002 709.337 36.2002C708.936 36.6002 706.535 40.4001 703.333 45.5001C699.33 51.1001 688.223 66.1002 688.223 66.1002C688.223 66.1002 682.919 74.3002 683.72 75.9002Z" fill="#FBD6B1"/>
<path d="M771.477 174.7C771.477 174.5 765.273 148.2 762.771 142.4C760.27 136.6 750.563 109.5 750.563 109.5L763.172 106.7C763.172 106.7 771.277 127.9 774.979 137.4C778.682 147 777.081 164.6 777.281 169.6C777.281 169.7 777.781 173.8 777.781 173.9C777.881 174.4 777.981 174.9 778.081 175C778.281 175.2 778.682 176.9 778.682 177.1C778.682 177.2 779.082 177.8 779.182 178.1C779.282 178.4 779.682 181.7 779.782 182.3C779.882 182.8 779.582 184.1 779.582 184.1L779.682 186.4C779.782 188.1 778.081 187.6 778.081 187.6C778.081 188.4 777.881 188.8 777.381 188.9C776.981 189 776.38 188.9 776.38 189C776.38 189.1 776.28 189.3 776.28 189.3C776.28 189.8 775.78 190.2 775.379 190.3C774.979 190.4 774.379 190.1 774.179 189.9C773.979 189.7 773.879 189.7 773.879 189.7C773.478 190 772.077 190 771.777 189.5C771.477 189 771.177 186.7 770.977 186.4C770.877 186.2 770.476 185.8 770.476 185.5C770.476 185.2 769.276 182.7 769.175 182.2C769.075 181.7 769.776 180.1 769.976 179.1C770.176 178.1 771.077 176.6 771.377 176.1C771.577 175.9 771.577 175.3 771.477 174.7Z" fill="#FBD6B1"/>
<path d="M702.832 77.6003C703.533 77.4003 722.145 88.8002 722.345 93.2002C722.545 97.6002 716.241 104.6 710.837 101.8C705.534 99.0003 694.627 87.6003 694.627 87.6003C694.627 87.6003 700.531 78.2003 702.832 77.6003Z" fill="#009D9B"/>
<path d="M735.054 84.9002C735.054 84.9002 745.76 84.2002 750.063 88.9002C754.266 93.5002 740.657 130.2 739.857 136.2C739.056 142.1 743.759 157.8 743.759 157.8C743.759 157.8 718.543 162.9 711.338 158.1C711.338 158.1 710.538 115.6 711.338 111.4C712.139 107.2 718.543 90.0002 720.144 88.3002C721.545 86.6002 735.054 84.9002 735.054 84.9002Z" fill="#50BFA5"/>
<path d="M755.466 125.3C755.466 125.3 741.557 108.6 739.056 102.5C736.554 96.3002 740.256 87.1002 746.16 86.4002C752.064 85.7002 766.774 113 766.774 113L755.466 125.3Z" fill="#009D9B"/>
<path d="M733.652 76.7001C733.652 76.7001 735.754 73.0001 737.555 71.2001C739.356 69.4001 741.858 64.2001 741.057 58.2001C740.357 52.2001 735.754 49.9001 733.152 49.2001C730.65 48.5001 721.244 48.5001 718.042 50.1001C714.84 51.6001 716.541 63.6001 716.541 63.6001L721.545 72.8001L733.652 76.7001Z" fill="#004F74"/>
<path d="M722.946 78.5002L721.845 88.8002C721.845 88.8002 721.545 91.7002 723.046 92.8002C725.547 94.8002 734.753 84.9002 734.753 84.9002L733.752 68.7002L722.946 78.5002Z" fill="#FBD6B1"/>
<path d="M733.952 73.5001C731.651 80.1001 725.647 83.3001 722.345 83.7001L722.945 78.4001L733.652 68.6001L733.952 73.5001Z" fill="#F4BD89"/>
<path d="M728.549 52.3001C723.746 50.4001 718.342 53.4001 717.341 58.4001C716.941 60.6001 716.441 63.3001 716.241 66.3001C715.74 73.5001 719.143 80.8001 722.445 80.9001C725.747 81.1001 735.053 76.8001 735.853 66.6001C736.454 60.3001 733.652 54.3001 728.549 52.3001Z" fill="#FBD6B1"/>
<path d="M733.552 67.3001C733.452 68.9001 734.452 70.2001 735.753 70.3001C737.054 70.4001 738.155 69.1 738.255 67.5C738.355 65.9 737.354 64.6 736.053 64.5C734.753 64.4 733.552 65.7001 733.552 67.3001Z" fill="#FBD6B1"/>
<path d="M736.054 64.5001C736.054 64.5001 736.755 61.1001 736.454 57.8001C736.154 54.5001 733.352 49.8001 730.05 49.1001C726.648 48.4001 718.843 49.7001 717.842 47.6001C716.842 45.5001 716.842 45.7001 716.441 45.3001C715.641 44.5001 710.938 47.7001 711.138 53.3001C711.338 58.9001 716.341 58.7001 717.242 58.9001C718.243 59.1001 726.948 55.4001 729.65 55.5001C732.352 55.7001 736.054 64.5001 736.054 64.5001Z" fill="#004F74"/>
<path d="M711.038 141.5C710.938 136.4 710.938 129.1 710.938 129.1C719.943 120.3 734.953 84.9001 734.953 84.9001C734.953 84.9001 740.256 84.6 744.859 86C745.96 86.3 728.149 134.5 711.038 141.5Z" fill="#FFC84F"/>
</g>
<path fill-rule="evenodd" clip-rule="evenodd" d="M660.505 14.1001C656.078 14.1001 652.5 17.6765 652.5 22.1001V131.3C652.5 135.724 656.078 139.3 660.505 139.3H795.593C800.022 139.3 803.592 135.724 803.498 131.311L803.498 131.3V22.1001C803.498 17.6765 799.92 14.1001 795.493 14.1001H660.505ZM651.5 22.1001C651.5 17.1237 655.527 13.1001 660.505 13.1001H795.493C800.471 13.1001 804.498 17.1237 804.498 22.1001V131.295C804.601 136.279 800.568 140.3 795.593 140.3H660.505C655.527 140.3 651.5 136.277 651.5 131.3V22.1001Z" fill="#004F74"/>
<path d="M77.4 26.1999C84.2483 26.1999 89.8 20.6483 89.8 13.7999C89.8 6.9516 84.2483 1.3999 77.4 1.3999C70.5517 1.3999 65 6.9516 65 13.7999C65 20.6483 70.5517 26.1999 77.4 26.1999Z" fill="#004F74"/>
<path d="M78.9576 6.99048V20.0814H77.3723V8.65241H77.2956L74.0996 10.7746V9.16377L77.3723 6.99048H78.9576Z" fill="white"/>
<path d="M295.4 24.8C302.248 24.8 307.8 19.2483 307.8 12.4C307.8 5.55163 302.248 0 295.4 0C288.552 0 283 5.55163 283 12.4C283 19.2483 288.552 24.8 295.4 24.8Z" fill="#004F74"/>
<path d="M291.355 18.7623V17.6118L295.676 12.8816C296.184 12.3277 296.601 11.8461 296.929 11.437C297.257 11.0237 297.5 10.6359 297.658 10.2737C297.82 9.9072 297.901 9.52368 297.901 9.12311C297.901 8.66289 297.79 8.26445 297.569 7.9278C297.351 7.59115 297.053 7.33121 296.674 7.14797C296.294 6.96473 295.868 6.87311 295.395 6.87311C294.892 6.87311 294.453 6.97752 294.078 7.18632C293.708 7.39087 293.42 7.67851 293.216 8.04925C293.015 8.41999 292.915 8.85465 292.915 9.35323H291.407C291.407 8.58618 291.583 7.91289 291.937 7.33334C292.291 6.7538 292.772 6.30209 293.382 5.97823C293.995 5.65436 294.684 5.49243 295.446 5.49243C296.213 5.49243 296.893 5.65436 297.485 5.97823C298.078 6.30209 298.542 6.73888 298.879 7.2886C299.216 7.83831 299.384 8.44982 299.384 9.12311C299.384 9.60465 299.297 10.0755 299.122 10.5358C298.951 10.9917 298.653 11.501 298.227 12.0635C297.805 12.6217 297.219 13.3035 296.469 14.1089L293.529 17.2538V17.3561H299.614V18.7623H291.355Z" fill="white"/>
<path d="M511.4 24.8C518.248 24.8 523.8 19.2483 523.8 12.4C523.8 5.55163 518.248 0 511.4 0C504.552 0 499 5.55163 499 12.4C499 19.2483 504.552 24.8 511.4 24.8Z" fill="#004F74"/>
<path d="M511.778 18.9413C510.934 18.9413 510.182 18.7964 509.522 18.5066C508.865 18.2169 508.343 17.8142 507.956 17.2985C507.572 16.7787 507.363 16.1757 507.329 15.4896H508.94C508.974 15.9115 509.119 16.2758 509.375 16.5826C509.63 16.8852 509.965 17.1196 510.378 17.2858C510.791 17.4519 511.25 17.535 511.752 17.535C512.315 17.535 512.813 17.437 513.248 17.241C513.683 17.045 514.024 16.7723 514.271 16.4228C514.518 16.0734 514.642 15.6686 514.642 15.2083C514.642 14.7268 514.522 14.3028 514.284 13.9363C514.045 13.5656 513.696 13.2758 513.235 13.067C512.775 12.8582 512.213 12.7538 511.548 12.7538H510.5V11.3475H511.548C512.068 11.3475 512.524 11.2538 512.916 11.0663C513.312 10.8788 513.621 10.6146 513.843 10.2737C514.068 9.93277 514.181 9.5322 514.181 9.07198C514.181 8.62879 514.083 8.24314 513.887 7.91502C513.691 7.58689 513.414 7.33121 513.056 7.14797C512.703 6.96473 512.285 6.87311 511.804 6.87311C511.352 6.87311 510.926 6.95621 510.525 7.1224C510.129 7.28434 509.805 7.52084 509.554 7.83192C509.302 8.13874 509.166 8.50948 509.144 8.94414H507.61C507.636 8.25806 507.843 7.6572 508.23 7.14158C508.618 6.62169 509.125 6.21686 509.752 5.92709C510.382 5.63732 511.075 5.49243 511.829 5.49243C512.639 5.49243 513.333 5.65649 513.913 5.98462C514.492 6.30848 514.938 6.73675 515.249 7.26942C515.56 7.80209 515.715 8.37738 515.715 8.99527C515.715 9.73249 515.522 10.361 515.134 10.8809C514.75 11.4008 514.228 11.7609 513.568 11.9612V12.0635C514.394 12.1998 515.04 12.5514 515.505 13.1181C515.969 13.6806 516.201 14.3774 516.201 15.2083C516.201 15.92 516.007 16.5592 515.62 17.126C515.236 17.6885 514.712 18.1316 514.047 18.4555C513.382 18.7794 512.626 18.9413 511.778 18.9413Z" fill="white"/>
<path d="M728.4 24.8C735.248 24.8 740.8 19.2483 740.8 12.4C740.8 5.55163 735.248 0 728.4 0C721.552 0 716 5.55163 716 12.4C716 19.2483 721.552 24.8 728.4 24.8Z" fill="#004F74"/>
<path d="M723.049 16.0776V14.7737L728.802 5.67139H729.748V7.69127H729.108L724.762 14.5691V14.6714H732.509V16.0776H723.049ZM729.211 18.7623V15.6813V15.0741V5.67139H730.719V18.7623H729.211Z" fill="white"/>
<path d="M144.3 154.3H9.5C4.8 154.3 1 150.5 1 145.8V129.3H152.8V145.8C152.8 150.5 149 154.3 144.3 154.3Z" fill="#004F74"/>
<path fill-rule="evenodd" clip-rule="evenodd" d="M0.546875 128.846H153.254V145.8C153.254 150.751 149.251 154.754 144.301 154.754H9.50062C4.55003 154.754 0.546875 150.751 0.546875 145.8V128.846ZM1.45438 129.754V145.8C1.45438 150.249 5.05122 153.846 9.50062 153.846H144.301C148.75 153.846 152.347 150.249 152.347 145.8V129.754H1.45438Z" fill="#004F74"/>
<path d="M362.3 154.3H227.5C222.8 154.3 219 150.5 219 145.8V129.3H370.8V145.8C370.8 150.5 367 154.3 362.3 154.3Z" fill="#004F74"/>
<path fill-rule="evenodd" clip-rule="evenodd" d="M218.547 128.846H371.254V145.8C371.254 150.751 367.251 154.754 362.301 154.754H227.501C222.55 154.754 218.547 150.751 218.547 145.8V128.846ZM219.454 129.754V145.8C219.454 150.249 223.051 153.846 227.501 153.846H362.301C366.75 153.846 370.347 150.249 370.347 145.8V129.754H219.454Z" fill="#004F74"/>
<path d="M578.394 154.3H443.506C438.803 154.3 435 150.5 435 145.8V129.3H587V145.8C587 150.5 583.097 154.3 578.394 154.3Z" fill="#004F74"/>
<path fill-rule="evenodd" clip-rule="evenodd" d="M434.547 128.846H587.454V145.8C587.454 150.758 583.341 154.754 578.395 154.754H443.506C438.553 154.754 434.547 150.751 434.547 145.8V128.846ZM435.454 129.754V145.8C435.454 150.249 439.053 153.846 443.506 153.846H578.395C582.855 153.846 586.547 150.242 586.547 145.8V129.754H435.454Z" fill="#004F74"/>
<path d="M795.489 154.3H660.511C655.805 154.3 652 150.5 652 145.8V129.3H804V145.8C804 150.5 800.195 154.3 795.489 154.3Z" fill="#004F74"/>
<path fill-rule="evenodd" clip-rule="evenodd" d="M651.547 128.846H804.454V145.8C804.454 150.751 800.446 154.754 795.489 154.754H660.512C655.556 154.754 651.547 150.751 651.547 145.8V128.846ZM652.454 129.754V145.8C652.454 150.249 656.056 153.846 660.512 153.846H795.489C799.946 153.846 803.547 150.249 803.547 145.8V129.754H652.454Z" fill="#004F74"/>
<path d="M31.3469 140.379H28.6309V141.359H30.3529V145.335H31.3469V140.379ZM31.3469 144.915H30.4509C29.8069 145.531 29.0649 146.161 28.4629 146.623L29.0089 147.617C29.6809 146.987 30.3109 146.385 30.9129 145.783C31.7949 146.889 33.0689 147.393 34.9309 147.463C36.5269 147.519 39.5789 147.491 41.1749 147.421C41.2169 147.127 41.3849 146.651 41.5109 146.427C39.7889 146.539 36.4989 146.581 34.9169 146.511C33.2509 146.441 32.0049 145.965 31.3469 144.915ZM28.7009 135.717C29.5129 136.417 30.4229 137.425 30.7869 138.125L31.6689 137.523C31.2769 136.823 30.3389 135.857 29.5129 135.185L28.7009 135.717ZM32.3829 140.771V141.583H40.8809V140.771H32.3829ZM31.9349 142.927V143.753H41.3149V142.927H31.9349ZM34.4549 139.763V143.333H35.4629V139.763H34.4549ZM37.7589 139.763V143.333H38.7529V139.763H37.7589ZM32.7329 137.047V137.789H36.1209V135.409H32.2009V136.137H35.1969V137.047H32.7329ZM32.4389 137.047V138.517C32.4389 139.357 32.7189 139.567 33.7549 139.567C33.9649 139.567 35.2949 139.567 35.5189 139.567C36.2329 139.567 36.4989 139.329 36.5969 138.419C36.3449 138.377 35.9949 138.265 35.8269 138.125C35.7849 138.741 35.7149 138.825 35.3789 138.825C35.1129 138.825 34.0489 138.825 33.8529 138.825C33.4049 138.825 33.3349 138.769 33.3349 138.503V137.047H32.4389ZM37.3529 137.047V137.789H40.6849V135.409H36.7929V136.137H39.7749V137.047H37.3529ZM37.0449 137.047V138.503C37.0449 139.357 37.3389 139.567 38.4029 139.567C38.6269 139.567 40.0549 139.567 40.2789 139.567C41.0349 139.567 41.3009 139.329 41.3989 138.377C41.1469 138.321 40.7969 138.209 40.6149 138.083C40.5729 138.741 40.5029 138.825 40.1529 138.825C39.8729 138.825 38.7249 138.825 38.5009 138.825C38.0249 138.825 37.9409 138.769 37.9409 138.503V137.047H37.0449ZM37.5069 144.383C38.4729 144.887 39.5089 145.559 40.0689 146.077L41.1049 145.615C40.4329 145.097 39.2849 144.411 38.2629 143.921L37.5069 144.383ZM34.9449 143.893C34.3149 144.467 33.2649 144.999 32.3129 145.377C32.5369 145.517 32.9289 145.853 33.0829 146.035C34.0209 145.587 35.1549 144.901 35.8689 144.215L34.9449 143.893Z" fill="white"/>
<path d="M52.7249 136.179H54.1529V137.663H52.7249V136.179ZM50.4849 136.179H51.8849V137.663H50.4849V136.179ZM48.3149 136.179H49.6449V137.663H48.3149V136.179ZM47.4469 135.423V138.419H55.0349V135.423H47.4469ZM47.6009 139.287V140.085H54.7549V139.287H47.6009ZM46.9009 141.079V141.919H55.4549V141.079H46.9009ZM47.0409 143.249V144.075H55.2589V143.249H47.0409ZM47.3209 145.083V145.895H54.9509V145.083H47.3209ZM50.6249 138.223V141.415H51.6329V138.223H50.6249ZM50.6249 143.613V147.841H51.6329V143.613H50.6249ZM48.6509 142.045C48.8749 142.465 49.0849 143.039 49.1689 143.389L50.0789 143.151C49.9949 142.787 49.7429 142.241 49.5189 141.849L48.6509 142.045ZM52.8369 141.709C52.6969 142.115 52.4169 142.745 52.1929 143.165L52.9909 143.389C53.2289 143.025 53.5369 142.493 53.8169 141.975L52.8369 141.709ZM42.3789 142.115L42.6589 143.137C43.8489 142.759 45.3889 142.255 46.8449 141.751L46.7049 140.785C45.1089 141.303 43.4709 141.807 42.3789 142.115ZM42.5749 137.677V138.657H46.8309V137.677H42.5749ZM44.3389 134.863V146.511C44.3389 146.721 44.2549 146.763 44.0869 146.763C43.9189 146.777 43.3869 146.777 42.7709 146.763C42.9109 147.057 43.0369 147.491 43.0789 147.743C43.9609 147.743 44.5069 147.715 44.8289 147.547C45.1789 147.379 45.3189 147.099 45.3189 146.511V134.863H44.3389Z" fill="white"/>
<path d="M64.9609 135.913V147.085H65.9689V135.913H64.9609ZM61.4749 137.327V138.181H69.2309V137.327H61.4749ZM61.0969 146.581V147.449H69.4969V146.581H61.0969ZM61.8949 144.621V145.475H69.0209V144.621H61.8949ZM68.5729 135.031C66.9769 135.395 64.0649 135.619 61.7269 135.703C61.8249 135.927 61.9509 136.291 61.9649 136.515C64.3729 136.459 67.3409 136.235 69.2029 135.815L68.5729 135.031ZM63.0009 141.709H67.9849V142.843H63.0009V141.709ZM63.0009 139.917H67.9849V141.023H63.0009V139.917ZM62.0629 139.133V143.627H68.9649V139.133H62.0629ZM58.9689 136.011V147.701H59.9909V136.011H58.9689ZM56.6729 138.797V139.791H61.7549V138.797H56.6729ZM59.0249 139.175C58.5209 140.911 57.4009 143.095 56.3929 144.215C56.5749 144.453 56.8269 144.887 56.9249 145.181C58.0029 143.879 59.1229 141.429 59.6829 139.455L59.0249 139.175ZM61.0409 135.059C60.0189 135.535 58.1709 135.927 56.5889 136.193C56.7149 136.431 56.8549 136.767 56.9109 137.005C58.5349 136.781 60.4949 136.389 61.7829 135.871L61.0409 135.059ZM59.9489 140.603L59.4589 141.023C59.8929 141.513 60.9429 142.843 61.2789 143.417L61.8949 142.591C61.6149 142.241 60.2989 140.911 59.9489 140.603Z" fill="white"/>
<path d="M75.6149 136.333V137.257H83.4549V136.333H75.6149ZM76.1189 146.021V146.959H83.5109V146.021H76.1189ZM79.3669 134.863C79.3249 136.151 79.1849 137.845 79.0309 138.881L79.9689 139.007C80.1509 137.929 80.3329 136.263 80.4449 134.919L79.3669 134.863ZM75.6429 139.371V147.743H76.5949V139.371H75.6429ZM78.5969 141.135H81.7749V142.241H78.5969V141.135ZM78.5969 142.997H81.7749V144.117H78.5969V142.997ZM78.5969 139.287H81.7749V140.379H78.5969V139.287ZM77.6729 138.489V144.901H82.7269V138.489H77.6729ZM70.7149 137.887V138.881H75.2649V137.887H70.7149ZM72.6889 134.849V147.715H73.6549V134.849H72.6889ZM72.6609 138.475C72.2689 140.477 71.3589 142.913 70.4349 144.173C70.6029 144.397 70.8549 144.803 70.9669 145.069C71.9469 143.669 72.8709 140.911 73.3049 138.699L72.6609 138.475ZM73.5849 139.665L73.1089 140.113C73.4589 140.659 74.4529 142.339 74.7609 143.053L75.3489 142.269C75.0829 141.849 73.8929 140.057 73.5849 139.665Z" fill="white"/>
<path d="M85.8349 137.103V138.041H89.1109V145.307H85.8349V146.259H90.0909V137.103H85.8349ZM85.2049 137.103V147.379H86.1849V137.103H85.2049ZM85.7649 140.995V141.933H89.6289V140.995H85.7649ZM87.3469 134.821C87.2349 135.549 86.9689 136.613 86.7309 137.285L87.5709 137.495C87.8509 136.865 88.2009 135.899 88.4809 135.031L87.3469 134.821ZM92.0789 137.061V138.041H96.3769V137.061H92.0789ZM96.0129 137.061V137.285C95.8169 143.459 95.5929 145.783 95.1309 146.287C94.9769 146.469 94.8089 146.511 94.5289 146.511C94.2069 146.511 93.3669 146.497 92.4569 146.427C92.6529 146.707 92.7789 147.141 92.8069 147.449C93.5909 147.491 94.4169 147.519 94.8929 147.463C95.3829 147.421 95.7049 147.295 96.0129 146.889C96.5729 146.203 96.7689 144.033 96.9929 137.607C96.9929 137.453 96.9929 137.061 96.9929 137.061H96.0129ZM92.3729 134.793C91.9249 136.739 91.1549 138.671 90.2029 139.903C90.4549 140.043 90.8889 140.337 91.0709 140.505C92.0369 139.175 92.8629 137.117 93.3809 135.031L92.3729 134.793ZM91.7289 140.701C92.4989 141.723 93.4369 143.109 93.8569 143.963L94.7529 143.403C94.3049 142.577 93.3389 141.219 92.5409 140.225L91.7289 140.701Z" fill="white"/>
<path d="M106.891 134.849V144.607H107.885V134.849H106.891ZM102.481 140.631L102.887 141.555L110.419 138.349L110.027 137.453L102.481 140.631ZM103.993 136.165V145.517C103.993 147.043 104.469 147.421 106.079 147.421C106.429 147.421 109.145 147.421 109.523 147.421C110.993 147.421 111.329 146.805 111.497 144.873C111.203 144.817 110.797 144.649 110.545 144.481C110.447 146.091 110.307 146.469 109.481 146.469C108.921 146.469 106.569 146.469 106.107 146.469C105.169 146.469 105.001 146.301 105.001 145.531V136.165H103.993ZM109.845 137.593C109.845 140.379 109.831 142.367 109.747 142.731C109.677 143.053 109.537 143.109 109.327 143.109C109.173 143.109 108.711 143.109 108.389 143.095C108.515 143.333 108.599 143.725 108.641 144.005C109.019 144.005 109.579 144.005 109.957 143.907C110.363 143.809 110.629 143.543 110.713 142.983C110.811 142.437 110.853 140.337 110.853 137.705L110.895 137.509L110.153 137.229L109.971 137.383L109.719 137.593H109.845ZM98.5749 138.223V139.217H103.027V138.223H98.5749ZM100.381 135.017V144.103H101.375V135.017H100.381ZM98.4489 144.467L98.8689 145.503C100.115 144.971 101.697 144.257 103.195 143.543L102.971 142.605C101.305 143.319 99.5829 144.047 98.4489 144.467Z" fill="white"/>
<path d="M119.393 141.513V147.729H120.359V142.479H123.887V147.673H124.895V141.513H119.393ZM121.423 134.877V141.821H122.459V134.877H121.423ZM122.025 137.915V138.895H125.455V137.915H122.025ZM119.897 146.105V147.071H124.377V146.105H119.897ZM113.905 136.137H117.755V139.525H113.905V136.137ZM113.079 135.367V140.295H118.609V135.367H113.079ZM114.101 136.823C114.339 137.509 114.521 138.391 114.549 138.979L115.095 138.811C115.053 138.251 114.871 137.369 114.633 136.683L114.101 136.823ZM114.577 144.845C114.773 145.615 114.913 146.623 114.913 147.281L115.641 147.183C115.627 146.525 115.487 145.517 115.263 144.747L114.577 144.845ZM115.921 144.761C116.229 145.475 116.523 146.413 116.607 147.029L117.321 146.875C117.223 146.259 116.915 145.321 116.593 144.621L115.921 144.761ZM117.251 144.565C117.727 145.223 118.217 146.119 118.427 146.721L119.127 146.399C118.917 145.825 118.413 144.957 117.909 144.313L117.251 144.565ZM113.387 144.789C113.261 145.755 112.995 146.777 112.449 147.351L113.163 147.743C113.765 147.113 113.989 146.021 114.129 144.985L113.387 144.789ZM116.971 136.641C116.845 137.285 116.565 138.279 116.355 138.881L116.817 139.063C117.055 138.503 117.335 137.593 117.587 136.879L116.971 136.641ZM112.673 143.305L112.729 144.229C114.339 144.131 116.663 143.991 118.903 143.823L118.931 142.983C116.607 143.123 114.227 143.235 112.673 143.305ZM112.981 141.247V142.101H118.707V141.247H112.981ZM115.431 135.731V139.931H115.319V143.543H116.257V139.931H116.145V135.731H115.431Z" fill="white"/>
<path d="M234.941 142.312V143.236H244.475V142.312H234.941ZM233.135 137.258V138.224H242.291V137.258H233.135ZM237.083 139.778V140.716H243.495V139.778H237.083ZM244.027 142.312V142.48C243.803 145.266 243.537 146.372 243.215 146.694C243.089 146.806 242.949 146.834 242.683 146.834C242.417 146.834 241.745 146.834 241.045 146.75C241.213 147.03 241.325 147.436 241.339 147.73C242.067 147.758 242.767 147.772 243.117 147.744C243.537 147.716 243.803 147.618 244.069 147.352C244.517 146.89 244.783 145.728 245.035 142.774C245.063 142.62 245.077 142.312 245.077 142.312H244.027ZM240.919 143.992C241.339 144.58 241.773 145.392 241.955 145.896L242.725 145.574C242.543 145.07 242.109 144.286 241.661 143.712L240.919 143.992ZM234.871 135.27C235.417 135.858 236.005 136.684 236.243 137.23L237.223 136.782C236.943 136.25 236.327 135.452 235.781 134.892L234.871 135.27ZM236.775 144.342C237.013 145.252 237.167 146.4 237.139 147.156L238.063 147.03C238.063 146.274 237.909 145.112 237.629 144.23L236.775 144.342ZM238.833 144.216C239.183 144.986 239.519 146.008 239.617 146.68L240.485 146.442C240.373 145.784 240.023 144.79 239.659 144.02L238.833 144.216ZM234.983 144.02C234.703 145.098 234.171 146.344 233.387 147.086L234.199 147.66C235.053 146.806 235.543 145.476 235.865 144.314L234.983 144.02ZM239.113 134.85C238.049 138.476 235.893 142.06 232.421 144.034C232.603 144.258 232.869 144.678 232.995 144.93C236.705 142.732 238.903 139.036 240.177 135.116L239.113 134.85ZM242.053 137.258C241.899 138.154 241.661 139.274 241.465 140.016L242.389 140.142C242.599 139.386 242.851 138.224 243.047 137.258H242.053ZM243.103 139.778C242.963 140.674 242.725 141.808 242.515 142.564L243.467 142.676C243.663 141.92 243.901 140.744 244.097 139.778H243.103Z" fill="white"/>
<path d="M246.771 140.464V141.458H250.747V140.464H246.771ZM248.591 137.748V138.756H253.085V137.748H248.591ZM253.491 138.378L252.595 138.574C253.631 142.466 255.563 145.448 258.769 146.82C258.923 146.54 259.259 146.12 259.497 145.91C256.375 144.734 254.415 141.878 253.491 138.378ZM258.041 138.742C257.117 139.806 255.507 141.206 254.317 142.046L255.059 142.648C256.277 141.836 257.831 140.534 259.007 139.428L258.041 138.742ZM252.469 137.748V146.372C252.469 146.596 252.399 146.666 252.147 146.68C251.909 146.694 251.083 146.694 250.229 146.652C250.397 146.96 250.551 147.422 250.607 147.716C251.769 147.716 252.525 147.702 252.987 147.534C253.435 147.352 253.589 147.03 253.589 146.386V137.748H252.469ZM249.879 135.732C251.643 136.194 253.897 137.02 255.059 137.664L255.591 136.684C254.401 136.054 252.119 135.27 250.397 134.878L249.879 135.732ZM250.355 140.464V140.674C249.753 143.11 248.241 145.042 246.477 146.05C246.729 146.232 247.149 146.624 247.317 146.862C249.109 145.7 250.733 143.6 251.461 140.716L250.761 140.422L250.565 140.464H250.355Z" fill="white"/>
<path d="M267.127 143.404H271.649V144.034H267.127V143.404ZM267.127 144.594H271.649V145.238H267.127V144.594ZM267.127 142.242H271.649V142.858H267.127V142.242ZM266.203 141.626V145.84H272.601V141.626H266.203ZM269.983 146.386C270.963 146.792 272.013 147.352 272.601 147.758L273.511 147.198C272.839 146.764 271.677 146.232 270.655 145.826L269.983 146.386ZM268.779 134.85V137.468H269.815V134.85H268.779ZM265.377 135.704V136.418H273.259V135.704H265.377ZM266.035 137.076V137.748H272.797V137.076H266.035ZM266.623 138.924H272.125V140.394H266.623V138.924ZM265.769 138.308V141.01H273.007V138.308H265.769ZM268.233 138.602C268.163 139.316 267.813 139.596 266.679 139.75C266.819 139.862 267.001 140.086 267.057 140.24C268.387 139.988 268.835 139.554 268.933 138.602H268.233ZM269.759 138.56V139.218C269.759 139.848 269.955 139.974 270.795 139.974C270.935 139.974 271.873 139.974 272.027 139.974C272.531 139.974 272.755 139.876 272.811 139.582C272.601 139.54 272.335 139.484 272.181 139.4C272.139 139.47 272.097 139.484 271.901 139.484C271.719 139.484 271.005 139.484 270.879 139.484C270.585 139.484 270.543 139.456 270.543 139.232V138.56H269.759ZM267.785 145.826C267.127 146.302 265.811 146.82 264.705 147.1C264.915 147.268 265.237 147.548 265.405 147.744C266.469 147.464 267.813 146.918 268.653 146.344L267.785 145.826ZM262.717 134.864C262.367 135.788 261.695 137.16 261.191 137.972L261.905 138.266C262.437 137.482 263.109 136.222 263.627 135.186L262.717 134.864ZM264.173 136.46C263.487 137.93 262.269 140.016 261.303 141.262L261.947 141.598C262.927 140.394 264.159 138.392 265.055 136.838L264.173 136.46ZM260.547 137.804C261.275 138.49 262.087 139.47 262.423 140.128L263.011 139.344C262.675 138.714 261.835 137.79 261.107 137.118L260.547 137.804ZM263.627 139.582C264.145 140.52 264.635 141.738 264.789 142.508L265.573 142.186C265.419 141.43 264.901 140.24 264.369 139.316L263.627 139.582ZM260.505 141.108L260.617 142.018C261.807 141.948 263.347 141.864 264.901 141.752V140.912C263.249 140.982 261.639 141.066 260.505 141.108ZM263.991 143.026C264.285 143.754 264.551 144.706 264.635 145.336L265.419 145.07C265.307 144.468 265.027 143.53 264.733 142.816L263.991 143.026ZM261.205 142.858C261.065 144.076 260.813 145.336 260.365 146.19C260.589 146.274 260.995 146.456 261.163 146.582C261.583 145.686 261.891 144.328 262.073 143.012L261.205 142.858ZM262.675 141.458V147.73H263.571V141.458H262.675Z" fill="white"/>
<path d="M278.537 136.264V137.146H283.507V136.264H278.537ZM278.831 138.364V139.232H283.185V138.364H278.831ZM283.493 138.042V138.994H287.441V138.042H283.493ZM280.553 134.864V138.98H281.477V134.864H280.553ZM279.853 140.772H282.163V142.368H279.853V140.772ZM278.971 139.974V143.138H283.073V139.974H278.971ZM279.153 143.698C279.419 144.426 279.657 145.378 279.713 145.966L280.609 145.714C280.539 145.154 280.259 144.216 279.979 143.488L279.153 143.698ZM283.549 140.478C283.927 141.598 284.263 143.068 284.361 143.964L285.201 143.67C285.117 142.816 284.753 141.36 284.347 140.254L283.549 140.478ZM282.023 143.404C281.855 144.16 281.519 145.28 281.225 145.966L282.051 146.204C282.345 145.546 282.681 144.538 282.989 143.656L282.023 143.404ZM278.229 146.512L278.481 147.436C279.909 147.198 281.883 146.89 283.759 146.568L283.703 145.7C281.673 146.008 279.587 146.33 278.229 146.512ZM285.607 134.892V146.498C285.607 146.694 285.537 146.75 285.355 146.764C285.173 146.778 284.585 146.778 283.955 146.75C284.095 147.03 284.249 147.492 284.277 147.744C285.159 147.744 285.733 147.716 286.097 147.548C286.447 147.38 286.573 147.086 286.573 146.498V134.892H285.607ZM274.715 137.888V138.868H278.579V137.888H274.715ZM276.367 134.85V147.716H277.305V134.85H276.367ZM276.353 138.476C276.045 140.464 275.247 142.942 274.435 144.202C274.603 144.412 274.841 144.804 274.939 145.056C275.807 143.642 276.591 140.856 276.955 138.672L276.353 138.476ZM277.235 139.624L276.829 140.016C277.123 140.562 277.935 142.256 278.187 142.956L278.719 142.172C278.495 141.766 277.487 140.002 277.235 139.624Z" fill="white"/>
<path d="M289.191 135.732C290.003 136.138 290.969 136.796 291.431 137.272L292.075 136.432C291.571 135.956 290.591 135.354 289.793 134.99L289.191 135.732ZM288.519 139.54C289.359 139.89 290.367 140.492 290.871 140.94L291.473 140.1C290.969 139.652 289.947 139.092 289.107 138.77L288.519 139.54ZM288.827 146.96L289.779 147.562C290.409 146.26 291.151 144.538 291.697 143.068L290.857 142.494C290.269 144.062 289.429 145.882 288.827 146.96ZM296.569 141.794V142.592H301.343V141.794H296.569ZM296.177 134.85V138.378H297.199V134.85H296.177ZM293.139 136.026V136.88H300.559V136.026H293.139ZM292.369 139.932V140.716H296.289V139.932H292.369ZM296.877 139.932V140.716H301.007V139.932H296.877ZM292.355 137.902V138.77H301.287V137.902H292.355ZM292.117 143.348V144.244H301.441V143.348H292.117ZM293.867 138.966V142.242L294.791 142.088V138.966H293.867ZM292.075 142.018L292.201 142.83C293.363 142.69 294.861 142.508 296.331 142.312V141.556C294.749 141.738 293.181 141.92 292.075 142.018ZM297.423 143.866V146.344C297.423 147.296 297.675 147.576 298.753 147.576C298.977 147.576 300.055 147.576 300.279 147.576C301.133 147.576 301.399 147.198 301.511 145.644C301.231 145.574 300.825 145.434 300.615 145.266C300.573 146.526 300.503 146.694 300.167 146.694C299.943 146.694 299.061 146.694 298.893 146.694C298.501 146.694 298.445 146.652 298.445 146.33V143.866H297.423ZM298.389 138.966V142.256H299.341V138.966H298.389ZM294.707 143.866C294.525 145.546 293.951 146.442 291.557 146.918C291.767 147.114 292.033 147.52 292.131 147.758C294.805 147.114 295.519 145.966 295.743 143.866H294.707Z" fill="white"/>
<path d="M302.757 138.448V139.498H306.971V138.448H302.757ZM308.469 134.892V146.26C308.469 146.526 308.357 146.61 308.091 146.624C307.797 146.624 306.901 146.638 305.893 146.596C306.061 146.918 306.271 147.436 306.313 147.744C307.615 147.744 308.427 147.716 308.903 147.52C309.365 147.338 309.561 147.002 309.561 146.26V134.892H308.469ZM306.607 138.448V138.686C306.019 141.892 304.409 144.286 302.407 145.546C302.659 145.714 303.079 146.134 303.261 146.386C305.319 144.986 307.013 142.368 307.727 138.672L307.013 138.406L306.831 138.448H306.607ZM309.505 137.174L308.665 137.37C309.701 141.514 311.605 145.084 314.797 146.666C314.979 146.344 315.343 145.924 315.609 145.714C312.473 144.342 310.471 140.94 309.505 137.174ZM314.069 137.132C313.145 138.378 311.521 140.016 310.331 140.982L311.073 141.57C312.291 140.632 313.887 139.092 315.035 137.818L314.069 137.132Z" fill="white"/>
<path d="M317.933 138.406V139.232H321.979V138.406H317.933ZM317.933 140.786V141.584H321.979V140.786H317.933ZM317.933 143.222V144.048H321.979V143.222H317.933ZM323.897 141.486V142.396H329.231V141.486H323.897ZM318.661 136.11V136.936H320.985V136.11H318.661ZM323.001 135.564V136.46H328.475V135.564H323.001ZM322.833 144.104V145.042H329.469V144.104H322.833ZM325.787 140.044V147.674H326.795V140.044H325.787ZM319.669 138.812V143.572H320.425V138.812H319.669ZM328.139 135.564V135.704C328.041 137.902 327.929 138.714 327.747 138.924C327.663 139.036 327.537 139.064 327.341 139.05C327.145 139.05 326.641 139.05 326.081 138.994C326.207 139.232 326.305 139.596 326.319 139.876C326.907 139.904 327.495 139.904 327.775 139.876C328.139 139.848 328.349 139.764 328.545 139.526C328.839 139.204 328.979 138.294 329.077 135.956C329.091 135.83 329.091 135.564 329.091 135.564H328.139ZM323.953 140.17C323.715 141.36 323.281 142.536 322.679 143.32C322.903 143.432 323.323 143.642 323.505 143.768C324.093 142.928 324.583 141.654 324.863 140.352L323.953 140.17ZM318.633 134.85C318.213 136.572 317.429 138.238 316.435 139.316C316.659 139.456 317.065 139.778 317.233 139.946C318.227 138.756 319.081 136.95 319.599 135.06L318.633 134.85ZM317.527 138.406V142.13C317.527 143.712 317.429 145.798 316.477 147.282C316.687 147.38 317.079 147.618 317.233 147.758C318.227 146.204 318.395 143.838 318.395 142.13V138.406H317.527ZM321.699 138.406V146.582C321.699 146.764 321.615 146.82 321.433 146.834C321.237 146.848 320.607 146.848 319.893 146.82C320.019 147.072 320.173 147.478 320.215 147.716C321.181 147.716 321.755 147.702 322.105 147.548C322.469 147.394 322.581 147.1 322.581 146.582V138.406H321.699ZM324.989 135.858C324.793 137.44 324.289 138.826 322.567 139.554C322.777 139.708 323.029 140.044 323.155 140.268C325.115 139.386 325.717 137.79 325.955 135.858H324.989ZM320.733 136.11V136.278C320.523 136.978 320.131 137.986 319.781 138.616C319.977 138.7 320.285 138.882 320.453 139.022C320.873 138.364 321.405 137.328 321.699 136.46L321.083 136.054L320.943 136.11H320.733Z" fill="white"/>
<path d="M342.083 135.2C340.361 135.83 337.323 136.39 334.719 136.726C334.831 136.978 334.985 137.37 335.027 137.622C337.687 137.3 340.823 136.782 342.867 136.082L342.083 135.2ZM334.243 140.856V141.864H343.441V140.856H334.243ZM334.789 146.19V147.198H343.217V146.19H334.789ZM338.415 136.754V146.47H339.465V136.754H338.415ZM332.591 138.574V147.73H333.641V137.566L333.627 137.538L332.591 138.574ZM334.117 134.864C333.249 137.062 331.807 139.204 330.295 140.576C330.505 140.842 330.827 141.388 330.939 141.64C332.577 140.044 334.145 137.622 335.139 135.186L334.117 134.864Z" fill="white"/>
<path d="M344.799 135.55V136.46H349.573V135.55H344.799ZM350.203 142.704V143.614H356.279V142.704H350.203ZM344.645 139.778V140.716H349.909V139.778H344.645ZM347.095 140.156V146.512C347.095 146.666 347.039 146.708 346.885 146.722C346.717 146.722 346.157 146.722 345.555 146.708C345.695 146.988 345.835 147.422 345.863 147.688C346.731 147.688 347.277 147.674 347.627 147.52C348.005 147.338 348.103 147.058 348.103 146.512V140.156H347.095ZM355.915 142.704V142.872C355.705 145.322 355.453 146.302 355.159 146.582C355.033 146.708 354.907 146.722 354.683 146.722C354.459 146.722 353.899 146.708 353.297 146.652C353.451 146.932 353.549 147.352 353.577 147.632C354.207 147.674 354.823 147.674 355.145 147.646C355.523 147.618 355.775 147.534 356.027 147.282C356.433 146.862 356.685 145.798 356.951 143.166C356.979 143.012 356.993 142.704 356.993 142.704H355.915ZM352.821 141.318C352.583 143.74 352.037 145.854 349.125 146.932C349.349 147.114 349.629 147.492 349.755 147.744C352.919 146.512 353.605 144.146 353.871 141.318H352.821ZM345.289 137.888C346.479 138.42 347.907 139.302 348.607 139.946L349.307 139.176C348.579 138.532 347.123 137.706 345.947 137.216L345.289 137.888ZM349.629 139.778V139.96C349.405 140.968 349.055 142.214 348.691 142.984L349.433 143.348C349.867 142.48 350.287 141.136 350.581 139.96L349.937 139.736L349.783 139.778H349.629ZM355.243 136.754C354.487 138.924 352.527 140.17 349.979 140.814C350.189 141.038 350.511 141.472 350.637 141.696C353.283 140.87 355.383 139.47 356.321 136.936L355.243 136.754ZM352.247 134.85C351.687 136.194 350.665 137.468 349.559 138.294C349.825 138.434 350.245 138.728 350.427 138.91C351.505 138.014 352.583 136.614 353.241 135.116L352.247 134.85ZM351.995 137.048L351.127 137.342C352.247 139.498 354.347 141.066 356.909 141.752C357.049 141.472 357.357 141.066 357.581 140.856C355.089 140.31 353.003 138.91 351.995 137.048ZM346.969 140.086C346.507 141.696 345.513 143.53 344.505 144.482C344.687 144.734 344.939 145.168 345.051 145.462C346.143 144.37 347.151 142.2 347.683 140.352L346.969 140.086ZM351.939 136.334L351.505 137.23H357.287V136.334H351.939ZM349.321 135.55V135.746C348.859 136.502 347.879 137.524 346.983 138.112C347.193 138.238 347.515 138.462 347.697 138.63C348.663 137.986 349.755 136.922 350.399 135.942L349.713 135.508L349.545 135.55H349.321Z" fill="white"/>
<path d="M465.179 138.923V139.875H472.795V138.923H465.179ZM462.785 141.499V142.493H475.203V141.499H462.785ZM466.467 142.185C466.229 144.467 465.627 146.077 462.477 146.861C462.701 147.071 462.981 147.491 463.093 147.757C466.509 146.805 467.293 144.915 467.587 142.185H466.467ZM470.009 142.101V146.049C470.009 147.169 470.345 147.491 471.633 147.491C471.913 147.491 473.523 147.491 473.803 147.491C474.923 147.491 475.231 147.001 475.343 145.083C475.063 144.999 474.615 144.831 474.391 144.663C474.349 146.273 474.251 146.525 473.719 146.525C473.355 146.525 472.025 146.525 471.745 146.525C471.157 146.525 471.059 146.455 471.059 146.035V142.101H470.009ZM468.413 134.863V137.089H469.519V134.863H468.413ZM463.107 136.361V139.329H464.171V137.355H473.775V139.329H474.881V136.361H463.107Z" fill="white"/>
<path d="M478.381 140.099V141.079H481.867V140.099H478.381ZM481.447 140.099V140.281C481.405 143.305 481.335 144.355 481.125 144.607C481.027 144.733 480.887 144.747 480.691 144.747C480.453 144.747 479.837 144.747 479.207 144.691C479.361 144.957 479.473 145.363 479.501 145.671C480.187 145.699 480.817 145.713 481.181 145.671C481.573 145.629 481.797 145.531 482.021 145.279C482.315 144.887 482.399 143.711 482.469 140.547C482.469 140.407 482.469 140.099 482.469 140.099H481.447ZM485.395 135.563C486.277 136.025 487.355 136.739 487.887 137.229L488.545 136.515C487.999 136.025 486.893 135.353 486.025 134.905L485.395 135.563ZM487.397 139.357C486.347 142.731 484.373 145.293 481.531 146.805C481.755 147.015 482.147 147.449 482.301 147.659C485.171 145.965 487.257 143.263 488.447 139.609L487.397 139.357ZM478.465 137.229V138.265H489.301V137.229H478.465ZM477.793 137.229V141.163C477.793 142.997 477.667 145.405 476.505 147.127C476.757 147.253 477.205 147.617 477.387 147.827C478.661 145.993 478.885 143.165 478.885 141.177V137.229H477.793ZM483.603 134.877C483.659 141.583 484.919 147.631 487.775 147.631C488.839 147.631 489.231 146.945 489.427 144.551C489.147 144.453 488.755 144.215 488.517 143.977C488.433 145.839 488.251 146.567 487.859 146.567C486.039 146.567 484.667 141.317 484.695 134.877H483.603Z" fill="white"/>
<path d="M502.083 135.199C500.361 135.829 497.323 136.389 494.719 136.725C494.831 136.977 494.985 137.369 495.027 137.621C497.687 137.299 500.823 136.781 502.867 136.081L502.083 135.199ZM494.243 140.855V141.863H503.441V140.855H494.243ZM494.789 146.189V147.197H503.217V146.189H494.789ZM498.415 136.753V146.469H499.465V136.753H498.415ZM492.591 138.573V147.729H493.641V137.565L493.627 137.537L492.591 138.573ZM494.117 134.863C493.249 137.061 491.807 139.203 490.295 140.575C490.505 140.841 490.827 141.387 490.939 141.639C492.577 140.043 494.145 137.621 495.139 135.185L494.117 134.863Z" fill="white"/>
<path d="M504.799 135.549V136.459H509.573V135.549H504.799ZM510.203 142.703V143.613H516.279V142.703H510.203ZM504.645 139.777V140.715H509.909V139.777H504.645ZM507.095 140.155V146.511C507.095 146.665 507.039 146.707 506.885 146.721C506.717 146.721 506.157 146.721 505.555 146.707C505.695 146.987 505.835 147.421 505.863 147.687C506.731 147.687 507.277 147.673 507.627 147.519C508.005 147.337 508.103 147.057 508.103 146.511V140.155H507.095ZM515.915 142.703V142.871C515.705 145.321 515.453 146.301 515.159 146.581C515.033 146.707 514.907 146.721 514.683 146.721C514.459 146.721 513.899 146.707 513.297 146.651C513.451 146.931 513.549 147.351 513.577 147.631C514.207 147.673 514.823 147.673 515.145 147.645C515.523 147.617 515.775 147.533 516.027 147.281C516.433 146.861 516.685 145.797 516.951 143.165C516.979 143.011 516.993 142.703 516.993 142.703H515.915ZM512.821 141.317C512.583 143.739 512.037 145.853 509.125 146.931C509.349 147.113 509.629 147.491 509.755 147.743C512.919 146.511 513.605 144.145 513.871 141.317H512.821ZM505.289 137.887C506.479 138.419 507.907 139.301 508.607 139.945L509.307 139.175C508.579 138.531 507.123 137.705 505.947 137.215L505.289 137.887ZM509.629 139.777V139.959C509.405 140.967 509.055 142.213 508.691 142.983L509.433 143.347C509.867 142.479 510.287 141.135 510.581 139.959L509.937 139.735L509.783 139.777H509.629ZM515.243 136.753C514.487 138.923 512.527 140.169 509.979 140.813C510.189 141.037 510.511 141.471 510.637 141.695C513.283 140.869 515.383 139.469 516.321 136.935L515.243 136.753ZM512.247 134.849C511.687 136.193 510.665 137.467 509.559 138.293C509.825 138.433 510.245 138.727 510.427 138.909C511.505 138.013 512.583 136.613 513.241 135.115L512.247 134.849ZM511.995 137.047L511.127 137.341C512.247 139.497 514.347 141.065 516.909 141.751C517.049 141.471 517.357 141.065 517.581 140.855C515.089 140.309 513.003 138.909 511.995 137.047ZM506.969 140.085C506.507 141.695 505.513 143.529 504.505 144.481C504.687 144.733 504.939 145.167 505.051 145.461C506.143 144.369 507.151 142.199 507.683 140.351L506.969 140.085ZM511.939 136.333L511.505 137.229H517.287V136.333H511.939ZM509.321 135.549V135.745C508.859 136.501 507.879 137.523 506.983 138.111C507.193 138.237 507.515 138.461 507.697 138.629C508.663 137.985 509.755 136.921 510.399 135.941L509.713 135.507L509.545 135.549H509.321Z" fill="white"/>
<path d="M518.393 142.297L518.673 143.319C519.975 142.941 521.655 142.409 523.251 141.905L523.125 140.953C521.389 141.457 519.597 141.989 518.393 142.297ZM518.575 137.677V138.657H523.111V137.677H518.575ZM520.521 134.863V146.525C520.521 146.721 520.451 146.791 520.255 146.791C520.087 146.791 519.499 146.791 518.869 146.777C518.995 147.057 519.149 147.477 519.177 147.729C520.115 147.743 520.675 147.715 521.039 147.547C521.403 147.393 521.543 147.099 521.543 146.525V134.863H520.521ZM523.601 138.083V147.687H524.595V139.077H530.125V147.603H531.175V138.083H523.601ZM524.203 141.821V142.815H530.433V141.821H524.203ZM524.231 145.699V146.707H530.461V145.699H524.231ZM526.821 134.877V146.315H527.815V134.877H526.821Z" fill="white"/>
<path d="M538.259 135.577V136.557H544.405V135.577H538.259ZM537.783 140.491V141.499H545.483V140.491H537.783ZM541.087 138.629V146.399C541.087 146.609 541.017 146.679 540.779 146.693C540.527 146.707 539.743 146.707 538.861 146.679C539.001 146.959 539.183 147.421 539.239 147.701C540.359 147.715 541.087 147.687 541.549 147.519C541.983 147.351 542.137 147.043 542.137 146.413V138.629H541.087ZM544.027 135.577V135.815C543.467 136.725 542.305 138.041 541.297 138.797C541.479 138.937 541.773 139.217 541.927 139.413C543.047 138.573 544.349 137.215 545.189 136.025L544.503 135.521L544.279 135.577H544.027ZM532.603 137.747V138.727H537.209V137.747H532.603ZM534.717 134.863C534.241 137.523 533.401 141.275 532.785 143.417L533.667 143.879C534.297 141.555 535.179 137.775 535.711 134.975L534.717 134.863ZM533.303 142.969C534.871 143.879 536.677 145.307 537.517 146.357L538.147 145.503C537.307 144.467 535.459 143.123 533.891 142.241L533.303 142.969ZM536.859 137.747V137.957C536.509 142.717 535.053 145.685 532.715 146.917C532.939 147.127 533.233 147.505 533.373 147.757C535.949 146.217 537.475 143.249 537.853 137.831L537.223 137.705L537.027 137.747H536.859Z" fill="white"/>
<path d="M553.183 144.971C553.449 145.489 553.687 146.217 553.757 146.693L554.625 146.427C554.555 145.979 554.317 145.279 554.009 144.747L553.183 144.971ZM556.921 144.719C556.767 145.223 556.459 145.979 556.221 146.455L557.019 146.693C557.257 146.245 557.565 145.601 557.845 144.985L556.921 144.719ZM553.351 142.843H557.607V143.963H553.351V142.843ZM552.455 142.143V144.663H558.531V142.143H552.455ZM552.875 138.223H558.041V139.217H552.875V138.223ZM552.875 136.557H558.041V137.537H552.875V136.557ZM551.993 135.829V139.945H558.965V135.829H551.993ZM551.657 140.603V141.443H559.287V140.603H551.657ZM551.405 146.609V147.421H559.455V146.609H551.405ZM553.967 134.849V136.333H554.807V134.849H553.967ZM556.039 134.849V136.333H556.879V134.849H556.039ZM554.093 136.193V139.735H554.793V136.193H554.093ZM556.039 136.193V139.735H556.739V136.193H556.039ZM546.687 138.587V139.525H551.335V138.587H546.687ZM547.037 135.773V136.711H551.013V135.773H547.037ZM550.467 140.519V145.699H551.209V140.519H550.467ZM548.633 138.993V147.729H549.529V138.993H548.633ZM546.953 140.533V142.185C546.953 143.459 546.883 144.943 546.477 146.105C546.673 146.203 546.981 146.427 547.121 146.595C547.611 145.279 547.695 143.655 547.695 142.213V140.533H546.953Z" fill="white"/>
<path d="M674.381 140.099V141.079H677.867V140.099H674.381ZM677.447 140.099V140.281C677.405 143.305 677.335 144.355 677.125 144.607C677.027 144.733 676.887 144.747 676.691 144.747C676.453 144.747 675.837 144.747 675.207 144.691C675.361 144.957 675.473 145.363 675.501 145.671C676.187 145.699 676.817 145.713 677.181 145.671C677.573 145.629 677.797 145.531 678.021 145.279C678.315 144.887 678.399 143.711 678.469 140.547C678.469 140.407 678.469 140.099 678.469 140.099H677.447ZM681.395 135.563C682.277 136.025 683.355 136.739 683.887 137.229L684.545 136.515C683.999 136.025 682.893 135.353 682.025 134.905L681.395 135.563ZM683.397 139.357C682.347 142.731 680.373 145.293 677.531 146.805C677.755 147.015 678.147 147.449 678.301 147.659C681.171 145.965 683.257 143.263 684.447 139.609L683.397 139.357ZM674.465 137.229V138.265H685.301V137.229H674.465ZM673.793 137.229V141.163C673.793 142.997 673.667 145.405 672.505 147.127C672.757 147.253 673.205 147.617 673.387 147.827C674.661 145.993 674.885 143.165 674.885 141.177V137.229H673.793ZM679.603 134.877C679.659 141.583 680.919 147.631 683.775 147.631C684.839 147.631 685.231 146.945 685.427 144.551C685.147 144.453 684.755 144.215 684.517 143.977C684.433 145.839 684.251 146.567 683.859 146.567C682.039 146.567 680.667 141.317 680.695 134.877H679.603Z" fill="white"/>
<path d="M688.941 142.311V143.235H698.475V142.311H688.941ZM687.135 137.257V138.223H696.291V137.257H687.135ZM691.083 139.777V140.715H697.495V139.777H691.083ZM698.027 142.311V142.479C697.803 145.265 697.537 146.371 697.215 146.693C697.089 146.805 696.949 146.833 696.683 146.833C696.417 146.833 695.745 146.833 695.045 146.749C695.213 147.029 695.325 147.435 695.339 147.729C696.067 147.757 696.767 147.771 697.117 147.743C697.537 147.715 697.803 147.617 698.069 147.351C698.517 146.889 698.783 145.727 699.035 142.773C699.063 142.619 699.077 142.311 699.077 142.311H698.027ZM694.919 143.991C695.339 144.579 695.773 145.391 695.955 145.895L696.725 145.573C696.543 145.069 696.109 144.285 695.661 143.711L694.919 143.991ZM688.871 135.269C689.417 135.857 690.005 136.683 690.243 137.229L691.223 136.781C690.943 136.249 690.327 135.451 689.781 134.891L688.871 135.269ZM690.775 144.341C691.013 145.251 691.167 146.399 691.139 147.155L692.063 147.029C692.063 146.273 691.909 145.111 691.629 144.229L690.775 144.341ZM692.833 144.215C693.183 144.985 693.519 146.007 693.617 146.679L694.485 146.441C694.373 145.783 694.023 144.789 693.659 144.019L692.833 144.215ZM688.983 144.019C688.703 145.097 688.171 146.343 687.387 147.085L688.199 147.659C689.053 146.805 689.543 145.475 689.865 144.313L688.983 144.019ZM693.113 134.849C692.049 138.475 689.893 142.059 686.421 144.033C686.603 144.257 686.869 144.677 686.995 144.929C690.705 142.731 692.903 139.035 694.177 135.115L693.113 134.849ZM696.053 137.257C695.899 138.153 695.661 139.273 695.465 140.015L696.389 140.141C696.599 139.385 696.851 138.223 697.047 137.257H696.053ZM697.103 139.777C696.963 140.673 696.725 141.807 696.515 142.563L697.467 142.675C697.663 141.919 697.901 140.743 698.097 139.777H697.103Z" fill="white"/>
<path d="M700.771 140.463V141.457H704.747V140.463H700.771ZM702.591 137.747V138.755H707.085V137.747H702.591ZM707.491 138.377L706.595 138.573C707.631 142.465 709.563 145.447 712.769 146.819C712.923 146.539 713.259 146.119 713.497 145.909C710.375 144.733 708.415 141.877 707.491 138.377ZM712.041 138.741C711.117 139.805 709.507 141.205 708.317 142.045L709.059 142.647C710.277 141.835 711.831 140.533 713.007 139.427L712.041 138.741ZM706.469 137.747V146.371C706.469 146.595 706.399 146.665 706.147 146.679C705.909 146.693 705.083 146.693 704.229 146.651C704.397 146.959 704.551 147.421 704.607 147.715C705.769 147.715 706.525 147.701 706.987 147.533C707.435 147.351 707.589 147.029 707.589 146.385V137.747H706.469ZM703.879 135.731C705.643 136.193 707.897 137.019 709.059 137.663L709.591 136.683C708.401 136.053 706.119 135.269 704.397 134.877L703.879 135.731ZM704.355 140.463V140.673C703.753 143.109 702.241 145.041 700.477 146.049C700.729 146.231 701.149 146.623 701.317 146.861C703.109 145.699 704.733 143.599 705.461 140.715L704.761 140.421L704.565 140.463H704.355Z" fill="white"/>
<path d="M721.127 143.403H725.649V144.033H721.127V143.403ZM721.127 144.593H725.649V145.237H721.127V144.593ZM721.127 142.241H725.649V142.857H721.127V142.241ZM720.203 141.625V145.839H726.601V141.625H720.203ZM723.983 146.385C724.963 146.791 726.013 147.351 726.601 147.757L727.511 147.197C726.839 146.763 725.677 146.231 724.655 145.825L723.983 146.385ZM722.779 134.849V137.467H723.815V134.849H722.779ZM719.377 135.703V136.417H727.259V135.703H719.377ZM720.035 137.075V137.747H726.797V137.075H720.035ZM720.623 138.923H726.125V140.393H720.623V138.923ZM719.769 138.307V141.009H727.007V138.307H719.769ZM722.233 138.601C722.163 139.315 721.813 139.595 720.679 139.749C720.819 139.861 721.001 140.085 721.057 140.239C722.387 139.987 722.835 139.553 722.933 138.601H722.233ZM723.759 138.559V139.217C723.759 139.847 723.955 139.973 724.795 139.973C724.935 139.973 725.873 139.973 726.027 139.973C726.531 139.973 726.755 139.875 726.811 139.581C726.601 139.539 726.335 139.483 726.181 139.399C726.139 139.469 726.097 139.483 725.901 139.483C725.719 139.483 725.005 139.483 724.879 139.483C724.585 139.483 724.543 139.455 724.543 139.231V138.559H723.759ZM721.785 145.825C721.127 146.301 719.811 146.819 718.705 147.099C718.915 147.267 719.237 147.547 719.405 147.743C720.469 147.463 721.813 146.917 722.653 146.343L721.785 145.825ZM716.717 134.863C716.367 135.787 715.695 137.159 715.191 137.971L715.905 138.265C716.437 137.481 717.109 136.221 717.627 135.185L716.717 134.863ZM718.173 136.459C717.487 137.929 716.269 140.015 715.303 141.261L715.947 141.597C716.927 140.393 718.159 138.391 719.055 136.837L718.173 136.459ZM714.547 137.803C715.275 138.489 716.087 139.469 716.423 140.127L717.011 139.343C716.675 138.713 715.835 137.789 715.107 137.117L714.547 137.803ZM717.627 139.581C718.145 140.519 718.635 141.737 718.789 142.507L719.573 142.185C719.419 141.429 718.901 140.239 718.369 139.315L717.627 139.581ZM714.505 141.107L714.617 142.017C715.807 141.947 717.347 141.863 718.901 141.751V140.911C717.249 140.981 715.639 141.065 714.505 141.107ZM717.991 143.025C718.285 143.753 718.551 144.705 718.635 145.335L719.419 145.069C719.307 144.467 719.027 143.529 718.733 142.815L717.991 143.025ZM715.205 142.857C715.065 144.075 714.813 145.335 714.365 146.189C714.589 146.273 714.995 146.455 715.163 146.581C715.583 145.685 715.891 144.327 716.073 143.011L715.205 142.857ZM716.675 141.457V147.729H717.571V141.457H716.675Z" fill="white"/>
<path d="M729.471 136.403V137.355H740.559V136.403H729.471ZM728.729 142.227V143.151H734.343V142.227H728.729ZM734.945 142.227V143.151H741.329V142.227H734.945ZM734.399 134.835V140.995H735.463V134.835H734.399ZM731.277 140.533V147.743H732.271V140.533H731.277ZM737.353 140.533V147.743H738.361V140.533H737.353ZM734.049 136.627C732.999 138.125 730.913 139.455 728.939 140.071C729.149 140.267 729.457 140.631 729.597 140.883C731.627 140.155 733.755 138.685 734.917 136.991L734.049 136.627ZM735.757 136.627L734.945 136.963C736.149 138.671 738.361 140.113 740.461 140.813C740.615 140.547 740.909 140.155 741.147 139.945C739.061 139.371 736.877 138.083 735.757 136.627ZM737.087 142.451C736.443 144.033 735.155 145.615 733.839 146.371C734.049 146.553 734.343 146.903 734.497 147.141C735.855 146.245 737.157 144.509 737.871 142.689L737.087 142.451ZM738.585 142.535L737.899 142.787C738.585 144.411 739.831 146.175 740.965 147.085C741.147 146.833 741.469 146.455 741.707 146.259C740.559 145.503 739.271 143.977 738.585 142.535ZM731.151 142.521C730.591 143.893 729.485 145.293 728.379 146.007C728.547 146.273 728.771 146.679 728.869 146.959C730.115 146.119 731.235 144.425 731.893 142.801L731.151 142.521ZM732.117 143.403L731.543 143.865C732.047 144.243 733.293 145.307 733.713 145.769L734.343 144.971C734.007 144.691 732.537 143.655 732.117 143.403Z" fill="white"/>
<path d="M748.903 137.859V138.867H755.147V137.859H748.903ZM751.437 134.849V147.715H752.473V134.849H751.437ZM751.367 138.307C750.765 140.715 749.365 143.319 747.909 144.719C748.119 144.957 748.413 145.363 748.539 145.657C750.079 144.145 751.479 141.219 752.165 138.573L751.367 138.307ZM752.599 138.307L751.843 138.517C752.459 141.093 753.565 143.879 754.769 145.391C754.965 145.111 755.329 144.747 755.581 144.565C754.349 143.249 753.201 140.687 752.599 138.307ZM742.757 137.859V138.867H748.301V137.859H742.757ZM745.277 134.849V147.715H746.299V134.849H745.277ZM745.193 138.475C744.703 140.519 743.541 142.899 742.407 144.159C742.589 144.411 742.855 144.845 742.981 145.139C744.171 143.739 745.347 141.023 745.907 138.727L745.193 138.475ZM746.271 139.147L745.697 139.693C746.201 140.295 747.475 141.933 747.895 142.661L748.595 141.751C748.245 141.331 746.705 139.553 746.271 139.147Z" fill="white"/>
<path d="M756.869 138.881V139.945H769.175V138.881H756.869ZM763.687 139.301L762.637 139.553C763.687 143.319 765.591 146.273 768.615 147.701C768.797 147.407 769.147 146.959 769.413 146.721C766.501 145.517 764.597 142.689 763.687 139.301ZM762.455 134.863C762.427 138.223 762.539 144.257 756.589 146.847C756.883 147.057 757.219 147.435 757.387 147.715C763.505 144.915 763.533 138.531 763.589 134.863H762.455Z" fill="white"/>
<path d="M774.481 136.403V137.383H783.469V136.403H774.481ZM775.867 139.637H781.985V141.737H775.867V139.637ZM774.901 138.741V142.633H783.007V138.741H774.901ZM775.769 142.913L774.901 143.207C776.385 145.769 779.255 147.225 782.965 147.757C783.105 147.463 783.371 147.043 783.595 146.819C779.955 146.413 777.085 145.111 775.769 142.913ZM778.373 134.905V141.093C778.373 143.459 778.135 145.853 773.977 146.903C774.187 147.127 774.481 147.547 774.607 147.785C778.947 146.497 779.409 143.809 779.409 141.107V134.905H778.373ZM773.879 134.821C773.067 136.949 771.695 139.035 770.281 140.365C770.477 140.617 770.771 141.163 770.869 141.401C772.423 139.847 773.921 137.495 774.873 135.129L773.879 134.821ZM772.409 138.489V147.799H773.417V137.509L773.403 137.495L772.409 138.489Z" fill="white"/>
<defs>
<linearGradient id="paint0_linear_488_2" x1="79.4417" y1="130.289" x2="79.4417" y2="90.1072" gradientUnits="userSpaceOnUse">
<stop stop-color="#009C9A" stop-opacity="0"/>
<stop offset="0.7378" stop-color="#00989A" stop-opacity="0.7449"/>
<stop offset="0.9904" stop-color="#00959A"/>
</linearGradient>
<clipPath id="clip0_488_2">
<rect width="152" height="141" fill="white" transform="translate(652 13.6001)"/>
</clipPath>
</defs>
</svg>
