<?xml version="1.0" encoding="utf-8"?>
<!-- Generator: Adobe Illustrator 25.0.1, SVG Export Plug-In . SVG Version: 6.00 Build 0)  -->
<svg version="1.1" id="圖層_1" xmlns="http://www.w3.org/2000/svg" xmlns:xlink="http://www.w3.org/1999/xlink" x="0px" y="0px"
	 viewBox="0 0 80 80" style="enable-background:new 0 0 80 80;" xml:space="preserve">
<style type="text/css">
	.st0{opacity:0.75;}
	.st1{fill:#A02024;}
	.st2{fill:#FFFFFF;}
</style>
<g class="st0">
	<circle class="st1" cx="40" cy="40" r="36"/>
</g>
<polygon class="st2" points="55.5,40 42.3,47.6 29.2,55.2 29.2,40 29.2,24.8 42.3,32.4 "/>
<path class="st2" d="M40,77.4C19.4,77.4,2.6,60.6,2.6,40C2.6,19.4,19.4,2.6,40,2.6c7.9,0,15.6,2.5,22,7.2L60.4,12
	C45,0.8,23.4,4.2,12.2,19.7s-7.8,37,7.7,48.2s37,7.8,48.2-7.7c6.9-9.5,8.5-22,4.2-32.9l2.5-1c1.7,4.4,2.6,9,2.6,13.7
	C77.3,60.6,60.6,77.3,40,77.4z"/>
</svg>
