<?xml version="1.0" encoding="utf-8"?>
<!-- Generator: Adobe Illustrator 26.2.1, SVG Export Plug-In . SVG Version: 6.00 Build 0)  -->
<svg version="1.1" id="圖層_1" xmlns="http://www.w3.org/2000/svg" xmlns:xlink="http://www.w3.org/1999/xlink" x="0px" y="0px"
	 viewBox="0 0 239.06 263.46" style="enable-background:new 0 0 239.06 263.46;" xml:space="preserve">
<style type="text/css">
	.st0{fill:#004F74;}
	.st1{fill:#FFFFFF;}
	.st2{fill:none;stroke:#004F74;stroke-width:1.1645;stroke-linecap:round;stroke-linejoin:round;stroke-miterlimit:10;}
	.st3{fill:none;stroke:#004F74;stroke-width:1.1395;stroke-linecap:round;stroke-linejoin:round;stroke-miterlimit:10;}
	.st4{fill:#009D9B;}
	.st5{fill:#008DC5;}
</style>
<g>
	<g>
		<g>
			<g>
				<path class="st0" d="M121.8,167.21c-3.96-0.19-7.89-1.34-11.22-2.92c-4.84-2.29-8.73-5.4-13.06-8.15
					c-7.63-4.85-17.7-9.5-28.49-9.79c-11.22-0.31-22.5,4.74-30.45,9.79c-4.32,2.75-8.21,5.86-13.06,8.15
					c-3.62,1.71-7.98,2.93-12.29,2.94L121.8,167.21z"/>
				<g>
					<path class="st0" d="M121.8,166.84c-4.01-0.21-7.93-1.36-11.52-3.15c-3.49-1.74-6.65-4.02-9.87-6.2
						c-6.1-4.15-12.65-7.67-19.75-9.76c-3.74-1.1-7.61-1.79-11.5-1.92c-3.93-0.13-7.87,0.39-11.68,1.34
						c-7.27,1.82-14.15,5.15-20.39,9.25c-3.2,2.1-6.29,4.38-9.65,6.23c-3.48,1.91-7.28,3.32-11.24,3.8
						c-0.98,0.12-1.96,0.18-2.95,0.19c-0.82,0.01-0.82,1.27,0,1.27c0.97,0,1.94,0,2.91,0c2.64,0,5.29,0,7.93,0
						c3.89,0,7.78,0,11.67,0c4.74,0,9.49,0,14.23,0c5.22,0,10.43,0.01,15.65,0c5.26,0,10.53,0,15.79-0.01c4.89,0,9.77,0,14.66,0
						c4.14,0,8.29,0,12.43,0c2.96,0,5.93,0.04,8.89-0.04c0.52-0.01,1.03-0.03,1.55-0.05c0.35-0.01,0.36-0.02,0.66-0.02
						c0.19,0,0.37-0.01,0.56-0.02c0.3-0.01,0.6-0.02,0.9-0.03c0.11,0,0.21,0,0.32-0.01c0.04,0,0.08,0,0.12,0
						c0.04,0,0.08-0.01,0.11-0.01c0.4-0.04-0.05-0.04-0.02,0c0.01,0.01,0.15,0,0.18,0c0.63,0,0.64-0.99,0-0.99
						c-0.06,0-0.13-0.01-0.19,0c-0.06,0.01-0.75-0.03,0.21,0.06c-0.08-0.01-0.17-0.06-0.25-0.07c-0.02,0-0.03,0-0.05,0
						c-0.04-0.01-0.09,0-0.13,0c-0.11,0-0.22-0.01-0.32-0.01c-0.3-0.01-0.6-0.02-0.89-0.02c-0.19-0.01-0.39-0.02-0.58-0.02
						c-0.24,0-0.13,0-0.3-0.01c-0.12-0.01-0.24-0.01-0.36-0.01c-2.63-0.08-5.26-0.09-7.9-0.09c-3.88,0-7.77,0-11.65,0
						c-4.74,0-9.48,0-14.22,0c-5.21,0-10.43,0-15.64,0c-5.27,0-10.53,0.01-15.8,0.01c-4.89,0-9.78,0.01-14.68,0.01
						c-4.15,0-8.3,0.01-12.45,0.01c-2.97,0-5.95,0-8.92,0.01c-1.39,0-2.86-0.13-4.25,0c-0.06,0.01-0.12,0-0.18,0
						c0,0.42,0,0.85,0,1.27c3.91-0.03,7.77-0.96,11.36-2.48c3.58-1.52,6.83-3.68,10.03-5.86c3.01-2.05,6.03-4.05,9.25-5.77
						c3.41-1.82,6.97-3.38,10.66-4.56c3.78-1.21,7.7-2.04,11.67-2.25c3.97-0.21,7.94,0.25,11.8,1.16c7.25,1.73,14.06,5.04,20.28,9.1
						c3.21,2.09,6.3,4.36,9.66,6.21c3.44,1.89,7.14,3.27,11.02,3.87c0.94,0.14,1.88,0.24,2.83,0.29
						C122.28,167.61,122.28,166.86,121.8,166.84z"/>
				</g>
			</g>
			<g>
				<path class="st0" d="M227.87,167.21c-3.96-0.19-7.89-1.34-11.22-2.92c-4.84-2.29-8.73-5.4-13.06-8.15
					c-7.63-4.85-17.7-9.5-28.49-9.79c-11.22-0.31-22.5,4.74-30.45,9.79c-4.32,2.75-8.21,5.86-13.06,8.15
					c-3.62,1.71-7.98,2.93-12.29,2.94L227.87,167.21z"/>
				<g>
					<path class="st0" d="M227.87,166.84c-4.01-0.21-7.93-1.36-11.52-3.15c-3.49-1.74-6.65-4.02-9.87-6.2
						c-6.1-4.15-12.65-7.67-19.75-9.76c-3.74-1.1-7.61-1.79-11.5-1.92c-3.93-0.13-7.87,0.39-11.68,1.34
						c-7.27,1.82-14.15,5.15-20.39,9.25c-3.2,2.1-6.29,4.38-9.65,6.23c-3.48,1.91-7.28,3.32-11.24,3.8
						c-0.98,0.12-1.96,0.18-2.95,0.19c-0.82,0.01-0.82,1.27,0,1.27c0.97,0,1.94,0,2.91,0c2.64,0,5.29,0,7.93,0
						c3.89,0,7.78,0,11.67,0c4.74,0,9.49,0,14.23,0c5.22,0,10.43,0.01,15.65,0c5.26,0,10.53,0,15.79-0.01c4.89,0,9.77,0,14.66,0
						c4.14,0,8.29,0,12.43,0c2.96,0,5.93,0.04,8.89-0.04c0.52-0.01,1.03-0.03,1.55-0.05c0.35-0.01,0.36-0.02,0.66-0.02
						c0.19,0,0.37-0.01,0.56-0.02c0.3-0.01,0.6-0.02,0.9-0.03c0.11,0,0.21,0,0.32-0.01c0.04,0,0.08,0,0.12,0
						c0.04,0,0.08-0.01,0.11-0.01c0.4-0.04-0.05-0.04-0.02,0c0.01,0.01,0.15,0,0.18,0c0.63,0,0.64-0.99,0-0.99
						c-0.06,0-0.13-0.01-0.19,0c-0.06,0.01-0.75-0.03,0.21,0.06c-0.08-0.01-0.17-0.06-0.25-0.07c-0.02,0-0.03,0-0.05,0
						c-0.04-0.01-0.09,0-0.13,0c-0.11,0-0.22-0.01-0.32-0.01c-0.3-0.01-0.6-0.02-0.89-0.02c-0.19-0.01-0.39-0.02-0.58-0.02
						c-0.24,0-0.13,0-0.3-0.01c-0.12-0.01-0.24-0.01-0.36-0.01c-2.63-0.08-5.26-0.09-7.9-0.09c-3.88,0-7.77,0-11.65,0
						c-4.74,0-9.48,0-14.22,0c-5.21,0-10.43,0-15.64,0c-5.27,0-10.53,0.01-15.8,0.01c-4.89,0-9.78,0.01-14.68,0.01
						c-4.15,0-8.3,0.01-12.45,0.01c-2.97,0-5.95,0-8.92,0.01c-1.39,0-2.86-0.13-4.25,0c-0.06,0.01-0.12,0-0.18,0
						c0,0.42,0,0.85,0,1.27c3.91-0.03,7.77-0.96,11.36-2.48c3.58-1.52,6.83-3.68,10.03-5.86c3.01-2.05,6.03-4.05,9.25-5.77
						c3.41-1.82,6.97-3.38,10.66-4.56c3.78-1.21,7.7-2.04,11.67-2.25c3.97-0.21,7.94,0.25,11.8,1.16c7.25,1.73,14.06,5.04,20.28,9.1
						c3.21,2.09,6.3,4.36,9.66,6.21c3.44,1.89,7.14,3.27,11.02,3.87c0.94,0.14,1.88,0.24,2.83,0.29
						C228.36,167.61,228.35,166.86,227.87,166.84z"/>
				</g>
			</g>
		</g>
		<g>
			<path class="st0" d="M28.31,194.45c-1.8,8.65-5.71,15.12-10.3,18.54c-0.75-1.04-2.52-2.96-3.61-3.72
				c3.53-2.34,6.5-6.43,8.23-11.36h-7.29v-4.68h9.17l0.79-0.21L28.31,194.45z M48.69,191.61c-2.86,2.84-6.28,5.97-9.14,8.1
				c2.63,4.01,6.05,7.1,10.45,9.02c-1.05,0.96-2.44,3.01-3.12,4.34c-5.45-2.71-9.32-7.18-12.14-12.91v9.56
				c0,2.71-0.49,4.05-2.11,4.89c-1.54,0.79-3.84,0.83-6.99,0.83c-0.19-1.42-0.9-3.63-1.5-4.97c1.88,0.13,4.21,0.13,4.89,0.08
				c0.68-0.04,0.9-0.25,0.9-0.92v-19.92h-9.4v-4.76h13.95c-3.2-1.59-7.56-3.22-11.02-4.22l2.22-4.05
				c4.36,1.04,10.64,3.26,13.84,5.09l-2.41,4.64c-0.64-0.42-1.47-0.88-2.37-1.34v3.47c0.71,2.63,1.62,5.1,2.67,7.35
				c2.56-2.25,5.38-5.18,7.18-7.68L48.69,191.61z"/>
			<path class="st0" d="M83.54,202.8c-0.08-0.58-0.15-1.25-0.26-2c-6.65,1.08-7.9,1.46-8.69,1.88c-0.22-0.83-0.83-2.92-1.28-4.05
				c0.9-0.21,1.65-1.21,2.78-2.8c0.45-0.63,1.28-1.92,2.29-3.67c-2.75,0.38-3.53,0.58-4.1,0.88c-0.19-0.83-0.83-2.84-1.24-3.88
				c0.68-0.21,1.28-1.04,1.99-2.34c0.71-1.17,2.9-5.93,4.1-10.32l3.65,1.59c-1.24,3.42-2.9,7.1-4.62,10.15l2.41-0.21
				c0.87-1.8,1.73-3.72,2.44-5.64l3.38,2.25c-1.99,4.47-4.59,9.06-7.29,12.86l3.46-0.46c-0.26-1.13-0.53-2.26-0.83-3.22l2.97-0.88
				c0.86,2.84,1.73,6.51,1.99,8.73L83.54,202.8z M78.04,204.56c-0.3,3.93-0.9,8.1-1.69,10.78c-0.75-0.46-2.37-1-3.27-1.25
				c0.87-2.63,1.35-6.47,1.58-10.11L78.04,204.56z M81.54,203.89c0.45,3.09,0.79,6.97,0.86,9.61l-3.16,0.63
				c0-2.63-0.3-6.56-0.64-9.65L81.54,203.89z M84.85,202.8c0.71,2.34,1.54,5.43,1.84,7.48l-2.86,1.09c-0.3-2.09-1.05-5.26-1.73-7.68
				L84.85,202.8z M101.47,209.36c2.52,0.92,5.08,2,6.77,2.76l-1.77,3.47c-1.99-1.04-5.26-2.55-8.12-3.72l1.24-2.5h-5.56l2.26,2.46
				c-2.97,1.42-6.73,2.96-9.47,3.97c-0.34-0.92-1.01-2.42-1.54-3.42c2.07-0.75,4.96-1.88,7.11-3.01h-5.04v-12.53h19.02v12.53H101.47
				z M94.78,181.5h-8.95v-3.17h8.95v-1.8h4.36v1.8h8.5v3.17h-8.5v1.42h7.33v2.96H87.22v-2.96h7.56V181.5z M85.98,187.06h21.62v8.52
				H85.98V187.06z M89.62,192.57h2.71v-2.51h-2.71V192.57z M91.28,200.63h10.9v-1.25h-10.9V200.63z M91.28,203.72h10.9v-1.25h-10.9
				V203.72z M91.28,206.85h10.9v-1.34h-10.9V206.85z M98.08,192.57v-2.51h-2.44v2.51H98.08z M103.76,190.06h-2.41v2.51h2.41V190.06z
				"/>
			<path class="st0" d="M145.45,208.77c-0.56-0.54-1.5-1.34-2.52-2.21v8.65h-4.21v-7.48c-1.58,2.17-3.35,4.13-5.23,5.35
				c-0.34-1.29-1.13-3.3-1.77-4.55c2.44-1.38,5.04-3.93,6.69-6.43h-5.49v-4.34h5.79v-4.05h4.21v4.05h5.34v4.34h-5.34v0.13
				c1.5,0.96,5.04,3.38,5.98,4.13L145.45,208.77z M147.14,186.31c-3.27,3.97-7.82,7.14-12.6,8.98c-0.56-1.21-1.8-3.01-2.74-3.88
				c4.29-1.38,8.5-3.8,11.43-6.77h-9.66v-4.34h13.57v-3.8h4.47v3.8h13.61v4.34h-9.62c4.02,2,9.29,4.76,10.79,5.72l-1.39,4.64
				c-2.93-2.17-9.44-6.26-13.38-8.64v8.9h-4.47V186.31z M159.78,202.22c1.99,2.76,5.08,5.64,7.71,7.14
				c-1.02,0.96-2.44,2.71-3.16,3.93c-1.69-1.42-3.5-3.63-5.11-5.97v8.27h-4.25v-8.27c-1.96,2.51-4.32,4.68-6.66,6.1
				c-0.6-1.04-1.84-2.71-2.78-3.55c3.31-1.5,6.73-4.51,8.76-7.64h-4.74v-4.3h5.41v-4.22h4.25v4.22h6.84v4.3H159.78z"/>
			<path class="st0" d="M204.44,201.97c-0.68-1.38-1.8-3.38-2.93-5.22v18.75h-4.36v-16.71c-1.35,3.84-2.97,7.31-4.78,9.69
				c-0.45-1.42-1.47-3.51-2.22-4.8c2.63-3.3,5.08-8.81,6.35-13.82h-5.3v-4.68h5.94v-8.64h4.36v8.64h4.92v4.68h-4.92v0.67
				c1.13,1.25,4.85,5.97,5.71,7.14L204.44,201.97z M219.17,189.86c1.58,5.72,4.14,11.53,6.88,14.99c-1.05,0.88-2.56,2.59-3.35,3.84
				c-1.65-2.51-3.16-6.06-4.44-9.94v16.75h-4.51v-16.91c-1.77,4.47-4.02,8.48-6.47,11.19c-0.53-1.42-1.69-3.34-2.52-4.55
				c3.5-3.72,6.54-9.56,8.27-15.37h-5.45v-4.68h6.17v-8.64h4.51v8.64h6.62v4.68H219.17z"/>
		</g>
		<g>
			<g>
				<path d="M8.21,172.5c0.16,0,0.16-0.25,0-0.25C8.04,172.24,8.04,172.5,8.21,172.5L8.21,172.5z"/>
			</g>
		</g>
		<g>
			<g>
				<g>
					<g id="Tree_9_00000178923934250675328690000011077909462848846015_">
						<path class="st0" d="M121.91,152.98c2.98,1.99,6.96,2.44,10.35,1.2c3.79-1.39,6.75-4.76,7.83-8.65
							c1.07-3.89,0.31-8.22-1.87-11.62c2.7-2.77,3.43-7.28,1.74-10.76c-1.69-3.48-5.69-5.69-9.54-5.28
							c-0.73-2.03-1.79-3.98-3.29-5.53c-1.51-1.55-3.5-2.68-5.64-2.92c-2.5-0.28-5.04,0.66-6.98,2.26c-1.94,1.6-3.31,3.8-4.22,6.14
							c-3.83-0.26-7.7,2.07-9.28,5.57c-1.58,3.5-0.75,7.94,1.98,10.64c-0.04-0.04-1.3,2.26-1.39,2.48
							c-0.38,0.91-0.66,1.87-0.83,2.84c-0.34,1.95-0.27,3.98,0.23,5.9c1.02,3.95,3.72,7.29,7.55,8.82c0.93,0.37,1.9,0.63,2.89,0.76
							c3.33,0.45,6.84-0.53,9.45-2.65C121.21,152.47,121.55,152.74,121.91,152.98z"/>
						<path class="st0" d="M122.22,140.04"/>
						<g>
							<path class="st0" d="M117.65,168.41l0.94-20.88l-8.36-7.6c-0.56-0.51-0.68-1.3-0.27-1.8c0.21-0.25,0.52-0.39,0.88-0.39
								c0.32,0,0.66,0.12,0.94,0.33l7,5.34l0.26-5.91l-4.4-4.09c-0.38-0.36-0.42-0.95-0.09-1.36c0.19-0.23,0.47-0.36,0.76-0.36
								c0.21,0,0.42,0.07,0.59,0.2l3.28,2.44l0.17-3.8c0.03-0.8,0.68-1.42,1.48-1.42c0.8,0,1.45,0.63,1.48,1.43l0.34,7.65l5.73-4.37
								c0.25-0.19,0.54-0.29,0.83-0.29c0.32,0,0.6,0.13,0.79,0.35c0.37,0.44,0.27,1.15-0.23,1.6l-6.95,6.32l1.19,26.61H117.65z"/>
							<path class="st1" d="M120.83,129.51c0.59,0,1.07,0.47,1.09,1.05l0.38,8.39l6.32-4.82c0.19-0.14,0.4-0.21,0.59-0.21
								c0.2,0,0.37,0.07,0.49,0.21c0.24,0.28,0.15,0.75-0.2,1.07l-7.09,6.44l1.18,26.39h-5.55l0.93-20.66l-8.5-7.72
								c-0.41-0.37-0.51-0.93-0.23-1.27c0.14-0.17,0.35-0.25,0.58-0.25c0.23,0,0.48,0.08,0.7,0.25l7.59,5.79l0.31-6.83l-4.53-4.21
								c-0.23-0.22-0.26-0.58-0.05-0.82c0.12-0.14,0.29-0.22,0.46-0.22c0.13,0,0.25,0.04,0.36,0.12l3.86,2.88l0.2-4.53
								C119.76,129.97,120.24,129.51,120.83,129.51 M120.83,128.73c-1.01,0-1.83,0.79-1.87,1.8l-0.14,3.06l-2.69-2.01
								c-0.24-0.18-0.52-0.27-0.82-0.27c-0.41,0-0.8,0.18-1.06,0.5c-0.47,0.56-0.41,1.39,0.12,1.89l4.27,3.96l-0.22,4.99l-6.41-4.89
								c-0.35-0.26-0.76-0.41-1.17-0.41c-0.47,0-0.9,0.19-1.18,0.53c-0.55,0.66-0.41,1.68,0.31,2.34l8.23,7.47l-0.91,20.3
								l-0.04,0.81h0.81h5.55h0.81l-0.04-0.81l-1.17-26.02l6.82-6.19c0.66-0.6,0.77-1.54,0.27-2.14c-0.26-0.31-0.66-0.49-1.09-0.49
								c-0.37,0-0.75,0.13-1.06,0.37l-5.14,3.92l-0.31-6.91C122.66,129.52,121.84,128.73,120.83,128.73L120.83,128.73z"/>
						</g>
					</g>
					<g>
						<circle class="st0" cx="98.17" cy="150.82" r="10.58"/>
						<path class="st1" d="M98.17,140.62c5.63,0,10.2,4.56,10.2,10.2c0,5.63-4.56,10.2-10.2,10.2c-5.63,0-10.2-4.56-10.2-10.2
							C87.97,145.18,92.54,140.62,98.17,140.62 M98.17,139.84c-6.05,0-10.97,4.92-10.97,10.97s4.92,10.97,10.97,10.97
							c6.05,0,10.97-4.92,10.97-10.97S104.22,139.84,98.17,139.84L98.17,139.84z"/>
					</g>
					<g>
						<path class="st0" d="M142.91,161.4c-5.84,0-10.58-4.75-10.58-10.58s4.75-10.58,10.58-10.58s10.58,4.75,10.58,10.58
							S148.74,161.4,142.91,161.4z"/>
						<path class="st1" d="M142.91,140.62c5.63,0,10.2,4.56,10.2,10.2c0,5.63-4.56,10.2-10.2,10.2c-5.63,0-10.2-4.56-10.2-10.2
							C132.71,145.18,137.28,140.62,142.91,140.62 M142.91,139.84c-6.05,0-10.97,4.92-10.97,10.97s4.92,10.97,10.97,10.97
							c6.05,0,10.97-4.92,10.97-10.97S148.96,139.84,142.91,139.84L142.91,139.84z"/>
					</g>
					<path class="st1" d="M99.9,168.03h-3.47l1.05-15.38c0.01-0.26,0.32-0.46,0.68-0.46l0,0c0.37,0,0.67,0.2,0.68,0.46L99.9,168.03z
						"/>
					<path class="st1" d="M144.64,168.03h-3.47l1.05-15.38c0.01-0.26,0.32-0.46,0.68-0.46l0,0c0.37,0,0.67,0.2,0.68,0.46
						L144.64,168.03z"/>
				</g>
				<g>
					<g>
						<g>
							<g>
								<path class="st0" d="M81.24,105.58l0.25,20.95C81.49,126.53,75.69,114.83,81.24,105.58z"/>
								<path class="st0" d="M81.24,105.58l0.25,20.95C81.49,126.53,87.01,114.69,81.24,105.58z"/>
							</g>
							<g>
								<path class="st0" d="M99.59,136.99l-18.15-10.47C81.45,126.52,88.82,137.31,99.59,136.99z"/>
								<path class="st0" d="M99.59,136.99l-18.15-10.47C81.45,126.52,94.47,127.5,99.59,136.99z"/>
							</g>
							<g>
								<path class="st0" d="M63.32,137.03l18.12-10.51C81.45,126.52,68.42,127.53,63.32,137.03z"/>
								<path class="st0" d="M63.32,137.03l18.12-10.51C81.45,126.52,74.1,137.32,63.32,137.03z"/>
							</g>
						</g>
						<polygon class="st0" points="83.37,167.08 79.39,167.08 80.7,127.54 82.05,127.54 						"/>
						<g>
							<path class="st0" d="M83.58,125.95c0.37,1.17-0.27,2.42-1.44,2.79c-1.17,0.37-2.42-0.27-2.79-1.44
								c-0.37-1.17,0.27-2.42,1.44-2.79C81.95,124.13,83.2,124.78,83.58,125.95z"/>
						</g>
					</g>
				</g>
				<g>
					<g>
						<g>
							<g>
								<path class="st0" d="M159.62,105.58l0.25,20.95C159.87,126.53,154.07,114.83,159.62,105.58z"/>
								<path class="st0" d="M159.62,105.58l0.25,20.95C159.87,126.53,165.39,114.69,159.62,105.58z"/>
							</g>
							<g>
								<path class="st0" d="M177.98,136.99l-18.15-10.47C159.83,126.52,167.2,137.31,177.98,136.99z"/>
								<path class="st0" d="M177.98,136.99l-18.15-10.47C159.83,126.52,172.86,127.5,177.98,136.99z"/>
							</g>
							<g>
								<path class="st0" d="M141.71,137.03l18.12-10.51C159.83,126.52,146.8,127.53,141.71,137.03z"/>
								<path class="st0" d="M141.71,137.03l18.12-10.51C159.83,126.52,152.48,137.32,141.71,137.03z"/>
							</g>
						</g>
						<polygon class="st0" points="161.75,167.08 157.77,167.08 159.09,127.54 160.44,127.54 						"/>
						<g>
							<path class="st0" d="M161.96,125.95c0.37,1.17-0.27,2.42-1.44,2.79c-1.17,0.37-2.42-0.27-2.79-1.44
								c-0.37-1.17,0.27-2.42,1.44-2.79C160.34,124.13,161.59,124.78,161.96,125.95z"/>
						</g>
					</g>
				</g>
			</g>
			<path class="st2" d="M227.87,168.02"/>
			<path class="st2" d="M13.2,168.02"/>
		</g>
		<g>
			<g>
				<path class="st0" d="M58.15,103.58l-4.18-2.24l-0.14,0.07l-2.51,1.29l1.78,3.47l-2.88,1.48l-6.4-12.45l5.39-2.77
					c3.33-1.71,6.29-1.05,7.73,1.74c0.96,1.87,0.72,3.72-0.54,5.25l4.85,2.57L58.15,103.58z M50.26,94.86l-2.35,1.21l2.23,4.34
					l2.35-1.21c1.76-0.9,2.23-2.18,1.54-3.53C53.32,94.3,52.02,93.96,50.26,94.86z"/>
				<path class="st0" d="M69.12,87.21l4,9.99l-2.75,1.1l-0.48-1.19c-0.41,1.18-1.34,2.09-2.57,2.58c-2.51,1-4.84,0.3-6.07-2.78
					L59,91.26l2.9-1.16l2.09,5.22c0.67,1.67,1.71,2.12,2.99,1.6c1.34-0.54,1.96-1.78,1.22-3.61l-1.98-4.94L69.12,87.21z"/>
				<path class="st0" d="M84.55,87.27l1.74,5.91l-2.99,0.88l-1.6-5.45c-0.49-1.67-1.49-2.21-2.81-1.82
					c-1.44,0.42-2.22,1.61-1.66,3.51l1.5,5.11l-3,0.88L72.7,85.96l2.86-0.84l0.36,1.21c0.55-1.12,1.61-1.96,3.02-2.37
					C81.37,83.24,83.62,84.12,84.55,87.27z"/>
				<path class="st0" d="M96.27,79.61l0.54,3.66l6.41-0.95l0.38,2.57l-6.41,0.95l0.75,5.04l-3.2,0.48l-2.06-13.84l10.46-1.56
					l0.38,2.57L96.27,79.61z"/>
				<path class="st0" d="M105.69,84.35c-0.17-3.24,2.21-5.66,5.62-5.84c3.42-0.18,6.01,1.99,6.18,5.22c0.17,3.24-2.18,5.66-5.6,5.84
					C108.48,89.75,105.86,87.59,105.69,84.35z M114.34,83.9c-0.1-1.86-1.34-2.91-2.89-2.83s-2.7,1.26-2.6,3.12
					c0.1,1.86,1.36,2.91,2.91,2.83C113.32,86.93,114.44,85.75,114.34,83.9z"/>
				<path class="st0" d="M126.79,78.48l-0.09,2.88c-0.26-0.03-0.46-0.05-0.7-0.06c-1.72-0.05-2.89,0.85-2.95,2.91l-0.15,5.08
					l-3.12-0.09l0.32-10.75l2.98,0.09l-0.04,1.42C123.84,78.94,125.13,78.43,126.79,78.48z"/>
				<path class="st0" d="M144.74,84.41l2.92,0.48l-0.92,5.6c-1.71,0.9-3.9,1.16-5.87,0.84c-4.34-0.71-7.05-4.21-6.37-8.38
					s4.37-6.62,8.77-5.9c2.43,0.4,4.3,1.56,5.39,3.33l-2.36,1.56c-0.83-1.23-1.91-1.91-3.32-2.14c-2.68-0.44-4.81,1.05-5.24,3.68
					c-0.42,2.58,1.11,4.72,3.75,5.15c0.87,0.14,1.7,0.12,2.58-0.18L144.74,84.41z"/>
				<path class="st0" d="M158.25,83.78l-0.71,2.79c-0.25-0.08-0.44-0.15-0.67-0.21c-1.67-0.43-3,0.2-3.51,2.2l-1.26,4.92l-3.02-0.77
					l2.66-10.43l2.89,0.74l-0.35,1.38C155.27,83.58,156.64,83.37,158.25,83.78z"/>
				<path class="st0" d="M168.57,93.86l-7.72-2.58c-0.14,1.37,0.68,2.5,2.24,3.02c1.08,0.36,1.97,0.3,2.89-0.13l1,2.23
					c-1.31,0.76-2.92,0.86-4.76,0.24c-3.53-1.18-5.08-4.16-4.07-7.2c1.02-3.05,4.09-4.48,7.2-3.44c3,1,4.64,3.78,3.54,7.06
					C168.82,93.31,168.67,93.62,168.57,93.86z M161.39,89.55l5.03,1.68c0.22-1.36-0.47-2.52-1.79-2.96
					C163.28,87.81,162.04,88.31,161.39,89.55z"/>
				<path class="st0" d="M180.48,98.88l-7.48-3.2c-0.25,1.35,0.48,2.55,1.98,3.2c1.05,0.45,1.93,0.46,2.89,0.1l0.82,2.31
					c-1.37,0.65-2.98,0.62-4.77-0.15c-3.42-1.46-4.72-4.56-3.47-7.51c1.27-2.96,4.44-4.13,7.45-2.84c2.91,1.24,4.32,4.15,2.96,7.33
					C180.77,98.35,180.6,98.65,180.48,98.88z M173.68,93.99l4.87,2.08c0.33-1.34-0.26-2.55-1.55-3.1
					C175.7,92.42,174.42,92.81,173.68,93.99z"/>
				<path class="st0" d="M193.2,103.58l-2.86,5.46l-2.76-1.45l2.64-5.03c0.81-1.54,0.47-2.62-0.75-3.26
					c-1.33-0.7-2.71-0.38-3.63,1.37l-2.47,4.71l-2.76-1.45l5-9.53l2.64,1.38l-0.58,1.12c1.17-0.42,2.52-0.28,3.81,0.4
					C193.71,98.47,194.72,100.67,193.2,103.58z"/>
			</g>
			<line class="st2" x1="23.9" y1="114.73" x2="36.43" y2="106.38"/>
			<line class="st2" x1="214.1" y1="114.73" x2="201.57" y2="106.38"/>
		</g>
		<line class="st3" x1="12.25" y1="224.25" x2="228.59" y2="224.25"/>
	</g>
	<g>
		<path class="st4" d="M131.25,37.22C131.23,37.23,131.27,37.21,131.25,37.22c0,0-0.01,0.12,0.36,0.37c2.28,1.84,3.48,3.6,3.47,7.21
			c-0.02,4.5-3.92,7.77-8.37,7.77v6.23c7.73,0,14.76-5.51,14.76-13.36c0-2.82-0.77-5.58-2.68-8.28c0.09-0.1,0.5-0.6,0.84-1.19
			c0.47-0.84,0.56-1.85,0.56-5.23V16.07h-19.82v11.69h-6.32v6.43h12.78V22.65h7.13v9.95C133.95,32.6,134.24,35.38,131.25,37.22"/>
		<path class="st5" d="M114.1,16.07h-1.84v0.01c-3.36,0.09-6.89,1.14-9.23,3.81c-2.47,2.82-2.71,5.31-2.71,9.44V58.8h20.14V47.23
			h6.37v-6.5h-12.78V52.4h-7.32V27.96c0,0-0.47-5.3,5.91-5.45l1.46-0.07L114.1,16.07z"/>
	</g>
	<g>
		<g>
			<path class="st0" d="M33.35,236.01c0,0-0.02,0.62-0.02,0.87c-0.33,8.05-0.61,10.87-1.28,11.76c-0.39,0.55-0.76,0.73-1.32,0.83
				c-0.5,0.08-1.26,0.08-2.06,0.04c-0.02-0.51-0.22-1.28-0.5-1.79c0.72,0.06,1.38,0.08,1.71,0.08c0.28,0,0.45-0.08,0.65-0.34
				c0.46-0.57,0.78-3.05,1.04-9.72H29.3c-0.22,4.71-0.89,9.25-3.16,12.17c-0.32-0.43-0.91-0.96-1.37-1.24
				c2.08-2.56,2.66-6.67,2.82-10.93h-2.38v-1.71h2.43c0.02-1.11,0.02-2.24,0.02-3.32h1.75c0,1.07-0.02,2.2-0.04,3.32H33.35z
				 M41.09,234.88v14.59h-1.78v-1.21h-3.1v1.36H34.5v-14.74H41.09z M39.31,246.58v-10.01h-3.1v10.01H39.31z"/>
			<path class="st0" d="M57.12,233.75c0,3.37,0.41,10.31,7.41,14.51c-0.39,0.34-1.04,1.13-1.3,1.56c-4.2-2.58-6.17-6.41-7.09-9.86
				c-1.39,4.56-3.71,7.86-7.17,9.95c-0.3-0.38-1.1-1.11-1.56-1.45c3.97-2.07,6.24-5.77,7.32-10.89l0.95,0.17
				c-0.13-0.79-0.21-1.54-0.26-2.22h-4.4v-1.77H57.12z"/>
			<path class="st0" d="M76,245.02h-3.57v1.73h-1.58v-12.4H76V245.02z M72.43,235.97v7.42h1.97v-7.42H72.43z M84.43,248
				c1,0,1.19-0.49,1.34-2.53c0.41,0.26,1.1,0.57,1.58,0.66c-0.26,2.6-0.78,3.47-2.8,3.47h-4.22c-2.23,0-2.92-0.55-2.92-2.92V233.8
				h9.19v10.01h-1.69v-1.15H79.1v4.01c0,1.11,0.2,1.32,1.36,1.32H84.43z M79.1,235.43v5.65h2.08v-5.65H79.1z M84.91,235.43h-2.17
				v5.65h2.17V235.43z"/>
			<path class="st0" d="M95.01,246.94c0-0.98,0.76-1.66,1.69-1.66s1.69,0.68,1.69,1.66s-0.76,1.64-1.69,1.64
				S95.01,247.92,95.01,246.94z M95.4,236.84l-0.06-2.49h2.73l-0.06,2.49l-0.56,6.93h-1.52L95.4,236.84z"/>
			<path class="st0" d="M112.77,240.53c-0.93,3.88-2.97,6.73-5.27,8.25c-0.3-0.38-0.97-1.06-1.37-1.32
				c1.89-1.15,3.57-3.17,4.46-5.71h-4.05v-1.66h4.79l0.3-0.06L112.77,240.53z M122.7,239.01c-1.43,1.36-3.23,2.86-4.72,3.9
				c1.34,1.94,3.1,3.47,5.37,4.33c-0.39,0.36-0.93,1.07-1.21,1.54c-2.92-1.3-5-3.6-6.42-6.58v5.6c0,1-0.22,1.51-0.89,1.79
				c-0.69,0.3-1.73,0.32-3.25,0.32c-0.07-0.49-0.35-1.28-0.61-1.75c1.02,0.04,2.15,0.04,2.47,0.04c0.33-0.02,0.43-0.11,0.43-0.43
				v-9.65h-4.9v-1.68h6.76v1.51c0.39,1.3,0.85,2.53,1.45,3.62c1.39-1.07,2.95-2.54,3.96-3.73L122.7,239.01z M117.32,236.69
				c-1.49-0.87-4.49-1.98-6.76-2.56l0.85-1.45c2.21,0.51,5.25,1.51,6.82,2.38L117.32,236.69z"/>
			<path class="st0" d="M130.97,245c-0.19,1.75-0.52,3.62-0.91,4.82c-0.3-0.17-0.95-0.36-1.3-0.45c0.43-1.21,0.69-2.98,0.85-4.62
				L130.97,245z M133.98,244.23c-0.04-0.3-0.11-0.64-0.19-1.04c-3.47,0.53-4.03,0.66-4.4,0.87c-0.07-0.32-0.3-1.06-0.48-1.45
				c0.39-0.11,0.78-0.57,1.32-1.28c0.24-0.3,0.74-1.02,1.3-1.94c-1.6,0.19-2.01,0.3-2.27,0.41c-0.07-0.32-0.31-1.04-0.48-1.43
				c0.33-0.08,0.61-0.45,0.96-1.04c0.37-0.55,1.51-2.7,2.14-4.73l1.45,0.6c-0.67,1.7-1.56,3.43-2.47,4.84l1.56-0.13
				c0.43-0.81,0.87-1.7,1.24-2.54l1.34,0.79c-1.04,2.11-2.38,4.24-3.75,5.99l2.27-0.3c-0.15-0.57-0.32-1.15-0.48-1.66l1.19-0.32
				c0.43,1.3,0.87,2.96,1.02,3.94L133.98,244.23z M132.62,244.72c0.24,1.38,0.43,3.13,0.48,4.32l-1.28,0.25
				c-0.02-1.19-0.19-2.98-0.39-4.35L132.62,244.72z M134.24,244.25c0.35,1.07,0.8,2.51,0.97,3.43l-1.17,0.38
				c-0.17-0.92-0.54-2.38-0.91-3.49L134.24,244.25z M142.23,247.22c1.32,0.47,2.71,1.04,3.62,1.45l-0.71,1.24
				c-0.98-0.47-2.54-1.19-3.94-1.71l0.56-0.98h-3.01l1.02,0.96c-1.41,0.66-3.21,1.36-4.51,1.85c-0.13-0.34-0.41-0.87-0.65-1.23
				c1.12-0.38,2.73-1.05,3.77-1.58h-2.71v-5.54h9.21v5.54H142.23z M139.53,234.75h-4.57v-1.19h4.57v-0.92h1.69v0.92h4.35v1.19h-4.35
				v0.83h3.7v1.13h-9.23v-1.13h3.84V234.75z M135.06,237.35h10.44v3.62h-10.44V237.35z M136.49,239.83h1.75v-1.36h-1.75V239.83z
				 M137.21,243.34h6.07v-0.68h-6.07V243.34z M137.21,244.77h6.07v-0.7h-6.07V244.77z M137.21,246.26h6.07v-0.75h-6.07V246.26z
				 M141.17,239.83v-1.36h-1.62v1.36H141.17z M143.99,238.48h-1.5v1.36h1.5V238.48z"/>
			<path class="st0" d="M156.31,243.58c-0.21-0.57-0.61-1.54-1-2.43v8.69h-1.5v-7.52c-0.45,1.6-1,3.07-1.6,4.09
				c-0.19-0.42-0.57-1.06-0.82-1.41c0.96-1.58,1.86-4.41,2.32-6.78h-1.93v-1.6h2.02v-3.98h1.5v3.98h1.63v1.6h-1.63v0.88
				c0.46,0.75,1.58,2.75,1.84,3.26L156.31,243.58z M163.6,246.94l0.09,1.47c-2.41,0.42-5,0.85-6.87,1.15l-0.41-1.53
				c1.06-0.13,2.43-0.34,3.92-0.57l-0.09-0.04c0.35-0.91,0.8-2.36,1-3.35l1.52,0.45c-0.33,0.9-0.67,1.9-0.98,2.71L163.6,246.94z
				 M159.31,235.84h-2.47v-1.41h2.47v-1.77h1.5v1.77h2.58v1.41h-2.58v1.38h2.19v1.39h-5.83v-1.39h2.14V235.84z M162.84,243.83h-5.48
				v-4.33h5.48V243.83z M158.2,247.47c-0.07-0.75-0.37-2.02-0.69-2.96l1.32-0.36c0.35,0.92,0.69,2.15,0.76,2.88L158.2,247.47z
				 M161.37,240.74h-2.6v1.85h2.6V240.74z M164.29,244.94c-0.11-1.19-0.54-3.19-1.02-4.69l1.26-0.38c0.5,1.51,0.98,3.43,1.11,4.6
				L164.29,244.94z M168.6,238.38h-1.1v9.59c0,0.91-0.19,1.38-0.69,1.66c-0.52,0.26-1.3,0.34-2.45,0.32
				c-0.07-0.43-0.3-1.19-0.52-1.64c0.76,0.02,1.48,0.02,1.73,0.02s0.33-0.08,0.33-0.34v-9.61h-2.58v-1.6h2.58v-4.09h1.6v4.09h1.1
				V238.38z"/>
			<path class="st0" d="M180.69,237.29c-0.57,0.98-1.26,1.96-2.02,2.9v9.84h-1.73v-7.9c-0.61,0.64-1.24,1.21-1.86,1.7
				c-0.24-0.38-0.87-1.13-1.23-1.47c1.91-1.38,3.94-3.56,5.18-5.69L180.69,237.29z M180,233.31c-1.28,1.7-3.21,3.58-4.92,4.79
				c-0.22-0.4-0.71-1.07-1.02-1.39c1.56-1.04,3.34-2.71,4.25-4.07L180,233.31z M191.05,240.55h-2.64v7.27
				c0,0.98-0.22,1.45-0.93,1.71c-0.71,0.25-1.82,0.26-3.45,0.26c-0.09-0.47-0.35-1.19-0.6-1.68c1.17,0.04,2.41,0.04,2.75,0.04
				c0.35-0.02,0.46-0.09,0.46-0.38v-7.24h-5.85v-1.66h10.25V240.55z M190.61,235.41h-9.02v-1.66h9.02V235.41z"/>
			<path class="st0" d="M213.43,236.95c0,0,0,0.62-0.02,0.83c-0.19,7.76-0.35,10.36-0.95,11.17c-0.39,0.57-0.8,0.73-1.39,0.81
				c-0.56,0.08-1.41,0.06-2.27,0.02c-0.04-0.45-0.22-1.13-0.5-1.6c0.89,0.08,1.67,0.09,2.04,0.09c0.28,0,0.46-0.06,0.63-0.3
				c0.43-0.53,0.61-3,0.76-9.38h-2.19c-0.22,5.15-1.04,9.08-4.21,11.57c-0.3-0.47-0.84-1.06-1.3-1.38c0.13-0.09,0.26-0.19,0.39-0.3
				c-2.67,0.32-5.35,0.6-7.32,0.83l-0.26-1.51c1.06-0.08,2.41-0.21,3.88-0.34v-1.41h-3.38v-1.28h3.38v-0.94h-3.32v-5.69h3.32v-0.98
				h-3.82v-1.32h3.82v-1c-1.15,0.11-2.32,0.17-3.38,0.21c-0.04-0.36-0.24-0.92-0.41-1.26c2.75-0.15,6.09-0.51,8.02-0.96l0.85,1.28
				c-0.98,0.25-2.21,0.43-3.51,0.58v1.15h3.7v1.11h1.95c0.04-1.26,0.04-2.6,0.04-4.01h1.65c0,1.39,0,2.73-0.04,4.01H213.43z
				 M198.8,240.44h1.93v-1.13h-1.93V240.44z M200.73,242.66v-1.15h-1.93v1.15H200.73z M202.31,247.32c1.15-0.11,2.36-0.23,3.53-0.36
				c1.47-2.09,1.93-4.9,2.08-8.37h-1.97v-1.43h-3.64v0.98h3.46v5.69h-3.46v0.94h3.57v1.28h-3.57V247.32z M204.3,240.44v-1.13h-1.99
				v1.13H204.3z M202.31,241.51v1.15h1.99v-1.15H202.31z"/>
		</g>
		<path class="st0" d="M17.42,241.66c0,1.44-1.16,2.6-2.6,2.6c-1.44,0-2.6-1.16-2.6-2.6c0-1.44,1.16-2.6,2.6-2.6
			C16.25,239.06,17.42,240.22,17.42,241.66z"/>
		<path class="st0" d="M227.93,241.66c0,1.44-1.16,2.6-2.6,2.6c-1.44,0-2.6-1.16-2.6-2.6c0-1.44,1.16-2.6,2.6-2.6
			C226.77,239.06,227.93,240.22,227.93,241.66z"/>
	</g>
</g>
</svg>
