<svg xmlns="http://www.w3.org/2000/svg" viewBox="0 0 141.73 113.39"><defs><style>.cls-1{fill:#fff;}.cls-2{fill:#00428e;}.cls-3{fill:#ffd900;}.cls-4{fill:none;}</style></defs><g id="Logo"><path class="cls-1" d="M93.12,97.34a4.7,4.7,0,0,0-2.1-.42H87.68a1.28,1.28,0,0,0-1.26,1.21l-.75,8.62h1.9l.29-3.38h2.48a5.4,5.4,0,0,0,2.22-.42A3.51,3.51,0,0,0,94,101.81a3.35,3.35,0,0,0,.61-1.68,3,3,0,0,0-.3-1.66A2.61,2.61,0,0,0,93.12,97.34Zm-.49,2.84a2,2,0,0,1-.34,1,1.62,1.62,0,0,1-1.26.64H88l.29-3.34h2a5.1,5.1,0,0,1,1.29.12,1.39,1.39,0,0,1,.84.62A1.55,1.55,0,0,1,92.63,100.18Z"/><path class="cls-1" d="M54.56,97.34a4.68,4.68,0,0,0-2.1-.42H49.13a1.3,1.3,0,0,0-1.27,1.21l-.75,8.62H49l.3-3.38h2.47A5.36,5.36,0,0,0,54,103a3.54,3.54,0,0,0,1.45-1.14,3.34,3.34,0,0,0,.6-1.68,2.82,2.82,0,0,0-.3-1.66A2.61,2.61,0,0,0,54.56,97.34Zm-.48,2.84a2.09,2.09,0,0,1-.34,1,1.66,1.66,0,0,1-1.27.64h-3l.29-3.34h2a5,5,0,0,1,1.29.12,1.4,1.4,0,0,1,.85.62A1.71,1.71,0,0,1,54.08,100.18Z"/><path class="cls-1" d="M80.84,96.83a1.54,1.54,0,0,0-1.34.91l-3,6.38-1.9-6.28a1.37,1.37,0,0,0-1.31-1H73a1.34,1.34,0,0,0-1.32,1.27l-.76,8.67h1.9l.61-6.71c0-.06,0-.11.1-.11a.11.11,0,0,1,.13.08l2,6.7h1.16L80,99.82a.1.1,0,0,1,.13-.06.12.12,0,0,1,.09.13l-.6,6.88h1.86l.73-8.3a1.58,1.58,0,0,0-.37-1.15A1.37,1.37,0,0,0,80.84,96.83Z"/><path class="cls-1" d="M66,102.06a3.19,3.19,0,0,1-3,3.22,2.11,2.11,0,0,1-1.68-.78,3.39,3.39,0,0,1-.6-2.65L61,98.24a1.22,1.22,0,0,0-.26-.92A1,1,0,0,0,60,97h-.71l-.44,5.26a4.39,4.39,0,0,0,.9,3.36,3.83,3.83,0,0,0,3,1.28c2.09,0,4.65-.74,5-4.27L68.2,97h-.73a1.26,1.26,0,0,0-1.18,1.08Z"/><path class="cls-2" d="M89,59.81a.54.54,0,0,0-.22,0h-.09a19.63,19.63,0,0,1-3.41.29c-4.86,0-9-1.78-13.46-3.67-1.91-.81-3.89-1.65-6-2.39a28.15,28.15,0,0,0-9.27-1.62A25.58,25.58,0,0,0,45.32,55a.49.49,0,0,0-.25.41.52.52,0,0,0,.54.53c1.42-.12,2.83-.19,4.19-.19a40.21,40.21,0,0,1,18.6,4.57c.9.43,1.69.8,2.4,1.09a23.53,23.53,0,0,0,8.8,1.81h0a19,19,0,0,0,9.46-2.47.47.47,0,0,0,.2-.22.52.52,0,0,0-.24-.68"/><path class="cls-2" d="M101.52,48.49a.53.53,0,0,0-.32.1,14.53,14.53,0,0,1-1.53,1,16.1,16.1,0,0,1-2.1,1,9.62,9.62,0,0,1-1.49.53l-.25-.24c-1.83-1.71-6.38-6.8-9.32-17.1a81,81,0,0,0,.32-13.46h0l.39.08a5.39,5.39,0,0,1,1.23.41.47.47,0,0,0,.17,0,.39.39,0,0,0,.36-.23.38.38,0,0,0-.13-.49,6.33,6.33,0,0,0-1.29-.74c-.26-.11-.56-.19-.84-.28,0-.35-.12-.75-.22-1.19l.26,0H87a7.62,7.62,0,0,1,1.29.13,6,6,0,0,1,1.24.36.41.41,0,0,0,.16,0,.38.38,0,0,0,.36-.24.41.41,0,0,0-.14-.5A6.94,6.94,0,0,0,88.56,17a10.34,10.34,0,0,0-1.43-.42c-.34-.07-.69-.11-1-.15a3.66,3.66,0,0,0-.15-.43,6.58,6.58,0,0,0-3-3.52l-.55-.35c-1.63-3.23-5.64-5.49-9.94-5.61A12.27,12.27,0,0,0,66,8a13.7,13.7,0,0,0-5.38,5.38c-4.26,7.37-12.31,27-14.94,34L45,48.87c-.34.25-.35.25-.68.51A23.41,23.41,0,0,0,41,52.65c-.43.52-.84,1.07-1.25,1.67a.51.51,0,0,0,.75.66c.53-.39,1.07-.76,1.6-1.1a32,32,0,0,1,3.75-2.06,29,29,0,0,1,3.91-1.46,25.33,25.33,0,0,1,4-.83c.74-.09,1.4-.15,2-.18q.67,0,1.35,0h.66a28.92,28.92,0,0,1,4,.38,38.16,38.16,0,0,1,7.85,2.2c.32.13.64.25,1,.39l1,.42c.35.16.71.3,1.07.45l1.08.41A44.58,44.58,0,0,0,78.2,55a36.77,36.77,0,0,0,4.63.92c.86.12,1.64.19,2.38.23l1.2,0h1.2a22.71,22.71,0,0,0,4.79-.63,17.9,17.9,0,0,0,4.52-1.74,14.69,14.69,0,0,0,3.77-2.94,12.86,12.86,0,0,0,1.25-1.59A.44.44,0,0,0,102,49a.51.51,0,0,0-.5-.53"/><path class="cls-3" d="M90.81,49a39.7,39.7,0,0,1-3.52-5.92,32.61,32.61,0,0,1-1.91-4.48,9.76,9.76,0,0,1-2.22,3.68,3.46,3.46,0,0,1-1.93.88c-1.6,0-1.6-2.27-1.44-4.06.18-2.07.14-5.67-.48-12.62a5.52,5.52,0,0,1-1,.29,6.84,6.84,0,0,1-1.28.11h-.34a8.71,8.71,0,0,1-1.55-.21.41.41,0,0,1,.09-.8h.4a6.9,6.9,0,0,0,1-.07,6.69,6.69,0,0,0,.93-.19l.35-.11.07,0,.3-.1.29-.13.27-.13.24-.15a1.22,1.22,0,0,0,.18-.13l.17-.15.13-.13.06-.08.06-.07,0,0v0a.3.3,0,0,0,.06-.11,2,2,0,0,0-.24-2.09,1.38,1.38,0,0,0-.64-.32,3.17,3.17,0,0,0-.53-.05H78a2.69,2.69,0,0,0-.29,0h-.08l-.29.05a17.08,17.08,0,0,0-2.82.71l-.63.2a73,73,0,0,0-1.64,15.77c0,1.78.08,3-.5,3.61a1.54,1.54,0,0,1-1.18.45,3.47,3.47,0,0,1-2.41-1.3c-2.68-4.32-1.85-15.8-1.1-21.12a4.53,4.53,0,0,0-.78,0,6.66,6.66,0,0,0-.67.12,6.24,6.24,0,0,0-1.22.41.39.39,0,0,1-.18,0,.39.39,0,0,1-.36-.23.4.4,0,0,1,.12-.49,6.49,6.49,0,0,1,1.3-.74,9.72,9.72,0,0,1,1.41-.48c.31-.08.63-.14.94-.2l0-.23.08-.45L67.38,18h0l-.19,0a10.38,10.38,0,0,0-1.09-.06h-.21A7.41,7.41,0,0,0,64.6,18a5.13,5.13,0,0,0-1.24.36.45.45,0,0,1-.16,0,.4.4,0,0,1-.37-.24.41.41,0,0,1,.14-.5A6.66,6.66,0,0,1,64.3,17a10.05,10.05,0,0,1,1.42-.42,12.69,12.69,0,0,1,1.47-.21c.25,0,.5,0,.75,0h.57a1.88,1.88,0,0,1,.41,0c.44.09.92.4.83.84,0,0-.16.73-.37,2a2.26,2.26,0,0,0,.56,1.87,2.24,2.24,0,0,0,1.5.43,9.7,9.7,0,0,0,2.68-.78A13.33,13.33,0,0,1,78.19,20a6.2,6.2,0,0,1,2.43.61,5.28,5.28,0,0,0,1.67.23h.11a2.48,2.48,0,0,0,1.36-.28,1,1,0,0,0,.37-1c-.35-3.87-1.51-4.27-2.46-4.88a2.16,2.16,0,0,1-.78.75l-.15.1a3.15,3.15,0,0,0-.44.45c-.31.36-.66.76-1.06.76h-.11a2.22,2.22,0,0,1-1-.58,3.85,3.85,0,0,0-.65-.47,2.36,2.36,0,0,0-.77-.2A2,2,0,0,1,75.4,15a.64.64,0,0,1-.23-.57c0-.21.24-.41.6-.58a6,6,0,0,1,1.43-.4,8.74,8.74,0,0,1,1.55-.14,6,6,0,0,1,1.44.16.31.31,0,0,1,0-.07h0c-1.22-2.43-4.41-4.17-7.78-4.26H72a10.53,10.53,0,0,0-9.2,5.59c-4,6.9-11.26,24.58-14.16,32.06a21.21,21.21,0,0,1,3.39-1.26,23.23,23.23,0,0,1,2.36-.53c.81-.15,1.63-.25,2.41-.32s1.45-.08,2.18-.08,1.78,0,2.68.12a31.83,31.83,0,0,1,4.74.83A35.52,35.52,0,0,1,71,47l1.09.46.55.23.49.23,1,.42,1,.41c1.33.56,2.66,1.06,3.93,1.49s2.7.85,4,1.16c.66.16,1.32.3,2,.43L86,52l1,.14a27.38,27.38,0,0,0,3,.17q.55,0,1.11,0A18.8,18.8,0,0,0,93.32,52a24.12,24.12,0,0,1-2.51-3M68.39,12.64a1.11,1.11,0,0,1,.93-.9,2.51,2.51,0,0,1,.55-.06,3.13,3.13,0,0,1,1.6.49c.29.17,1.06.64,1,1.07a2,2,0,0,1-.9.95,2.25,2.25,0,0,1-1.14.29,2.34,2.34,0,0,1-1.63-.78,1.35,1.35,0,0,1-.36-1.06"/><path class="cls-1" d="M70.43,38.69a15.23,15.23,0,0,1,0,2h0a.67.67,0,0,1-.47-.29c-1.85-2.19-1.77-11.81-1.16-17.93a3.86,3.86,0,0,0,2.48.75,3,3,0,0,0,.54,0,67.69,67.69,0,0,0-1.35,15.48"/><path class="cls-1" d="M81.93,40.46a1.55,1.55,0,0,1-.35.26,14.2,14.2,0,0,1,.09-1.51,72,72,0,0,0-.44-16.46,5.87,5.87,0,0,0,1.13.1,3.46,3.46,0,0,0,2-.46c.28,7.24-.56,16.2-2.39,18.07"/><path class="cls-1" d="M128.46,79.44h-6A1.27,1.27,0,0,1,121.28,78a1.57,1.57,0,0,1,1.5-1.31h7.84a1.89,1.89,0,0,0,1.57-.58,2.44,2.44,0,0,0,.59-1.57l.17-1.94h-10c-3,0-6,2-6.23,5.3-.24,3,1.7,5.72,4.75,5.72h5.79a1.37,1.37,0,0,1,1.37,1.68A1.66,1.66,0,0,1,127,86.64l-9.8,0a1.83,1.83,0,0,0-1.35.63,2.19,2.19,0,0,0-.61,1.52l-.16,2h11.83a6,6,0,0,0,6.31-5.52A4.91,4.91,0,0,0,128.46,79.44Z"/><path class="cls-1" d="M109.54,75l-.6,7.06c-.25,3.13-2.44,5.12-5,5.12s-4.08-2.19-3.67-5.36l.55-6.39a2.49,2.49,0,0,0-2.47-2.87H96.49l-.83,9.84c-.52,5.46,3,8.86,7.93,8.86s9.27-1.92,9.85-8.09l.91-10.61h-2A2.86,2.86,0,0,0,109.54,75Z"/><path class="cls-1" d="M70,86.68H63.44a1.69,1.69,0,0,1-1.36-.54,2,2,0,0,1-.24-1.32l.61-7.21.2-2.46a2.48,2.48,0,0,0-2.49-2.59h-1.9l-1,12.65a7.65,7.65,0,0,0,0,2.09,5,5,0,0,0,.58,1.83,4.08,4.08,0,0,0,3.66,1.62H72.7l-.18-1.65A2.73,2.73,0,0,0,70,86.68Z"/><path class="cls-1" d="M45.45,72.25A5.87,5.87,0,0,0,40,75.7l-6.5,15.06h4.59l1.57-3.65h9l1,3.65h4.58L50.33,75.91A5,5,0,0,0,45.45,72.25ZM41.27,83.32l2.47-5.73a1.44,1.44,0,0,1,1.27-1c.7,0,1,.51,1.19,1.1l1.49,5.65Z"/><path class="cls-1" d="M33.85,72.8A3,3,0,0,0,31,74.9L29,80h0l-2.58,6.58c-.05.1-.09.21-.14.32a.26.26,0,0,1-.45,0c0-.34-.07-.7-.09-.86l-1-13.24-4.51,0h0l-4,10.35-1.45,3.69a.26.26,0,0,1-.5-.08l0-.49c0-.06,0-.12,0-.16l-.89-11.25a2.7,2.7,0,0,0-2.83-2.1H8.51L9.62,86.34l.12,1.13a4,4,0,0,0,4,3.87c3,0,4.09-1.82,5.24-4.36v0l2-5.21s.37,5.21.37,5.2a4.39,4.39,0,0,0,4.33,4.34c2.46,0,4-1.33,4.91-3.87l.43-1.13L36.33,72.8Z"/><path class="cls-1" d="M88.3,72.62c-1,0-2.88,0-3.81-.05H80.85a5.37,5.37,0,0,0-3.68,1.27c-1.24,1.17-1.24,2.68-1.36,4.23L74.73,90.93h4.59l1.22-14a.37.37,0,0,1,.37-.33H87a2.3,2.3,0,0,1,1.5.36,1.72,1.72,0,0,1,.67,1.7,2,2,0,0,1-2.09,1.73H82.63L83.32,82l4.05,9h4.8s-3.23-7.1-3.18-7.12c3.66-1.28,4.34-3.47,4.56-5.47A5.21,5.21,0,0,0,88.3,72.62Z"/></g><g id="最小範圍"><rect class="cls-4" x="8.51" width="124.71" height="100.4"/><rect class="cls-4" x="-19.84" y="-28.35" width="181.4" height="156.95"/></g></svg>