<svg id="圖層_1" data-name="圖層 1" xmlns="http://www.w3.org/2000/svg" xmlns:xlink="http://www.w3.org/1999/xlink" viewBox="0 0 80 80"><defs><style>.cls-1{isolation:isolate;}.cls-2{fill:#333;opacity:0.6;}.cls-3{fill:#fff;}.cls-4{opacity:0.5;}.cls-5{fill:url(#未命名漸層_64);}.cls-6{fill:url(#未命名漸層_64-2);}</style><linearGradient id="未命名漸層_64" x1="40" y1="68.07" x2="40" y2="-1.63" gradientUnits="userSpaceOnUse"><stop offset="0" stop-color="#004098" stop-opacity="0.2"/><stop offset="1" stop-color="#004098" stop-opacity="0.8"/></linearGradient><linearGradient id="未命名漸層_64-2" x1="40.39" y1="68.07" x2="40.39" y2="-1.63" xlink:href="#未命名漸層_64"/></defs><g class="cls-1"><path class="cls-2" d="M70.16,29.78a1.91,1.91,0,0,1-1.88,1.09l-10.77-.39V32.6L68.28,33a1.88,1.88,0,0,0,1.89-1.12s0-2.27,0-2.34A1.07,1.07,0,0,1,70.16,29.78Z"/><path class="cls-2" d="M11.81,30.87c-.83,0-2-.38-2-1.34v2.12c0,1,1.18,1.35,2,1.34l10.71-.39V30.48Z"/><path class="cls-3" d="M69.58,28.51A1.13,1.13,0,0,1,70,30.08a2.09,2.09,0,0,1-1.75.79l-10.77-.39,1.06,11a1.45,1.45,0,0,1-1.15,1.42,2.62,2.62,0,0,1-.83.13,2.55,2.55,0,0,1-1.45-.43L40,32.11,25.24,42.56a2.59,2.59,0,0,1-1.46.43,2.72,2.72,0,0,1-.8-.12,1.46,1.46,0,0,1-1.19-1.39l.73-11-10.71.39A2.1,2.1,0,0,1,10,30.08a1.12,1.12,0,0,1,.44-1.57L38.62,8.33a2.7,2.7,0,0,1,2.76,0ZM55.36,29l12.72.46L40,9.32l-28,20.13L24.62,29l-.83,12.55L38.6,31.11a2.64,2.64,0,0,1,2.81,0L56.53,41.62,55.36,29"/><g class="cls-4"><path class="cls-3" d="M40,9.32,68.08,29.45,55.36,29l1.17,12.63L41.41,31.1a2.64,2.64,0,0,0-2.81,0L23.79,41.54,24.62,29l-12.7.46Z"/></g><path class="cls-2" d="M25.24,42.56a2.64,2.64,0,0,1-1.86.4h0c-.8-.08-1.62-.7-1.59-1.4v2.12c0,.7.79,1.32,1.59,1.4h0a2.59,2.59,0,0,0,1.86-.4L40,34.23V32.11Z"/><path class="cls-2" d="M58.57,41.62c-.15,1.55-2.37,1.78-3.43,1L40,32.11v2.12L55.14,44.75c1.06.76,3.25.55,3.43-1Z"/><g class="cls-4"><path class="cls-3" d="M40.11,38.94l17.5,12.41.09.15,1.12,13.6a.26.26,0,0,1-.08.21h-.81l-.12-.07L40.09,52.31l-17.73,13-.11,0h-.2A.21.21,0,0,1,22,65.1L23,51.49l.09-.14Z"/></g><path class="cls-3" d="M60.82,65a1.46,1.46,0,0,1-.62,1.26,2.46,2.46,0,0,1-1.46.45h-.81a2.58,2.58,0,0,1-1.58-.52L40.09,54.35,23.82,66.22a2.6,2.6,0,0,1-1.56.5h-.21a2.47,2.47,0,0,1-1.47-.45A1.44,1.44,0,0,1,20,65L21,51.42a1.49,1.49,0,0,1,.65-1.06l17-12.4a2.43,2.43,0,0,1,1.43-.44,2.55,2.55,0,0,1,1.44.42L59,50.35a1.46,1.46,0,0,1,.67,1.07Zm-2.08.3a.26.26,0,0,0,.08-.21L57.7,51.5l-.09-.15L40.11,38.94l-17,12.41-.09.14L22,65.1a.21.21,0,0,0,.09.21h.2l.11,0,17.73-13L57.81,65.24l.12.07h.81"/><path class="cls-2" d="M23.82,66.22c-1.17.9-3.76.64-3.87-1.11v2.12c0,.85.88,1.49,1.68,1.58h0a3,3,0,0,0,2.18-.46L40.09,56.47V54.35Z"/><path class="cls-2" d="M60.82,65.11c0,1-1.15,1.63-2.08,1.61a3.55,3.55,0,0,1-2.39-.52L40.09,54.35v2.12L56.35,68.33a3.6,3.6,0,0,0,2.39.51,2.33,2.33,0,0,0,1.73-.7h0C61.06,67.6,60.75,65.91,60.82,65.11Z"/></g><g class="cls-1"><path class="cls-2" d="M70.16,29.78a1.91,1.91,0,0,1-1.88,1.09l-10.77-.39V32.6L68.28,33a1.88,1.88,0,0,0,1.89-1.12s0-2.27,0-2.34A1.07,1.07,0,0,1,70.16,29.78Z"/><path class="cls-2" d="M11.81,30.87c-.83,0-2-.38-2-1.34v2.12c0,1,1.18,1.35,2,1.34l10.71-.39V30.48Z"/><path class="cls-3" d="M69.58,28.51A1.13,1.13,0,0,1,70,30.08a2.09,2.09,0,0,1-1.75.79l-10.77-.39,1.06,11a1.45,1.45,0,0,1-1.15,1.42,2.62,2.62,0,0,1-.83.13,2.55,2.55,0,0,1-1.45-.43L40,32.11,25.24,42.56a2.59,2.59,0,0,1-1.46.43,2.72,2.72,0,0,1-.8-.12,1.46,1.46,0,0,1-1.19-1.39l.73-11-10.71.39A2.1,2.1,0,0,1,10,30.08a1.12,1.12,0,0,1,.44-1.57L38.62,8.33a2.7,2.7,0,0,1,2.76,0ZM55.36,29l12.72.46L40,9.32l-28,20.13L24.62,29l-.83,12.55L38.6,31.11a2.64,2.64,0,0,1,2.81,0L56.53,41.62,55.36,29"/><path class="cls-5" d="M40,9.32,68.08,29.45,55.36,29l1.17,12.63L41.41,31.1a2.64,2.64,0,0,0-2.81,0L23.79,41.54,24.62,29l-12.7.46Z"/><path class="cls-2" d="M25.24,42.56a2.64,2.64,0,0,1-1.86.4h0c-.8-.08-1.62-.7-1.59-1.4v2.12c0,.7.79,1.32,1.59,1.4h0a2.59,2.59,0,0,0,1.86-.4L40,34.23V32.11Z"/><path class="cls-2" d="M58.57,41.62c-.15,1.55-2.37,1.78-3.43,1L40,32.11v2.12L55.14,44.75c1.06.76,3.25.55,3.43-1Z"/><path class="cls-6" d="M40.11,38.94l17.5,12.41.09.15,1.12,13.6a.26.26,0,0,1-.08.21h-.81l-.12-.07L40.09,52.31l-17.73,13-.11,0h-.2A.21.21,0,0,1,22,65.1L23,51.49l.09-.14Z"/><path class="cls-3" d="M60.82,65a1.46,1.46,0,0,1-.62,1.26,2.46,2.46,0,0,1-1.46.45h-.81a2.58,2.58,0,0,1-1.58-.52L40.09,54.35,23.82,66.22a2.6,2.6,0,0,1-1.56.5h-.21a2.47,2.47,0,0,1-1.47-.45A1.44,1.44,0,0,1,20,65L21,51.42a1.49,1.49,0,0,1,.65-1.06l17-12.4a2.43,2.43,0,0,1,1.43-.44,2.55,2.55,0,0,1,1.44.42L59,50.35a1.46,1.46,0,0,1,.67,1.07Zm-2.08.3a.26.26,0,0,0,.08-.21L57.7,51.5l-.09-.15L40.11,38.94l-17,12.41-.09.14L22,65.1a.21.21,0,0,0,.09.21h.2l.11,0,17.73-13L57.81,65.24l.12.07h.81"/><path class="cls-2" d="M23.82,66.22c-1.17.9-3.76.64-3.87-1.11v2.12c0,.85.88,1.49,1.68,1.58h0a3,3,0,0,0,2.18-.46L40.09,56.47V54.35Z"/><path class="cls-2" d="M60.82,65.11c0,1-1.15,1.63-2.08,1.61a3.55,3.55,0,0,1-2.39-.52L40.09,54.35v2.12L56.35,68.33a3.6,3.6,0,0,0,2.39.51,2.33,2.33,0,0,0,1.73-.7h0C61.06,67.6,60.75,65.91,60.82,65.11Z"/></g></svg>