<svg width="47" height="46" viewBox="0 0 47 46" fill="none" xmlns="http://www.w3.org/2000/svg">
<rect x="0.0263672" width="46" height="46" rx="23" fill="white"/>
<g clip-path="url(#clip0_3125_880)">
<path d="M21.9059 13.0704C21.7966 13.002 21.6702 12.9658 21.5411 12.9658C21.4121 12.9658 21.2857 13.002 21.1764 13.0704L14.0351 18.5164L9.75594 18.3343C9.66274 18.3303 9.56972 18.3457 9.48277 18.3794C9.39583 18.4132 9.31685 18.4646 9.25086 18.5303C9.17984 18.5937 9.12311 18.6714 9.08441 18.7583C9.04572 18.8452 9.02593 18.9393 9.02637 19.0343V26.8604C9.02997 27.0449 9.10504 27.2209 9.23583 27.3514C9.36662 27.4819 9.54295 27.5568 9.72787 27.5604H13.6843L21.1483 33.7624C21.2729 33.8703 21.4323 33.9299 21.5973 33.9303C21.6945 33.9496 21.7946 33.9496 21.8919 33.9303C22.0136 33.876 22.1169 33.7876 22.1892 33.6757C22.2614 33.5638 22.2995 33.4334 22.2988 33.3004V13.7004C22.299 13.5692 22.2623 13.4405 22.1929 13.3291C22.1234 13.2177 22.024 13.1281 21.9059 13.0704Z" fill="#004DA0"/>
<path d="M33.5512 33.2585C33.3693 33.2542 33.195 33.1846 33.0602 33.0625C32.9308 32.9293 32.8584 32.751 32.8584 32.5655C32.8584 32.38 32.9308 32.2017 33.0602 32.0685C34.1931 30.9469 35.0915 29.612 35.7032 28.1412C36.315 26.6704 36.6279 25.093 36.6238 23.5005C36.6287 21.9079 36.3161 20.3303 35.7043 18.8594C35.0925 17.3884 34.1937 16.0536 33.0602 14.9325C32.9308 14.7993 32.8584 14.621 32.8584 14.4355C32.8584 14.25 32.9308 14.0717 33.0602 13.9385C33.1254 13.8729 33.203 13.8208 33.2885 13.7853C33.374 13.7497 33.4656 13.7314 33.5582 13.7314C33.6509 13.7314 33.7425 13.7497 33.828 13.7853C33.9135 13.8208 33.9911 13.8729 34.0563 13.9385C35.318 15.1918 36.3184 16.6821 36.9999 18.3233C37.6814 19.9644 38.0304 21.724 38.0268 23.5005C38.0296 25.2769 37.6803 27.0362 36.9988 28.6773C36.3174 30.3184 35.3174 31.8087 34.0563 33.0625C33.9179 33.1877 33.7381 33.2575 33.5512 33.2585Z" fill="#004DA0"/>
<path d="M29.3423 31.2C29.1572 31.1973 28.9807 31.1219 28.8512 30.99C28.7218 30.8568 28.6494 30.6785 28.6494 30.493C28.6494 30.3074 28.7218 30.1292 28.8512 29.996C29.7101 29.1453 30.3917 28.1333 30.8564 27.0183C31.3212 25.9033 31.56 24.7075 31.559 23.5C31.5592 22.2925 31.3201 21.0969 30.8553 19.9821C30.3906 18.8672 29.7095 17.8551 28.8512 17.004C28.7218 16.8708 28.6494 16.6925 28.6494 16.507C28.6494 16.3214 28.7218 16.1432 28.8512 16.01C28.9847 15.8808 29.1633 15.8086 29.3493 15.8086C29.5352 15.8086 29.7138 15.8808 29.8473 16.01C30.8374 16.9936 31.6223 18.1631 32.1569 19.4511C32.6915 20.739 32.9651 22.1199 32.962 23.514C32.9648 24.9059 32.691 26.2846 32.1564 27.5702C31.6217 28.8559 30.8369 30.0229 29.8473 31.004C29.7113 31.1329 29.5299 31.2032 29.3423 31.2Z" fill="#004DA0"/>
<path d="M25.1333 29.0999C24.9482 29.0973 24.7717 29.0218 24.6422 28.8899C24.5128 28.7567 24.4404 28.5784 24.4404 28.3929C24.4404 28.2074 24.5128 28.0291 24.6422 27.8959C25.223 27.3184 25.6837 26.6322 25.9981 25.8767C26.3126 25.1211 26.4744 24.311 26.4744 23.4929C26.4744 22.6748 26.3126 21.8647 25.9981 21.1092C25.6837 20.3536 25.223 19.6674 24.6422 19.0899C24.5128 18.9567 24.4404 18.7784 24.4404 18.5929C24.4404 18.4074 24.5128 18.2291 24.6422 18.0959C24.7757 17.9668 24.9543 17.8945 25.1403 17.8945C25.3262 17.8945 25.5049 17.9668 25.6384 18.0959C27.0666 19.5306 27.8681 21.4707 27.8681 23.4929C27.8681 25.5151 27.0666 27.4552 25.6384 28.8899C25.5045 29.0239 25.3229 29.0994 25.1333 29.0999Z" fill="#004DA0"/>
</g>
<defs>
<clipPath id="clip0_3125_880">
<rect width="29" height="21" fill="white" transform="translate(9.02637 13)"/>
</clipPath>
</defs>
</svg>
