<svg width="401" height="82" viewBox="0 0 401 82" fill="none" xmlns="http://www.w3.org/2000/svg">
<rect x="0.607422" y="11.3545" width="400" height="60" rx="30" fill="#004DA0"/>
<circle cx="340.081" cy="41.3545" r="38.6455" fill="white" stroke="#004DA0" stroke-width="4"/>
<path d="M93.2474 35.3145V40.0345H103.647V35.3145H93.2474ZM105.967 23.3945V52.9145C105.967 58.6345 107.287 60.2745 111.927 60.2745C112.847 60.2745 116.487 60.2745 117.447 60.2745C121.767 60.2745 123.007 57.6745 123.527 50.8345C122.167 50.5145 120.167 49.6345 119.047 48.7545C118.767 54.1945 118.527 55.5945 117.007 55.5945C116.247 55.5945 113.327 55.5945 112.647 55.5945C111.127 55.5945 110.927 55.2745 110.927 52.9945V23.3945H105.967ZM89.9274 60.1945C89.9274 58.4345 94.7274 55.5145 94.7274 55.5145V23.4345H89.7274V52.5545C89.7274 54.4745 88.6074 55.6745 87.7274 56.2745C88.4474 57.1145 89.5674 59.0745 89.9274 60.1945ZM89.9274 60.1945C91.1674 59.4745 93.0474 58.8745 104.287 56.1145C104.087 55.0345 103.887 52.9945 103.887 51.5945L91.7274 54.2745L89.4874 55.9145L89.9274 60.1945ZM110.367 35.3145V40.0345H120.767V35.3145H110.367ZM143.047 25.1545V29.3545H157.287V25.1545H143.047ZM147.087 33.6745L145.767 37.8345H153.887V33.6745H147.087ZM144.607 44.6745C146.207 45.9145 148.167 47.6745 149.047 48.8745L151.167 44.8345C150.247 43.7545 148.247 42.1545 146.647 41.0745L144.607 44.6745ZM157.007 28.0345V51.4745H161.247V28.0345H157.007ZM163.727 24.1545V55.5145C163.727 56.1545 163.487 56.3545 162.847 56.3945C162.127 56.3945 160.087 56.3945 157.887 56.3145C158.527 57.6345 159.167 59.7145 159.367 60.9945C162.527 60.9945 164.767 60.8345 166.247 60.0745C167.687 59.3145 168.167 58.0745 168.167 55.5145V24.1545H163.727ZM146.007 26.6345C145.367 32.7545 143.767 40.6745 140.047 45.1545C140.927 45.9545 142.247 47.5545 142.887 48.5145C147.327 43.3145 149.407 34.5945 150.567 27.2745L146.007 26.6345ZM152.087 33.6745V34.5945C150.967 45.5945 147.407 53.3545 141.647 57.2745C142.567 57.9945 144.007 59.8745 144.647 60.9545C150.807 56.4745 155.007 47.3945 156.447 34.3545L153.687 33.5145L152.927 33.6745H152.087ZM138.967 23.4345C137.247 29.2745 134.287 35.1145 131.047 38.9145C131.807 40.1545 132.967 42.9145 133.367 44.0745C137.447 39.3145 141.127 31.7545 143.407 24.7545L138.967 23.4345ZM135.807 34.4345V60.9145H140.207V30.2345L140.087 30.1545L135.807 34.4345ZM179.727 25.9945V30.6745H213.767V25.9945H179.727ZM197.607 39.4745V44.1945H211.727V39.4745H197.607ZM178.367 54.7545V59.4345H214.927V54.7545H178.367ZM195.247 27.8745V57.0345H200.367V27.8745H195.247ZM183.287 36.8745V57.2745H188.287V36.8745H183.287ZM244.527 42.8345V46.3145H259.527V42.8345H244.527ZM244.527 49.1545V52.6745H259.527V49.1545H244.527ZM244.447 55.4745V59.4345H260.927V55.4745H244.447ZM238.367 27.1145V34.4345H242.407V31.1545H256.327V34.2745H260.647V27.1145H238.367ZM250.527 39.4745V57.3545H254.927V39.4745H250.527ZM246.007 36.1545H245.567L241.527 40.3145V60.9945H246.007V40.1545H260.007V36.1545H246.007ZM248.247 23.2745C246.367 30.8345 242.607 36.9545 236.847 40.5545C237.687 41.5545 239.007 43.7145 239.487 44.7545C246.047 40.3145 250.367 33.0745 252.767 24.1545L248.247 23.2745ZM249.847 33.5945C250.567 35.0745 251.407 37.1545 251.767 38.4745L255.927 36.7145C255.527 35.4745 254.647 33.5145 253.807 32.0745L249.847 33.5945ZM224.327 26.0745V30.4345H237.687V26.0745H224.327ZM228.727 38.0345V42.1545H233.527V52.1145H228.727V56.2345H237.647V38.0345H228.727ZM228.927 27.9145C228.047 34.8745 226.327 41.4745 223.167 45.6345C223.967 46.7145 225.247 49.1145 225.647 50.1945C229.807 45.0745 232.127 36.9945 233.407 28.6345L228.927 27.9145ZM226.967 38.0345V59.0745H230.967V38.0345H226.967Z" fill="white"/>
<line x1="361.196" y1="25.9339" x2="330.923" y2="56.2065" stroke="#004DA0" stroke-width="8"/>
<line x1="335.752" y1="57.2415" x2="318.966" y2="40.4554" stroke="#004DA0" stroke-width="8"/>
</svg>
