<svg width="401" height="82" viewBox="0 0 401 82" fill="none" xmlns="http://www.w3.org/2000/svg">
<rect x="0.607422" y="10.9844" width="400" height="60" rx="30" fill="#E60011"/>
<circle cx="340.081" cy="40.9844" r="38.6455" fill="white" stroke="#E60011" stroke-width="4"/>
<path d="M93.2474 35.9444V40.6644H103.647V35.9444H93.2474ZM105.967 24.0244V53.5444C105.967 59.2644 107.287 60.9044 111.927 60.9044C112.847 60.9044 116.487 60.9044 117.447 60.9044C121.767 60.9044 123.007 58.3044 123.527 51.4644C122.167 51.1444 120.167 50.2644 119.047 49.3844C118.767 54.8244 118.527 56.2244 117.007 56.2244C116.247 56.2244 113.327 56.2244 112.647 56.2244C111.127 56.2244 110.927 55.9044 110.927 53.6244V24.0244H105.967ZM89.9274 60.8244C89.9274 59.0644 94.7274 56.1444 94.7274 56.1444V24.0644H89.7274V53.1844C89.7274 55.1044 88.6074 56.3044 87.7274 56.9044C88.4474 57.7444 89.5674 59.7044 89.9274 60.8244ZM89.9274 60.8244C91.1674 60.1044 93.0474 59.5044 104.287 56.7444C104.087 55.6644 103.887 53.6244 103.887 52.2244L91.7274 54.9044L89.4874 56.5444L89.9274 60.8244ZM110.367 35.9444V40.6644H120.767V35.9444H110.367ZM143.047 25.7844V29.9844H157.287V25.7844H143.047ZM147.087 34.3044L145.767 38.4644H153.887V34.3044H147.087ZM144.607 45.3044C146.207 46.5444 148.167 48.3044 149.047 49.5044L151.167 45.4644C150.247 44.3844 148.247 42.7844 146.647 41.7044L144.607 45.3044ZM157.007 28.6644V52.1044H161.247V28.6644H157.007ZM163.727 24.7844V56.1444C163.727 56.7844 163.487 56.9844 162.847 57.0244C162.127 57.0244 160.087 57.0244 157.887 56.9444C158.527 58.2644 159.167 60.3444 159.367 61.6244C162.527 61.6244 164.767 61.4644 166.247 60.7044C167.687 59.9444 168.167 58.7044 168.167 56.1444V24.7844H163.727ZM146.007 27.2644C145.367 33.3844 143.767 41.3044 140.047 45.7844C140.927 46.5844 142.247 48.1844 142.887 49.1444C147.327 43.9444 149.407 35.2244 150.567 27.9044L146.007 27.2644ZM152.087 34.3044V35.2244C150.967 46.2244 147.407 53.9844 141.647 57.9044C142.567 58.6244 144.007 60.5044 144.647 61.5844C150.807 57.1044 155.007 48.0244 156.447 34.9844L153.687 34.1444L152.927 34.3044H152.087ZM138.967 24.0644C137.247 29.9044 134.287 35.7444 131.047 39.5444C131.807 40.7844 132.967 43.5444 133.367 44.7044C137.447 39.9444 141.127 32.3844 143.407 25.3844L138.967 24.0644ZM135.807 35.0644V61.5444H140.207V30.8644L140.087 30.7844L135.807 35.0644ZM194.487 28.6644V32.8244H214.207V28.6644H194.487ZM193.687 36.6244V40.9044H215.167V36.6244H193.687ZM198.047 24.0244V38.8644H202.207V24.0244H198.047ZM206.447 24.0244V38.8644H210.727V24.0244H206.447ZM196.207 43.1844V61.5444H200.407V47.1044H208.727V61.5044H213.127V43.1844H196.207ZM198.647 49.7844V53.5444H210.407V49.7844H198.647ZM198.647 56.2644V60.0644H210.007V56.2644H198.647ZM181.087 34.1044V38.1044H191.527V34.1044H181.087ZM178.807 41.0644V45.1044H192.847V41.0644H178.807ZM179.087 47.3844C179.687 49.5844 180.247 52.4644 180.367 54.3844L183.487 53.4244C183.287 51.5844 182.687 48.7444 182.007 46.5844L179.087 47.3844ZM178.247 56.1444L179.167 60.4244C183.087 59.5844 188.287 58.4644 193.127 57.3844L192.887 53.5844C187.487 54.5844 181.887 55.5844 178.247 56.1444ZM189.767 46.1844C189.527 48.2244 188.887 51.1044 188.367 52.9844L191.087 53.8244C191.687 52.1044 192.407 49.4644 193.167 47.1044L189.767 46.1844ZM184.127 35.7444V57.8644L188.007 57.1444V35.7444H184.127ZM185.447 23.7444C183.607 27.4244 180.487 30.9444 177.487 33.1044C178.047 34.3044 178.927 36.9844 179.167 38.0244C182.847 35.0644 186.647 30.1444 188.967 25.3844L185.447 23.7444ZM184.447 29.3044C187.367 30.9444 190.687 33.3844 192.527 35.2644L194.487 31.3044C192.647 29.6244 189.327 27.3444 186.247 25.7844L184.447 29.3044ZM228.127 25.6244C228.967 27.3844 229.967 29.7844 230.367 31.3044L234.607 29.6644C234.087 28.1844 233.087 25.9444 232.167 24.2244L228.127 25.6244ZM238.287 47.2244V51.5844H261.367V47.2244H238.287ZM249.127 29.1044H253.727V33.5044H249.127V29.1044ZM244.927 25.2244V37.3844H258.167V25.2244H244.927ZM239.767 27.4244V43.1044H243.807V27.4244H239.767ZM242.007 39.0644V43.1044H254.807V48.8244H259.367V39.0644H242.007ZM246.727 42.0644V46.7444C246.727 50.5844 245.727 55.2644 237.047 58.2244C238.007 59.0244 239.327 60.7044 239.927 61.7044C249.807 58.1044 251.127 52.0244 251.127 46.8644V42.0644H246.727ZM225.487 36.3044V39.9044H237.287V36.3044H225.487ZM225.487 41.7444V45.3844H237.287V41.7444H225.487ZM223.767 30.6644V34.4644H238.407V30.6644H223.767ZM227.567 47.3044V51.1044H233.327V55.6644H227.567V59.4644H237.327V47.3044H227.567ZM225.407 47.3044V61.0644H229.327V47.3044H225.407ZM249.567 55.6244C252.567 57.4244 256.847 60.0644 258.927 61.6644L261.727 58.2244C259.527 56.7044 255.127 54.1844 252.247 52.5844L249.567 55.6244Z" fill="white"/>
<line x1="357.621" y1="21.6058" x2="320.852" y2="58.3753" stroke="#E60011" stroke-width="8"/>
<line x1="359.31" y1="58.3753" x2="322.541" y2="21.6058" stroke="#E60011" stroke-width="8"/>
</svg>
