<?xml version="1.0" encoding="utf-8"?>
<!-- Generator: Adobe Illustrator 26.3.1, SVG Export Plug-In . SVG Version: 6.00 Build 0)  -->
<svg version="1.1" id="圖層_1" xmlns="http://www.w3.org/2000/svg" xmlns:xlink="http://www.w3.org/1999/xlink" x="0px" y="0px"
	 viewBox="0 0 91.2 32.3" style="enable-background:new 0 0 91.2 32.3;" xml:space="preserve">
<style type="text/css">
	.st0{fill:#FFFFFF;}
	.st1{fill:#004DA0;}
	.st2{fill:#004DA0;stroke:#FFFFFF;stroke-width:2;}
</style>
<path class="st0" d="M52.4,3.4l2.3-2c-0.8-0.9-2.1-1.3-3.3-0.9L52.4,3.4z M38.2,6.4l-0.4-3c-1,0.1-1.8,0.7-2.3,1.5
	c-0.5,0.8-0.5,1.9-0.1,2.7L38.2,6.4z M39.2,9.3l-3,0.5c0.3,1.6,1.7,2.6,3.3,2.5L39.2,9.3z M54.8,6.2l1,2.8c1-0.3,1.7-1.1,1.9-2.1
	c0.3-1,0-2-0.6-2.8L54.8,6.2z M37.4,14.7v-3c-1.7,0-3,1.3-3,3H37.4z M37.4,18h-3c0,1.7,1.3,3,3,3V18z M55.5,18v3c1.7,0,3-1.3,3-3
	H55.5z M55.5,14.7h3c0-1.7-1.3-3-3-3V14.7z M38.6,25.1v-3c-1.7,0-3,1.3-3,3H38.6z M38.6,28.4h-3c0,1.7,1.3,3,3,3V28.4z M55.2,28.4v3
	c1.7,0,3-1.3,3-3H55.2z M55.2,25.1h3c0-1.7-1.3-3-3-3V25.1z M45.1,7.5v-3c-1.7,0-3,1.3-3,3H45.1z M45.1,26.2h-3c0,1.7,1.3,3,3,3
	V26.2z M48.5,26.2v3c1.7,0,3-1.3,3-3H48.5z M48.5,7.5h3c0-1.7-1.3-3-3-3V7.5z M33.2,11.2L31,9c-0.6,0.6-0.9,1.3-0.9,2.1H33.2z
	 M33.2,29.3h-3c0,1.7,1.3,3,3,3V29.3z M36.5,29.3v3c1.7,0,3-1.3,3-3H36.5z M36.5,8h3c0-0.5-0.1-0.9-0.3-1.3L36.5,8z M36.5,7.9
	l2.7-1.3c-0.4-0.9-1.2-1.5-2.2-1.6C36,4.8,35,5.1,34.4,5.8L36.5,7.9z M36,3.1l0.9-2.9c-1.5-0.5-3.1,0.3-3.7,1.8L36,3.1z M28.9,13.9
	l-2-2.2c-1.1,1-1.3,2.7-0.4,3.9L28.9,13.9z M30.9,17.5l-2.8,1.1c0.4,0.9,1.2,1.6,2.2,1.8c1,0.2,2-0.1,2.7-0.8L30.9,17.5z M39.3,4.2
	l2.8,1.1c0.3-0.8,0.3-1.6-0.1-2.4c-0.4-0.7-1-1.3-1.8-1.6L39.3,4.2z M51.4,0.6c-3.2,1.2-8.5,2.2-13.5,2.8l0.7,6
	c5.1-0.6,11-1.8,14.8-3.1L51.4,0.6z M35.5,7.7c0.3,0.7,0.7,1.7,0.7,2.1l5.9-1C42,7.6,41.4,6,41,5.1L35.5,7.7z M39.5,12.3
	c5.3-0.6,11.5-1.6,16.3-3.2l-1.9-5.7c-4.1,1.4-9.9,2.3-15,2.9L39.5,12.3z M57.1,4.3l-2.5-2.8l-4.5,3.9l2.5,2.8L57.1,4.3z M34.4,14.7
	V18h6v-3.2H34.4z M37.4,21h18.1v-6H37.4V21z M58.5,18v-3.2h-6V18H58.5z M55.5,11.7H37.4v6h18.1V11.7z M35.6,25.1v3.2h6v-3.2H35.6z
	 M38.6,31.4h16.6v-6H38.6V31.4z M58.2,28.4v-3.2h-6v3.2H58.2z M55.2,22.1H38.6v6h16.6V22.1z M42.1,7.5v18.6h6V7.5H42.1z M45.1,29.2
	h3.4v-6h-3.4V29.2z M51.5,26.2V7.5h-6v18.6H51.5z M48.5,4.5h-3.4v6h3.4V4.5z M30.2,11.2v18.1h6V11.2H30.2z M33.2,32.3h3.3v-6h-3.3
	V32.3z M39.5,29.3V8h-6v21.3H39.5z M39.2,6.6L39.2,6.6l-5.4,2.6l0,0.1L39.2,6.6z M34.4,5.8L31,9l4.2,4.3l3.3-3.3L34.4,5.8z M33.2,2
	c-1.5,3.8-3.9,7.5-6.3,9.7l4.1,4.4c3.2-2.9,6.1-7.5,7.8-12L33.2,2z M26.5,15.7c0.5,0.7,1.4,2.3,1.6,2.9l5.6-2.2
	c-0.4-1.1-1.6-3.1-2.3-4.2L26.5,15.7z M33,19.6c3.6-3.6,7-9.2,9.1-14.4l-5.6-2.2c-1.8,4.6-4.8,9.4-7.7,12.3L33,19.6z M40.2,1.3
	l-3.3-1.1L35,6L38.3,7L40.2,1.3z M62.2,4.3v-3c-1.7,0-3,1.3-3,3H62.2z M62.2,7.1h-3c0,1.7,1.3,3,3,3V7.1z M71.4,7.1v3
	c1.7,0,3-1.3,3-3H71.4z M71.4,4.3h3c0-1.7-1.3-3-3-3V4.3z M73.4,18.7v-3c-1.7,0-3,1.3-3,3H73.4z M73.4,21.5h-3c0,1.7,1.3,3,3,3V21.5
	z M84.8,21.5v3c1.7,0,3-1.3,3-3H84.8z M84.8,18.7h3c0-1.7-1.3-3-3-3V18.7z M61.8,12.9v-3c-1.7,0-3,1.3-3,3H61.8z M61.8,15.8h-3
	c0,1.7,1.3,3,3,3V15.8z M72.2,15.8v3c1.7,0,3-1.3,3-3H72.2z M72.2,12.9h3c0-1.7-1.3-3-3-3V12.9z M66.4,14.1v-3c-1.7,0-3,1.3-3,3
	H66.4z M65.9,26.1v3c0.1,0,0.2,0,0.2,0L65.9,26.1z M63.4,26l0.2-3c-1.1-0.1-2.1,0.4-2.6,1.3c-0.6,0.9-0.7,2-0.2,3L63.4,26z
	 M64.4,29.2l-3,0.3c0.1,1.5,1.4,2.7,3,2.7V29.2z M68.3,28.6l1.4,2.7c0,0,0,0,0,0L68.3,28.6z M69.6,14.1h3c0-1.7-1.3-3-3-3V14.1z
	 M83.7,18.7v-3c-1.7,0-3,1.3-3,3H83.7z M83.7,19.2l3,0.2c0-0.1,0-0.2,0-0.2H83.7z M82.4,25.7l-2.1-2.2c-0.1,0.1-0.1,0.1-0.2,0.2
	L82.4,25.7z M79.1,25.9l0.2-3c-1.1-0.1-2.2,0.4-2.8,1.4c-0.6,1-0.6,2.2,0,3.1L79.1,25.9z M80,29l-3,0.2c0.1,1.5,1.3,2.7,2.9,2.8
	L80,29z M83.2,28.9l0.4,3c0,0,0,0,0.1,0L83.2,28.9z M85.2,27.9l-2.2-2c0,0,0,0,0,0L85.2,27.9z M87,20l-3-0.4c0,0,0,0.1,0,0.1L87,20z
	 M87.1,18.7l3,0.1c0-0.8-0.3-1.6-0.8-2.2c-0.6-0.6-1.3-0.9-2.2-0.9V18.7z M77.8,16.2v-3c-1.6,0-2.9,1.2-3,2.7L77.8,16.2z M70.9,26.7
	l-1-2.8c-1,0.4-1.7,1.2-1.9,2.3c-0.2,1,0.2,2.1,1,2.8L70.9,26.7z M72.8,29.3l-2.7,1.2c0.7,1.5,2.4,2.2,3.8,1.6L72.8,29.3z
	 M81.1,16.2l3,0.2c0.1-0.8-0.2-1.7-0.8-2.3c-0.6-0.6-1.4-1-2.2-1V16.2z M62.8,10.1L60.7,8c-0.7,0.7-1,1.7-0.8,2.7
	c0.2,1,0.9,1.8,1.8,2.2L62.8,10.1z M69.6,13.8l-1.9,2.4c1.2,1,3,0.8,4-0.3L69.6,13.8z M71.9,11.4l2.2,2.1c0.6-0.6,0.9-1.5,0.8-2.4
	c-0.1-0.9-0.5-1.7-1.3-2.2L71.9,11.4z M64.9,8l1-2.8c-1.1-0.4-2.3-0.1-3.2,0.7L64.9,8z M71.4,12.9v-3c-1.7,0-3,1.3-3,3H71.4z
	 M71.4,13.3l3,0.4c0-0.1,0-0.2,0-0.4H71.4z M70.1,19.7l-2.9-0.9c-0.4,1.4,0.2,3,1.6,3.6L70.1,19.7z M72.4,20.7l-1.3,2.7
	c0.7,0.4,1.6,0.4,2.4,0.1c0.8-0.3,1.4-0.9,1.7-1.7L72.4,20.7z M74.3,13.4l3,0.5c0.3-1.5-0.6-2.9-2-3.4L74.3,13.4z M72.3,12.7
	l0.9-2.8c-0.6-0.2-1.2-0.2-1.8,0L72.3,12.7z M71.9,12.9v3c0.3,0,0.6,0,0.9-0.1L71.9,12.9z M82.6,7.2l0.5-3c-1.5-0.2-2.9,0.6-3.3,2
	L82.6,7.2z M72.5,14.4l-0.6-2.9c-1.1,0.2-2,1-2.3,2.1c-0.3,1.1,0,2.2,0.8,3L72.5,14.4z M74.6,17.2l-2.7,1.4c0.7,1.3,2.1,1.9,3.5,1.5
	L74.6,17.2z M86.1,7.8l2.8,1c0.3-0.8,0.2-1.8-0.2-2.6c-0.5-0.8-1.2-1.3-2.1-1.4L86.1,7.8z M77,3l0.8-2.9c-1.4-0.4-3,0.3-3.6,1.7
	L77,3z M71.7,9.7l-1.8-2.4c-0.8,0.6-1.3,1.6-1.2,2.6c0.1,1,0.7,1.9,1.6,2.4L71.7,9.7z M74.4,11.6l-1.9,2.3c1.1,0.9,2.8,0.9,3.9,0
	L74.4,11.6z M80.2,3.9l2.7,1.3c0.4-0.8,0.4-1.7,0-2.5C82.5,1.8,81.8,1.2,81,1L80.2,3.9z M77.4,8L80,6.4c-0.7-1.2-2.2-1.7-3.5-1.3
	L77.4,8z M74.6,8.9L73.7,6c-0.9,0.3-1.5,0.9-1.9,1.8c-0.3,0.8-0.3,1.8,0.2,2.6L74.6,8.9z M86.1,17.3l-0.7,2.9
	c1.4,0.3,2.8-0.3,3.4-1.5L86.1,17.3z M88.2,14.4l2,2.2c0.8-0.8,1.2-1.9,0.8-3c-0.3-1.1-1.2-1.9-2.3-2.1L88.2,14.4z M66.1,13.9
	l1.1-2.8c-0.8-0.3-1.6-0.3-2.4,0.1c-0.7,0.4-1.3,1-1.6,1.8L66.1,13.9z M61.3,21.6l-1.9-2.3c-1.1,0.9-1.4,2.6-0.6,3.8L61.3,21.6z
	 M62.9,24.8L60,25.7c0.3,1,1.1,1.7,2.1,2c1,0.3,2,0,2.8-0.7L62.9,24.8z M68.2,14.7l2.9,0.8c0.4-1.5-0.4-3.1-1.8-3.6L68.2,14.7z
	 M77,5.9v-3c-1.1,0-2.2,0.7-2.7,1.7L77,5.9z M75.6,8.6l-2.7-1.3c-0.5,0.9-0.4,2,0.2,2.9c0.5,0.9,1.5,1.4,2.5,1.4V8.6z M87.4,8.6v3
	c1.7,0,3-1.3,3-3H87.4z M87.4,5.9h3c0-1.7-1.3-3-3-3V5.9z M70.6,4.3v-3c-1.7,0-3,1.3-3,3H70.6z M70.6,4.9l2.7,1.4
	c0.2-0.4,0.3-0.9,0.3-1.4H70.6z M66.3,9.6l-1.7-2.4c-0.8,0.6-1.3,1.5-1.3,2.6c0,1,0.6,1.9,1.4,2.5L66.3,9.6z M68.5,11.2l-2,2.3
	c1,0.9,2.5,1,3.7,0.2L68.5,11.2z M74,5.5l2.6,1.6c0.9-1.4,0.4-3.2-1-4.1L74,5.5z M71.8,4.2l1.6-2.5c-0.7-0.4-1.5-0.6-2.2-0.4
	L71.8,4.2z M71.3,4.3v3c0.2,0,0.4,0,0.7-0.1L71.3,4.3z M59.2,4.3v2.8h6V4.3H59.2z M62.2,10.1h9.2v-6h-9.2V10.1z M74.4,7.1V4.3h-6
	v2.8H74.4z M71.4,1.3h-9.2v6h9.2V1.3z M70.4,18.7v2.8h6v-2.8H70.4z M73.4,24.5h11.4v-6H73.4V24.5z M87.8,21.5v-2.8h-6v2.8H87.8z
	 M84.8,15.7H73.4v6h11.4V15.7z M58.8,12.9v2.9h6v-2.9H58.8z M61.8,18.8h10.4v-6H61.8V18.8z M75.2,15.8v-2.9h-6v2.9H75.2z M72.2,9.9
	H61.8v6h10.4V9.9z M63.4,14.1v11.6h6V14.1H63.4z M63.4,25.7c0-0.1,0-1.1,0.9-1.9c0.4-0.4,0.8-0.5,1-0.6c0.2-0.1,0.4-0.1,0.4-0.1
	l0.5,6c0.2,0,1.2-0.1,2.1-0.9c1-0.9,1.1-2.2,1.1-2.5H63.4z M65.9,23.1c-0.3,0-1.4,0-2.4-0.1l-0.3,6c1.1,0.1,2.3,0.1,2.7,0.1V23.1z
	 M60.7,27.3c0.3,0.7,0.6,1.8,0.7,2.2l6-0.6c-0.1-1.4-0.7-3.1-1.2-4.2L60.7,27.3z M64.4,32.2c1.6,0,3.7,0,5.4-0.9L66.9,26
	c-0.2,0.1-0.6,0.2-2.6,0.2V32.2z M69.8,31.3c1.1-0.6,1.9-1.5,2.4-2.7c0.4-1,0.5-2.1,0.5-2.9h-6c0,0.3,0,0.5,0,0.6c0,0.1,0,0.2,0,0.1
	c0-0.1,0.1-0.2,0.2-0.3c0.1-0.1,0.2-0.2,0.2-0.2L69.8,31.3z M72.6,25.7V14.1h-6v11.6H72.6z M69.6,11.1h-3.2v6h3.2V11.1z M80.7,18.7
	v0.4h6v-0.4H80.7z M80.7,18.9c-0.2,2.1-0.3,3.5-0.5,4.3C80.1,23.7,80,23.9,80,24c0,0.1,0-0.2,0.4-0.5l4.1,4.4
	c0.6-0.6,0.9-1.2,1.1-1.7c0.2-0.5,0.3-1.1,0.5-1.7c0.2-1.2,0.4-2.9,0.6-5.1L80.7,18.9z M80.2,23.7c0.1-0.1,0.2-0.2,0.4-0.4
	c0.2-0.1,0.4-0.2,0.6-0.3c0.2,0,0.3-0.1,0.3-0.1c0,0,0,0,0,0v6c0.2,0,0.8,0,1.3-0.2c0.7-0.2,1.3-0.6,1.8-1.1L80.2,23.7z M81.5,23
	c-0.4,0-1.2,0-2.1-0.1l-0.5,6C80,29,81,29,81.5,29V23z M76.6,27.4c0.2,0.3,0.4,1.2,0.5,1.7l6-0.4c-0.1-1.3-0.5-3.1-1.3-4.4
	L76.6,27.4z M79.9,32c1.4,0.1,2.7,0,3.7-0.1l-0.7-6c-0.5,0.1-1.5,0.1-2.7,0L79.9,32z M83.6,31.9c1.3-0.2,2.6-0.6,3.8-2L83,25.9
	c0,0-0.1,0.1,0,0c0,0,0,0,0.1,0c0,0,0,0-0.2,0L83.6,31.9z M87.4,29.9c1-1.1,1.4-2.5,1.7-3.9c0.3-1.4,0.6-3.4,0.8-5.8l-6-0.6
	c-0.2,2.4-0.5,4-0.7,5.1c-0.3,1.2-0.5,1.3-0.3,1.1L87.4,29.9z M90,20.4c0-0.3,0.1-0.8,0.1-1c0-0.1,0-0.3,0-0.4c0,0,0-0.1,0-0.1
	c0,0,0,0,0,0c0,0,0,0,0,0c0,0,0,0,0,0c0,0,0,0,0,0c0,0,0,0,0,0v0c0,0,0,0-3-0.1c-3-0.1-3-0.1-3-0.1v0c0,0,0,0,0,0c0,0,0,0,0,0
	s0,0,0,0c0,0,0,0,0,0c0,0,0,0,0,0c0,0,0,0.1,0,0.1c0,0.1,0,0.2,0,0.3c0,0.3,0,0.5,0,0.6L90,20.4z M87.1,15.7h-3.4v6h3.4V15.7z
	 M74.8,16c-0.2,2.3-0.4,3.8-1.1,5c-0.5,1-1.5,2.1-3.8,2.9l2.1,5.6c3.5-1.3,5.7-3.2,7.1-5.8c1.3-2.4,1.5-5.1,1.7-7.3L74.8,16z
	 M68.9,29c0.4,0.3,1,1.2,1.2,1.6l5.5-2.5c-0.5-1.2-1.7-2.7-2.7-3.6L68.9,29z M73.9,32.1c3.9-1.5,6.4-3.8,8-6.8
	c1.5-2.8,1.9-6,2.1-8.9l-6-0.5c-0.2,2.8-0.6,4.9-1.5,6.6c-0.8,1.5-2.2,2.9-4.9,4L73.9,32.1z M81.1,13.2h-3.3v6h3.3V13.2z M61.7,12.9
	c2.2,0.9,4.9,2.3,6,3.2l3.7-4.7c-1.7-1.4-5.1-3.1-7.5-4.1L61.7,12.9z M71.8,15.8l2.3-2.4l-4.4-4.1l-2.3,2.4L71.8,15.8z M73.6,8.9
	C71.7,7.6,68.4,6,66,5.2l-2,5.6c2.1,0.8,4.9,2.1,6.2,3L73.6,8.9z M62.8,5.9L60.7,8l4.3,4.2l2.1-2.2L62.8,5.9z M68.4,12.9v0.5h6v-0.5
	H68.4z M68.4,13c-0.2,2-0.7,4.4-1.1,5.8l5.7,1.8c0.6-1.9,1.1-4.6,1.4-6.9L68.4,13z M68.9,22.4l2.2,1.1l2.6-5.4L71.4,17L68.9,22.4z
	 M75.2,21.8c0.9-2.2,1.6-5.3,2.1-7.9l-5.9-1c-0.4,2.4-1.1,5.1-1.8,6.7L75.2,21.8z M75.3,10.5l-2-0.7l-1.9,5.7l2,0.7L75.3,10.5z
	 M71.4,9.9L71,10l1.8,5.7l0.4-0.1L71.4,9.9z M71.9,9.9h-0.4v6h0.4V9.9z M79.8,6.3c-0.8,2.4-3.1,4.2-7.9,5.2l1.2,5.9
	c5.5-1.1,10.6-3.6,12.4-9.2L79.8,6.3z M70.4,16.5c0.5,0.5,1.3,1.6,1.6,2.1l5.3-2.8c-0.6-1.1-1.8-2.7-2.6-3.5L70.4,16.5z M75.4,20.1
	c6-1.7,11.2-4.9,13.6-11.3l-5.6-2.1c-1.4,4-4.6,6.2-9.6,7.6L75.4,20.1z M86.6,4.8l-3.5-0.5l-0.9,5.9l3.5,0.5L86.6,4.8z M74.3,1.8
	c-0.9,2.1-2.6,4.2-4.4,5.5l3.5,4.8c2.6-1.9,5-4.9,6.4-8L74.3,1.8z M70.2,12.4c0.6,0.3,1.7,1.1,2.2,1.5l3.8-4.6
	c-0.8-0.6-2.2-1.7-3.2-2.2L70.2,12.4z M76.4,13.9c2.4-2.1,4.9-5.4,6.5-8.8l-5.4-2.5c-1.2,2.6-3.2,5.2-5,6.7L76.4,13.9z M81,1
	l-3.1-0.9l-1.6,5.8l3.1,0.9L81,1z M76.5,5.1L73.7,6l1.8,5.7l2.8-0.9L76.5,5.1z M72,10.3c2.8,4.9,7.4,8.3,13.3,9.8l1.5-5.8
	c-4.5-1.1-7.6-3.6-9.5-7L72,10.3z M88.7,18.6c0.3-0.6,1.1-1.6,1.5-2l-4.1-4.4c-1,0.9-2.2,2.6-2.8,3.7L88.7,18.6z M88.7,11.4
	c-4.4-0.8-7.4-2.8-8.7-5l-5.1,3.1c2.5,4.2,7.3,6.8,12.8,7.8L88.7,11.4z M63.2,13c-0.8,2.4-2.3,5-3.8,6.3l3.9,4.6
	c2.6-2.2,4.7-5.9,5.7-9.1L63.2,13z M58.8,23.1c0.5,0.8,1.1,2,1.3,2.6l5.7-1.8c-0.4-1.3-1.3-2.9-1.8-3.9L58.8,23.1z M64.9,27
	c1.6-1.4,2.8-3.4,3.8-5.3c1-2,1.8-4.2,2.4-6.2l-5.8-1.6c-0.5,1.7-1.2,3.5-2,5.1c-0.8,1.6-1.7,2.9-2.5,3.6L64.9,27z M69.3,11.9
	l-2.2-0.8L65,16.7l2.2,0.8L69.3,11.9z M74.3,4.5l-1.3,2.8l5.4,2.6l1.3-2.8L74.3,4.5z M75.6,11.6h11.8v-6H75.6V11.6z M90.4,8.6V5.9
	h-6v2.8H90.4z M87.4,2.9H77v6h10.5V2.9z M67.6,4.3v0.6h6V4.3H67.6z M67.9,3.5c-0.5,1-2,2.7-3.4,3.7l3.5,4.9c2.1-1.5,4.2-3.9,5.2-5.8
	L67.9,3.5z M64.7,12.2c0.5,0.3,1.3,0.9,1.8,1.3l3.9-4.6c-0.7-0.6-1.8-1.4-2.6-1.9L64.7,12.2z M70.2,13.7c2.3-1.6,4.8-4.1,6.3-6.6
	l-5.1-3.1c-1,1.6-2.9,3.6-4.6,4.8L70.2,13.7z M75.5,3l-2.2-1.3l-3.2,5.1l2.2,1.3L75.5,3z M71.2,1.2l-0.5,0.1l1.3,5.9l0.5-0.1
	L71.2,1.2z M71.3,1.3h-0.7v6h0.7V1.3z"/>
<path class="st1" d="M52.4,3.4c-3.5,1.3-9.1,2.4-14.1,3c0.4,0.8,0.8,2.1,1,2.9c5.2-0.6,11.2-1.5,15.6-3L52.4,3.4z M37.4,14.7V18
	h18.1v-3.2H37.4z M38.6,25.1v3.2h16.6v-3.2H38.6z M45.1,7.5v18.6h3.4V7.5H45.1z M33.2,11.2v18.1h3.3V8l0-0.1L33.2,11.2z M36,3.1
	c-1.6,4.1-4.3,8.3-7.1,10.8c0.6,0.9,1.6,2.7,2,3.6c3.3-3.2,6.5-8.4,8.4-13.3L36,3.1z M62.2,4.3v2.8h9.2V4.3H62.2z M73.4,18.7v2.8
	h11.4v-2.8H73.4z M61.8,12.9v2.9h10.4v-2.9H61.8z M66.4,14.1v11.6c0,0.3-0.1,0.4-0.4,0.4c-0.3,0-1.5,0-2.5-0.1
	c0.4,0.9,0.9,2.3,1,3.2c1.8,0,3-0.1,4-0.6c1-0.5,1.2-1.4,1.2-2.9V14.1H66.4z M83.7,18.7v0.4c-0.3,4.3-0.8,6-1.3,6.5
	C82.2,26,81.9,26,81.5,26c-0.4,0-1.4,0-2.4-0.1C79.6,26.7,80,28,80,29c1.3,0.1,2.5,0,3.2-0.1c0.8-0.1,1.4-0.3,2-1
	c0.8-0.9,1.3-3.1,1.8-7.9c0.1-0.4,0.1-1.3,0.1-1.3H83.7z M77.8,16.2c-0.4,4.6-1.1,8.4-6.9,10.5c0.7,0.6,1.6,1.8,1.9,2.6
	c6.6-2.6,7.8-7.4,8.3-13.1H77.8z M62.8,10.1c2.3,0.9,5.3,2.5,6.8,3.6l2.3-2.4c-1.6-1.1-4.7-2.6-6.9-3.4L62.8,10.1z M71.4,12.9v0.5
	c-0.3,2.1-0.8,4.7-1.3,6.3l2.2,1.1c0.8-1.9,1.5-4.8,1.9-7.3l-2-0.7l-0.4,0.1H71.4z M82.6,7.2c-1.3,4-5,6.2-10.2,7.2
	c0.7,0.7,1.7,2,2.1,2.8c5.5-1.6,9.7-4.3,11.6-9.5L82.6,7.2z M77,3c-1.1,2.6-3.2,5.2-5.4,6.7c0.8,0.4,2.1,1.3,2.7,1.9
	c2.1-1.8,4.4-4.7,5.8-7.8L77,3z M77.4,8l-2.8,0.9c2.4,4.2,6.2,7.1,11.4,8.4c0.4-0.9,1.4-2.2,2.1-2.9C83.3,13.5,79.4,11.1,77.4,8z
	 M66.1,13.9c-0.9,2.8-2.7,6-4.7,7.7c0.5,0.9,1.3,2.3,1.6,3.2c2.4-2.2,4.3-6.4,5.3-10.1L66.1,13.9z M77,5.9l-1.3,2.8h11.8V5.9H77z
	 M70.6,4.3v0.6c-0.8,1.4-2.5,3.5-4.3,4.7c0.6,0.4,1.6,1.1,2.2,1.6c2-1.4,4.2-3.6,5.5-5.7l-2.2-1.3l-0.5,0.1H70.6z"/>
<path class="st2" d="M14.5,12.4v-0.6h0.6v0.6H14.5z M17.1,14.4h0.6v0.6h-0.6V14.4z M15.1,16.9v0.6h-0.6v-0.6H15.1z M11.2,14.4v0.6
	h-0.6v-0.6H11.2z M6.1,14.4v0.6H5.6v-0.6H6.1z M5.6,9.8V9.2h0.6v0.6H5.6z M10.7,9.2h0.6v0.6h-0.6V9.2z M22.2,8.2v-1h-1h-6.3
	l-0.4-1.8l-0.2-0.8h-0.8H2H1v1v21.8v1h1h2.6h1v-1v-8h5.3l0.4,1.8l0.2,0.8h0.8h9h1v-1V8.2z M8.1,11.8h0.6v0.6H8.1V11.8z"/>
</svg>
