<?xml version="1.0" encoding="utf-8"?>
<!-- Generator: Adobe Illustrator 23.0.1, SVG Export Plug-In . SVG Version: 6.00 Build 0)  -->
<svg version="1.1" id="FrontRight" xmlns="http://www.w3.org/2000/svg" xmlns:xlink="http://www.w3.org/1999/xlink" x="0px" y="0px"
	 viewBox="0 0 281.9 79.2" style="enable-background:new 0 0 281.9 79.2;" xml:space="preserve">
<style type="text/css">
	.st0{fill:#008DC5;}
	.st1{fill:url(#SVGID_1_);}
	.st2{fill:url(#SVGID_2_);}
</style>
<g>
	<g>
		<path class="st0" d="M281.7,79.1c-0.8-10.2-4.8-20.1-11.4-27.9c-8.7-10.2-21.7-16.7-35.1-17.3c-13.7-0.7-28.9,4.1-40.3-3.4
			c-6.2-4.1-9.9-11-14.9-16.5c-13.8-15.3-39.1-18.6-56.4-7.3c-12.8,8.4-20.7,23.1-34.2,30.2c-9.2,4.8-20.4,5.5-30.1,1.8
			C52.2,36,46,31.1,38.6,29.3C25.3,26,10.9,34.1,4.5,46.2c-5.2,10-5.5,22-2.3,32.9H281.7z"/>
	</g>
	<g>
		
			<linearGradient id="SVGID_1_" gradientUnits="userSpaceOnUse" x1="276.2603" y1="0.7757" x2="169.2879" y2="77.6621" gradientTransform="matrix(1 0 0 -1 0 82)">
			<stop  offset="4.248977e-02" style="stop-color:#00A7EB"/>
			<stop  offset="1" style="stop-color:#00A7EB;stop-opacity:0"/>
		</linearGradient>
		<path class="st1" d="M270.3,51.2c-8.7-10.2-21.7-16.7-35.1-17.3c-13.7-0.7-28.9,4.1-40.3-3.4c-6.2-4.1-9.9-11-14.9-16.5
			c-8.4-9.3-21-14.2-33.5-14c3.9,1.3,7.6,3.3,10.8,6.1c9.1,7.9,12.9,20.2,20.4,29.6c7.9,9.9,19.9,16.4,32.5,17.5
			c7.1,0.6,14.4-0.3,21.5,0.8c11.3,1.8,21.2,9.1,28.2,18.3c1.6,2.1,3.1,4.4,4.3,6.9h17.7C280.9,68.9,276.9,59,270.3,51.2z"/>
	</g>
	<g>
		
			<linearGradient id="SVGID_2_" gradientUnits="userSpaceOnUse" x1="-2.8059" y1="20.0892" x2="85.5021" y2="46.8323" gradientTransform="matrix(1 0 0 -1 0 82)">
			<stop  offset="0.275" style="stop-color:#006DB8"/>
			<stop  offset="0.4654" style="stop-color:#007ABD"/>
			<stop  offset="0.7376" style="stop-color:#0087C2"/>
			<stop  offset="1" style="stop-color:#008BC4"/>
		</linearGradient>
		<path class="st2" d="M19,68c1.1-10,7.5-19.6,16.9-23.2c13-5,27.9,1.8,41.3-1.7c4.1-1,7.9-3,11.1-5.7c-9,4.3-19.8,4.8-29.1,1.3
			c-7.1-2.7-13.3-7.6-20.7-9.4C25.2,26,10.8,34.1,4.4,46.2c-5.2,10-5.5,22-2.3,32.9h17.4C18.9,75.5,18.6,71.7,19,68z"/>
	</g>
</g>
</svg>
