<?xml version="1.0" encoding="utf-8"?>
<!-- Generator: Adobe Illustrator 23.0.1, SVG Export Plug-In . SVG Version: 6.00 Build 0)  -->
<svg version="1.1" id="MiddenRight_1_" xmlns="http://www.w3.org/2000/svg" xmlns:xlink="http://www.w3.org/1999/xlink" x="0px"
	 y="0px" viewBox="0 0 326.1 451.7" style="enable-background:new 0 0 326.1 451.7;" xml:space="preserve">
<style type="text/css">
	.st0{fill:#009D9B;}
	.st1{fill:#004F74;}
	.st2{fill:#003C60;}
	.st3{fill:#00C6B2;}
	.st4{fill:#00B6AF;}
	.st5{fill:#008A9A;}
	.st6{fill:url(#SVGID_1_);}
	.st7{fill:#00E6FF;}
	.st8{fill:url(#SVGID_2_);}
</style>
<g>
	<g>
		<path class="st0" d="M222.2,178.3c4,4.8,10,8.3,17.1,9.3c6.9,1,13.6-0.7,18.8-4.1c1.4,4.2,5.3,7.5,10.3,8.2
			c6,0.8,11.5-2.3,13.4-7.3c7.6-1.5,14.1-6.2,17.4-12.7c1.3,0.4,2.7,0.7,4.1,0.9c14.2,2,27.1-7,28.9-19.9c1.8-13-8.2-25.1-22.4-27.1
			c-2.6-0.4-5.1-0.4-7.5,0c0.3-1.1,0.6-2.2,0.8-3.4c1.5-10.5-4.8-20.3-14.7-24.8c-1.6-7.6-7.4-14.1-15.3-17c2.5-5.3,3.6-11.3,3-17.6
			c-1.8-18.4-18.2-31.9-36.6-30c-3.3,0.3-6.5,1.1-9.5,2.4c0.1-1.6,0-3.3-0.1-4.9c-1.8-18.4-18.2-31.9-36.6-30
			c-12.9,1.3-23.4,9.8-27.9,21.1c-6.9-8.3-17.6-13.1-29.1-11.9c-18.4,1.8-31.9,18.2-30,36.6c0.3,2.7,0.8,5.3,1.7,7.7
			c-5.7,4.5-9.8,10.8-11.6,17.9c-4.1-2.6-8.9-4.2-14.1-4.2C70,67.5,59.7,76.1,57,87.6c-2-0.4-4-0.7-6.1-0.7
			c-15.3,0-27.7,12.4-27.7,27.7c0,1.9,0.2,3.7,0.5,5.4c-13.4,2.7-23.6,17.1-23.6,34.6c0,19.4,12.6,35.1,28.1,35.1
			c5.9,0,11.4-2.3,16-6.2c4.7,8.5,13.8,14.3,24.2,14.3c7.5,0,14.3-3,19.3-7.8c2.1,4.6,6.8,7.8,12.2,7.8c6.4,0,11.8-4.6,13.1-10.6
			c0,0,17.8,1.1,16.6-17.4c1.4,0.2,2.9,0.4,4.4,0.4c15.3,0,27.7-12.4,27.7-27.7c0-0.7,0-1.3-0.1-2c0.3,0.1,0.7,0.1,1,0.2
			c11.2,6.3,19.8-3.2,19.8-3.2c-0.5,1.6-0.9,3.4-1.1,5.1c-2.3,16.4,1.1,29.3,15.5,31.3c3.1,0.4,7.8-0.4,10.8-1.2
			C207.3,172.4,208,183.3,222.2,178.3z"/>
	</g>
	<g>
		<path class="st1" d="M184.1,461.4l-9.9-352.7c-0.1-2.1-1.8-3.8-3.9-3.8l0,0c-2.1,0-3.9,1.7-3.9,3.8l-9.9,352.7H184.1z"/>
		<path class="st1" d="M172.6,128.1l22.9-28.7c1-1.2,2.7-1.4,3.9-0.5l0,0c1.2,0.9,1.5,2.6,0.6,3.8l-25.7,37L172.6,128.1z"/>
		<path class="st1" d="M172.3,202.5l57.9-44.6c1.2-0.9,2.9-0.7,3.9,0.4l0,0c1,1.2,0.8,2.9-0.3,3.9l-62.4,53.7L172.3,202.5z"/>
		<path class="st2" d="M167,216l-56.9-43.8c-1.2-0.9-2.9-0.7-3.9,0.4l0,0c-1,1.2-0.8,2.9,0.3,3.9l57.3,49.3c1.9,1.6,4.8,0.2,4.6-2.3
			l-0.4-5.4C168,217.2,167.6,216.5,167,216z"/>
	</g>
	<path class="st3" d="M262.4,67.1L262.4,67.1c0,0,0,0.1,0,0.2l0,0C262.4,67.2,262.4,67.1,262.4,67.1z"/>
	<path class="st3" d="M252.4,50.7c-0.1,0-0.1,0,0.3,0.2l0,0C252.6,50.8,252.5,50.8,252.4,50.7z"/>
	<path class="st3" d="M270.6,98.5c0,0,0,0.1,0.1,0.3l0,0C270.7,98.7,270.7,98.6,270.6,98.5z"/>
	<path class="st3" d="M275.3,108.9c0,0,0.1,0,0.3,0l0,0C275.5,109,275.4,109,275.3,108.9z"/>
	<path class="st3" d="M283.6,123L283.6,123L283.6,123L283.6,123z"/>
	<path class="st3" d="M277.3,109.4C277.3,109.5,277.3,109.5,277.3,109.4C277.4,109.5,277.4,109.5,277.3,109.4
		C277.3,109.5,277.3,109.5,277.3,109.4z"/>
	<path class="st3" d="M308,140.7c0.1,0.3,0.2,0.3,0.1,0.2C308.1,140.8,308.1,140.8,308,140.7L308,140.7z"/>
	<path class="st3" d="M271.3,175.6L271.3,175.6c0,0-0.1,0-0.3,0h0.1C271.2,175.5,271.2,175.5,271.3,175.6z"/>
	<path class="st3" d="M305.7,119.4c0,0,0-0.2-0.2-0.4c0,0,0,0,0,0.1C305.6,119.2,305.7,119.3,305.7,119.4z"/>
	<path class="st3" d="M321.8,172.4L321.8,172.4c-0.1,0-0.2-0.1-0.2-0.1s0,0-0.1,0C321.4,172.2,321.5,172.1,321.8,172.4
		C321.9,172.4,321.8,172.4,321.8,172.4z"/>
	<path class="st3" d="M319.6,166.7C319.7,166.6,319.7,166.6,319.6,166.7c0.1-0.2,0.1-0.3,0.2-0.4
		C319.9,166.2,319.9,166.3,319.6,166.7z"/>
	<path class="st3" d="M294.9,113.6c0,0.1,0.1,0.2,0.1,0.3C295,114,295,114,294.9,113.6C294.9,113.5,294.9,113.6,294.9,113.6z"/>
	<path class="st3" d="M324.5,145.2c0,0.1,0,0.2,0,0.3C324.5,145.8,324.5,146,324.5,145.2L324.5,145.2z"/>
	<path class="st3" d="M324.8,165.2c0.1,0.1,0.1,0.1-0.3-0.2h0.1C324.7,165.1,324.8,165.1,324.8,165.2z"/>
	<path class="st3" d="M323.5,164.7L323.5,164.7c-0.3,0-0.4,0-0.4,0C323.2,164.7,323.3,164.7,323.5,164.7z"/>
	<path class="st3" d="M269,185.2c0.1,0,0.1-0.1,0.2-0.1C269.1,185.2,269,185.2,269,185.2L269,185.2z"/>
	<polygon class="st3" points="303.2,174.3 303.2,174.3 303.2,174.3 	"/>
	<path class="st3" d="M320.5,171.3C320.4,171.1,320.3,171.1,320.5,171.3L320.5,171.3z"/>
	<path class="st3" d="M323.3,172.5L323.3,172.5c-0.1,0-0.1,0-0.2,0C323.1,172.5,323.2,172.5,323.3,172.5z"/>
	<path class="st3" d="M290.4,94.5C290.4,94.4,290.4,94.4,290.4,94.5C290.4,94.4,290.4,94.4,290.4,94.5z"/>
	<path class="st3" d="M216.2,34.3L216.2,34.3C216.2,34.2,216.2,33.8,216.2,34.3z"/>
	<path class="st3" d="M280.6,112c0.1,0,0.1,0.1,0.2,0.2C280.7,112.1,280.6,112,280.6,112z"/>
	<path class="st3" d="M253.5,175.8C253.3,176,253.4,175.9,253.5,175.8L253.5,175.8z"/>
	<path class="st3" d="M274.1,185.6C273.8,185.6,273.8,185.6,274.1,185.6h0.2H274.1z"/>
	<path class="st3" d="M302.5,174.4c-0.2,0-0.3,0-0.4-0.1C302.2,174.3,302.4,174.3,302.5,174.4z"/>
	<path class="st3" d="M303.6,174C303.7,173.9,303.7,173.9,303.6,174L303.6,174z"/>
	<path class="st3" d="M254.2,190.8c0.1,0.1,0.3,0.1,0.4,0.1C254.5,190.9,254.4,190.8,254.2,190.8
		C254.3,190.8,254.3,190.8,254.2,190.8z"/>
	<g>
		<path class="st4" d="M309.7,125.6c-2.6-0.4-5.1-0.4-7.5,0c0.3-1.1,0.6-2.2,0.8-3.4c1.5-10.5-4.8-20.3-14.7-24.8
			c-1.6-7.6-7.4-14.1-15.3-17c2.5-5.3,3.6-11.3,3-17.6c-1.8-18.4-18.2-31.9-36.6-30c-3.3,0.3-6.5,1.1-9.5,2.4c0.1-1.6,0-3.3-0.1-4.9
			c-1.8-18.4-18.2-31.9-36.6-30c-8.3,0.8-15.6,4.7-21,10.3c0.1,0,0.2-0.1,0.2-0.1c4.4-2.4,9.5-3.7,14.6-3.6
			c8.1,0.2,16,4.2,21.4,10.1c6.2,6.9,8.8,16.3,8,25.5c0,0.4-0.1,0.8-0.1,1.2c0,0.2,0,0.4-0.1,0.6c-0.2,1-0.3,2.1-0.4,3.2
			c0,0.2,0,0.5,0.1,0.7c1.1-0.5,2.2-1,3.4-1.5c11-4.1,25-2.5,34.1,5.2c7.9,6.8,12.7,18.1,6.3,27.6c-0.9,1.3-2.4,2.7-2.7,4.2
			c2.7,0,5.1,0.1,7.6,1.2c4.4,1.9,7.8,5.9,9.3,10.4c1.3,3.8,1.3,8.1-0.1,11.8c1.8,0.3,3.6,0.6,5.2,1.5c2.2,1.2,4.1,3,5.5,5.1
			s2.3,4.5,2.6,7c0.3,2.5-0.1,5-1.2,7.2c-0.5,1-1.2,1.9-1.9,2.8c1.2-0.3,2.4-0.5,3.7-0.6c4.4-0.4,8.8,0.4,12.8,2.2
			c3.6,1.2,7,3.3,9.4,6.3c4.5,5.7,6.2,15.1-0.4,19.9c-2,1.4-4.3,2.1-6.7,2.2c-2.4,0.1-4.8-0.4-7.1-1.2c-0.1,0.2-0.1,0.4-0.2,0.6
			c-0.6,4.4-2.5,7.8-6.1,10.8c-3.8,3.3-8.6,4.9-13.7,5c-0.9,0-1.8,0-2.7-0.1c-0.4,0-0.8-0.1-1.2-0.1c-0.2,0-0.4,0-0.6-0.1
			c0,0,0,0-0.2,0h-0.1l0,0c-1.9-0.3-3.7-0.7-5.5-1.3c-1-0.3-1.9-0.6-2.8-1c-0.1,0-0.2-0.1-0.3-0.1c-0.8,0.9-1.7,1.7-2.7,2.4
			c-2.3,1.8-4.9,3.2-7.6,4.4c-2.7,1.1-5.5,2-8.3,2.5c-1.5,0.3-3.1,0.5-4.7,0.5c-1.8,0-3.6-0.2-5.3-0.6c-0.9-0.2-1.8-0.5-2.7-0.8
			c-2.4-0.4-4.8-1.1-7-2.2c-0.4-0.2-0.7-0.2-1-0.1c4,4.3,9.7,7.4,16.2,8.3c6.9,1,13.6-0.7,18.8-4.1c1.4,4.2,5.3,7.5,10.3,8.2
			c6,0.8,11.5-2.3,13.4-7.3c7.6-1.5,14.1-6.2,17.4-12.7c1.3,0.4,2.7,0.7,4.1,0.9c14.2,2,27.1-7,28.9-19.9
			C333.9,139.6,323.9,127.5,309.7,125.6z"/>
	</g>
	<path class="st5" d="M106.2,45.9c0.3,2.7,0.8,5.3,1.7,7.7c-5.7,4.5-9.8,10.8-11.6,17.9c-4.1-2.6-8.9-4.2-14.1-4.2
		c-12.3,0-22.6,8.6-25.3,20.1c-2-0.4-4-0.7-6.1-0.7c-15.3,0-27.7,12.4-27.7,27.7c0,1.9,0.2,3.7,0.5,5.4C10.2,122.5,0,136.9,0,154.4
		c0,19.4,12.6,35.1,28.1,35.1c5.9,0,11.4-2.3,16-6.2c4.7,8.5,13.8,14.3,24.2,14.3c6.8,0,13.1-2.5,17.9-6.6l0.7-1.2
		c-2.5,3.5-7.1,5.3-11.4,5.2c-4.3,0-8.5-1.6-12.4-3.7c-8-4.3-15-11.1-18.3-19.6c-7.2,4.4-17.2,2.2-23-3.9
		c-5.8-6.1-7.7-15.2-6.4-23.5c0.7-4.7,2.3-9.3,5.2-13.1s7-6.7,11.7-7.6c-4.4-8-1.9-18.8,4.9-25c6.7-6.2,16.8-8,25.7-6l0.3-0.2
		c0.2-5.2,3.6-9.8,8-12.5c4.4-2.7,9.7-3.6,14.8-3.8c6.5-0.2,13,0.7,19.1,2.7l0.1-0.4c-0.8-8.5,3.8-17.3,11.4-21.4
		c-7.1-13.2-5.2-30.7,4.7-42l-0.6,0.2C110.8,21.8,105,33.4,106.2,45.9z"/>
	<path class="st2" d="M168.3,462V106.2c-1,0.7-1.7,1.8-1.7,3.1L156.7,462H168.3z"/>
</g>
<g>
	<g>
		
			<linearGradient id="SVGID_1_" gradientUnits="userSpaceOnUse" x1="229.0711" y1="114.3483" x2="210.1282" y2="21.3047" gradientTransform="matrix(1 0 0 -1 0 454)">
			<stop  offset="2.946690e-02" style="stop-color:#68E3BA"/>
			<stop  offset="0.2953" style="stop-color:#30D9A1"/>
			<stop  offset="0.4646" style="stop-color:#2CD4A1"/>
			<stop  offset="0.6625" style="stop-color:#21C69F"/>
			<stop  offset="0.874" style="stop-color:#0EAF9D"/>
			<stop  offset="1" style="stop-color:#009D9B"/>
		</linearGradient>
		<path class="st6" d="M327,451.5V341.8c-12.5-4.6-25.5-9.3-38.7-8.1c-12.5,1.1-23.9,7.2-35.3,12.7c-11.3,5.4-23.7,10.3-36.1,8.6
			c-16-2.2-28.6-14.8-44-20c-19-6.4-42,0.4-53.4,16.8c-8.4,12-10.8,28-21.4,38.1l10.9,61.8h218V451.5z"/>
	</g>
	<g>
		<path class="st7" d="M288.2,333.6c-9,0.8-17.5,4.2-25.8,8.1c10.6-1.5,21.5-1.2,31.9,1.3c12,2.8,23.3,8.5,32.6,16.6v-17.8
			C314.5,337.1,301.5,332.5,288.2,333.6z"/>
	</g>
	<g>
		
			<linearGradient id="SVGID_2_" gradientUnits="userSpaceOnUse" x1="176.217" y1="120.8292" x2="117.5308" y2="72.9145" gradientTransform="matrix(1 0 0 -1 0 454)">
			<stop  offset="0" style="stop-color:#30B4BA;stop-opacity:0"/>
			<stop  offset="0.9705" style="stop-color:#009B82"/>
		</linearGradient>
		<path class="st8" d="M122.3,401.6c4.9-8.7,7.4-18.5,11.1-27.8s8.8-18.5,17.1-24c10.1-6.6,23.2-6.6,35.2-5c3.1,0.4,6.2,0.9,9.3,1.3
			c-7.2-4.1-14.3-8.6-22-11.3c-19-6.4-42,0.4-53.4,16.8c-8.4,12-10.8,28-21.4,38.1l5.7,32.1C111.3,416.7,117.8,409.7,122.3,401.6z"
			/>
	</g>
</g>
</svg>
