<?xml version="1.0" encoding="utf-8"?>
<!-- Generator: Adobe Illustrator 23.0.1, SVG Export Plug-In . SVG Version: 6.00 Build 0)  -->
<svg version="1.1" id="MiddenLeft" xmlns="http://www.w3.org/2000/svg" xmlns:xlink="http://www.w3.org/1999/xlink" x="0px" y="0px"
	 viewBox="0 0 355.4 451.7" style="enable-background:new 0 0 355.4 451.7;" xml:space="preserve">
<style type="text/css">
	.st0{fill:#FFEB50;}
	.st1{fill:#E5D348;}
	.st2{fill:#F2F2F2;}
	.st3{fill:#D9C844;}
	.st4{fill:#004F74;}
	.st5{fill:#003C60;}
	.st6{fill:#CEBE41;}
	.st7{fill:#F2DF4C;}
	.st8{fill:#E5E5E5;}
	.st9{fill:#004768;}
	.st10{fill:url(#SVGID_1_);}
	.st11{fill:#00C6B2;}
	.st12{fill:#00B6AF;}
	.st13{fill:#008A9A;}
	.st14{fill:#1BC38C;}
</style>
<g>
	<path class="st0" d="M38.7,323c3.4,9.5,7.2,32.5,4.5,50.2c-0.2,1.3,5.8,1.2,5.8,0.3c0-0.8,5-34.5,2.5-45.3
		C49,317.4,38.7,323,38.7,323"/>
	<path class="st1" d="M40.6,324c-0.1,0.3-0.2,0.6-0.3,1c-0.4-0.3-0.8-0.6-1.1-0.9c2.5,7.6,5,21.9,5,35.7c0,4.6-0.3,9.1-0.9,13.3
		c0,0,0,0,0,0.1c0,0.7,1.5,0.9,3,0.9c1.4,0,2.8-0.3,2.8-0.7c0-0.7,3.2-22.3,3.2-36.5c0-1.6,0-3.1-0.1-4.5
		C49.3,329,45.5,328.5,40.6,324"/>
	<path class="st0" d="M87.9,328.1c0.8,6.5,19.4,18.4,22.6,20s1.9,3.8-0.5,10.3c-2.4,6.6-6.5,13.2-6.3,14.1s7.1,0.7,7.3,0.2
		c0.2-0.5,3.2-10.4,7-19.2c3.8-8.7,3.2-6.6-0.3-11.8c-3.4-5.2-4.7-7-2.4-13.3C117.5,322.1,87.9,328.1,87.9,328.1"/>
	<path class="st1" d="M100.9,328.5L100.9,328.5c-0.1,0-3.2,1.6-9.6,1.6l0,0l0,0l0,0l0,0c-0.9,0-1.8,0-2.8-0.1
		c3.4,6.7,19,16.7,22,18.2c1.4,0.7,1.9,1.5,1.9,2.7c0,1.6-1,3.9-2.4,7.7c-2.3,6.4-6.3,13-6.3,14c0,0,0,0,0,0.1
		c0.1,0.4,1.9,0.6,3.8,0.6c1.7,0,3.5-0.2,3.5-0.4c0.2-0.5,3.2-10.4,7-19.2c1.7-3.9,2.5-5.6,2.6-6.8
		C114.3,342.8,101.6,333.8,100.9,328.5"/>
	<path class="st0" d="M53,272.4c4.4,11.4,10.8,15.1,27,14.3c16.3-0.8,24-4.2,33.4-2.5c9.4,1.7,19.9,11.4,20.8,18.8
		c0.4,3.5-3.7,19.5-5.9,25.8s-1,8.1,2.4,13.3c3.4,5.2,4.1,3.1,0.3,11.8c-3.8,8.7-6.3,18.7-7,19.2s-7.1,0.8-7.3-0.2s3.9-7.5,6.3-14.1
		c2.4-6.6,3.6-8.7,0.5-10.4c-3.2-1.6-21.7-13.5-22.6-20c0,0-5.2,2.6-16,1.1s-17.8-1.5-18.7,0.3c-0.9,1.8,0.4,22.4-4.4,44
		c-0.2,1-5.4,0.5-5.7-0.1c-0.3-0.6,3.1-12.9,0.2-29.6s-8.1-12.8-16.5-21c-10.1-7.9-5.9-42.5-5.9-42.5L53,272.4"/>
	<path class="st0" d="M33.1,260.9c-4.1,8.7-9.6,21.6-8.7,34.2c0.8,12.6,8.1,24.3,15.9,29.9c2.1-7.8,15.9-16.4,17.4-29
		s-3.2-25.7-6.9-34.6L33.1,260.9"/>
	<path class="st1" d="M30.4,266.9L30.4,266.9L30.4,266.9 M30.4,266.8L30.4,266.8L30.4,266.8 M30.5,266.7L30.5,266.7L30.5,266.7
		 M52.4,265.4c2.5,6.7,5.1,15.1,5.5,23.6c0,0.2,0,0.5-0.1,0.7c-1.5,12.6-15.3,21.2-17.4,29c-7.8-5.6-15-17.3-15.9-29.9
		c0-0.2,0-0.5,0-0.7c0.7-7.6,3.3-14.9,5.9-21.1c-3.1,7.4-6.1,16.4-6.1,25.5c0,0.9,0,1.7,0.1,2.6c0.8,12.6,8.1,24.3,15.9,29.9
		c2.1-7.8,15.9-16.4,17.4-29c0.2-1.6,0.3-3.3,0.3-4.9C58,281.9,55.2,272.7,52.4,265.4 M52.4,265.3C52.4,265.4,52.4,265.4,52.4,265.3
		C52.4,265.4,52.4,265.4,52.4,265.3 M52.4,265.3L52.4,265.3L52.4,265.3 M52.3,265.2L52.3,265.2L52.3,265.2 M52.3,265.1L52.3,265.1
		L52.3,265.1"/>
	<path class="st2" d="M30.4,267L30.4,267L30.4,267 M30.4,266.8C30.4,266.9,30.4,266.9,30.4,266.8C30.4,266.9,30.4,266.9,30.4,266.8
		 M30.5,266.7C30.5,266.7,30.4,266.8,30.5,266.7C30.4,266.8,30.5,266.7,30.5,266.7 M52.4,265.4L52.4,265.4L52.4,265.4 M52.4,265.3
		L52.4,265.3L52.4,265.3 M52.3,265.2L52.3,265.2L52.3,265.2 M52.3,265.1C52.3,265.1,52.3,265.2,52.3,265.1
		C52.3,265.2,52.3,265.1,52.3,265.1 M51.7,263.6L51.7,263.6c0.2,0.5,0.4,1,0.6,1.5C52.1,264.6,51.9,264.1,51.7,263.6 M32.1,263
		c-0.5,1.2-1.1,2.4-1.6,3.7C31,265.4,31.6,264.2,32.1,263L32.1,263"/>
	<path class="st3" d="M32.1,263c-0.5,1.2-1.1,2.4-1.6,3.7l0,0v0.1l0,0l0,0c0,0,0,0,0,0.1l0,0c-2.6,6.2-5.1,13.5-5.9,21.1
		c0,0.2,0,0.5,0,0.7c0.8,12.6,8.1,24.3,15.9,29.9c2.1-7.8,15.9-16.4,17.4-29c0-0.2,0.1-0.5,0.1-0.7c-0.4-8.5-3-16.8-5.5-23.6l0,0
		v-0.1l0,0l0,0v-0.1l0,0c0,0,0,0,0-0.1l0,0c-0.2-0.5-0.4-1-0.6-1.5c-0.6,0.7-1.1,1.3-1.2,1.6c-0.2,0.6-1,9.3-2.9,10.4l0,0l0,0l0,0
		l0,0l0,0l0,0l0,0l0,0l0,0l0,0l0,0l0,0l0,0l0,0l0,0l0,0l0,0l0,0l0,0l0,0l0,0l0,0l0,0l0,0l0,0l0,0l0,0c-0.7,2-1.7,2.7-5.1,2.7
		c-0.3,0-0.5,0-0.8,0c-4.1-0.1-5.4-1.1-5.8-3c-1.9-0.7-2.3-10-2.5-10.6C33.2,264.3,32.7,263.7,32.1,263"/>
	<path class="st4" d="M30.7,243.2c-2-0.2-6.6,1.6-13.7-0.6c-5.5-1.8-6.1-9.1-6.1-11s1-2.4,1.7,0s2.3,7.7,6.5,8.6s5.7-0.7,5.7-0.7
		L30.7,243.2z"/>
	<path class="st5" d="M30.7,243.2c-2-0.2-6.6,1.6-13.7-0.6c-5.5-1.8-6.1-9.1-6.1-11s1-2.4,1.7,0s2.3,7.7,6.5,8.6s5.7-0.7,5.7-0.7
		L30.7,243.2z"/>
	<path class="st0" d="M52.2,249.2c1.9-1.5,4.7-2,8.4-1c3.7,1,5.8,1,6.7,1.3c0.9,0.3-1.8,4.8-6.4,5.6s-8.2-3.1-8.2-3.1L52.2,249.2"/>
	<path class="st1" d="M67.2,249.4l0.1,0.1c-0.1,0-0.1,0-0.2,0c-0.6,0-1.5,0.3-2.6,0.6c-1.1,0.3-2.4,0.6-3.6,0.6
		c-0.6,0-1.2-0.1-1.7-0.2c-2.2-0.6-3-0.9-4.3-0.9c-0.6,0-1.3,0.1-2.4,0.1l0,0c0.5,0.9,0.8,1.9,1,2.9c1.1,0.9,3.4,2.5,6.2,2.5
		c0.4,0,0.8,0,1.2-0.1c4-0.7,6.5-4.2,6.5-5.3C67.4,249.5,67.4,249.4,67.2,249.4 M52.3,249.1C52.3,249.1,52.2,249.1,52.3,249.1
		L52.3,249.1C52.2,249.1,52.3,249.1,52.3,249.1 M57.1,247.6c1,0,2,0.1,3.1,0.4C59.1,247.8,58,247.6,57.1,247.6 M57.1,247.6
		L57.1,247.6L57.1,247.6L57.1,247.6"/>
	<path class="st0" d="M67.4,249.5l-0.1-0.1c-0.9-0.3-3.1-0.3-6.7-1.3c-3.7-1-6.4-0.4-8.4,1l0.1,0.3c0.2,0.1,0.3,0.1,0.3,0.1
		c3.2-0.3,3.4-0.2,6.7,0.7c1.7,0.5,3.7,0.1,5.4-0.3C65.8,249.7,66.8,249.4,67.4,249.5"/>
	<path class="st0" d="M32.5,248.6c-1.9-1.6-4.6-2.3-8.3-1.5s-5.9,0.7-6.8,0.9s1.5,4.9,6.1,5.9s8.3-2.7,8.3-2.7L32.5,248.6"/>
	<path class="st1" d="M32.3,248.5C32.4,248.5,32.4,248.5,32.3,248.5L32.3,248.5C32.4,248.5,32.4,248.5,32.3,248.5 M17.4,248
		c-0.1,0-0.2,0.1-0.2,0.3c0,1.1,2.3,4.7,6.2,5.6c0.6,0.1,1.1,0.2,1.6,0.2c2.6,0,4.7-1.3,5.9-2.1l0,0c0.2-1,0.6-2,1.1-2.9
		c-1.3-0.2-2.1-0.3-2.8-0.3c-1,0-1.9,0.2-3.8,0.6c-0.4,0.1-0.9,0.1-1.3,0.1c-1.3,0-2.7-0.4-3.9-0.7c-1.2-0.4-2.2-0.7-2.8-0.7h-0.1
		L17.4,248 M27.1,246.8c-0.8,0-1.8,0.1-2.8,0.3C25.3,246.9,26.2,246.8,27.1,246.8 M27.1,246.8L27.1,246.8L27.1,246.8L27.1,246.8"/>
	<path class="st0" d="M17.3,248.1l0.1-0.1c0.9-0.2,3.1-0.1,6.8-0.9c3.7-0.8,6.4-0.1,8.3,1.5l-0.1,0.3c-0.2,0.1-0.3,0.1-0.3,0.1
		c-3.2-0.4-3.4-0.4-6.7,0.4c-1.7,0.4-3.6-0.1-5.2-0.6C18.9,248.5,17.8,248.1,17.3,248.1"/>
	<path class="st0" d="M35.7,275.2c0.4,1.9,1.7,2.9,5.8,3.1c4.1,0.1,5.2-0.5,6-2.7c0.5-1.6-5.8-4.4-5.8-4.4L35.7,275.2"/>
	<path class="st3" d="M35.7,275.3c0.4,1.9,1.7,2.9,5.8,3c0.3,0,0.6,0,0.8,0c3.4,0,4.4-0.7,5.1-2.7l0,0l0,0l0,0
		c-0.7,2-1.7,2.7-5.1,2.7c-0.3,0-0.5,0-0.8,0C37.4,278.2,36.1,277.2,35.7,275.3L35.7,275.3"/>
	<path class="st4" d="M5.2,235.8c-5.8-3.4-6.5-9.5-5.2-9.1c1,0.3,1,1.3,3.9,4.6c0.4,0.5,0.9,0.9,1.4,1.2c0.1,0.1,0.3,0,0.3-0.2
		c0-0.8,0.2-1.9,0.7-2.6c0.9-1.3,1.7-1.3,1.6-0.6c0,0.5-0.5,1.7-0.3,3c0.1,0.9,0.9,1.7,1.8,1.9c2.4,0.5,5.6,0.9,9.8,1.5
		c0.3,0,0.5-0.3,0.3-0.6c-1.5-1.9-2.4-4.8-2-6.7c0.5-2.2,1.3-1.7,1.5,0s2.9,6.9,7.1,8.2H26c9.9,1.8,10.6,5.4,11.8,9.1l-4.6,1.7
		c0,0-0.7-1.9-1.6-3.3c-1.6-2.2-7-3.4-12.7-4.5l0,0h-0.1h-0.2c-1.3-0.2-2.3-0.3-6.1,0.6c-4,1-6.2,0.9-8.2,0.3
		c-2-0.6-2.7-2.6-1.8-2.5c0.9,0.1,2.6,0.9,4.3,0.8c1.4-0.1,2.7-0.7,2.3-1.3C7.7,237,6.3,236.5,5.2,235.8"/>
	<path class="st4" d="M34.8,245.7c-1.1-2.6-1.1-4.1-0.5-8.2c0.6-4.1-1.4-7,0.4-7.4c1.4-0.3,3.5,4.3,3.2,8c-0.1,1.8-0.3,4.5,1,7.2
		L34.8,245.7"/>
	<path class="st4" d="M54,243.8c2-0.1,6.5,2,13.7,0.1c5.6-1.5,6.6-8.7,6.7-10.7c0.1-1.9-0.9-2.4-1.7,0c-0.8,2.4-2.7,7.5-7,8.2
		c-4.2,0.7-5.6-1-5.6-1L54,243.8z"/>
	<path class="st5" d="M54,243.8c2-0.1,6.5,2,13.7,0.1c5.6-1.5,6.6-8.7,6.7-10.7c0.1-1.9-0.9-2.4-1.7,0c-0.8,2.4-2.7,7.5-7,8.2
		c-4.2,0.7-5.6-1-5.6-1L54,243.8z"/>
	<path class="st4" d="M79.9,237.9c6-3.1,7-9.2,5.7-8.8c-1,0.3-1.1,1.3-4.1,4.4c-0.4,0.4-0.9,0.8-1.5,1.1c-0.1,0.1-0.3,0-0.3-0.2
		c0-0.8-0.1-1.9-0.5-2.6c-0.9-1.4-1.6-1.4-1.6-0.7c0,0.5,0.4,1.8,0.2,3c-0.2,0.9-1,1.6-1.9,1.8c-2.4,0.4-5.6,0.6-9.9,0.9
		c-0.3,0-0.5-0.4-0.3-0.6c1.6-1.8,2.7-4.7,2.3-6.5c-0.4-2.2-1.2-1.8-1.5,0c-0.3,1.7-3.3,6.7-7.6,7.8H59c-10,1.2-10.9,4.8-12.3,8.5
		l4.8,2c0,0,0.5-1.9,1.6-3.2c1.7-2.2,7.1-3,12.9-3.8l0,0h0.1h0.2c1.3-0.2,2.3-0.2,6,1c4,1.2,6.1,1.3,8.1,0.8s2.9-2.5,2-2.4
		s-2.6,0.7-4.4,0.5c-1.4-0.2-2.6-0.9-2.2-1.4C77.3,238.9,78.8,238.4,79.9,237.9"/>
	<path class="st4" d="M49.7,246.1c1.2-2.5,1.3-4.1,0.9-8.2c-0.4-4.1,1.8-6.9,0-7.4c-1.3-0.4-3.7,4.1-3.6,7.8c0,1.8,0.1,4.5-1.4,7.2
		L49.7,246.1"/>
	<path class="st0" d="M35.7,275.3c-1.9-0.6-2.3-10-2.5-10.6c-0.2-0.7-2.3-2.7-2.7-4.5s-0.2-4.8,0.4-8.1c0.6-3.3,3.9-6.5,4.5-7.1
		c1.9-1.8,12.4-0.9,13.8,0.4c0.7,0.6,3.7,4.1,4.1,7.4c0.5,3.3,0.4,6.3,0,8.1c-0.5,1.8-2.7,3.7-2.9,4.4c-0.2,0.7-1.1,9.9-3.1,10.5
		c-5.4,1.5-5.8-2-5.8-2S41,277,35.7,275.3"/>
	<path class="st6" d="M41.6,273.6c0,0-0.4,2.2-3.2,2.2c-0.7,0-1.6-0.1-2.7-0.5l0,0c0.4,1.9,1.7,2.9,5.8,3c0.3,0,0.6,0,0.8,0
		c3.4,0,4.4-0.7,5.1-2.7c-0.9,0.3-1.7,0.4-2.4,0.4C42,276,41.6,273.6,41.6,273.6"/>
	<path class="st6" d="M47.5,275.6L47.5,275.6L47.5,275.6 M47.5,275.6L47.5,275.6L47.5,275.6 M47.5,275.6L47.5,275.6L47.5,275.6
		 M47.5,275.6L47.5,275.6L47.5,275.6 M47.5,275.6L47.5,275.6L47.5,275.6 M47.6,275.6C47.5,275.6,47.5,275.6,47.6,275.6
		C47.5,275.6,47.5,275.6,47.6,275.6 M47.6,275.5C47.6,275.6,47.6,275.6,47.6,275.5C47.6,275.6,47.6,275.6,47.6,275.5 M47.6,275.5
		L47.6,275.5L47.6,275.5 M47.6,275.5L47.6,275.5L47.6,275.5 M47.6,275.5L47.6,275.5L47.6,275.5 M47.6,275.5L47.6,275.5L47.6,275.5
		 M47.6,275.5L47.6,275.5L47.6,275.5 M47.7,275.5L47.7,275.5L47.7,275.5"/>
	<path class="st7" d="M37.9,268.9c-2.5,0.2-3.4,1.1-3.6,3.3v0.2c0.3,1.5,0.8,2.6,1.4,2.8l0,0l0,0c1.1,0.4,2,0.5,2.7,0.5
		c2.8,0,3.2-2.2,3.2-2.2s0.3,2.3,3.4,2.3c0.7,0,1.5-0.1,2.4-0.4l0,0l0,0l0,0l0,0l0,0l0,0l0,0l0,0l0,0l0,0l0,0l0,0l0,0l0,0l0,0l0,0
		l0,0l0,0l0,0l0,0l0,0l0,0l0,0l0,0l0,0l0,0l0,0c0.5-0.3,1-1.4,1.4-2.7v-0.2c-0.1-2.3-0.9-3.1-3.4-3.5c0,0.6,0,1,0,1l-3.9-0.1h-0.1
		l-3.9-0.1C37.8,269.9,37.8,269.5,37.9,268.9"/>
	<path class="st8" d="M40.9,243.8c-0.9,0-1.7,0-2.5,0.1l0,0C39.1,243.9,40,243.8,40.9,243.8 M40.9,243.8L40.9,243.8L40.9,243.8
		L40.9,243.8"/>
	<path class="st9" d="M35.6,244.8L35.6,244.8L35.6,244.8 M38.4,243.9c-1.2,0.1-2.3,0.4-2.8,0.8C36.1,244.3,37.1,244.1,38.4,243.9
		L38.4,243.9"/>
	<path class="st8" d="M31,252L31,252c-0.2,1.2-0.4,2.4-0.5,3.5l0,0C30.6,254.4,30.7,253.2,31,252"/>
	<path class="st8" d="M53.5,252.5C53.5,252.6,53.5,252.6,53.5,252.5c0.1,0.8,0.2,1.6,0.2,2.3C53.6,254.1,53.6,253.4,53.5,252.5
		C53.5,252.6,53.5,252.6,53.5,252.5L53.5,252.5"/>
	<path class="st1" d="M40.9,243.8L40.9,243.8c-0.9,0-1.7,0-2.5,0.1c-1.2,0.1-2.3,0.4-2.8,0.8l0,0l0,0l0,0l0,0
		c-0.1,0.1-0.4,0.4-0.7,0.8c-0.7,0.7-1.6,1.8-2.3,3c-0.1,0.2-0.2,0.4-0.3,0.5c-0.5,0.9-0.9,1.9-1.1,2.9l0,0l0,0
		c-0.2,1.2-0.4,2.4-0.5,3.5c0.8-1.7,3.5-3.1,5.5-3.1c1,0,1.7,0.3,2,1.1c0.7,2,0.1,12.2-0.1,15.4c0.6-0.1,1.3-0.1,2.1-0.1
		c0.5,0,1.1,0,1.8,0c1.6,0,2.8,0.1,3.8,0.3c0-3.2,0-13.4,0.8-15.4c0.3-0.7,1-1,1.8-1c2,0,5,1.7,5.6,3.6c0-0.5,0-1-0.1-1.5
		c-0.1-0.7-0.1-1.5-0.2-2.3l0,0c-0.1-1-0.5-2-1-2.9c-0.1-0.2-0.2-0.4-0.3-0.5l0,0c-1.1-1.9-2.5-3.5-2.9-3.9l0,0c0,0,0,0-0.1-0.1l0,0
		C48.3,244.4,44.4,243.8,40.9,243.8L40.9,243.8"/>
	<path class="st3" d="M40,268.8c-0.8,0-1.5,0-2.1,0.1c0,0.6-0.1,1-0.1,1l3.9,0.1h0.1l3.9,0.1c0,0,0-0.4,0-1c-1-0.1-2.3-0.2-3.8-0.3
		C41.1,268.8,40.5,268.8,40,268.8"/>
	<path class="st5" d="M41.6,273.6c-0.5-5-4-2.8-3.9-3.6c0-0.8,0.6-1.3,4.1-1.2c3.5,0.1,4,0.6,4,1.4
		C45.8,271.1,42.7,268.6,41.6,273.6z"/>
	<path class="st5" d="M45.8,270.4c0,0.4-0.3,0.7-0.7,0.7s-1.1-0.1-1-0.5c0-0.4,0.7-1,1.1-1C45.5,269.7,45.8,270,45.8,270.4z"/>
	<path class="st5" d="M39.6,270.5c0,0.4-0.8,0.5-1.2,0.4s-0.7-0.3-0.7-0.7s0.3-0.7,0.7-0.7C38.8,269.5,39.6,270.1,39.6,270.5z"/>
	<path class="st2" d="M84.9,329.6c0.1,0,0.2,0,0.3,0C85.2,329.6,85,329.6,84.9,329.6 M84.8,329.6C84.9,329.6,84.9,329.6,84.8,329.6
		L84.8,329.6 M72.3,328.5c-3.5,0-5.6,0.5-6.1,1.4C66.7,329,68.8,328.5,72.3,328.5 M72.4,328.5L72.4,328.5L72.4,328.5L72.4,328.5"/>
	<path class="st3" d="M91.3,330L91.3,330L91.3,330L91.3,330 M100.9,328.5c-0.1,0-3.2,1.6-9.6,1.6C97.7,330,100.8,328.5,100.9,328.5"
		/>
	<path class="st7" d="M98.1,314.9c-6.4,0-31.2,3.4-31.8,15l0,0c0.5-1,2.6-1.4,6.1-1.4l0,0l0,0l0,0c0,0,0,0,0.1,0
		c3.1,0,7.3,0.4,12.3,1.1c0.1,0,0.1,0,0.1,0l0,0l0,0c0.1,0,0.2,0,0.3,0c2.3,0.3,4.3,0.4,6.1,0.4l0,0l0,0c6.4,0,9.5-1.5,9.6-1.6l0,0
		c-2.6-9.9,0.4-12.6-1.4-13.5C99.3,314.9,98.8,314.9,98.1,314.9"/>
</g>
<g>
	<g>
		
			<linearGradient id="SVGID_1_" gradientUnits="userSpaceOnUse" x1="152.5528" y1="396.5003" x2="181.8031" y2="319.6139" gradientTransform="matrix(1 0 0 -1 0 454)">
			<stop  offset="2.869760e-02" style="stop-color:#00838C"/>
			<stop  offset="1" style="stop-color:#009C9A"/>
		</linearGradient>
		<path class="st10" d="M245.2,178.3c4,4.8,10,8.3,17.1,9.3c6.9,1,13.6-0.7,18.8-4.1c1.4,4.2,5.3,7.5,10.3,8.2
			c6,0.8,11.5-2.3,13.4-7.3c7.6-1.5,14.1-6.2,17.4-12.7c1.3,0.4,2.7,0.7,4.1,0.9c14.2,2,27.1-7,28.9-19.9c1.8-13-8.2-25.1-22.4-27.1
			c-2.6-0.4-5.1-0.4-7.5,0c0.3-1.1,0.6-2.2,0.8-3.4c1.5-10.5-4.8-20.3-14.7-24.8c-1.6-7.6-7.4-14.1-15.3-17c2.5-5.3,3.6-11.3,3-17.6
			c-1.8-18.4-18.2-31.9-36.6-30c-3.3,0.3-6.5,1.1-9.5,2.4c0.1-1.6,0-3.3-0.1-4.9c-1.8-18.4-18.2-31.9-36.6-30
			c-12.9,1.3-23.4,9.8-27.9,21.1c-6.9-8.4-17.6-13.2-29.1-12.1c-18.4,1.8-31.9,18.2-30,36.6c0.3,2.7,0.8,5.3,1.7,7.7
			c-5.7,4.5-9.8,10.8-11.6,17.9c-4.1-2.6-8.9-4.2-14.1-4.2C93,67.3,82.7,75.9,80,87.4c-2-0.4-4-0.7-6.1-0.7
			c-15.3,0-27.7,12.4-27.7,27.7c0,1.9,0.2,3.7,0.5,5.4c-13.4,2.7-23.6,17.1-23.6,34.6c0,19.4,12.6,35.1,28.1,35.1
			c5.9,0,11.4-2.3,16-6.2c4.7,8.5,13.8,14.3,24.2,14.3c7.5,0,14.3-3,19.3-7.8c2.1,4.6,6.8,7.8,12.2,7.8c6.4,0,11.8-4.6,13.1-10.6
			c0,0,17.8,1.1,16.6-17.4c1.4,0.2,2.9,0.4,4.4,0.4c15.3,0,27.7-12.4,27.7-27.7c0-0.7,0-1.3-0.1-2c0.3,0.1,0.7,0.1,1,0.2
			c11.2,6.3,19.8-3.2,19.8-3.2c-0.5,1.6-0.9,3.4-1.1,5.1c-2.3,16.4,1.1,29.3,15.5,31.3c3.1,0.4,7.8-0.4,10.8-1.2
			C230.4,172.4,231.1,183.3,245.2,178.3z"/>
	</g>
	<g>
		<path class="st4" d="M207.2,461.4l-9.9-352.7c-0.1-2.1-1.8-3.8-3.9-3.8l0,0c-2.1,0-3.9,1.7-3.9,3.8l-9.9,352.7H207.2z"/>
		<path class="st4" d="M195.6,128.1l22.9-28.7c1-1.2,2.7-1.4,3.9-0.5l0,0c1.2,0.9,1.5,2.6,0.6,3.8l-25.7,37L195.6,128.1z"/>
		<path class="st4" d="M195.3,202.5l57.9-44.6c1.2-0.9,2.9-0.7,3.9,0.4l0,0c1,1.2,0.8,2.9-0.3,3.9l-62.4,53.7L195.3,202.5z"/>
		<path class="st5" d="M190,216l-56.9-43.8c-1.2-0.9-2.9-0.7-3.9,0.4l0,0c-1,1.2-0.8,2.9,0.3,3.9l57.3,49.3c1.9,1.6,4.8,0.2,4.6-2.3
			l-0.4-5.4C191,217.2,190.6,216.5,190,216z"/>
	</g>
	<path class="st11" d="M285.5,67.1L285.5,67.1c0,0,0,0.1,0,0.2l0,0C285.5,67.2,285.5,67.1,285.5,67.1z"/>
	<path class="st11" d="M275.5,50.7c-0.1,0-0.1,0,0.3,0.2l0,0C275.6,50.8,275.5,50.8,275.5,50.7z"/>
	<path class="st11" d="M293.7,98.5c0,0,0,0.1,0.1,0.3l0,0C293.7,98.7,293.7,98.6,293.7,98.5z"/>
	<path class="st11" d="M298.4,108.9c0,0,0.1,0,0.3,0l0,0C298.6,109,298.5,109,298.4,108.9z"/>
	<path class="st11" d="M306.7,123L306.7,123L306.7,123L306.7,123z"/>
	<path class="st11" d="M300.4,109.4C300.4,109.5,300.4,109.5,300.4,109.4C300.4,109.5,300.4,109.5,300.4,109.4
		C300.4,109.5,300.4,109.5,300.4,109.4z"/>
	<path class="st11" d="M331.1,140.7c0.1,0.3,0.2,0.3,0.1,0.2C331.2,140.8,331.1,140.8,331.1,140.7L331.1,140.7z"/>
	<path class="st11" d="M294.3,175.6L294.3,175.6c0,0-0.1,0-0.3,0h0.1C294.2,175.5,294.3,175.5,294.3,175.6z"/>
	<path class="st11" d="M328.8,119.4c0,0,0-0.2-0.2-0.4c0,0,0,0,0,0.1C328.7,119.2,328.7,119.3,328.8,119.4z"/>
	<path class="st11" d="M344.9,172.4C344.9,172.4,344.8,172.4,344.9,172.4c-0.1,0-0.2-0.1-0.2-0.1s0,0-0.1,0
		C344.5,172.2,344.6,172.1,344.9,172.4L344.9,172.4z"/>
	<path class="st11" d="M342.7,166.7C342.7,166.6,342.7,166.6,342.7,166.7c0.1-0.2,0.1-0.3,0.2-0.4C343,166.2,343,166.3,342.7,166.7z
		"/>
	<path class="st11" d="M317.9,113.6c0,0.1,0.1,0.2,0.1,0.3C318.1,114,318,114,317.9,113.6C317.9,113.5,317.9,113.6,317.9,113.6z"/>
	<path class="st11" d="M347.5,145.2c0,0.1,0,0.2,0,0.3C347.6,145.8,347.5,146,347.5,145.2L347.5,145.2z"/>
	<path class="st11" d="M347.9,165.2c0.1,0.1,0.1,0.1-0.3-0.2h0.1C347.7,165.1,347.8,165.1,347.9,165.2z"/>
	<path class="st11" d="M346.5,164.7L346.5,164.7c-0.3,0-0.4,0-0.4,0C346.2,164.7,346.4,164.7,346.5,164.7z"/>
	<path class="st11" d="M292,185.2c0.1,0,0.1-0.1,0.2-0.1C292.2,185.2,292.1,185.2,292,185.2L292,185.2z"/>
	<polygon class="st11" points="326.2,174.3 326.2,174.3 326.2,174.3 	"/>
	<path class="st11" d="M343.5,171.3C343.4,171.1,343.4,171.1,343.5,171.3L343.5,171.3z"/>
	<path class="st11" d="M346.3,172.5L346.3,172.5c-0.1,0-0.1,0-0.2,0C346.2,172.5,346.3,172.5,346.3,172.5z"/>
	<path class="st11" d="M313.5,94.5C313.4,94.4,313.4,94.4,313.5,94.5C313.4,94.4,313.4,94.4,313.5,94.5z"/>
	<path class="st11" d="M239.3,34.3L239.3,34.3C239.3,34.2,239.2,33.8,239.3,34.3z"/>
	<path class="st11" d="M303.6,112c0.1,0,0.1,0.1,0.2,0.2C303.7,112.1,303.6,112,303.6,112z"/>
	<path class="st11" d="M276.6,175.8C276.4,176,276.5,175.9,276.6,175.8L276.6,175.8z"/>
	<path class="st11" d="M297.1,185.6c-0.3,0-0.3,0,0.1,0h0.1H297.1z"/>
	<path class="st11" d="M325.6,174.4c-0.2,0-0.3,0-0.4-0.1C325.2,174.3,325.4,174.3,325.6,174.4z"/>
	<path class="st11" d="M326.6,174C326.7,173.9,326.8,173.9,326.6,174L326.6,174z"/>
	<path class="st11" d="M277.3,190.8c0.1,0.1,0.3,0.1,0.4,0.1C277.5,190.9,277.4,190.8,277.3,190.8L277.3,190.8z"/>
	<g>
		<path class="st12" d="M332.8,125.6c-2.6-0.4-5.1-0.4-7.5,0c0.3-1.1,0.6-2.2,0.8-3.4c1.5-10.5-4.8-20.3-14.7-24.8
			c-1.6-7.6-7.4-14.1-15.3-17c2.5-5.3,3.6-11.3,3-17.6c-1.8-18.4-18.2-31.9-36.6-30c-3.3,0.3-6.5,1.1-9.5,2.4c0.1-1.6,0-3.3-0.1-4.9
			c-1.8-18.4-18.2-31.9-36.6-30c-8.3,0.8-15.6,4.7-21,10.3c0.1,0,0.2-0.1,0.2-0.1c4.4-2.4,9.5-3.7,14.6-3.6
			c8.1,0.2,16,4.2,21.4,10.1c6.2,6.9,8.8,16.3,8,25.5c0,0.4-0.1,0.8-0.1,1.2c0,0.2,0,0.4-0.1,0.6c-0.2,1-0.3,2.1-0.4,3.2
			c0,0.2,0,0.5,0.1,0.7c1.1-0.5,2.2-1,3.4-1.5c11-4.1,25-2.5,34.1,5.2c7.9,6.8,12.7,18.1,6.3,27.6c-0.9,1.3-2.4,2.7-2.7,4.2
			c2.7,0,5.1,0.1,7.6,1.2c4.4,1.9,7.8,5.9,9.3,10.4c1.3,3.8,1.3,8.1-0.1,11.8c1.8,0.3,3.6,0.6,5.2,1.5c2.2,1.2,4.1,3,5.5,5.1
			s2.3,4.5,2.6,7c0.3,2.5-0.1,5-1.2,7.2c-0.5,1-1.2,1.9-1.9,2.8c1.2-0.3,2.4-0.5,3.7-0.6c4.4-0.4,8.8,0.4,12.8,2.2
			c3.6,1.2,7,3.3,9.4,6.3c4.5,5.7,6.2,15.1-0.4,19.9c-2,1.4-4.3,2.1-6.7,2.2c-2.4,0.1-4.8-0.4-7.1-1.2c-0.1,0.2-0.1,0.4-0.2,0.6
			c-0.6,4.4-2.5,7.8-6.1,10.8c-3.8,3.3-8.6,4.9-13.7,5c-0.9,0-1.8,0-2.7-0.1c-0.4,0-0.8-0.1-1.2-0.1c-0.2,0-0.4,0-0.6-0.1
			c0,0,0,0-0.2,0H294l0,0c-1.9-0.3-3.7-0.7-5.5-1.3c-1-0.3-1.9-0.6-2.8-1c-0.1,0-0.2-0.1-0.3-0.1c-0.8,0.9-1.7,1.7-2.7,2.4
			c-2.3,1.8-4.9,3.2-7.6,4.4c-2.7,1.1-5.5,2-8.3,2.5c-1.5,0.3-3.1,0.5-4.7,0.5c-1.8,0-3.6-0.2-5.3-0.6c-0.9-0.2-1.8-0.5-2.7-0.8
			c-2.4-0.4-4.8-1.1-7-2.2c-0.4-0.2-0.7-0.2-1-0.1c4,4.3,9.7,7.4,16.2,8.3c6.9,1,13.6-0.7,18.8-4.1c1.4,4.2,5.3,7.5,10.3,8.2
			c6,0.8,11.5-2.3,13.4-7.3c7.6-1.5,14.1-6.2,17.4-12.7c1.3,0.4,2.7,0.7,4.1,0.9c14.2,2,27.1-7,28.9-19.9
			C357,139.6,346.9,127.5,332.8,125.6z"/>
	</g>
	<path class="st13" d="M129.3,45.9c0.3,2.7,0.8,5.3,1.7,7.7c-5.7,4.5-9.8,10.8-11.6,17.9c-4.1-2.6-8.9-4.2-14.1-4.2
		C93,67.3,82.7,75.9,80,87.4c-2-0.4-4-0.7-6.1-0.7c-15.3,0-27.7,12.4-27.7,27.7c0,1.9,0.2,3.7,0.5,5.4
		c-13.4,2.7-23.6,17.1-23.6,34.6c0,19.4,12.6,35.1,28.1,35.1c5.9,0,11.4-2.3,16-6.2c4.7,8.5,13.8,14.3,24.2,14.3
		c6.8,0,13.1-2.5,17.9-6.6l0.7-1.2c-2.5,3.5-7.1,5.3-11.4,5.2c-4.3,0-8.5-1.6-12.4-3.7c-8-4.3-15-11.1-18.3-19.6
		c-7.2,4.4-17.2,2.2-23-3.9c-5.8-6.1-7.7-15.2-6.4-23.5c0.7-4.7,2.3-9.3,5.2-13.1s7-6.7,11.7-7.6c-4.4-8-1.9-18.8,4.9-25
		c6.7-6.2,16.8-8,25.7-6l0.3-0.2c0.2-5.2,3.6-9.8,8-12.5s9.7-3.6,14.8-3.8c6.5-0.2,13,0.7,19.1,2.7l0.1-0.4
		c-0.8-8.5,3.8-17.3,11.4-21.4c-7.1-13.2-5.2-30.7,4.7-42l-0.6,0.2C133.8,21.8,128,33.4,129.3,45.9z"/>
	<path class="st5" d="M191.2,461.4V105.6c-1,0.7-1.7,1.8-1.7,3.1l-9.9,352.7L191.2,461.4L191.2,461.4z"/>
</g>
<ellipse class="st14" cx="83.5" cy="374.1" rx="50.3" ry="5.6"/>
</svg>
