<?xml version="1.0" encoding="utf-8"?>
<!-- Generator: Adobe Illustrator 23.0.1, SVG Export Plug-In . SVG Version: 6.00 Build 0)  -->
<svg version="1.1" id="圖層_1" xmlns="http://www.w3.org/2000/svg" xmlns:xlink="http://www.w3.org/1999/xlink" x="0px" y="0px"
	 viewBox="0 0 271.3 360.1" style="enable-background:new 0 0 271.3 360.1;" xml:space="preserve">
<style type="text/css">
	.st0{fill:#FFFFFF;}
	.st1{fill:none;stroke:#30D8A0;stroke-width:0.9434;stroke-miterlimit:10;}
	.st2{fill:#004F74;}
	.st3{fill:none;stroke:#004F74;stroke-width:1.1645;stroke-linecap:round;stroke-linejoin:round;stroke-miterlimit:10;}
	.st4{fill:none;stroke:#004F74;stroke-width:1.1395;stroke-linecap:round;stroke-linejoin:round;stroke-miterlimit:10;}
	.st5{fill:#009D9B;}
	.st6{fill:#008DC5;}
</style>
<g>
	<g>
		<rect class="st0" width="271.3" height="360.1"/>
	</g>
	<rect x="10" y="10.5" class="st1" width="251.3" height="339.2"/>
	<g>
		<g>
			<g>
				<path class="st2" d="M140.5,211.4c-4-0.2-7.9-1.3-11.2-2.9c-4.8-2.3-8.7-5.4-13.1-8.1c-7.6-4.8-17.7-9.5-28.5-9.8
					c-11.2-0.3-22.5,4.7-30.5,9.8c-4.3,2.7-8.2,5.9-13.1,8.1c-3.6,1.7-8,2.9-12.3,2.9L140.5,211.4z"/>
				<g>
					<path class="st2" d="M140.5,211c-8.8-0.6-15.5-5.4-22.6-10.2c-6-4-12.5-7.3-19.5-9.3c-14.7-4-29.3,0.4-41.8,8.4
						c-7.8,5-15,10.5-24.7,10.7c-0.9,0-0.9,1.4,0,1.4c12.2,0,24.4,0,36.6,0c19.5,0,39.1,0,58.6,0c4.5,0,8.9-0.2,13.4-0.2
						c0.7,0,0.7-1.1,0-1.1c-12.2,0-24.4-0.2-36.6-0.2c-19.5,0-39.1,0-58.6,0c-4.5,0-8.9,0-13.4,0c0,0.5,0,0.9,0,1.4
						c7.5-0.2,14-3.3,20-7.4c6.4-4.3,12.9-8.4,20.3-10.9c8-2.7,16.3-3.4,24.5-1.4c7.5,1.8,14.5,5.3,21,9.6
						c7.1,4.7,13.9,9.3,22.7,9.8C141,211.8,141,211,140.5,211z"/>
				</g>
			</g>
			<g>
				<path class="st2" d="M246.6,211.4c-4-0.2-7.9-1.3-11.2-2.9c-4.8-2.3-8.7-5.4-13.1-8.1c-7.6-4.8-17.7-9.5-28.5-9.8
					c-11.2-0.3-22.5,4.7-30.5,9.8c-4.3,2.7-8.2,5.9-13.1,8.1c-3.6,1.7-8,2.9-12.3,2.9L246.6,211.4z"/>
				<g>
					<path class="st2" d="M246.6,211c-8.8-0.6-15.5-5.4-22.6-10.2c-6-4-12.5-7.3-19.5-9.3c-14.7-4-29.3,0.4-41.8,8.4
						c-7.8,5-15,10.5-24.7,10.7c-0.9,0-0.9,1.4,0,1.4c12.2,0,24.4,0,36.6,0c19.5,0,39.1,0,58.6,0c4.5,0,8.9-0.2,13.4-0.2
						c0.7,0,0.7-1.1,0-1.1c-12.2,0-24.4-0.2-36.6-0.2c-19.5,0-39.1,0-58.6,0c-4.5,0-8.9,0-13.4,0c0,0.5,0,0.9,0,1.4
						c7.5-0.2,14-3.3,20-7.4c6.4-4.3,12.9-8.4,20.3-10.9c8-2.7,16.3-3.4,24.5-1.4c7.5,1.8,14.5,5.3,21,9.6
						c7.1,4.7,13.9,9.3,22.7,9.8C247.1,211.8,247.1,211,246.6,211z"/>
				</g>
			</g>
		</g>
		<g>
			<path class="st2" d="M46,238.6c-1.8,8.6-5.7,15.1-10.3,18.5c-0.8-1-2.5-3-3.6-3.7c3.5-2.3,6.5-6.4,8.2-11.4h-7.3v-4.7h9.2
				l0.8-0.2L46,238.6z M66.4,235.8c-2.9,2.8-6.3,6-9.1,8.1c2.6,4,6.1,7.1,10.5,9c-1.1,1-2.4,3-3.1,4.3c-5.5-2.7-9.3-7.2-12.1-12.9
				v9.6c0,2.7-0.5,4.1-2.1,4.9c-1.5,0.8-3.8,0.8-7,0.8c-0.2-1.4-0.9-3.6-1.5-5c1.9,0.1,4.2,0.1,4.9,0.1c0.7,0,0.9-0.3,0.9-0.9v-19.9
				h-9.4v-4.8h13.9c-3.2-1.6-7.6-3.2-11-4.2l2.2-4.1c4.4,1,10.6,3.3,13.8,5.1l-2.4,4.6c-0.6-0.4-1.5-0.9-2.4-1.3v3.5
				c0.7,2.6,1.6,5.1,2.7,7.4c2.6-2.3,5.4-5.2,7.2-7.7L66.4,235.8z"/>
			<path class="st2" d="M101.3,247c-0.1-0.6-0.2-1.3-0.3-2c-6.7,1.1-7.9,1.5-8.7,1.9c-0.2-0.8-0.8-2.9-1.3-4.1
				c0.9-0.2,1.7-1.2,2.8-2.8c0.5-0.6,1.3-1.9,2.3-3.7c-2.7,0.4-3.5,0.6-4.1,0.9c-0.2-0.8-0.8-2.8-1.2-3.9c0.7-0.2,1.3-1,2-2.3
				c0.7-1.2,2.9-5.9,4.1-10.3l3.6,1.6c-1.2,3.4-2.9,7.1-4.6,10.1l2.4-0.2c0.9-1.8,1.7-3.7,2.4-5.6l3.4,2.3c-2,4.5-4.6,9.1-7.3,12.9
				l3.5-0.5c-0.3-1.1-0.5-2.3-0.8-3.2l3-0.9c0.9,2.8,1.7,6.5,2,8.7L101.3,247z M95.8,248.7c-0.3,3.9-0.9,8.1-1.7,10.8
				c-0.8-0.5-2.4-1-3.3-1.3c0.9-2.6,1.4-6.5,1.6-10.1L95.8,248.7z M99.3,248.1c0.5,3.1,0.8,7,0.9,9.6l-3.2,0.6
				c0-2.6-0.3-6.6-0.6-9.6L99.3,248.1z M102.6,247c0.7,2.3,1.5,5.4,1.8,7.5l-2.9,1.1c-0.3-2.1-1.1-5.3-1.7-7.7L102.6,247z
				 M119.2,253.5c2.5,0.9,5.1,2,6.8,2.8l-1.8,3.5c-2-1-5.3-2.5-8.1-3.7l1.2-2.5h-5.6l2.3,2.5c-3,1.4-6.7,3-9.5,4
				c-0.3-0.9-1-2.4-1.5-3.4c2.1-0.8,5-1.9,7.1-3h-5V241h19v12.5H119.2z M112.5,225.7h-8.9v-3.2h8.9v-1.8h4.4v1.8h8.5v3.2h-8.5v1.4
				h7.3v3h-19.3v-3h7.6V225.7z M103.7,231.2h21.6v8.5h-21.6V231.2z M107.4,236.7h2.7v-2.5h-2.7V236.7z M109,244.8h10.9v-1.3H109
				V244.8z M109,247.9h10.9v-1.3H109V247.9z M109,251h10.9v-1.3H109V251z M115.8,236.7v-2.5h-2.4v2.5H115.8z M121.5,234.2h-2.4v2.5
				h2.4V234.2z"/>
			<path class="st2" d="M163.2,252.9c-0.6-0.5-1.5-1.3-2.5-2.2v8.6h-4.2v-7.5c-1.6,2.2-3.3,4.1-5.2,5.3c-0.3-1.3-1.1-3.3-1.8-4.6
				c2.4-1.4,5-3.9,6.7-6.4h-5.5v-4.3h5.8v-4.1h4.2v4.1h5.3v4.3h-5.3v0.1c1.5,1,5,3.4,6,4.1L163.2,252.9z M164.9,230.5
				c-3.3,4-7.8,7.1-12.6,9c-0.6-1.2-1.8-3-2.7-3.9c4.3-1.4,8.5-3.8,11.4-6.8h-9.7v-4.3h13.6v-3.8h4.5v3.8H183v4.3h-9.6
				c4,2,9.3,4.8,10.8,5.7l-1.4,4.6c-2.9-2.2-9.4-6.3-13.4-8.6v8.9h-4.5V230.5z M177.5,246.4c2,2.8,5.1,5.6,7.7,7.1
				c-1,1-2.4,2.7-3.2,3.9c-1.7-1.4-3.5-3.6-5.1-6v8.3h-4.2v-8.3c-2,2.5-4.3,4.7-6.7,6.1c-0.6-1-1.8-2.7-2.8-3.5
				c3.3-1.5,6.7-4.5,8.8-7.6h-4.7v-4.3h5.4v-4.2h4.2v4.2h6.8v4.3H177.5z"/>
			<path class="st2" d="M222.2,246.1c-0.7-1.4-1.8-3.4-2.9-5.2v18.8h-4.4V243c-1.4,3.8-3,7.3-4.8,9.7c-0.5-1.4-1.5-3.5-2.2-4.8
				c2.6-3.3,5.1-8.8,6.4-13.8h-5.3v-4.7h5.9v-8.6h4.4v8.6h4.9v4.7h-4.9v0.7c1.1,1.3,4.9,6,5.7,7.1L222.2,246.1z M236.9,234
				c1.6,5.7,4.1,11.5,6.9,15c-1.1,0.9-2.6,2.6-3.3,3.8c-1.7-2.5-3.2-6.1-4.4-9.9v16.7h-4.5v-16.9c-1.8,4.5-4,8.5-6.5,11.2
				c-0.5-1.4-1.7-3.3-2.5-4.6c3.5-3.7,6.5-9.6,8.3-15.4h-5.5v-4.7h6.2v-8.6h4.5v8.6h6.6v4.7H236.9z"/>
		</g>
		<g>
			<g>
				<path d="M22.9,216.7c0.2,0,0.2-0.3,0-0.3C22.8,216.4,22.8,216.7,22.9,216.7L22.9,216.7z"/>
			</g>
		</g>
		<g>
			<g>
				<g>
					<g id="Tree_9_00000178923934250675328690000011077909462848846015_">
						<path class="st2" d="M140.6,197.1c3,2,7,2.4,10.3,1.2c3.8-1.4,6.8-4.8,7.8-8.7c1.1-3.9,0.3-8.2-1.9-11.6
							c2.7-2.8,3.4-7.3,1.7-10.8c-1.7-3.5-5.7-5.7-9.5-5.3c-0.7-2-1.8-4-3.3-5.5c-1.5-1.5-3.5-2.7-5.6-2.9c-2.5-0.3-5,0.7-7,2.3
							c-1.9,1.6-3.3,3.8-4.2,6.1c-3.8-0.3-7.7,2.1-9.3,5.6c-1.6,3.5-0.8,7.9,2,10.6c0,0-1.3,2.3-1.4,2.5c-0.4,0.9-0.7,1.9-0.8,2.8
							c-0.3,2-0.3,4,0.2,5.9c1,4,3.7,7.3,7.5,8.8c0.9,0.4,1.9,0.6,2.9,0.8c3.3,0.5,6.8-0.5,9.4-2.6
							C139.9,196.6,140.3,196.9,140.6,197.1z"/>
						<g>
							<path class="st2" d="M136.4,212.6l0.9-20.9l-8.4-7.6c-0.6-0.5-0.7-1.3-0.3-1.8c0.2-0.3,0.5-0.4,0.9-0.4
								c0.3,0,0.7,0.1,0.9,0.3l7,5.3l0.3-5.9l-4.4-4.1c-0.4-0.4-0.4-1-0.1-1.4c0.2-0.2,0.5-0.4,0.8-0.4c0.2,0,0.4,0.1,0.6,0.2
								l3.3,2.4l0.2-3.8c0-0.8,0.7-1.4,1.5-1.4c0.8,0,1.5,0.6,1.5,1.4l0.3,7.6l5.7-4.4c0.2-0.2,0.5-0.3,0.8-0.3
								c0.3,0,0.6,0.1,0.8,0.4c0.4,0.4,0.3,1.1-0.2,1.6l-7,6.3l1.2,26.6H136.4z"/>
							<path class="st0" d="M139.6,173.7c0.6,0,1.1,0.5,1.1,1.1l0.4,8.4l6.3-4.8c0.2-0.1,0.4-0.2,0.6-0.2c0.2,0,0.4,0.1,0.5,0.2
								c0.2,0.3,0.2,0.8-0.2,1.1l-7.1,6.4l1.2,26.4h-5.5l0.9-20.7l-8.5-7.7c-0.4-0.4-0.5-0.9-0.2-1.3c0.1-0.2,0.4-0.3,0.6-0.3
								c0.2,0,0.5,0.1,0.7,0.3l7.6,5.8l0.3-6.8l-4.5-4.2c-0.2-0.2-0.3-0.6-0.1-0.8c0.1-0.1,0.3-0.2,0.5-0.2c0.1,0,0.3,0,0.4,0.1
								l3.9,2.9l0.2-4.5C138.5,174.1,139,173.7,139.6,173.7 M139.6,172.9c-1,0-1.8,0.8-1.9,1.8l-0.1,3.1l-2.7-2
								c-0.2-0.2-0.5-0.3-0.8-0.3c-0.4,0-0.8,0.2-1.1,0.5c-0.5,0.6-0.4,1.4,0.1,1.9l4.3,4l-0.2,5l-6.4-4.9c-0.3-0.3-0.8-0.4-1.2-0.4
								c-0.5,0-0.9,0.2-1.2,0.5c-0.5,0.7-0.4,1.7,0.3,2.3l8.2,7.5l-0.9,20.3l0,0.8h0.8h5.5h0.8l0-0.8l-1.2-26l6.8-6.2
								c0.7-0.6,0.8-1.5,0.3-2.1c-0.3-0.3-0.7-0.5-1.1-0.5c-0.4,0-0.7,0.1-1.1,0.4l-5.1,3.9l-0.3-6.9
								C141.4,173.7,140.6,172.9,139.6,172.9L139.6,172.9z"/>
						</g>
					</g>
					<g>
						<path class="st2" d="M116.9,205.6c-5.8,0-10.6-4.7-10.6-10.6s4.7-10.6,10.6-10.6s10.6,4.7,10.6,10.6S122.7,205.6,116.9,205.6z
							"/>
						<path class="st0" d="M116.9,184.8c5.6,0,10.2,4.6,10.2,10.2s-4.6,10.2-10.2,10.2c-5.6,0-10.2-4.6-10.2-10.2
							S111.3,184.8,116.9,184.8 M116.9,184c-6.1,0-11,4.9-11,11s4.9,11,11,11c6.1,0,11-4.9,11-11S122.9,184,116.9,184L116.9,184z"/>
					</g>
					<g>
						<path class="st2" d="M161.6,205.6c-5.8,0-10.6-4.7-10.6-10.6s4.7-10.6,10.6-10.6s10.6,4.7,10.6,10.6S167.5,205.6,161.6,205.6z
							"/>
						<path class="st0" d="M161.6,184.8c5.6,0,10.2,4.6,10.2,10.2s-4.6,10.2-10.2,10.2c-5.6,0-10.2-4.6-10.2-10.2
							S156,184.8,161.6,184.8 M161.6,184c-6.1,0-11,4.9-11,11s4.9,11,11,11c6.1,0,11-4.9,11-11S167.7,184,161.6,184L161.6,184z"/>
					</g>
					<path class="st0" d="M118.6,212.2h-3.5l1.1-15.4c0-0.3,0.3-0.5,0.7-0.5l0,0c0.4,0,0.7,0.2,0.7,0.5L118.6,212.2z"/>
					<path class="st0" d="M163.4,212.2h-3.5l1.1-15.4c0-0.3,0.3-0.5,0.7-0.5l0,0c0.4,0,0.7,0.2,0.7,0.5L163.4,212.2z"/>
				</g>
				<g>
					<g>
						<g>
							<g>
								<path class="st2" d="M100,149.8l0.3,20.9C100.2,170.7,94.4,159,100,149.8z"/>
								<path class="st2" d="M100,149.8l0.3,20.9C100.2,170.7,105.7,158.9,100,149.8z"/>
							</g>
							<g>
								<path class="st2" d="M118.3,181.2l-18.1-10.5C100.2,170.7,107.5,181.5,118.3,181.2z"/>
								<path class="st2" d="M118.3,181.2l-18.1-10.5C100.2,170.7,113.2,171.7,118.3,181.2z"/>
							</g>
							<g>
								<path class="st2" d="M82.1,181.2l18.1-10.5C100.2,170.7,87.1,171.7,82.1,181.2z"/>
								<path class="st2" d="M82.1,181.2l18.1-10.5C100.2,170.7,92.8,181.5,82.1,181.2z"/>
							</g>
						</g>
						<polygon class="st2" points="102.1,211.3 98.1,211.3 99.4,171.7 100.8,171.7 						"/>
						<g>
							<path class="st2" d="M102.3,170.1c0.4,1.2-0.3,2.4-1.4,2.8c-1.2,0.4-2.4-0.3-2.8-1.4c-0.4-1.2,0.3-2.4,1.4-2.8
								C100.7,168.3,101.9,168.9,102.3,170.1z"/>
						</g>
					</g>
				</g>
				<g>
					<g>
						<g>
							<g>
								<path class="st2" d="M178.3,149.8l0.3,20.9C178.6,170.7,172.8,159,178.3,149.8z"/>
								<path class="st2" d="M178.3,149.8l0.3,20.9C178.6,170.7,184.1,158.9,178.3,149.8z"/>
							</g>
							<g>
								<path class="st2" d="M196.7,181.2l-18.1-10.5C178.6,170.7,185.9,181.5,196.7,181.2z"/>
								<path class="st2" d="M196.7,181.2l-18.1-10.5C178.6,170.7,191.6,171.7,196.7,181.2z"/>
							</g>
							<g>
								<path class="st2" d="M160.4,181.2l18.1-10.5C178.6,170.7,165.5,171.7,160.4,181.2z"/>
								<path class="st2" d="M160.4,181.2l18.1-10.5C178.6,170.7,171.2,181.5,160.4,181.2z"/>
							</g>
						</g>
						<polygon class="st2" points="180.5,211.3 176.5,211.3 177.8,171.7 179.2,171.7 						"/>
						<g>
							<path class="st2" d="M180.7,170.1c0.4,1.2-0.3,2.4-1.4,2.8c-1.2,0.4-2.4-0.3-2.8-1.4c-0.4-1.2,0.3-2.4,1.4-2.8
								C179.1,168.3,180.3,168.9,180.7,170.1z"/>
						</g>
					</g>
				</g>
			</g>
		</g>
		<g>
			<g>
				<path class="st2" d="M74.6,148.8l-2.1,1.2c-0.3-0.3-0.7-0.9-1-1.3c0,1.7-1.2,2.8-2.9,3.8c-3.6,2-7,0.4-9.1-3.3
					c-2-3.6-1.4-7.7,2.6-10c3.3-1.8,5.9-1.1,7.4,0.8l-2.7,1.5c-0.7-0.6-1.8-1.2-3.7-0.2c-2.4,1.3-2.1,3.9-0.7,6.3
					c1.3,2.4,3.4,3.8,5.7,2.5c2.1-1.2,1.9-2.8,1-4.4l0-0.1l-2.9,1.6l-1.2-2.2l5.7-3.2L74.6,148.8z"/>
				<path class="st2" d="M78.1,140.6l2.4,5.4l-2.9,1.3l-5.7-13.1l5.9-2.6c2.7-1.2,5.2-0.8,6.2,1.5c0.8,1.8,0.1,3.1-0.9,4.1
					c1.7-0.1,2.6,0.7,3.3,2.3l0.2,0.3c0.5,1.2,1.1,2.3,1.5,2.9l-2.8,1.2c-0.5-0.5-0.9-1.3-1.6-2.9l-0.2-0.3
					c-0.7-1.5-1.5-1.8-3.4-0.9L78.1,140.6z M77.2,138.5l2.2-1c1.4-0.6,2.4-1.5,1.8-2.9c-0.5-1.2-1.7-1.2-2.9-0.7l-2.6,1.1
					L77.2,138.5z"/>
				<path class="st2" d="M98.4,132.7l-6.5,2.1l1.2,3.7l7.2-2.4l0.4,2.4l-9.8,3.2l-4.5-13.6l9.8-3.2l0.8,2.3l-6.8,2.2l1,3.1l6.5-2.1
					L98.4,132.7z"/>
				<path class="st2" d="M111.8,129.5l-6.7,1.5l0.9,3.8l7.4-1.7l0.2,2.4l-10.1,2.3l-3.2-14l10-2.3l0.5,2.3l-7,1.6l0.7,3.2l6.7-1.5
					L111.8,129.5z"/>
				<path class="st2" d="M116.3,135l-1.6-14.2l4.1-0.5c5.7,8.1,6.6,9.5,6.9,10.1l0,0c-0.4-1.7-0.6-4-0.9-6.3l-0.5-4.4l2.9-0.3
					l1.6,14.2l-3.9,0.5c-6.1-9-6.8-10-7.1-10.6l0,0c0.3,1.8,0.6,4.3,0.9,6.8l0.5,4.4L116.3,135z"/>
				<path class="st2" d="M138.7,119l10.1,0.4l-0.1,2.4l-6.9-0.3l-0.1,3.6l6.5,0.3l-0.1,2.4l-6.5-0.3l-0.2,5.9l-3.2-0.1L138.7,119z"
					/>
				<path class="st2" d="M165,128.7c-0.6,4.1-3.3,7-8.2,6.3c-4.8-0.7-6.4-4.4-5.8-8.4c0.5-3.5,3.2-6.9,8.1-6.1
					C164,121.2,165.6,124.9,165,128.7z M154.3,127.1c-0.4,2.8,0.5,5.3,3,5.6c2.7,0.4,4-1.5,4.5-4.5c0.4-2.6-0.2-5.1-3-5.5
					C156.2,122.4,154.8,124.4,154.3,127.1z"/>
				<path class="st2" d="M171.4,131.7l-1.5,5.7l-3-0.8l3.7-13.8l6.2,1.7c2.9,0.8,4.6,2.6,3.9,5.1c-0.5,1.9-1.8,2.5-3.2,2.6
					c1.4,0.9,1.6,2.2,1.2,3.9l-0.1,0.4c-0.3,1.2-0.6,2.4-0.6,3.2l-3-0.8c-0.1-0.6,0.1-1.6,0.6-3.3l0.1-0.4c0.4-1.6-0.1-2.3-2.1-2.8
					L171.4,131.7z M171.9,129.4l2.3,0.6c1.5,0.4,2.8,0.4,3.2-1.2c0.3-1.3-0.6-2-1.8-2.3l-2.8-0.7L171.9,129.4z"/>
				<path class="st2" d="M192.2,138.1l-6.4-2.4l-1.3,3.6l7.1,2.6l-1.2,2.1l-9.7-3.6l5-13.4l9.7,3.6l-0.8,2.3l-6.7-2.5l-1.1,3
					l6.4,2.4L192.2,138.1z"/>
				<path class="st2" d="M196.9,142.4c-0.3,1.3,0.1,2.4,1.6,3.2c1.6,0.8,2.5,0.4,2.9-0.5c0.6-1.2,0-2-1.8-3.5
					c-2.9-2.4-3.5-4-2.7-5.9c1.1-2.4,3.9-2.7,6.6-1.4c3.4,1.6,4.1,3.9,3.3,6.1l-2.9-1.3c0.3-1,0.1-2-1.4-2.7
					c-1.3-0.6-2.2-0.4-2.6,0.6c-0.5,1,0.1,1.6,1.9,3.1c3.2,2.7,3.5,4.4,2.6,6.3c-1,2.1-3.4,3.2-7.1,1.4c-3.1-1.5-4.5-3.9-3.4-6.5
					L196.9,142.4z"/>
				<path class="st2" d="M213.5,142.1l-3.7-2.1l1.2-2.1l10.3,5.8l-1.2,2.1l-3.7-2.1l-5.9,10.4l-2.8-1.6L213.5,142.1z"/>
			</g>
			<line class="st3" x1="41.2" y1="158.9" x2="53.7" y2="150.5"/>
			<line class="st3" x1="232.8" y1="158.9" x2="220.3" y2="150.5"/>
		</g>
		<line class="st4" x1="32" y1="268.4" x2="248.3" y2="268.4"/>
	</g>
	<g>
		<path class="st5" d="M146,70.5C146,70.5,146,70.4,146,70.5c0,0,0,0.1,0.4,0.4c2.3,1.8,3.5,3.6,3.5,7.2c0,4.5-3.9,7.8-8.4,7.8V92
			c7.7,0,14.8-5.5,14.8-13.4c0-2.8-0.8-5.6-2.7-8.3c0.1-0.1,0.5-0.6,0.8-1.2c0.5-0.8,0.6-1.8,0.6-5.2V49.3h-19.8V61h-6.3v6.4h12.8
			V55.9h7.1v10C148.7,65.8,149,68.6,146,70.5"/>
		<path class="st6" d="M128.8,49.3H127v0c-3.4,0.1-6.9,1.1-9.2,3.8c-2.5,2.8-2.7,5.3-2.7,9.4V92h20.1V80.5h6.4V74h-12.8v11.7h-7.3
			V61.2c0,0-0.5-5.3,5.9-5.5l1.5-0.1L128.8,49.3z"/>
	</g>
	<g>
		<g>
			<path class="st2" d="M58.1,280.2c0,0,0,0.6,0,0.9c-0.3,8-0.6,10.9-1.3,11.8c-0.4,0.5-0.8,0.7-1.3,0.8c-0.5,0.1-1.3,0.1-2.1,0
				c0-0.5-0.2-1.3-0.5-1.8c0.7,0.1,1.4,0.1,1.7,0.1c0.3,0,0.4-0.1,0.6-0.3c0.5-0.6,0.8-3.1,1-9.7H54c-0.2,4.7-0.9,9.3-3.2,12.2
				c-0.3-0.4-0.9-1-1.4-1.2c2.1-2.6,2.7-6.7,2.8-10.9h-2.4v-1.7h2.4c0-1.1,0-2.2,0-3.3h1.7c0,1.1,0,2.2,0,3.3H58.1z M65.8,279v14.6
				H64v-1.2h-3.1v1.4h-1.7V279H65.8z M64,290.7v-10h-3.1v10H64z"/>
			<path class="st2" d="M80.4,277.9c0,3.4,0.4,10.3,7.4,14.5c-0.4,0.3-1,1.1-1.3,1.6c-4.2-2.6-6.2-6.4-7.1-9.9
				c-1.4,4.6-3.7,7.9-7.2,9.9c-0.3-0.4-1.1-1.1-1.6-1.5c4-2.1,6.2-5.8,7.3-10.9l0.9,0.2c-0.1-0.8-0.2-1.5-0.3-2.2h-4.4v-1.8H80.4z"
				/>
			<path class="st2" d="M97.8,289.2h-3.6v1.7h-1.6v-12.4h5.1V289.2z M94.2,280.1v7.4h2v-7.4H94.2z M106.2,292.2c1,0,1.2-0.5,1.3-2.5
				c0.4,0.3,1.1,0.6,1.6,0.7c-0.3,2.6-0.8,3.5-2.8,3.5h-4.2c-2.2,0-2.9-0.5-2.9-2.9V278h9.2v10h-1.7v-1.1h-5.8v4
				c0,1.1,0.2,1.3,1.4,1.3H106.2z M100.9,279.6v5.7h2.1v-5.7H100.9z M106.7,279.6h-2.2v5.7h2.2V279.6z"/>
			<path class="st2" d="M115.3,291.1c0-1,0.8-1.7,1.7-1.7c0.9,0,1.7,0.7,1.7,1.7c0,1-0.8,1.6-1.7,1.6
				C116,292.7,115.3,292.1,115.3,291.1z M115.7,281l-0.1-2.5h2.7l-0.1,2.5l-0.6,6.9h-1.5L115.7,281z"/>
			<path class="st2" d="M131.6,284.7c-0.9,3.9-3,6.7-5.3,8.3c-0.3-0.4-1-1.1-1.4-1.3c1.9-1.1,3.6-3.2,4.5-5.7h-4v-1.7h4.8l0.3-0.1
				L131.6,284.7z M141.5,283.2c-1.4,1.4-3.2,2.9-4.7,3.9c1.3,1.9,3.1,3.5,5.4,4.3c-0.4,0.4-0.9,1.1-1.2,1.5c-2.9-1.3-5-3.6-6.4-6.6
				v5.6c0,1-0.2,1.5-0.9,1.8c-0.7,0.3-1.7,0.3-3.3,0.3c-0.1-0.5-0.4-1.3-0.6-1.8c1,0,2.2,0,2.5,0c0.3,0,0.4-0.1,0.4-0.4v-9.6h-4.9
				v-1.7h6.8v1.5c0.4,1.3,0.9,2.5,1.4,3.6c1.4-1.1,3-2.5,4-3.7L141.5,283.2z M136.1,280.9c-1.5-0.9-4.5-2-6.8-2.6l0.9-1.5
				c2.2,0.5,5.3,1.5,6.8,2.4L136.1,280.9z"/>
			<path class="st2" d="M148.3,289.2c-0.2,1.8-0.5,3.6-0.9,4.8c-0.3-0.2-0.9-0.4-1.3-0.5c0.4-1.2,0.7-3,0.9-4.6L148.3,289.2z
				 M151.3,288.4c0-0.3-0.1-0.6-0.2-1c-3.5,0.5-4,0.7-4.4,0.9c-0.1-0.3-0.3-1.1-0.5-1.5c0.4-0.1,0.8-0.6,1.3-1.3
				c0.2-0.3,0.7-1,1.3-1.9c-1.6,0.2-2,0.3-2.3,0.4c-0.1-0.3-0.3-1-0.5-1.4c0.3-0.1,0.6-0.5,1-1c0.4-0.5,1.5-2.7,2.1-4.7l1.4,0.6
				c-0.7,1.7-1.6,3.4-2.5,4.8l1.6-0.1c0.4-0.8,0.9-1.7,1.2-2.5l1.3,0.8c-1,2.1-2.4,4.2-3.8,6l2.3-0.3c-0.1-0.6-0.3-1.1-0.5-1.7
				l1.2-0.3c0.4,1.3,0.9,3,1,3.9L151.3,288.4z M149.9,288.9c0.2,1.4,0.4,3.1,0.5,4.3l-1.3,0.2c0-1.2-0.2-3-0.4-4.4L149.9,288.9z
				 M151.5,288.4c0.4,1.1,0.8,2.5,1,3.4l-1.2,0.4c-0.2-0.9-0.5-2.4-0.9-3.5L151.5,288.4z M159.5,291.4c1.3,0.5,2.7,1,3.6,1.5
				l-0.7,1.2c-1-0.5-2.5-1.2-3.9-1.7l0.6-1h-3l1,1c-1.4,0.7-3.2,1.4-4.5,1.8c-0.1-0.3-0.4-0.9-0.7-1.2c1.1-0.4,2.7-1.1,3.8-1.6H153
				v-5.5h9.2v5.5H159.5z M156.8,278.9h-4.6v-1.2h4.6v-0.9h1.7v0.9h4.3v1.2h-4.3v0.8h3.7v1.1H153v-1.1h3.8V278.9z M152.4,281.5h10.4
				v3.6h-10.4V281.5z M153.8,284h1.7v-1.4h-1.7V284z M154.5,287.5h6.1v-0.7h-6.1V287.5z M154.5,288.9h6.1v-0.7h-6.1V288.9z
				 M154.5,290.4h6.1v-0.8h-6.1V290.4z M158.5,284v-1.4h-1.6v1.4H158.5z M161.3,282.6h-1.5v1.4h1.5V282.6z"/>
			<path class="st2" d="M172.1,287.8c-0.2-0.6-0.6-1.5-1-2.4v8.7h-1.5v-7.5c-0.4,1.6-1,3.1-1.6,4.1c-0.2-0.4-0.6-1.1-0.8-1.4
				c1-1.6,1.9-4.4,2.3-6.8h-1.9v-1.6h2v-4h1.5v4h1.6v1.6h-1.6v0.9c0.5,0.8,1.6,2.8,1.8,3.3L172.1,287.8z M179.4,291.1l0.1,1.5
				c-2.4,0.4-5,0.8-6.9,1.1l-0.4-1.5c1.1-0.1,2.4-0.3,3.9-0.6l-0.1,0c0.4-0.9,0.8-2.4,1-3.4l1.5,0.5c-0.3,0.9-0.7,1.9-1,2.7
				L179.4,291.1z M175.1,280h-2.5v-1.4h2.5v-1.8h1.5v1.8h2.6v1.4h-2.6v1.4h2.2v1.4H173v-1.4h2.1V280z M178.7,288h-5.5v-4.3h5.5V288z
				 M174,291.6c-0.1-0.8-0.4-2-0.7-3l1.3-0.4c0.4,0.9,0.7,2.1,0.8,2.9L174,291.6z M177.2,284.9h-2.6v1.8h2.6V284.9z M180.1,289.1
				c-0.1-1.2-0.5-3.2-1-4.7l1.3-0.4c0.5,1.5,1,3.4,1.1,4.6L180.1,289.1z M184.4,282.6h-1.1v9.6c0,0.9-0.2,1.4-0.7,1.7
				c-0.5,0.3-1.3,0.3-2.5,0.3c-0.1-0.4-0.3-1.2-0.5-1.6c0.8,0,1.5,0,1.7,0c0.2,0,0.3-0.1,0.3-0.3v-9.6h-2.6v-1.6h2.6v-4.1h1.6v4.1
				h1.1V282.6z"/>
			<path class="st2" d="M195,281.5c-0.6,1-1.3,2-2,2.9v9.8h-1.7v-7.9c-0.6,0.6-1.2,1.2-1.9,1.7c-0.2-0.4-0.9-1.1-1.2-1.5
				c1.9-1.4,3.9-3.6,5.2-5.7L195,281.5z M194.3,277.5c-1.3,1.7-3.2,3.6-4.9,4.8c-0.2-0.4-0.7-1.1-1-1.4c1.6-1,3.3-2.7,4.3-4.1
				L194.3,277.5z M205.4,284.7h-2.6v7.3c0,1-0.2,1.5-0.9,1.7c-0.7,0.2-1.8,0.3-3.5,0.3c-0.1-0.5-0.4-1.2-0.6-1.7c1.2,0,2.4,0,2.7,0
				c0.4,0,0.5-0.1,0.5-0.4v-7.2h-5.8v-1.7h10.3V284.7z M204.9,279.6h-9v-1.7h9V279.6z"/>
			<path class="st2" d="M226.3,281.1c0,0,0,0.6,0,0.8c-0.2,7.8-0.4,10.4-0.9,11.2c-0.4,0.6-0.8,0.7-1.4,0.8c-0.6,0.1-1.4,0.1-2.3,0
				c0-0.5-0.2-1.1-0.5-1.6c0.9,0.1,1.7,0.1,2,0.1c0.3,0,0.5-0.1,0.6-0.3c0.4-0.5,0.6-3,0.8-9.4h-2.2c-0.2,5.1-1,9.1-4.2,11.6
				c-0.3-0.5-0.8-1.1-1.3-1.4c0.1-0.1,0.3-0.2,0.4-0.3c-2.7,0.3-5.3,0.6-7.3,0.8l-0.3-1.5c1.1-0.1,2.4-0.2,3.9-0.3v-1.4h-3.4v-1.3
				h3.4V288h-3.3v-5.7h3.3v-1h-3.8V280h3.8v-1c-1.2,0.1-2.3,0.2-3.4,0.2c0-0.4-0.2-0.9-0.4-1.3c2.7-0.2,6.1-0.5,8-1l0.9,1.3
				c-1,0.2-2.2,0.4-3.5,0.6v1.1h3.7v1.1h2c0-1.3,0-2.6,0-4h1.7c0,1.4,0,2.7,0,4H226.3z M211.6,284.6h1.9v-1.1h-1.9V284.6z
				 M213.6,286.8v-1.1h-1.9v1.1H213.6z M215.2,291.5c1.2-0.1,2.4-0.2,3.5-0.4c1.5-2.1,1.9-4.9,2.1-8.4h-2v-1.4h-3.6v1h3.5v5.7h-3.5
				v0.9h3.6v1.3h-3.6V291.5z M217.1,284.6v-1.1h-2v1.1H217.1z M215.2,285.7v1.1h2v-1.1H215.2z"/>
		</g>
		<path class="st2" d="M42.1,285.8c0,1.4-1.2,2.6-2.6,2.6c-1.4,0-2.6-1.2-2.6-2.6c0-1.4,1.2-2.6,2.6-2.6
			C41,283.2,42.1,284.4,42.1,285.8z"/>
		<path class="st2" d="M243.7,285.8c0,1.4-1.2,2.6-2.6,2.6c-1.4,0-2.6-1.2-2.6-2.6c0-1.4,1.2-2.6,2.6-2.6
			C242.5,283.2,243.7,284.4,243.7,285.8z"/>
	</g>
</g>
</svg>
