<svg width="47" height="47" viewBox="0 0 47 47" fill="none" xmlns="http://www.w3.org/2000/svg">
<rect x="0.0634766" y="0.452148" width="46" height="46" rx="23" fill="#004DA0"/>
<g clip-path="url(#clip0_3109_599)">
<path d="M21.943 13.5225C21.8337 13.4542 21.7073 13.418 21.5783 13.418C21.4492 13.418 21.3228 13.4542 21.2135 13.5225L14.0722 18.9685L9.79305 18.7865C9.69985 18.7825 9.60683 18.7978 9.51988 18.8316C9.43294 18.8653 9.35396 18.9167 9.28797 18.9825C9.21695 19.0459 9.16022 19.1236 9.12152 19.2105C9.08282 19.2973 9.06304 19.3914 9.06348 19.4865V27.3125C9.06708 27.497 9.14215 27.673 9.27294 27.8035C9.40373 27.934 9.58006 28.0089 9.76498 28.0125H13.7215L21.1854 34.2145C21.31 34.3225 21.4694 34.3821 21.6344 34.3825C21.7316 34.4017 21.8317 34.4017 21.929 34.3825C22.0508 34.3282 22.154 34.2397 22.2263 34.1278C22.2985 34.016 22.3366 33.8856 22.3359 33.7525V14.1525C22.3361 14.0213 22.2994 13.8927 22.23 13.7813C22.1605 13.6699 22.0611 13.5802 21.943 13.5225V13.5225Z" fill="white"/>
<path d="M33.5884 33.7107C33.4064 33.7063 33.2321 33.6367 33.0973 33.5147C32.9679 33.3814 32.8955 33.2032 32.8955 33.0176C32.8955 32.8321 32.9679 32.6539 33.0973 32.5207C34.2302 31.3991 35.1286 30.0641 35.7403 28.5933C36.3521 27.1225 36.665 25.5451 36.6609 23.9527C36.6658 22.3601 36.3532 20.7824 35.7414 19.3115C35.1296 17.8406 34.2308 16.5058 33.0973 15.3846C32.9679 15.2514 32.8955 15.0732 32.8955 14.8877C32.8955 14.7021 32.9679 14.5239 33.0973 14.3906C33.1625 14.325 33.2401 14.273 33.3256 14.2374C33.4111 14.2019 33.5028 14.1836 33.5954 14.1836C33.688 14.1836 33.7797 14.2019 33.8651 14.2374C33.9506 14.273 34.0282 14.325 34.0934 14.3906C35.3551 15.644 36.3556 17.1342 37.037 18.7754C37.7185 20.4166 38.0675 22.1762 38.0639 23.9527C38.0668 25.729 37.7174 27.4884 37.036 29.1295C36.3545 30.7705 35.3545 32.2609 34.0934 33.5147C33.9551 33.6399 33.7752 33.7097 33.5884 33.7107V33.7107Z" fill="white"/>
<path d="M29.3794 31.6521C29.1943 31.6495 29.0178 31.574 28.8883 31.4421C28.7589 31.3089 28.6865 31.1307 28.6865 30.9451C28.6865 30.7596 28.7589 30.5813 28.8883 30.4481C29.7472 29.5974 30.4288 28.5854 30.8935 27.4705C31.3583 26.3555 31.5971 25.1597 31.5961 23.9521C31.5963 22.7447 31.3572 21.5491 30.8925 20.4342C30.4277 19.3194 29.7466 18.3072 28.8883 17.4561C28.7589 17.3229 28.6865 17.1446 28.6865 16.9591C28.6865 16.7736 28.7589 16.5953 28.8883 16.4621C29.0218 16.333 29.2004 16.2607 29.3864 16.2607C29.5723 16.2607 29.751 16.333 29.8845 16.4621C30.8745 17.4457 31.6594 18.6153 32.194 19.9032C32.7286 21.1912 33.0022 22.5721 32.9991 23.9661C33.0019 25.358 32.7281 26.7367 32.1935 28.0224C31.6588 29.308 30.874 30.4751 29.8845 31.4561C29.7484 31.585 29.567 31.6554 29.3794 31.6521V31.6521Z" fill="white"/>
<path d="M25.1704 29.5521C24.9854 29.5494 24.8088 29.4739 24.6793 29.342C24.5499 29.2088 24.4775 29.0306 24.4775 28.8451C24.4775 28.6595 24.5499 28.4813 24.6793 28.3481C25.2601 27.7706 25.7208 27.0844 26.0353 26.3288C26.3497 25.5732 26.5115 24.7632 26.5115 23.9451C26.5115 23.1269 26.3497 22.3169 26.0353 21.5613C25.7208 20.8057 25.2601 20.1195 24.6793 19.5421C24.5499 19.4088 24.4775 19.2306 24.4775 19.0451C24.4775 18.8595 24.5499 18.6813 24.6793 18.5481C24.8128 18.4189 24.9915 18.3467 25.1774 18.3467C25.3633 18.3467 25.542 18.4189 25.6755 18.5481C27.1037 19.9827 27.9053 21.9228 27.9053 23.9451C27.9053 25.9673 27.1037 27.9074 25.6755 29.342C25.5416 29.4761 25.36 29.5516 25.1704 29.5521V29.5521Z" fill="white"/>
</g>
<defs>
<clipPath id="clip0_3109_599">
<rect width="29" height="21" fill="white" transform="translate(9.06348 13.4521)"/>
</clipPath>
</defs>
</svg>
